<?xml version="1.0" encoding="utf-8"?>
<!-- Generator: Adobe Illustrator 16.0.0, SVG Export Plug-In . SVG Version: 6.00 Build 0)  -->
<!DOCTYPE svg PUBLIC "-//W3C//DTD SVG 1.1//EN" "http://www.w3.org/Graphics/SVG/1.1/DTD/svg11.dtd">
<svg version="1.1" id="Layer_1" xmlns="http://www.w3.org/2000/svg" xmlns:xlink="http://www.w3.org/1999/xlink" x="0px" y="0px"
	 width="34px" height="33px" viewBox="0 0 34 33" enable-background="new 0 0 34 33" xml:space="preserve">
<g>
	<path fill="#412747" d="M23.358,21.737l-0.248-0.142c-0.873-0.499-1.4-0.8-1.893-0.8c-0.612,0-1.069,0.457-1.779,1.393
		c-0.049,0.049-0.141,0.166-0.239,0.295c-0.062,0.079-0.124,0.162-0.181,0.232c-0.25,0.306-0.436,0.346-0.569,0.346
		c-0.244,0-0.545-0.156-0.911-0.361c-2.552-1.418-4.744-3.527-6.704-6.447c-0.167-0.25-0.319-0.455-0.45-0.63
		c-0.622-0.836-0.634-0.853,0.756-2.13l0.305-0.275c0.214-0.192,0.427-0.383,0.633-0.588c0.33-0.327,0.387-0.671,0.181-1.115
		c-1.101-2.389-2.463-4.425-4.046-6.053c-0.419-0.431-0.753-0.53-1.331-0.36c-1.837,0.541-3.47,1.274-4.997,2.242
		c-0.608,0.386-0.823,0.791-0.79,1.496c0.087,1.84,0.612,3.731,1.654,5.95c2.931,6.231,7.583,11.182,13.831,14.714
		c2.496,1.412,5.072,2.268,7.862,2.614c0.062,0.012,0.121,0.017,0.18,0.017c0.473,0,0.789-0.371,1.037-0.732
		c1.2-1.758,1.903-3.708,2.383-5.21c0.162-0.509,0.067-0.862-0.337-1.259C26.521,23.771,25.099,22.726,23.358,21.737z M9.741,12.132
		c-0.034,0.04-0.069,0.08-0.105,0.118l-0.063,0.067c-1.923,2.018-2.032,2.229-0.527,4.672c2.325,3.775,5.346,6.477,8.976,8.029
		c0.26,0.111,0.513,0.211,0.77,0.211c0.336,0,0.62-0.17,0.893-0.536c0.062-0.083,0.342-0.433,0.343-0.434
		c0.751-0.959,1.111-1.267,1.487-1.267c0.387,0,0.894,0.326,1.731,0.865l0.34,0.218c0.396,0.253,0.776,0.552,1.146,0.841l0.297,0.23
		c1.197,0.926,1.197,0.926,0.602,2.271c-0.222,0.498-0.475,0.994-0.721,1.475c-0.107,0.209-0.215,0.416-0.318,0.625
		c-0.255,0.51-0.416,0.6-0.662,0.6l0,0c-0.078,0-0.166-0.012-0.264-0.03c-2.126-0.4-4.186-1.149-6.128-2.226
		C12.229,24.921,8.03,20.67,5.053,15.228c-0.921-1.686-1.49-3.49-2.061-5.68C2.871,9.083,2.998,8.804,3.429,8.584l0.116-0.06
		C4.407,8.085,5.297,7.631,6.2,7.261c0.226-0.092,0.422-0.137,0.6-0.137c0.347,0,0.633,0.175,0.898,0.551
		c0.782,1.103,1.604,2.284,2.318,3.547c0.193,0.34,0.174,0.43-0.17,0.793C9.812,12.051,9.776,12.092,9.741,12.132z"/>
	<path fill="#412747" d="M30.409,0.874c-2.266-0.011-11.401-0.009-13.704,0c-1.435,0.006-2.437,0.966-2.437,2.333v9.219
		c0.011,1.222,0.689,1.952,1.816,1.952l1.237,0.004c0.382,0,0.424,0.104,0.424,0.324l-0.002,0.756
		c-0.004,0.406-0.005,0.752,0.002,1.168c0.005,0.323,0.003,0.595,0.002,0.817v0.279c0.08,0.873,0.478,1.443,1.179,1.692
		c0.178,0.063,0.355,0.096,0.527,0.096c0.505,0,0.967-0.267,1.412-0.813l0.267-0.328c0.821-1.008,1.67-2.05,2.426-3.135
		c0.342-0.488,0.617-0.629,1.232-0.629l3.669,0.007c0.611,0,1.224-0.002,1.835-0.007c1.744-0.014,2.575-0.783,2.614-2.424V3.23
		C32.909,1.718,32.021,0.882,30.409,0.874z M18.637,12.662c-0.154-0.005-0.3-0.006-0.439-0.006l-0.717,0.006
		c-1.246,0-1.271-0.021-1.271-1.127v-0.289c0-0.351,0.001-0.873,0-1.084c-0.004-0.798-0.002-1.596,0-2.394
		c0.001-1.361,0.003-2.723-0.018-4.083c-0.008-0.403,0.056-0.658,0.198-0.803c0.147-0.149,0.413-0.219,0.839-0.219h12.733
		c0.91,0,1.072,0.283,1.072,1.08v7.989c0.007,0.382-0.05,0.62-0.178,0.751c-0.119,0.123-0.339,0.18-0.69,0.18l-5.919-0.001
		c-0.824,0-1.257,0.206-1.712,0.816c-0.675,0.904-1.397,1.8-2.098,2.665c-0.247,0.307-0.495,0.613-0.73,0.908v-3.299
		C19.708,13.011,19.388,12.685,18.637,12.662z"/>
	<path fill="#412747" d="M19.388,6.944h8.626c0.532,0,0.967-0.433,0.967-0.966s-0.435-0.967-0.967-0.967h-8.626
		c-0.534,0-0.967,0.434-0.967,0.967S18.854,6.944,19.388,6.944z"/>
	<path fill="#412747" d="M25.973,8.777c0-0.533-0.435-0.967-0.967-0.967h-5.618c-0.534,0-0.967,0.434-0.967,0.967
		s0.433,0.966,0.967,0.966h5.618C25.538,9.744,25.973,9.311,25.973,8.777z"/>
</g>
</svg>
