<?xml version="1.0" encoding="utf-8"?>
<!-- Generator: Adobe Illustrator 16.0.0, SVG Export Plug-In . SVG Version: 6.00 Build 0)  -->
<!DOCTYPE svg PUBLIC "-//W3C//DTD SVG 1.1//EN" "http://www.w3.org/Graphics/SVG/1.1/DTD/svg11.dtd">
<svg version="1.1" id="Layer_1" xmlns="http://www.w3.org/2000/svg" xmlns:xlink="http://www.w3.org/1999/xlink" x="0px" y="0px"
	 width="34px" height="34px" viewBox="0 0 34 34" enable-background="new 0 0 34 34" xml:space="preserve">
<g>
	<path fill="#412747" d="M30.185,7.768c-0.314-0.452-0.943-0.564-1.401-0.244c-0.453,0.318-0.565,0.946-0.243,1.4
		c3.395,4.833,3.395,11.326-0.002,16.158c-0.32,0.456-0.21,1.081,0.243,1.403c0.177,0.123,0.379,0.183,0.575,0.183
		c0.314,0,0.628-0.146,0.824-0.427C34.063,20.714,34.063,13.291,30.185,7.768z M8.338,5.642c0.197,0,0.399-0.059,0.574-0.182
		c4.8-3.37,11.261-3.392,16.078-0.062c0.455,0.315,1.083,0.202,1.397-0.255c0.315-0.456,0.201-1.082-0.256-1.397
		c-5.507-3.808-12.895-3.778-18.374,0.07C7.306,4.133,7.195,4.761,7.515,5.214C7.71,5.492,8.021,5.642,8.338,5.642z M5.463,8.912
		c0.317-0.454,0.208-1.081-0.245-1.4c-0.453-0.32-1.082-0.208-1.4,0.244c-3.879,5.523-3.881,12.946-0.004,18.466
		c0.193,0.277,0.506,0.43,0.821,0.43c0.2,0,0.398-0.062,0.577-0.186c0.451-0.316,0.562-0.943,0.243-1.399
		C2.064,20.237,2.066,13.744,5.463,8.912z M25.087,28.536c-4.837,3.396-11.334,3.395-16.168-0.002
		c-0.454-0.318-1.082-0.207-1.4,0.244c-0.319,0.453-0.209,1.08,0.244,1.4c2.763,1.943,6.002,2.912,9.238,2.912
		c3.238,0,6.475-0.971,9.237-2.91c0.454-0.318,0.563-0.945,0.245-1.4C26.166,28.325,25.542,28.218,25.087,28.536z M22.507,10.487
		c-3.602,0-6.531,2.93-6.531,6.53c0,2.489-2.029,4.521-4.521,4.521c-2.493,0-4.521-2.031-4.521-4.521c0-1.959,1.24-3.626,3.014-4.25
		v1.236c0,0.364,0.196,0.701,0.519,0.879c0.151,0.083,0.317,0.126,0.485,0.126c0.186,0,0.369-0.051,0.531-0.153l4.018-2.512
		c0.295-0.183,0.475-0.505,0.475-0.852s-0.18-0.668-0.475-0.852l-4.018-2.512c-0.309-0.194-0.701-0.203-1.017-0.027
		C10.145,8.279,9.948,8.615,9.948,8.98v1.688c-2.916,0.685-5.023,3.277-5.023,6.35c0,3.601,2.93,6.53,6.53,6.53s6.53-2.93,6.53-6.53
		c0-2.493,2.027-4.521,4.521-4.521c2.49,0,4.521,2.028,4.521,4.521c0,1.968-1.242,3.626-3.015,4.248v-1.233
		c0-0.365-0.197-0.703-0.52-0.88c-0.315-0.179-0.711-0.167-1.021,0.025l-4.018,2.512c-0.293,0.186-0.472,0.505-0.472,0.854
		c0,0.347,0.179,0.668,0.472,0.852l4.018,2.512c0.163,0.103,0.349,0.153,0.534,0.153c0.167,0,0.335-0.043,0.483-0.125
		c0.32-0.182,0.521-0.518,0.521-0.88v-1.691c2.914-0.681,5.023-3.261,5.023-6.346C29.036,13.417,26.106,10.487,22.507,10.487z
		 M11.958,10.793l1.117,0.698l-1.117,0.698V10.793z M22.004,23.239l-1.118-0.696l1.118-0.698V23.239z"/>
</g>
</svg>
