<?xml version="1.0" encoding="utf-8"?>
<!-- Generator: Adobe Illustrator 16.0.0, SVG Export Plug-In . SVG Version: 6.00 Build 0)  -->
<!DOCTYPE svg PUBLIC "-//W3C//DTD SVG 1.1//EN" "http://www.w3.org/Graphics/SVG/1.1/DTD/svg11.dtd">
<svg version="1.1" id="Layer_1" xmlns="http://www.w3.org/2000/svg" xmlns:xlink="http://www.w3.org/1999/xlink" x="0px" y="0px"
	 width="48px" height="25px" viewBox="0 0 48 25" enable-background="new 0 0 48 25" xml:space="preserve">
<g>
	<path fill="#412747" d="M46.767,15.224c-0.006-0.145-0.163-3.565-1.881-5.9c-0.604-0.821-4.293-5.358-5.225-6.289
		c-0.865-0.865-2.471-2.014-6.42-2.014H12.503c-0.496,0-0.899,0.404-0.899,0.902c0,0.497,0.403,0.902,0.899,0.902h20.738
		c3.659,0,4.737,1.077,5.145,1.483c0.806,0.806,4.432,5.247,5.049,6.084l0.062,0.095h-7.099c-1.665,0-1.794-1.66-1.805-1.974V5.078
		c0-0.497-0.403-0.9-0.899-0.9c-0.498,0-0.902,0.403-0.902,0.9v3.45c0.021,1.513,1.002,3.763,3.606,3.763h7.981
		c0.512,1.517,0.584,2.968,0.584,2.968v2.895c0,0.324-0.109,0.471-0.19,0.552c-0.292,0.29-0.901,0.339-1.082,0.349h-0.807
		c-0.369-1.903-2.048-3.346-4.058-3.346c-2.012,0-3.689,1.442-4.058,3.346h-9.919c-0.369-1.903-2.048-3.346-4.057-3.346
		c-2.011,0-3.69,1.442-4.059,3.346h-1.526c-1.177,0-1.353-0.64-1.353-1.039v-1.666h2.255c0.497,0,0.901-0.402,0.901-0.9
		s-0.404-0.9-0.901-0.9H6.192c-0.498,0-0.902,0.402-0.902,0.9s0.404,0.9,0.902,0.9h5.861v1.637c0,0.117-0.016,1.167,0.775,1.987
		c0.569,0.587,1.369,0.886,2.38,0.886h1.581c0.453,1.79,2.074,3.121,4.004,3.121s3.551-1.331,4.003-3.121h10.025
		c0.454,1.79,2.075,3.121,4.005,3.121s3.549-1.331,4.002-3.121h0.844h0.039c0.264,0,1.488-0.046,2.32-0.861
		c0.48-0.472,0.734-1.109,0.734-1.844V15.224z M20.794,22.177c-1.287,0-2.333-1.048-2.333-2.334s1.046-2.33,2.333-2.33
		c1.286,0,2.33,1.044,2.33,2.33S22.08,22.177,20.794,22.177z M38.827,22.177c-1.287,0-2.331-1.048-2.331-2.334
		s1.044-2.33,2.331-2.33c1.285,0,2.332,1.044,2.332,2.33S40.112,22.177,38.827,22.177z"/>
	<path fill="#412747" d="M4.841,6.431h14.877c0.497,0,0.9-0.404,0.9-0.901c0-0.498-0.403-0.901-0.9-0.901H4.841
		c-0.5,0-0.903,0.403-0.903,0.901C3.938,6.026,4.341,6.431,4.841,6.431z"/>
	<path fill="#412747" d="M7.545,8.686c0,0.497,0.405,0.901,0.902,0.901h14.878c0.497,0,0.9-0.404,0.9-0.901
		c0-0.499-0.403-0.903-0.9-0.903H8.447C7.95,7.782,7.545,8.187,7.545,8.686z"/>
	<path fill="#412747" d="M20.618,12.291c0-0.497-0.403-0.9-0.9-0.9H2.134c-0.497,0-0.9,0.403-0.9,0.9c0,0.499,0.403,0.903,0.9,0.903
		h17.584C20.215,13.194,20.618,12.79,20.618,12.291z"/>
</g>
</svg>
