<?xml version="1.0" encoding="utf-8"?>
<!-- Generator: Adobe Illustrator 16.0.0, SVG Export Plug-In . SVG Version: 6.00 Build 0)  -->
<!DOCTYPE svg PUBLIC "-//W3C//DTD SVG 1.1//EN" "http://www.w3.org/Graphics/SVG/1.1/DTD/svg11.dtd">
<svg version="1.1" id="Layer_1" xmlns="http://www.w3.org/2000/svg" xmlns:xlink="http://www.w3.org/1999/xlink" x="0px" y="0px"
	 width="22px" height="22px" viewBox="0 0 22 22" enable-background="new 0 0 22 22" xml:space="preserve">
<g>
	<g>
		<path fill="#686B6A" d="M1.24,11c0,5.391,4.369,9.76,9.76,9.76s9.76-4.369,9.76-9.76S16.391,1.24,11,1.24S1.24,5.609,1.24,11z
			 M19.814,11c0,4.854-3.961,8.813-8.814,8.813S2.187,15.854,2.187,11S6.146,2.187,11,2.187S19.814,6.146,19.814,11z M11.308,7.194
			c0.18-0.18,0.484-0.18,0.665,0l3.498,3.475c0.025,0.025,0.053,0.052,0.053,0.076l0.025,0.025c0,0.025,0.025,0.025,0.025,0.052
			s0,0.026,0.027,0.052c0,0.026,0,0.026,0,0.053c0,0.025,0,0.052,0,0.102c0,0.026,0,0.052,0,0.102c0,0.026,0,0.026,0,0.052
			c0,0.026,0,0.026-0.027,0.053c0,0.026-0.025,0.026-0.025,0.052c0,0,0,0.026-0.025,0.026c-0.027,0.025-0.027,0.052-0.053,0.076
			l-3.524,3.443c-0.18,0.18-0.485,0.18-0.665,0s-0.18-0.484,0-0.665l2.709-2.708H6.504c-0.256,0-0.459-0.203-0.459-0.459
			c0-0.255,0.203-0.459,0.459-0.459h7.484l-2.657-2.659C11.128,7.68,11.128,7.371,11.308,7.194z"/>
	</g>
</g>
</svg>
