<?xml version="1.0" encoding="UTF-8" standalone="no"?>
<!-- Generator: Adobe Illustrator 16.0.0, SVG Export Plug-In . SVG Version: 6.00 Build 0)  -->

<svg
   xmlns:dc="http://purl.org/dc/elements/1.1/"
   xmlns:cc="http://creativecommons.org/ns#"
   xmlns:rdf="http://www.w3.org/1999/02/22-rdf-syntax-ns#"
   xmlns:svg="http://www.w3.org/2000/svg"
   xmlns="http://www.w3.org/2000/svg"
   xmlns:sodipodi="http://sodipodi.sourceforge.net/DTD/sodipodi-0.dtd"
   xmlns:inkscape="http://www.inkscape.org/namespaces/inkscape"
   version="1.1"
   id="Layer_1"
   x="0px"
   y="0px"
   width="206.03947"
   height="37.443645"
   viewBox="0 0 206.03947 37.443645"
   enable-background="new 0 0 290 42"
   xml:space="preserve"
   sodipodi:docname="header-2.svg"
   inkscape:version="0.92.3 (2405546, 2018-03-11)"><metadata
   id="metadata192"><rdf:RDF><cc:Work
       rdf:about=""><dc:format>image/svg+xml</dc:format><dc:type
         rdf:resource="http://purl.org/dc/dcmitype/StillImage" /><dc:title></dc:title></cc:Work></rdf:RDF></metadata><defs
   id="defs190" /><sodipodi:namedview
   pagecolor="#ffffff"
   bordercolor="#666666"
   borderopacity="1"
   objecttolerance="10"
   gridtolerance="10"
   guidetolerance="10"
   inkscape:pageopacity="0"
   inkscape:pageshadow="2"
   inkscape:window-width="1920"
   inkscape:window-height="1017"
   id="namedview188"
   showgrid="false"
   fit-margin-top="1"
   fit-margin-left="1"
   fit-margin-right="1"
   fit-margin-bottom="1"
   inkscape:zoom="2.4068966"
   inkscape:cx="137.24088"
   inkscape:cy="-17.944566"
   inkscape:window-x="1912"
   inkscape:window-y="-8"
   inkscape:window-maximized="1"
   inkscape:current-layer="g75" />

<g
   transform="matrix(1.1279359,0,0,1.1279359,-6.9540083,-1.5825328)"
   id="g75"
   inkscape:export-filename="C:\Users\lsard\Desktop\wecanimal.png"
   inkscape:export-xdpi="122.81021"
   inkscape:export-ydpi="122.81021"><path
     style="fill:#ffffff;stroke-width:0.95712352"
     inkscape:connector-curvature="0"
     d="m 168.0132,8.581962 c 0.52355,0.247895 1.20215,-0.093798 1.20215,-0.093798 1.4912,-0.7321995 2.09514,-2.5019209 2.09514,-3.6542976 0,-0.6029878 -0.1962,-1.0260364 -0.1962,-1.0260364 -0.61448,-1.6615665 -2.05017,-1.5514972 -2.58711,-1.4203714 -0.5379,0.131126 -1.87118,0.9398953 -1.99656,2.7201451 -0.20387,2.8914702 1.48258,3.4743584 1.48258,3.4743583 z"
     id="path47" /><path
     style="fill:#ffffff;stroke-width:0.95712352"
     inkscape:connector-curvature="0"
     d="m 163.04382,8.4565788 c 0,0 0.6786,0.3416931 1.20214,0.093798 0,0 1.6855,-0.5828882 1.48259,-3.4743584 -0.12442,-1.7802498 -1.4577,-2.5899763 -1.99656,-2.7201451 -0.5379,-0.1292117 -1.97358,-0.240238 -2.5871,1.4213285 0,0 -0.19718,0.4220914 -0.19718,1.0260363 0,1.1514197 0.60683,2.921141 2.09611,3.6533407 z"
     id="path49" /><path
     style="fill:#ffffff;stroke-width:0.95712352"
     inkscape:connector-curvature="0"
     d="m 160.11311,10.01669 c 0,0 1.2165,-0.7733556 0.52546,-3.0723664 -0.42592,-1.4165428 -1.62329,-1.8319343 -2.07122,-1.8405484 -0.44698,-0.00861 -1.59457,0.1588824 -1.77259,1.611796 0,0 -0.0765,0.3771066 0.0335,0.8642825 0.21344,0.9322383 1.01647,2.2530688 2.32198,2.5775333 0,-9.57e-4 0.59629,0.15314 0.96287,-0.140697 z"
     id="path51" /><path
     style="fill:#ffffff;stroke-width:0.95712352"
     inkscape:connector-curvature="0"
     d="m 172.14606,10.01669 c 0.36658,0.293837 0.96287,0.13974 0.96287,0.13974 1.30647,-0.3244646 2.1095,-1.6452952 2.32102,-2.5775335 0.11103,-0.4871758 0.0345,-0.8642824 0.0345,-0.8642824 -0.17803,-1.4529136 -1.32753,-1.6204102 -1.7726,-1.6117961 -0.44697,0.00861 -1.64529,0.4230486 -2.07121,1.8405485 -0.69104,2.2999679 0.52546,3.0733235 0.52546,3.0733235 z"
     id="path53" /><path
     style="fill:#ffffff;stroke-width:0.95712352"
     inkscape:connector-curvature="0"
     d="m 117.71924,8.4288222 c 0.0508,0 0.10049,0 0.18472,0 h 0.54843 c 0.0852,0 0.13495,0 0.18377,0 2.69238,0 2.82064,-0.5359891 2.82064,-2.3794091 0,-1.8252345 -0.13687,-2.4062084 -2.82064,-2.4062084 -0.0498,0 -0.0996,0 -0.18377,0 h -0.54843 c -0.002,0 -0.004,0 -0.006,0 -0.0823,0 -0.13017,0 -0.17803,0 -2.68568,0 -2.82159,0.5809739 -2.82159,2.3966372 9.5e-4,1.8529912 0.1292,2.3889803 2.82064,2.3889803 z"
     id="path55" /><path
     style="fill:#ffffff;stroke-width:0.95712352"
     inkscape:connector-curvature="0"
     d="m 187.19014,28.931366 c -0.79347,-0.164626 -1.12655,-0.693916 -1.23183,-1.609882 -0.067,-0.588631 0.0757,-1.090164 0.0757,-1.765893 0,-2.498092 0,-17.9862657 0,-20.5838989 0,-0.42592 -0.23929,-0.8575827 -0.40296,-1.0193366 -0.11581,-0.116769 -0.51684,-0.3091508 -0.79728,-0.3091508 h -6.8597 c -0.2948,0 -0.3771,0.2009959 -0.49484,0.3206363 -0.11868,0.1205976 -0.0594,0.4527194 -0.0594,0.7388994 0,0.9513807 0,1.9199897 0,2.8570137 0,0.5101468 0.2211,0.7915411 0.57141,0.7915411 0.81738,0 0.78963,0.4067776 0.78963,1.0269936 0,0 -0.0297,11.9458592 -0.0297,18.0609212 0,0.670944 0.003,1.489284 0.1139,2.308581 0.26321,1.931476 1.25958,3.108738 3.05609,3.6007 0.90449,0.246937 1.90564,0.362749 3.16234,0.362749 0.5848,0 1.23469,-0.02201 1.91329,-0.05264 0.31394,-0.0134 0.95138,-0.124425 0.95138,-0.895867 0,-0.245024 0,-0.491005 0,-0.736985 0,-0.690086 0,-1.411758 0,-2.120029 0,-0.577145 -0.25076,-0.870026 -0.75803,-0.974351 z"
     id="path57" /><path
     style="fill:#ffffff;stroke-width:0.95712352"
     inkscape:connector-curvature="0"
     d="m 49.24566,10.513437 c -0.474734,-0.06987 -0.957123,-0.07848 -1.324659,-0.07848 -0.201953,0 -0.403906,0.0028 -0.604902,0.0058 l -0.232581,0.0028 c -3.76341,0.04689 -5.932251,1.788863 -6.826205,5.482403 -0.842269,3.480102 -0.916924,7.159284 -0.224924,10.936094 0.612559,3.339404 2.183199,5.362763 4.801889,6.184932 1.339973,0.422092 2.759387,0.635531 4.215172,0.635531 1.507469,0 3.055138,-0.219182 4.732019,-0.666159 0.513975,-0.137825 0.715928,-0.440277 0.656586,-0.982009 l -0.01245,-0.104326 c -0.101456,-0.931281 -0.207696,-1.892233 -0.283309,-2.8417 -0.05934,-0.747514 -0.366578,-0.848011 -0.661372,-0.848011 -0.121555,0 -0.265124,0.02106 -0.425921,0.06317 -1.135147,0.299579 -2.258811,0.393377 -3.342275,0.276609 -2.529677,-0.269909 -3.488715,-1.350502 -3.538485,-3.990248 -0.0058,-0.303409 0.01723,-0.513019 0.218224,-0.716886 0.156968,-0.157925 0.387635,-0.130169 0.751342,-0.130169 h 6.992744 c 0.669029,0 0.913097,-0.312022 0.970523,-0.94181 0.167498,-1.830019 0.297666,-3.844764 0.102413,-5.809739 -0.375192,-3.792124 -2.32581,-5.944694 -5.963837,-6.477812 z m 0.409649,8.514572 c -0.244067,0.258423 -0.658501,-0.07083 -1.4309,-0.07083 h -0.506318 c -0.774314,0 -1.188748,0.329251 -1.431857,0.07083 -0.259381,-0.27661 -0.231624,-0.601074 -0.175154,-1.517998 0.09093,-1.510341 0.438363,-2.381324 1.832892,-2.381324 h 0.0536 c 1.193533,0 1.724737,0.594373 1.833848,2.380366 0.0536,0.916924 0.08328,1.242346 -0.17611,1.518956 z"
     id="path59" /><path
     style="fill:#ffffff;stroke-width:0.95712352"
     inkscape:connector-curvature="0"
     d="m 69.787445,29.084505 c -0.109112,-0.55226 -0.319679,-0.7255 -0.790584,-0.682429 -0.04785,0.0048 -0.210567,0.01819 -0.367536,0.03063 -0.133996,0.01149 -0.262251,0.02106 -0.308193,0.02488 -0.29958,0.02967 -0.56566,0.04594 -0.811641,0.04594 -1.797477,0 -2.578491,-0.823126 -2.879027,-3.038867 -0.33978,-2.500963 -0.223967,-4.972257 -0.08423,-6.84439 0.174196,-2.341124 0.632658,-3.456173 2.760344,-3.456173 0.371364,0 0.814512,0.03159 1.357202,0.09667 0.09571,0.01149 0.178981,0.01723 0.256508,0.01723 0.370407,0 0.586716,-0.113897 0.663286,-0.713057 0.125384,-0.801112 0.223968,-1.637639 0.325423,-2.718231 0.08231,-0.73507 -0.133998,-1.040393 -0.851841,-1.211718 -0.991579,-0.23641 -2.030058,-0.355093 -3.08768,-0.355093 -0.736028,0 -1.505555,0.05743 -2.287525,0.171325 -2.55552,0.373278 -4.182629,1.831935 -4.975128,4.460196 -0.601074,1.993688 -0.850883,4.186458 -0.807812,7.105684 -0.0536,1.671138 0.0871,3.484888 0.417305,5.395306 0.584803,3.391089 2.244455,5.30725 5.072755,5.858553 0.851841,0.16654 1.752493,0.250767 2.678032,0.250767 1.039436,0 2.120986,-0.100499 3.303033,-0.310109 0.850883,-0.151225 1.115049,-0.506318 0.976266,-1.312216 -0.117726,-0.672858 -0.399121,-2.093229 -0.55896,-2.8149 z"
     id="path61" /><path
     style="fill:#ffffff;stroke-width:0.95712352"
     inkscape:connector-curvature="0"
     d="m 89.23141,27.979028 c -0.934153,-0.194297 -1.781208,-0.139741 -1.781208,-1.718995 v -8.341331 c 0,-0.84514 0.19334,-1.750579 0.07083,-2.634004 -0.365622,-2.649318 -1.606054,-4.137645 -4.129988,-4.683206 -1.223204,-0.265123 -2.449279,-0.398163 -3.750967,-0.398163 -1.818535,0 -3.786381,0.251723 -5.867167,0.76857 -0.493876,0.121555 -0.679558,0.615431 -0.679558,0.883425 0,1.021251 0,2.540206 0,3.009197 0,0.679558 0.539817,0.906396 1.228947,0.806855 l 0.444105,-0.05838 c 0.944681,-0.139739 2.133428,-0.44889 3.103951,-0.506318 0.144526,-0.0086 0.295752,-0.0134 0.428792,-0.0134 1.951575,0 2.859885,0.933196 3.024509,3.119265 0.0201,0.255553 0.0201,0.577146 -0.173238,0.790585 -0.188554,0.210567 -0.496747,0.247894 -0.774313,0.255552 -1.692195,0.04786 -3.104909,0.156011 -4.501352,0.529289 -2.567006,0.686258 -3.968234,2.224355 -4.284085,4.703306 -0.169411,1.329444 -0.148354,2.675159 0.06125,4.004604 0.460377,2.914441 2.736416,4.9512 5.537917,4.9512 1.115049,0 2.231054,-0.34265 3.225506,-0.989666 0.778141,-0.507276 1.206933,-0.786756 1.658695,-0.786756 0.409648,0 0.786756,0.226839 1.472055,0.639359 l 0.132084,0.07848 c 1.634767,1.279674 5.172296,1.295946 5.828882,1.149506 0.398163,-0.08806 0.814513,-0.402949 0.814513,-0.811641 V 28.99549 c 0,-0.603945 -0.577146,-0.909268 -1.090164,-1.016465 z m -7.523949,-3.063753 c 0,0.803984 -0.200038,1.575425 -0.368492,2.182241 -0.236409,0.857583 -0.913096,1.310302 -1.781207,1.310302 -0.05647,0 -0.160797,-0.0028 -0.220138,-0.0058 -0.581932,-0.03924 -1.321787,-0.336908 -1.439514,-1.544797 -0.06892,-0.711144 -0.07848,-1.32466 -0.0038,-1.877877 0.159839,-1.19449 1.297859,-2.167885 2.545948,-2.167885 0.104327,0 0.205782,0.0067 0.308193,0.02106 0.584803,0.07657 0.773356,0.516847 0.775271,0.752299 0.002,0.297666 0.183767,0.59246 0.183767,0.888211 z"
     id="path63" /><path
     style="fill:#ffffff;stroke-width:0.95712352"
     inkscape:connector-curvature="0"
     d="m 111.72477,27.778031 c -0.95425,0 -1.30361,-0.0335 -1.30361,-1.61371 v -8.616026 c 0,-0.877682 -0.11581,-1.842463 -0.29862,-2.869456 -0.51971,-2.895299 -2.13151,-4.282171 -5.04882,-4.363526 -1.96498,-0.0536 -3.73852,0.483347 -5.422106,1.645295 l -0.210568,0.143568 -0.422091,-1.116963 C 98.871557,10.633077 98.699276,10.34307 98.215928,10.34307 h -4.063947 c -0.677643,0 -1.356243,0 -2.033887,0 -0.492919,0 -0.839397,0.376149 -0.839397,0.821212 v 3.142235 c 0,0.419221 0.289051,0.673816 0.653715,0.681473 1.078679,0.02201 1.174391,0.763785 1.172477,1.418457 -0.01436,3.870607 0.08806,8.062809 0.08806,12.115269 v 3.634198 c 0,0.59246 0.290008,1.15812 0.907353,1.15812 h 4.557823 c 0.855667,0 1.172475,-0.351264 1.172475,-1.074849 0.002,-4.273558 0.002,-8.761509 9.58e-4,-13.03698 0,-0.721672 0,-1.641467 0.334982,-2.467465 0.28235,-0.692957 0.86524,-1.084421 1.64721,-1.084421 0.0727,0 0.14549,-0.002 0.22014,0.0048 0.7791,0.06796 1.40219,0.570445 1.518,1.350501 0.0651,0.45559 0.17037,0.903524 0.17037,1.326573 v 8.60454 c 0,0.827913 0,1.201191 0.13208,1.944876 0.29958,1.684537 1.43665,3.475315 3.82084,3.475315 9.6e-4,0 0.002,0 0.003,0 1.66157,0.957124 3.6007,0.900654 4.08979,0.790584 0.3972,-0.08806 0.56853,-0.107198 0.56853,-0.516847 v -0.611618 -3.061838 -0.405821 c -9.6e-4,-0.351264 -0.17515,-0.773356 -0.6116,-0.773356 z"
     id="path65" /><path
     style="fill:#ffffff;stroke-width:0.95712352"
     inkscape:connector-curvature="0"
     d="m 123.46102,28.359005 c -1.50269,-0.100497 -1.55437,-1.189704 -1.55437,-2.202341 V 11.51746 c 0,-0.762828 -0.0632,-0.996365 -0.65372,-0.996365 l -6.83194,9.56e-4 c -0.26512,0 -0.64223,0.04977 -0.75901,0.151226 -0.12059,0.105284 -0.37039,0.27948 -0.37039,0.534075 0,0.677643 0,1.354329 0,2.031973 v 1.017423 c 0,0.257465 0.19811,0.692 0.67572,0.718799 1.02316,0.05551 1.23852,0.728371 1.23852,1.411758 v 10.673841 c 0,3.181478 1.17056,5.073712 3.48489,5.95618 0.92745,0.352221 1.9956,0.52546 3.1719,0.52546 0.44027,0 0.73316,-0.02393 1.24139,-0.07274 0.40391,-0.03829 0.71593,-0.217267 0.71593,-0.848969 v -3.55667 c 9.5e-4,-0.201954 0.0335,-0.678601 -0.35892,-0.705401 z"
     id="path67" /><path
     style="fill:#ffffff;stroke-width:0.95712352"
     inkscape:connector-curvature="0"
     d="m 156.0281,28.757169 c -1.09303,-0.203868 -1.50651,-0.880554 -1.50651,-2.133429 0,-0.519718 -0.0354,-1.039436 -0.0316,-1.559153 0.004,-1.022209 -0.0412,-2.080788 -0.0412,-3.119267 v -0.618301 c 0,-2.287525 0.0871,-5.133054 -0.11964,-6.362 -0.25459,-1.674966 -0.73125,-3.479145 -2.65219,-4.196987 -0.79729,-0.296708 -1.69507,-0.454633 -2.63592,-0.454633 -1.69698,0 -3.35185,0.509189 -4.44201,1.363901 -0.35318,0.275651 -0.62788,0.39912 -0.89874,0.39912 -0.2948,0 -0.57332,-0.142612 -0.90735,-0.463248 -0.46229,-0.443148 -0.91788,-0.72837 -1.43473,-0.898739 -0.79058,-0.260337 -1.6855,-0.39912 -2.58902,-0.39912 -1.57064,0 -3.03599,0.409648 -4.02279,1.123662 -0.25938,0.188554 -0.49292,0.357965 -0.72549,0.357965 -0.42019,0 -0.5293,-0.594374 -0.56472,-0.758999 -0.0957,-0.429749 -0.35605,-0.694871 -0.93318,-0.694871 h -6.09784 c -0.59054,0 -0.69009,0.407734 -0.69009,1.044221 v 2.486607 c 0,0.801112 0.29001,1.110263 0.95043,1.140891 0.81834,0.03828 0.96382,0.561832 0.96382,1.120792 v 16.079675 c 0,0.644145 0.11199,1.097821 0.78676,1.097821 h 4.78274 c 0.7188,0 1.13036,-0.454634 1.13036,-1.097821 v -14.1281 c 0,-0.366579 -0.0345,-0.758042 0.0325,-1.148548 0.15601,-0.918839 0.71784,-1.393573 1.66253,-1.358159 0.8882,0.03159 1.22128,0.564703 1.29977,1.465356 0.0747,0.874812 -0.12443,1.268189 -0.12443,2.377496 v 12.791955 c 0,0.670944 0.65084,1.097821 1.24522,1.097821 h 5.04882 c 0.66712,0 1.36295,-0.307237 1.36295,-1.097821 V 18.590603 c 0,-0.147397 0,-0.281395 0,-0.403906 0,-0.564704 -0.23354,-0.906396 -0.1206,-1.344759 0.22205,-0.857582 0.61447,-1.255746 1.47875,-1.255746 0.8193,0 1.27106,0.474733 1.45005,1.336144 0.12251,0.588631 0.0632,0.993494 0.0632,1.668267 v 9.974184 c 0,2.61199 1.16768,4.090746 3.58634,4.656406 1.3438,0.31298 2.64836,0.396249 4.23909,0.246937 0.63362,-0.05838 0.78868,-0.351264 0.78868,-0.896824 v -3.047481 c 9.6e-4,-0.570446 0.0211,-0.700615 -0.33404,-0.766656 z"
     id="path69" /><path
     style="fill:#ffffff;stroke-width:0.95712352"
     inkscape:connector-curvature="0"
     d="m 175.85109,28.090054 c -0.93415,-0.194297 -1.30265,-0.139741 -1.30265,-1.719951 v -8.341332 c 0,-0.846097 -0.0526,-1.750579 -0.17515,-2.634004 -0.36562,-2.649318 -1.72953,-4.137645 -4.25345,-4.683205 -1.22225,-0.264166 -2.51054,-0.399121 -3.81223,-0.399121 -1.81758,0 -3.57007,0.251724 -5.65181,0.76857 -0.49293,0.122513 -0.46421,0.617345 -0.46421,0.884382 0,1.021251 0,2.540207 0,3.009197 0,0.680515 0.2948,0.906396 0.98296,0.806855 l 0.32065,-0.05743 c 0.94563,-0.140697 2.07216,-0.448891 3.04269,-0.506318 0.14357,-0.0086 0.26512,-0.0134 0.39816,-0.0134 1.95157,0 2.84553,0.933196 3.01016,3.120223 0.0191,0.256509 0.0115,0.577146 -0.1809,0.791542 -0.18951,0.211523 -0.50058,0.246937 -0.77814,0.254594 -1.69316,0.04882 -3.10682,0.156968 -4.50232,0.52929 -2.567,0.686257 -3.96822,2.224355 -4.28503,4.703304 -0.17037,1.329446 -0.14931,2.675161 0.0594,4.004605 0.45846,2.914442 2.73546,4.950243 5.53695,4.950243 1.11602,0 2.23106,-0.341693 3.22551,-0.988708 0.77815,-0.506318 1.20885,-0.786756 1.6587,-0.786756 0.40965,0 0.78771,0.227796 1.47301,0.639359 l 0.13208,0.07848 c 1.63477,1.280631 4.93972,1.296902 5.59535,1.150462 0.39912,-0.08901 0.58193,-0.401991 0.58193,-0.812598 v -3.728952 c 0,-0.60586 -0.0976,-0.913096 -0.61161,-1.019337 z m -8.00251,-3.505944 v 0.442191 c 0,0.803984 0.0316,1.574468 -0.13687,2.181285 -0.23545,0.857583 -0.79632,1.310302 -1.66349,1.310302 -0.0584,0 -0.10432,-0.002 -0.16366,-0.0067 -0.58001,-0.03733 -1.29307,-0.335951 -1.40984,-1.543841 -0.0689,-0.710186 -0.0631,-1.324659 0.01,-1.876919 0.15983,-1.195447 1.30551,-2.168842 2.55456,-2.168842 0.10432,0 0.20865,0.0067 0.31106,0.02105 0.58481,0.07848 0.54077,0.516846 0.54461,0.753256 0.002,0.296708 -0.046,0.591502 -0.046,0.888211 z"
     id="path71" /><path
     style="fill:#ffffff;stroke-width:0.95712352"
     inkscape:connector-curvature="0"
     d="M 45.506178,7.5865536 C 45.252541,6.8332974 44.511727,5.49811 42.274929,4.3208481 39.148964,2.6755527 36.209638,3.6097053 36.209638,3.6097053 30.847831,5.1037752 28.22627,8.5092206 29.550929,22.700491 c 0,0 0.114855,2.1363 0.214396,3.097252 0.138783,1.359115 -0.930324,2.252111 -2.090358,2.252111 -0.965737,0 -1.501727,-0.6853 -1.598397,-1.891276 C 25.99618,25.14307 25.967459,24.03855 25.98947,22.782804 26.00096,22.129088 26.01339,21.47633 26.0268,20.823572 26.0871,17.829689 26.150269,10.000419 26.0326,6.9577234 25.9981,6.0915266 25.767434,5.5574516 25.076391,5.5574516 h -5.10434 c -0.652758,0 -0.872897,0.4919615 -0.907353,1.2165041 -0.111026,2.3487811 -0.07083,9.2630413 0.0028,12.5115183 -0.0096,0.623087 0.02297,1.413672 0.05838,2.182242 0.06508,1.448128 0.139741,3.123094 -0.01819,4.782746 -0.0402,0.423049 -0.161754,1.727608 -1.546712,1.825235 -0.05073,0.0038 -0.100497,0.0134 -0.14931,0.0134 -0.831741,0 -1.471099,-0.456547 -1.758236,-1.476841 C 15.393158,25.685759 15.322331,24.700879 15.301274,23.796398 15.210347,19.820506 15.151963,11.438975 15.441971,7.4803128 15.48217,6.9261383 15.414215,6.574874 15.227576,6.3729209 15.042851,6.171925 14.69733,6.0541988 14.146027,6.0513275 c -0.517805,-0.00191 -6.238532,0 -6.238532,0 -0.3455217,0 -0.5484318,0.085184 -0.6929575,0.2297095 -0.1349544,0.1368688 -0.162711,0.3493501 -0.162711,0.6508441 0,0.3675354 0,2.1152429 0,2.7469445 0,0.5101464 0.1502684,0.7704844 0.4709048,0.7924984 0.1387829,0.0086 0.240238,0.02872 0.3464787,0.05647 l -0.011485,-0.0076 c 6.300743,0.361793 1.1341914,1.179176 0.7350708,2.021444 -0.087098,3.292506 -0.1761106,11.016492 0.208653,14.266884 0.4268771,3.611228 1.8596912,5.552273 4.6468342,6.290216 1.302645,0.343607 2.731631,0.415392 4.270685,0.212481 2.076001,-0.27278 3.551885,-1.040393 4.515709,-2.343038 0.194296,-0.260338 0.410606,-0.50249 0.689129,-0.50249 0.268952,0 0.479519,0.219181 0.725499,0.508232 1.405058,1.637639 3.171908,2.434923 5.402963,2.434923 0.890125,0 1.863519,-0.124426 2.972825,-0.378064 2.401424,-0.550346 3.67344,-2.258811 4.112761,-5.226851 0.261294,-1.767807 -0.372322,-4.522409 -0.372322,-7.395694 v -9.57e-4 c 0,-0.715929 0.11007,-1.756322 0.0938,-2.473207 C 36.023958,14.280688 37.386901,7.5865663 45.50618,7.5865663 Z M 43.36605,6.5834881 c -1.589782,0.1320831 -2.704831,0.5091897 -3.888792,1.4002717 0.04498,-0.2574662 0.04594,-0.5484318 0.06699,-0.7953696 l 0.002,0.00287 c 0,0 0.707315,-0.4469766 1.107392,-0.898739 0.03254,-0.038285 -1.123663,-0.067955 -1.123663,-0.067955 l -0.0048,-0.014357 c -9.57e-4,-0.00861 -0.02872,-0.1435685 -0.04115,-0.201953 L 40.611479,5.5038536 C 40.052488,5.2157586 39.394945,5.1554598 39.215962,5.1439743 39.12025,4.9085219 39.049423,4.7199686 38.935525,4.5017444 c 1.228947,-0.030628 3.39396,0.7398565 4.430525,2.0817437 z"
     id="path73" /></g></svg>