<?xml version="1.0" encoding="utf-8"?>
<!-- Generator: Adobe Illustrator 16.0.0, SVG Export Plug-In . SVG Version: 6.00 Build 0)  -->
<!DOCTYPE svg PUBLIC "-//W3C//DTD SVG 1.1//EN" "http://www.w3.org/Graphics/SVG/1.1/DTD/svg11.dtd">
<svg version="1.1" id="Layer_1" xmlns="http://www.w3.org/2000/svg" xmlns:xlink="http://www.w3.org/1999/xlink" x="0px" y="0px"
	 width="707px" height="321px" viewBox="0 0 707 321" enable-background="new 0 0 707 321" xml:space="preserve">
<path opacity="0.59" fill="#C7C7D8" enable-background="new    " d="M177.906,253.266c0,2.762-2.238,5-5,5H53.911
	c-2.762,0-5-2.238-5-5v-30c0-2.762,2.238-5,5-5h118.995c2.762,0,5,2.238,5,5V253.266z"/>
<path fill="#E84253" d="M177.906,251.266c0,2.762-2.238,5-5,5H53.911c-2.762,0-5-2.238-5-5v-30c0-2.762,2.238-5,5-5h118.995
	c2.762,0,5,2.238,5,5V251.266z"/>
<rect x="73.7" y="229.816" fill="none" width="79.417" height="10.61"/>
<g enable-background="new    ">
	<path fill="#FFFFFF" d="M80.397,238.832c-0.266,0.438-0.658,0.788-1.176,1.05c-0.518,0.262-1.146,0.392-1.883,0.392
		c-1.111,0-2.025-0.271-2.744-0.812s-1.111-1.297-1.176-2.269h2.548c0.037,0.374,0.17,0.668,0.399,0.883s0.521,0.321,0.875,0.321
		c0.308,0,0.551-0.084,0.728-0.252s0.266-0.392,0.266-0.672c0-0.252-0.082-0.462-0.245-0.63s-0.366-0.306-0.609-0.413
		s-0.579-0.235-1.008-0.385c-0.625-0.215-1.137-0.422-1.533-0.623c-0.397-0.2-0.737-0.499-1.022-0.896
		c-0.285-0.396-0.427-0.912-0.427-1.547c0-0.588,0.149-1.097,0.448-1.525c0.299-0.43,0.711-0.759,1.239-0.987
		c0.527-0.229,1.131-0.343,1.813-0.343c1.101,0,1.976,0.261,2.625,0.784c0.648,0.522,1.015,1.241,1.099,2.155h-2.59
		c-0.047-0.326-0.166-0.585-0.357-0.776C77.476,232.096,77.216,232,76.89,232c-0.28,0-0.507,0.074-0.679,0.224
		c-0.173,0.149-0.259,0.369-0.259,0.658c0,0.233,0.077,0.432,0.231,0.595c0.154,0.164,0.347,0.297,0.581,0.399
		s0.569,0.233,1.008,0.392c0.635,0.215,1.152,0.427,1.554,0.637c0.401,0.211,0.747,0.517,1.036,0.918
		c0.289,0.401,0.434,0.924,0.434,1.567C80.796,237.912,80.663,238.394,80.397,238.832z"/>
	<path fill="#FFFFFF" d="M86.634,232.672c0.429,0.271,0.748,0.64,0.953,1.105v-1.413h2.379v7.812h-2.379v-1.414
		c-0.205,0.467-0.523,0.836-0.953,1.106s-0.943,0.405-1.54,0.405c-0.644,0-1.22-0.161-1.729-0.482
		c-0.509-0.322-0.91-0.786-1.204-1.394c-0.294-0.606-0.441-1.315-0.441-2.128c0-0.821,0.147-1.533,0.441-2.135
		s0.695-1.064,1.204-1.386c0.509-0.322,1.085-0.483,1.729-0.483C85.691,232.266,86.205,232.401,86.634,232.672z M84.625,234.87
		c-0.313,0.336-0.469,0.803-0.469,1.399c0,0.598,0.156,1.064,0.469,1.4c0.312,0.336,0.726,0.504,1.239,0.504
		c0.504,0,0.917-0.173,1.239-0.518c0.321-0.346,0.483-0.808,0.483-1.387c0-0.588-0.162-1.052-0.483-1.393
		c-0.322-0.341-0.735-0.511-1.239-0.511C85.351,234.366,84.938,234.534,84.625,234.87z"/>
	<path fill="#FFFFFF" d="M98.218,232.749c0.509,0.321,0.91,0.784,1.204,1.386s0.441,1.313,0.441,2.135
		c0,0.812-0.147,1.521-0.441,2.128c-0.294,0.607-0.695,1.071-1.204,1.394c-0.509,0.321-1.085,0.482-1.729,0.482
		c-0.598,0-1.111-0.135-1.54-0.405c-0.43-0.271-0.742-0.64-0.938-1.106v1.414h-2.394v-10.36h2.394v3.962
		c0.196-0.466,0.509-0.835,0.938-1.105c0.429-0.271,0.942-0.406,1.54-0.406C97.133,232.266,97.709,232.427,98.218,232.749z
		 M94.481,234.877c-0.322,0.341-0.483,0.805-0.483,1.393c0,0.579,0.161,1.041,0.483,1.387c0.321,0.345,0.734,0.518,1.238,0.518
		c0.514,0,0.927-0.168,1.239-0.504s0.469-0.803,0.469-1.4c0-0.597-0.156-1.063-0.469-1.399s-0.726-0.504-1.239-0.504
		C95.215,234.366,94.802,234.536,94.481,234.877z"/>
	<path fill="#FFFFFF" d="M108.459,236.704h-5.418c0.028,0.588,0.178,1.01,0.448,1.267s0.616,0.385,1.036,0.385
		c0.354,0,0.648-0.088,0.882-0.266s0.387-0.406,0.462-0.687h2.534c-0.103,0.552-0.327,1.044-0.672,1.478
		c-0.346,0.434-0.784,0.774-1.316,1.021c-0.532,0.248-1.125,0.371-1.778,0.371c-0.765,0-1.444-0.161-2.036-0.482
		c-0.593-0.322-1.058-0.786-1.394-1.394c-0.336-0.606-0.504-1.315-0.504-2.128c0-0.821,0.166-1.533,0.497-2.135
		s0.796-1.064,1.393-1.386c0.598-0.322,1.279-0.483,2.044-0.483c0.775,0,1.456,0.159,2.045,0.477
		c0.588,0.317,1.043,0.763,1.364,1.337c0.322,0.573,0.483,1.234,0.483,1.98C108.53,236.256,108.506,236.471,108.459,236.704z
		 M105.695,234.541c-0.285-0.257-0.637-0.385-1.058-0.385c-0.438,0-0.803,0.13-1.092,0.392s-0.452,0.644-0.489,1.147h3.052
		C106.117,235.183,105.979,234.798,105.695,234.541z"/>
	<path fill="#FFFFFF" d="M113.325,232.7c0.471-0.28,0.982-0.421,1.533-0.421v2.562h-0.687c-0.635,0-1.127,0.136-1.477,0.406
		c-0.351,0.271-0.525,0.728-0.525,1.372v3.556h-2.394v-7.812h2.394v1.47C112.468,233.357,112.853,232.979,113.325,232.7z"/>
	<path fill="#FFFFFF" d="M131.055,233.169c0.551,0.593,0.826,1.416,0.826,2.471v4.536h-2.38v-4.256c0-0.495-0.133-0.88-0.399-1.155
		c-0.266-0.275-0.628-0.413-1.085-0.413c-0.476,0-0.852,0.147-1.127,0.441s-0.413,0.707-0.413,1.239v4.144h-2.394v-4.256
		c0-0.495-0.131-0.88-0.393-1.155c-0.261-0.275-0.62-0.413-1.077-0.413c-0.477,0-0.854,0.146-1.135,0.435
		c-0.279,0.289-0.42,0.704-0.42,1.246v4.144h-2.394v-7.812h2.394v1.329c0.205-0.438,0.521-0.783,0.945-1.035
		s0.922-0.379,1.491-0.379c0.597,0,1.124,0.139,1.582,0.413c0.457,0.275,0.803,0.67,1.036,1.184
		c0.271-0.485,0.642-0.873,1.112-1.162c0.472-0.289,0.992-0.435,1.562-0.435C129.749,232.279,130.504,232.576,131.055,233.169z"/>
	<path fill="#FFFFFF" d="M137.986,232.672c0.43,0.271,0.747,0.64,0.952,1.105v-1.413h2.38v7.812h-2.38v-1.414
		c-0.205,0.467-0.522,0.836-0.952,1.106s-0.942,0.405-1.54,0.405c-0.644,0-1.221-0.161-1.729-0.482
		c-0.509-0.322-0.91-0.786-1.204-1.394c-0.294-0.606-0.441-1.315-0.441-2.128c0-0.821,0.147-1.533,0.441-2.135
		s0.695-1.064,1.204-1.386c0.508-0.322,1.085-0.483,1.729-0.483C137.043,232.266,137.556,232.401,137.986,232.672z M135.977,234.87
		c-0.313,0.336-0.469,0.803-0.469,1.399c0,0.598,0.155,1.064,0.469,1.4c0.312,0.336,0.726,0.504,1.239,0.504
		c0.504,0,0.917-0.173,1.238-0.518c0.322-0.346,0.483-0.808,0.483-1.387c0-0.588-0.161-1.052-0.483-1.393
		c-0.321-0.341-0.734-0.511-1.238-0.511C136.703,234.366,136.29,234.534,135.977,234.87z"/>
	<path fill="#FFFFFF" d="M143.137,229.263c0.261-0.238,0.606-0.356,1.036-0.356c0.429,0,0.774,0.118,1.036,0.356
		c0.261,0.238,0.392,0.539,0.392,0.903c0,0.354-0.131,0.65-0.392,0.889c-0.262,0.238-0.607,0.357-1.036,0.357
		c-0.43,0-0.775-0.119-1.036-0.357c-0.262-0.238-0.393-0.534-0.393-0.889C142.745,229.802,142.875,229.501,143.137,229.263z
		 M145.363,232.364v7.812h-2.394v-7.812H145.363z"/>
	<path fill="#FFFFFF" d="M152.23,233.008c0.593,0.495,0.964,1.148,1.113,1.96h-2.24c-0.065-0.317-0.213-0.567-0.441-0.749
		s-0.516-0.273-0.86-0.273c-0.271,0-0.477,0.059-0.616,0.176c-0.14,0.116-0.21,0.282-0.21,0.497c0,0.242,0.128,0.425,0.385,0.546
		s0.66,0.242,1.211,0.363c0.598,0.141,1.087,0.283,1.47,0.428s0.715,0.38,0.994,0.707c0.28,0.326,0.42,0.765,0.42,1.315
		c0,0.448-0.121,0.845-0.363,1.19c-0.243,0.346-0.593,0.616-1.051,0.812c-0.457,0.196-0.998,0.294-1.624,0.294
		c-1.055,0-1.899-0.232-2.533-0.699c-0.635-0.467-1.022-1.135-1.162-2.002h2.31c0.037,0.336,0.18,0.593,0.427,0.77
		c0.248,0.178,0.567,0.266,0.959,0.266c0.271,0,0.477-0.062,0.616-0.188c0.141-0.126,0.21-0.292,0.21-0.497
		c0-0.271-0.128-0.464-0.385-0.581c-0.257-0.116-0.675-0.24-1.253-0.371c-0.579-0.121-1.055-0.252-1.428-0.392
		c-0.374-0.141-0.695-0.366-0.966-0.68c-0.271-0.312-0.406-0.739-0.406-1.28c0-0.7,0.266-1.268,0.798-1.701
		c0.532-0.435,1.283-0.651,2.254-0.651C150.846,232.266,151.637,232.514,152.23,233.008z"/>
</g>
<g enable-background="new    ">
	<path fill="#808080" d="M56.756,160.17v1.38h-2.955v9.21h-1.725v-9.21h-2.94v-1.38H56.756z"/>
	<path fill="#808080" d="M65.651,166.965h-6.36c0.03,0.85,0.265,1.48,0.705,1.89c0.44,0.41,0.985,0.615,1.635,0.615
		c0.57,0,1.053-0.145,1.447-0.435c0.396-0.29,0.638-0.676,0.728-1.155h1.83c-0.109,0.58-0.34,1.095-0.689,1.545
		c-0.351,0.45-0.806,0.803-1.365,1.058c-0.561,0.255-1.185,0.383-1.875,0.383c-0.8,0-1.507-0.17-2.123-0.511
		c-0.615-0.34-1.098-0.83-1.447-1.47c-0.35-0.64-0.525-1.395-0.525-2.265c0-0.86,0.175-1.61,0.525-2.25
		c0.35-0.641,0.833-1.13,1.447-1.471c0.615-0.34,1.322-0.51,2.123-0.51c0.81,0,1.518,0.168,2.122,0.503
		c0.605,0.335,1.07,0.795,1.396,1.38s0.487,1.237,0.487,1.957C65.711,166.51,65.691,166.755,65.651,166.965z M63.709,164.827
		c-0.205-0.365-0.485-0.635-0.84-0.81s-0.743-0.263-1.163-0.263c-0.67,0-1.23,0.205-1.68,0.615c-0.45,0.41-0.695,1.015-0.735,1.814
		h4.695C64.006,165.645,63.913,165.192,63.709,164.827z"/>
	<path fill="#808080" d="M80.044,163.29c0.585,0.62,0.877,1.505,0.877,2.654v4.815h-1.71v-4.635c0-0.721-0.18-1.277-0.54-1.673
		c-0.359-0.395-0.854-0.593-1.484-0.593c-0.671,0-1.203,0.213-1.598,0.638c-0.396,0.426-0.593,1.048-0.593,1.868v4.395h-1.71v-4.635
		c0-0.721-0.18-1.277-0.54-1.673c-0.36-0.395-0.854-0.593-1.485-0.593c-0.67,0-1.202,0.213-1.597,0.638
		c-0.396,0.426-0.593,1.048-0.593,1.868v4.395h-1.71v-8.265h1.71v1.725c0.21-0.6,0.56-1.06,1.05-1.38s1.065-0.48,1.725-0.48
		c0.69,0,1.288,0.171,1.793,0.511s0.872,0.83,1.103,1.47c0.24-0.62,0.625-1.104,1.155-1.455c0.529-0.35,1.13-0.525,1.8-0.525
		C78.676,162.359,79.459,162.67,80.044,163.29z"/>
	<path fill="#808080" d="M88.855,162.899c0.641,0.341,1.141,0.83,1.5,1.471c0.36,0.64,0.54,1.39,0.54,2.25
		c0,0.87-0.18,1.625-0.54,2.265c-0.359,0.64-0.859,1.13-1.5,1.47c-0.64,0.341-1.359,0.511-2.159,0.511
		c-0.801,0-1.518-0.17-2.153-0.511c-0.635-0.34-1.135-0.832-1.5-1.478c-0.365-0.645-0.547-1.397-0.547-2.257
		c0-0.86,0.182-1.61,0.547-2.25c0.365-0.641,0.865-1.13,1.5-1.471c0.636-0.34,1.353-0.51,2.153-0.51
		C87.496,162.39,88.216,162.56,88.855,162.899z M85.48,164.175c-0.37,0.2-0.667,0.508-0.893,0.923
		c-0.225,0.415-0.337,0.922-0.337,1.522c0,0.609,0.112,1.12,0.337,1.529c0.226,0.41,0.522,0.716,0.893,0.915
		c0.37,0.2,0.775,0.301,1.216,0.301c0.439,0,0.845-0.101,1.215-0.301c0.369-0.199,0.667-0.505,0.893-0.915
		c0.225-0.409,0.337-0.92,0.337-1.529c0-0.601-0.112-1.107-0.337-1.522c-0.226-0.415-0.523-0.723-0.893-0.923
		c-0.37-0.2-0.775-0.3-1.215-0.3C86.256,163.875,85.851,163.975,85.48,164.175z"/>
	<path fill="#808080" d="M97.593,163.132c0.586,0.495,0.943,1.158,1.073,1.988h-1.62c-0.07-0.45-0.263-0.812-0.578-1.088
		c-0.314-0.274-0.732-0.412-1.252-0.412c-0.43,0-0.763,0.103-0.998,0.308c-0.234,0.205-0.352,0.482-0.352,0.832
		c0,0.26,0.084,0.47,0.255,0.63c0.17,0.16,0.382,0.285,0.637,0.375c0.256,0.09,0.618,0.19,1.088,0.3
		c0.62,0.141,1.122,0.285,1.508,0.436c0.385,0.149,0.715,0.388,0.989,0.712c0.275,0.325,0.413,0.768,0.413,1.328
		c0,0.689-0.263,1.25-0.788,1.68c-0.524,0.43-1.232,0.646-2.122,0.646c-1.03,0-1.862-0.24-2.497-0.721
		c-0.636-0.479-1.018-1.149-1.147-2.01h1.665c0.05,0.45,0.249,0.815,0.6,1.095c0.35,0.28,0.81,0.42,1.38,0.42
		c0.41,0,0.732-0.107,0.968-0.322c0.234-0.215,0.353-0.487,0.353-0.817c0-0.29-0.09-0.52-0.271-0.69
		c-0.18-0.17-0.404-0.302-0.675-0.397c-0.27-0.095-0.64-0.192-1.11-0.292c-0.6-0.14-1.087-0.28-1.462-0.42s-0.695-0.368-0.96-0.683
		c-0.266-0.315-0.397-0.742-0.397-1.282c0-0.7,0.263-1.268,0.787-1.703c0.525-0.435,1.253-0.652,2.183-0.652
		C96.23,162.39,97.008,162.638,97.593,163.132z"/>
	<path fill="#808080" d="M108.131,169.274v1.485h-1.051c-0.88,0-1.547-0.212-2.002-0.638c-0.455-0.425-0.683-1.132-0.683-2.122
		v-4.05h-1.186v-1.455h1.186v-2.056h1.725v2.056h1.995v1.455h-1.995v4.079c0,0.471,0.088,0.796,0.263,0.976s0.482,0.27,0.923,0.27
		H108.131z"/>
	<path fill="#808080" d="M117.355,162.495v8.265h-1.726v-1.8c-0.21,0.61-0.575,1.082-1.095,1.417
		c-0.521,0.336-1.125,0.503-1.815,0.503c-0.96,0-1.729-0.31-2.31-0.93s-0.87-1.505-0.87-2.655v-4.8h1.71v4.62
		c0,0.75,0.19,1.327,0.57,1.732c0.38,0.404,0.899,0.607,1.56,0.607c0.681,0,1.226-0.22,1.636-0.66c0.409-0.44,0.614-1.08,0.614-1.92
		v-4.38H117.355z"/>
	<path fill="#808080" d="M124.645,162.944c0.53,0.37,0.9,0.86,1.11,1.471v-4.755h1.726v11.1h-1.726v-1.92
		c-0.21,0.61-0.58,1.1-1.11,1.47c-0.529,0.37-1.17,0.556-1.92,0.556c-0.72,0-1.362-0.17-1.927-0.511
		c-0.565-0.34-1.008-0.83-1.328-1.47s-0.479-1.395-0.479-2.265c0-0.86,0.159-1.61,0.479-2.25c0.32-0.641,0.763-1.13,1.328-1.471
		c0.564-0.34,1.207-0.51,1.927-0.51C123.475,162.39,124.115,162.575,124.645,162.944z M121.428,164.617
		c-0.455,0.485-0.683,1.152-0.683,2.003c0,0.85,0.228,1.518,0.683,2.002c0.455,0.485,1.062,0.728,1.822,0.728
		c0.48,0,0.91-0.112,1.29-0.337c0.38-0.226,0.68-0.543,0.9-0.953c0.22-0.41,0.329-0.89,0.329-1.439c0-0.54-0.109-1.018-0.329-1.433
		c-0.221-0.415-0.521-0.735-0.9-0.96c-0.38-0.226-0.81-0.338-1.29-0.338C122.49,163.89,121.883,164.133,121.428,164.617z"/>
	<path fill="#808080" d="M135.475,162.899c0.641,0.341,1.141,0.83,1.5,1.471c0.36,0.64,0.54,1.39,0.54,2.25
		c0,0.87-0.18,1.625-0.54,2.265c-0.359,0.64-0.859,1.13-1.5,1.47c-0.64,0.341-1.359,0.511-2.159,0.511
		c-0.801,0-1.518-0.17-2.153-0.511c-0.635-0.34-1.135-0.832-1.5-1.478c-0.365-0.645-0.547-1.397-0.547-2.257
		c0-0.86,0.182-1.61,0.547-2.25c0.365-0.641,0.865-1.13,1.5-1.471c0.636-0.34,1.353-0.51,2.153-0.51
		C134.115,162.39,134.835,162.56,135.475,162.899z M132.1,164.175c-0.37,0.2-0.667,0.508-0.893,0.923
		c-0.225,0.415-0.337,0.922-0.337,1.522c0,0.609,0.112,1.12,0.337,1.529c0.226,0.41,0.522,0.716,0.893,0.915
		c0.37,0.2,0.775,0.301,1.216,0.301c0.439,0,0.845-0.101,1.215-0.301c0.369-0.199,0.667-0.505,0.893-0.915
		c0.225-0.409,0.337-0.92,0.337-1.529c0-0.601-0.112-1.107-0.337-1.522c-0.226-0.415-0.523-0.723-0.893-0.923
		c-0.37-0.2-0.775-0.3-1.215-0.3C132.875,163.875,132.47,163.975,132.1,164.175z"/>
	<path fill="#808080" d="M148.614,162.899c0.641,0.341,1.141,0.83,1.5,1.471c0.36,0.64,0.54,1.39,0.54,2.25
		c0,0.87-0.18,1.625-0.54,2.265c-0.359,0.64-0.859,1.13-1.5,1.47c-0.64,0.341-1.359,0.511-2.159,0.511
		c-0.801,0-1.518-0.17-2.153-0.511c-0.635-0.34-1.135-0.832-1.5-1.478c-0.365-0.645-0.547-1.397-0.547-2.257
		c0-0.86,0.182-1.61,0.547-2.25c0.365-0.641,0.865-1.13,1.5-1.471c0.636-0.34,1.353-0.51,2.153-0.51
		C147.255,162.39,147.975,162.56,148.614,162.899z M145.239,164.175c-0.37,0.2-0.667,0.508-0.893,0.923
		c-0.225,0.415-0.337,0.922-0.337,1.522c0,0.609,0.112,1.12,0.337,1.529c0.226,0.41,0.522,0.716,0.893,0.915
		c0.37,0.2,0.775,0.301,1.216,0.301c0.439,0,0.845-0.101,1.215-0.301c0.369-0.199,0.667-0.505,0.893-0.915
		c0.225-0.409,0.337-0.92,0.337-1.529c0-0.601-0.112-1.107-0.337-1.522c-0.226-0.415-0.523-0.723-0.893-0.923
		c-0.37-0.2-0.775-0.3-1.215-0.3C146.015,163.875,145.609,163.975,145.239,164.175z"/>
	<path fill="#808080" d="M162.744,163.29c0.58,0.62,0.87,1.505,0.87,2.654v4.815h-1.71v-4.635c0-0.74-0.19-1.312-0.57-1.718
		s-0.899-0.607-1.56-0.607c-0.681,0-1.226,0.218-1.635,0.652c-0.41,0.436-0.615,1.072-0.615,1.913v4.395h-1.71v-8.265h1.71v1.814
		c0.22-0.62,0.59-1.1,1.11-1.439c0.52-0.34,1.119-0.511,1.8-0.511C161.395,162.359,162.164,162.67,162.744,163.29z"/>
	<path fill="#808080" d="M173.23,166.965h-6.36c0.03,0.85,0.265,1.48,0.705,1.89c0.439,0.41,0.984,0.615,1.635,0.615
		c0.57,0,1.053-0.145,1.447-0.435c0.396-0.29,0.638-0.676,0.728-1.155h1.83c-0.109,0.58-0.34,1.095-0.689,1.545
		c-0.351,0.45-0.806,0.803-1.365,1.058c-0.561,0.255-1.185,0.383-1.875,0.383c-0.8,0-1.508-0.17-2.122-0.511
		c-0.615-0.34-1.098-0.83-1.448-1.47c-0.35-0.64-0.524-1.395-0.524-2.265c0-0.86,0.175-1.61,0.524-2.25
		c0.351-0.641,0.833-1.13,1.448-1.471c0.614-0.34,1.322-0.51,2.122-0.51c0.81,0,1.518,0.168,2.122,0.503
		c0.605,0.335,1.07,0.795,1.396,1.38s0.487,1.237,0.487,1.957C173.29,166.51,173.271,166.755,173.23,166.965z M171.288,164.827
		c-0.205-0.365-0.485-0.635-0.841-0.81c-0.354-0.175-0.742-0.263-1.162-0.263c-0.67,0-1.229,0.205-1.68,0.615
		s-0.695,1.015-0.735,1.814h4.695C171.585,165.645,171.492,165.192,171.288,164.827z"/>
	<path fill="#808080" d="M181.27,163.237c0.699,0.565,1.135,1.333,1.305,2.303h-1.814c-0.101-0.521-0.343-0.928-0.728-1.223
		c-0.386-0.295-0.868-0.442-1.448-0.442c-0.66,0-1.21,0.232-1.649,0.697c-0.44,0.465-0.66,1.147-0.66,2.048
		c0,0.899,0.22,1.585,0.66,2.055c0.439,0.47,0.989,0.705,1.649,0.705c0.58,0,1.062-0.15,1.448-0.45
		c0.385-0.3,0.627-0.71,0.728-1.229h1.814c-0.17,0.97-0.605,1.739-1.305,2.31c-0.7,0.57-1.585,0.855-2.655,0.855
		c-0.8,0-1.508-0.17-2.122-0.511c-0.615-0.34-1.098-0.83-1.448-1.47c-0.35-0.64-0.524-1.395-0.524-2.265
		c0-0.86,0.175-1.61,0.524-2.25c0.351-0.641,0.833-1.13,1.448-1.471c0.614-0.34,1.322-0.51,2.122-0.51
		C179.685,162.39,180.569,162.673,181.27,163.237z"/>
	<path fill="#808080" d="M191.845,166.965h-6.36c0.03,0.85,0.265,1.48,0.705,1.89c0.439,0.41,0.984,0.615,1.635,0.615
		c0.57,0,1.053-0.145,1.447-0.435c0.396-0.29,0.638-0.676,0.728-1.155h1.83c-0.109,0.58-0.34,1.095-0.689,1.545
		c-0.351,0.45-0.806,0.803-1.365,1.058c-0.561,0.255-1.185,0.383-1.875,0.383c-0.8,0-1.508-0.17-2.122-0.511
		c-0.615-0.34-1.098-0.83-1.448-1.47c-0.35-0.64-0.524-1.395-0.524-2.265c0-0.86,0.175-1.61,0.524-2.25
		c0.351-0.641,0.833-1.13,1.448-1.471c0.614-0.34,1.322-0.51,2.122-0.51c0.81,0,1.518,0.168,2.122,0.503
		c0.605,0.335,1.07,0.795,1.396,1.38s0.487,1.237,0.487,1.957C191.904,166.51,191.885,166.755,191.845,166.965z M189.902,164.827
		c-0.205-0.365-0.485-0.635-0.841-0.81c-0.354-0.175-0.742-0.263-1.162-0.263c-0.67,0-1.229,0.205-1.68,0.615
		s-0.695,1.015-0.735,1.814h4.695C190.199,165.645,190.106,165.192,189.902,164.827z"/>
	<path fill="#808080" d="M198.602,163.132c0.586,0.495,0.943,1.158,1.073,1.988h-1.62c-0.07-0.45-0.263-0.812-0.578-1.088
		c-0.314-0.274-0.732-0.412-1.252-0.412c-0.43,0-0.763,0.103-0.998,0.308c-0.234,0.205-0.352,0.482-0.352,0.832
		c0,0.26,0.084,0.47,0.255,0.63c0.17,0.16,0.382,0.285,0.637,0.375c0.256,0.09,0.618,0.19,1.088,0.3
		c0.62,0.141,1.122,0.285,1.508,0.436c0.385,0.149,0.715,0.388,0.989,0.712c0.275,0.325,0.413,0.768,0.413,1.328
		c0,0.689-0.263,1.25-0.788,1.68c-0.524,0.43-1.232,0.646-2.122,0.646c-1.03,0-1.862-0.24-2.497-0.721
		c-0.636-0.479-1.018-1.149-1.147-2.01h1.665c0.05,0.45,0.249,0.815,0.6,1.095c0.35,0.28,0.81,0.42,1.38,0.42
		c0.41,0,0.732-0.107,0.968-0.322c0.234-0.215,0.353-0.487,0.353-0.817c0-0.29-0.09-0.52-0.271-0.69
		c-0.18-0.17-0.404-0.302-0.675-0.397c-0.27-0.095-0.64-0.192-1.11-0.292c-0.6-0.14-1.087-0.28-1.462-0.42s-0.695-0.368-0.96-0.683
		c-0.266-0.315-0.397-0.742-0.397-1.282c0-0.7,0.263-1.268,0.787-1.703c0.525-0.435,1.253-0.652,2.183-0.652
		C197.239,162.39,198.017,162.638,198.602,163.132z"/>
	<path fill="#808080" d="M206.521,163.132c0.586,0.495,0.943,1.158,1.073,1.988h-1.62c-0.07-0.45-0.263-0.812-0.578-1.088
		c-0.314-0.274-0.732-0.412-1.252-0.412c-0.43,0-0.763,0.103-0.998,0.308c-0.234,0.205-0.352,0.482-0.352,0.832
		c0,0.26,0.084,0.47,0.255,0.63c0.17,0.16,0.382,0.285,0.637,0.375c0.256,0.09,0.618,0.19,1.088,0.3
		c0.62,0.141,1.122,0.285,1.508,0.436c0.385,0.149,0.715,0.388,0.989,0.712c0.275,0.325,0.413,0.768,0.413,1.328
		c0,0.689-0.263,1.25-0.788,1.68c-0.524,0.43-1.232,0.646-2.122,0.646c-1.03,0-1.862-0.24-2.497-0.721
		c-0.636-0.479-1.018-1.149-1.147-2.01h1.665c0.05,0.45,0.249,0.815,0.6,1.095c0.35,0.28,0.81,0.42,1.38,0.42
		c0.41,0,0.732-0.107,0.968-0.322c0.234-0.215,0.353-0.487,0.353-0.817c0-0.29-0.09-0.52-0.271-0.69
		c-0.18-0.17-0.404-0.302-0.675-0.397c-0.27-0.095-0.64-0.192-1.11-0.292c-0.6-0.14-1.087-0.28-1.462-0.42s-0.695-0.368-0.96-0.683
		c-0.266-0.315-0.397-0.742-0.397-1.282c0-0.7,0.263-1.268,0.787-1.703c0.525-0.435,1.253-0.652,2.183-0.652
		C205.159,162.39,205.937,162.638,206.521,163.132z"/>
	<path fill="#808080" d="M214.629,162.944c0.53,0.37,0.905,0.86,1.125,1.471v-1.92h1.711v8.265h-1.711v-1.92
		c-0.22,0.61-0.595,1.1-1.125,1.47c-0.529,0.37-1.17,0.556-1.92,0.556c-0.72,0-1.362-0.17-1.927-0.511
		c-0.565-0.34-1.008-0.83-1.328-1.47s-0.479-1.395-0.479-2.265c0-0.86,0.159-1.61,0.479-2.25c0.32-0.641,0.763-1.13,1.328-1.471
		c0.564-0.34,1.207-0.51,1.927-0.51C213.459,162.39,214.1,162.575,214.629,162.944z M211.412,164.617
		c-0.455,0.485-0.683,1.152-0.683,2.003c0,0.85,0.228,1.518,0.683,2.002c0.455,0.485,1.062,0.728,1.822,0.728
		c0.48,0,0.91-0.112,1.29-0.337c0.38-0.226,0.68-0.543,0.9-0.953c0.22-0.41,0.329-0.89,0.329-1.439c0-0.54-0.109-1.018-0.329-1.433
		c-0.221-0.415-0.521-0.735-0.9-0.96c-0.38-0.226-0.81-0.338-1.29-0.338C212.475,163.89,211.867,164.133,211.412,164.617z
		 M215.604,160.154l-3.315,1.695v-1.2l3.315-1.83V160.154z"/>
	<path fill="#808080" d="M222.43,162.832c0.52-0.314,1.119-0.473,1.8-0.473v1.86h-0.51c-0.75,0-1.353,0.183-1.808,0.548
		s-0.683,0.967-0.683,1.808v4.185h-1.71v-8.265h1.71v1.62C221.509,163.575,221.909,163.147,222.43,162.832z"/>
	<path fill="#808080" d="M225.563,159.375c0.2-0.19,0.465-0.285,0.795-0.285s0.598,0.095,0.803,0.285
		c0.205,0.189,0.308,0.43,0.308,0.72s-0.103,0.525-0.308,0.705s-0.473,0.27-0.803,0.27s-0.595-0.09-0.795-0.27s-0.3-0.415-0.3-0.705
		S225.363,159.564,225.563,159.375z M227.214,162.495v8.265h-1.71v-8.265H227.214z"/>
	<path fill="#808080" d="M235.224,162.899c0.641,0.341,1.141,0.83,1.5,1.471c0.36,0.64,0.54,1.39,0.54,2.25
		c0,0.87-0.18,1.625-0.54,2.265c-0.359,0.64-0.859,1.13-1.5,1.47c-0.64,0.341-1.359,0.511-2.159,0.511
		c-0.801,0-1.518-0.17-2.153-0.511c-0.635-0.34-1.135-0.832-1.5-1.478c-0.365-0.645-0.547-1.397-0.547-2.257
		c0-0.86,0.182-1.61,0.547-2.25c0.365-0.641,0.865-1.13,1.5-1.471c0.636-0.34,1.353-0.51,2.153-0.51
		C233.864,162.39,234.584,162.56,235.224,162.899z M231.849,164.175c-0.37,0.2-0.667,0.508-0.893,0.923
		c-0.225,0.415-0.337,0.922-0.337,1.522c0,0.609,0.112,1.12,0.337,1.529c0.226,0.41,0.522,0.716,0.893,0.915
		c0.37,0.2,0.775,0.301,1.216,0.301c0.439,0,0.845-0.101,1.215-0.301c0.369-0.199,0.667-0.505,0.893-0.915
		c0.225-0.409,0.337-0.92,0.337-1.529c0-0.601-0.112-1.107-0.337-1.522c-0.226-0.415-0.523-0.723-0.893-0.923
		c-0.37-0.2-0.775-0.3-1.215-0.3C232.624,163.875,232.219,163.975,231.849,164.175z"/>
	<path fill="#808080" d="M249.091,162.899c0.565,0.341,1.008,0.83,1.328,1.471c0.319,0.64,0.479,1.39,0.479,2.25
		c0,0.87-0.16,1.625-0.479,2.265c-0.32,0.64-0.763,1.13-1.328,1.47c-0.564,0.341-1.207,0.511-1.927,0.511
		c-0.75,0-1.391-0.186-1.92-0.556c-0.53-0.37-0.9-0.859-1.11-1.47v5.85h-1.71v-12.194h1.71v1.92c0.21-0.61,0.58-1.101,1.11-1.471
		c0.529-0.369,1.17-0.555,1.92-0.555C247.884,162.39,248.526,162.56,249.091,162.899z M245.349,164.228
		c-0.38,0.225-0.68,0.545-0.9,0.96c-0.22,0.415-0.329,0.893-0.329,1.433c0,0.55,0.109,1.029,0.329,1.439
		c0.221,0.41,0.521,0.728,0.9,0.953c0.38,0.225,0.81,0.337,1.29,0.337c0.76,0,1.37-0.242,1.83-0.728
		c0.46-0.484,0.689-1.152,0.689-2.002c0-0.841-0.229-1.505-0.689-1.995s-1.07-0.735-1.83-0.735
		C246.158,163.89,245.729,164.002,245.349,164.228z"/>
	<path fill="#808080" d="M257.783,162.944c0.53,0.37,0.905,0.86,1.125,1.471v-1.92h1.711v8.265h-1.711v-1.92
		c-0.22,0.61-0.595,1.1-1.125,1.47c-0.529,0.37-1.17,0.556-1.92,0.556c-0.72,0-1.362-0.17-1.927-0.511
		c-0.565-0.34-1.008-0.83-1.328-1.47s-0.479-1.395-0.479-2.265c0-0.86,0.159-1.61,0.479-2.25c0.32-0.641,0.763-1.13,1.328-1.471
		c0.564-0.34,1.207-0.51,1.927-0.51C256.613,162.39,257.254,162.575,257.783,162.944z M254.566,164.617
		c-0.455,0.485-0.683,1.152-0.683,2.003c0,0.85,0.228,1.518,0.683,2.002c0.455,0.485,1.062,0.728,1.822,0.728
		c0.48,0,0.91-0.112,1.29-0.337c0.38-0.226,0.68-0.543,0.9-0.953c0.22-0.41,0.329-0.89,0.329-1.439c0-0.54-0.109-1.018-0.329-1.433
		c-0.221-0.415-0.521-0.735-0.9-0.96c-0.38-0.226-0.81-0.338-1.29-0.338C255.629,163.89,255.021,164.133,254.566,164.617z"/>
	<path fill="#808080" d="M265.584,162.832c0.52-0.314,1.119-0.473,1.8-0.473v1.86h-0.51c-0.75,0-1.353,0.183-1.808,0.548
		s-0.683,0.967-0.683,1.808v4.185h-1.71v-8.265h1.71v1.62C264.663,163.575,265.063,163.147,265.584,162.832z"/>
	<path fill="#808080" d="M273.893,162.944c0.53,0.37,0.905,0.86,1.125,1.471v-1.92h1.711v8.265h-1.711v-1.92
		c-0.22,0.61-0.595,1.1-1.125,1.47c-0.529,0.37-1.17,0.556-1.92,0.556c-0.72,0-1.362-0.17-1.927-0.511
		c-0.565-0.34-1.008-0.83-1.328-1.47s-0.479-1.395-0.479-2.265c0-0.86,0.159-1.61,0.479-2.25c0.32-0.641,0.763-1.13,1.328-1.471
		c0.564-0.34,1.207-0.51,1.927-0.51C272.723,162.39,273.363,162.575,273.893,162.944z M270.676,164.617
		c-0.455,0.485-0.683,1.152-0.683,2.003c0,0.85,0.228,1.518,0.683,2.002c0.455,0.485,1.062,0.728,1.822,0.728
		c0.48,0,0.91-0.112,1.29-0.337c0.38-0.226,0.68-0.543,0.9-0.953c0.22-0.41,0.329-0.89,0.329-1.439c0-0.54-0.109-1.018-0.329-1.433
		c-0.221-0.415-0.521-0.735-0.9-0.96c-0.38-0.226-0.81-0.338-1.29-0.338C271.738,163.89,271.131,164.133,270.676,164.617z"/>
</g>
<g enable-background="new    ">
	<path fill="#808080" d="M55.181,182.944c0.53,0.37,0.905,0.86,1.125,1.471v-1.92h1.71v8.265h-1.71v-1.92
		c-0.22,0.61-0.595,1.1-1.125,1.47c-0.53,0.37-1.17,0.556-1.92,0.556c-0.72,0-1.363-0.17-1.928-0.511
		c-0.565-0.34-1.007-0.83-1.327-1.47c-0.32-0.64-0.48-1.395-0.48-2.265c0-0.86,0.16-1.61,0.48-2.25
		c0.32-0.641,0.762-1.13,1.327-1.471c0.565-0.34,1.208-0.51,1.928-0.51C54.011,182.39,54.651,182.575,55.181,182.944z
		 M51.964,184.617c-0.456,0.485-0.683,1.152-0.683,2.003c0,0.85,0.227,1.518,0.683,2.002c0.455,0.485,1.062,0.728,1.822,0.728
		c0.48,0,0.91-0.112,1.29-0.337c0.38-0.226,0.68-0.543,0.9-0.953c0.22-0.41,0.33-0.89,0.33-1.439c0-0.54-0.11-1.018-0.33-1.433
		c-0.22-0.415-0.52-0.735-0.9-0.96c-0.38-0.226-0.81-0.338-1.29-0.338C53.026,183.89,52.418,184.133,51.964,184.617z"/>
	<path fill="#808080" d="M68.628,183.132c0.586,0.495,0.943,1.158,1.073,1.988h-1.62c-0.07-0.45-0.263-0.812-0.578-1.088
		c-0.314-0.274-0.732-0.412-1.252-0.412c-0.43,0-0.763,0.103-0.998,0.308c-0.234,0.205-0.352,0.482-0.352,0.832
		c0,0.26,0.084,0.47,0.255,0.63c0.17,0.16,0.382,0.285,0.637,0.375c0.256,0.09,0.618,0.19,1.088,0.3
		c0.62,0.141,1.122,0.285,1.508,0.436c0.385,0.149,0.715,0.388,0.989,0.712c0.275,0.325,0.413,0.768,0.413,1.328
		c0,0.689-0.263,1.25-0.788,1.68c-0.524,0.43-1.232,0.646-2.122,0.646c-1.03,0-1.862-0.24-2.497-0.721
		c-0.636-0.479-1.018-1.149-1.148-2.01h1.666c0.05,0.45,0.249,0.815,0.6,1.095c0.35,0.28,0.81,0.42,1.38,0.42
		c0.41,0,0.732-0.107,0.968-0.322c0.234-0.215,0.353-0.487,0.353-0.817c0-0.29-0.09-0.52-0.271-0.69
		c-0.18-0.17-0.404-0.302-0.675-0.397c-0.27-0.095-0.64-0.192-1.11-0.292c-0.6-0.14-1.087-0.28-1.462-0.42s-0.695-0.368-0.96-0.683
		c-0.266-0.315-0.398-0.742-0.398-1.282c0-0.7,0.264-1.268,0.788-1.703c0.525-0.435,1.253-0.652,2.183-0.652
		C67.266,182.39,68.043,182.638,68.628,183.132z"/>
	<path fill="#808080" d="M79.121,182.495v8.265h-1.726v-1.8c-0.21,0.61-0.575,1.082-1.095,1.417
		c-0.521,0.336-1.125,0.503-1.815,0.503c-0.96,0-1.729-0.31-2.31-0.93s-0.87-1.505-0.87-2.655v-4.8h1.71v4.62
		c0,0.75,0.19,1.327,0.57,1.732c0.38,0.404,0.899,0.607,1.56,0.607c0.681,0,1.226-0.22,1.636-0.66c0.409-0.44,0.614-1.08,0.614-1.92
		v-4.38H79.121z"/>
	<path fill="#808080" d="M86.41,182.944c0.53,0.37,0.905,0.86,1.125,1.471v-1.92h1.711v8.265h-1.711v-1.92
		c-0.22,0.61-0.595,1.1-1.125,1.47c-0.529,0.37-1.17,0.556-1.92,0.556c-0.72,0-1.362-0.17-1.927-0.511
		c-0.565-0.34-1.008-0.83-1.328-1.47s-0.479-1.395-0.479-2.265c0-0.86,0.159-1.61,0.479-2.25c0.32-0.641,0.763-1.13,1.328-1.471
		c0.564-0.34,1.207-0.51,1.927-0.51C85.24,182.39,85.881,182.575,86.41,182.944z M83.193,184.617
		c-0.455,0.485-0.683,1.152-0.683,2.003c0,0.85,0.228,1.518,0.683,2.002c0.455,0.485,1.062,0.728,1.822,0.728
		c0.48,0,0.91-0.112,1.29-0.337c0.38-0.226,0.68-0.543,0.9-0.953c0.22-0.41,0.329-0.89,0.329-1.439c0-0.54-0.109-1.018-0.329-1.433
		c-0.221-0.415-0.521-0.735-0.9-0.96c-0.38-0.226-0.81-0.338-1.29-0.338C84.256,183.89,83.648,184.133,83.193,184.617z"/>
	<path fill="#808080" d="M100.045,182.944c0.53,0.37,0.905,0.86,1.125,1.471v-1.92h1.711v8.265h-1.711v-1.92
		c-0.22,0.61-0.595,1.1-1.125,1.47c-0.529,0.37-1.17,0.556-1.92,0.556c-0.72,0-1.362-0.17-1.927-0.511
		c-0.565-0.34-1.008-0.83-1.328-1.47s-0.479-1.395-0.479-2.265c0-0.86,0.159-1.61,0.479-2.25c0.32-0.641,0.763-1.13,1.328-1.471
		c0.564-0.34,1.207-0.51,1.927-0.51C98.875,182.39,99.516,182.575,100.045,182.944z M96.828,184.617
		c-0.455,0.485-0.683,1.152-0.683,2.003c0,0.85,0.228,1.518,0.683,2.002c0.455,0.485,1.062,0.728,1.822,0.728
		c0.48,0,0.91-0.112,1.29-0.337c0.38-0.226,0.68-0.543,0.9-0.953c0.22-0.41,0.329-0.89,0.329-1.439c0-0.54-0.109-1.018-0.329-1.433
		c-0.221-0.415-0.521-0.735-0.9-0.96c-0.38-0.226-0.81-0.338-1.29-0.338C97.891,183.89,97.283,184.133,96.828,184.617z"/>
	<path fill="#808080" d="M106.646,179.66v11.1h-1.71v-11.1H106.646z"/>
	<path fill="#808080" d="M108.775,179.375c0.2-0.19,0.465-0.285,0.795-0.285s0.598,0.095,0.803,0.285
		c0.205,0.189,0.308,0.43,0.308,0.72s-0.103,0.525-0.308,0.705s-0.473,0.27-0.803,0.27s-0.595-0.09-0.795-0.27s-0.3-0.415-0.3-0.705
		S108.575,179.564,108.775,179.375z M110.426,182.495v8.265h-1.71v-8.265H110.426z"/>
	<path fill="#808080" d="M125.178,183.29c0.585,0.62,0.877,1.505,0.877,2.654v4.815h-1.71v-4.635c0-0.721-0.18-1.277-0.54-1.673
		c-0.359-0.395-0.854-0.593-1.484-0.593c-0.671,0-1.203,0.213-1.598,0.638c-0.396,0.426-0.593,1.048-0.593,1.868v4.395h-1.71v-4.635
		c0-0.721-0.18-1.277-0.54-1.673c-0.36-0.395-0.854-0.593-1.485-0.593c-0.67,0-1.202,0.213-1.597,0.638
		c-0.396,0.426-0.593,1.048-0.593,1.868v4.395h-1.71v-8.265h1.71v1.725c0.21-0.6,0.56-1.06,1.05-1.38s1.065-0.48,1.725-0.48
		c0.69,0,1.288,0.171,1.793,0.511s0.872,0.83,1.103,1.47c0.24-0.62,0.625-1.104,1.155-1.455c0.529-0.35,1.13-0.525,1.8-0.525
		C123.81,182.359,124.593,182.67,125.178,183.29z"/>
	<path fill="#808080" d="M135.67,186.965h-6.36c0.03,0.85,0.265,1.48,0.705,1.89c0.439,0.41,0.984,0.615,1.635,0.615
		c0.57,0,1.053-0.145,1.447-0.435c0.396-0.29,0.638-0.676,0.728-1.155h1.83c-0.109,0.58-0.34,1.095-0.689,1.545
		c-0.351,0.45-0.806,0.803-1.365,1.058c-0.561,0.255-1.185,0.383-1.875,0.383c-0.8,0-1.508-0.17-2.122-0.511
		c-0.615-0.34-1.098-0.83-1.448-1.47c-0.35-0.64-0.524-1.395-0.524-2.265c0-0.86,0.175-1.61,0.524-2.25
		c0.351-0.641,0.833-1.13,1.448-1.471c0.614-0.34,1.322-0.51,2.122-0.51c0.81,0,1.518,0.168,2.122,0.503
		c0.605,0.335,1.07,0.795,1.396,1.38s0.487,1.237,0.487,1.957C135.729,186.51,135.71,186.755,135.67,186.965z M133.728,184.827
		c-0.205-0.365-0.485-0.635-0.841-0.81c-0.354-0.175-0.742-0.263-1.162-0.263c-0.67,0-1.229,0.205-1.68,0.615
		s-0.695,1.015-0.735,1.814h4.695C134.024,185.645,133.932,185.192,133.728,184.827z"/>
	<path fill="#808080" d="M144.31,183.29c0.58,0.62,0.87,1.505,0.87,2.654v4.815h-1.71v-4.635c0-0.74-0.19-1.312-0.57-1.718
		S142,183.8,141.34,183.8c-0.681,0-1.226,0.218-1.635,0.652c-0.41,0.436-0.615,1.072-0.615,1.913v4.395h-1.71v-8.265h1.71v1.814
		c0.22-0.62,0.59-1.1,1.11-1.439c0.52-0.34,1.119-0.511,1.8-0.511C142.96,182.359,143.729,182.67,144.31,183.29z"/>
	<path fill="#808080" d="M151.33,189.274v1.485h-1.051c-0.88,0-1.547-0.212-2.002-0.638c-0.455-0.425-0.683-1.132-0.683-2.122v-4.05
		h-1.186v-1.455h1.186v-2.056h1.725v2.056h1.995v1.455h-1.995v4.079c0,0.471,0.088,0.796,0.263,0.976s0.482,0.27,0.923,0.27H151.33z
		"/>
	<path fill="#808080" d="M158.169,182.944c0.53,0.37,0.905,0.86,1.125,1.471v-1.92h1.711v8.265h-1.711v-1.92
		c-0.22,0.61-0.595,1.1-1.125,1.47c-0.529,0.37-1.17,0.556-1.92,0.556c-0.72,0-1.362-0.17-1.927-0.511
		c-0.565-0.34-1.008-0.83-1.328-1.47s-0.479-1.395-0.479-2.265c0-0.86,0.159-1.61,0.479-2.25c0.32-0.641,0.763-1.13,1.328-1.471
		c0.564-0.34,1.207-0.51,1.927-0.51C156.999,182.39,157.64,182.575,158.169,182.944z M154.952,184.617
		c-0.455,0.485-0.683,1.152-0.683,2.003c0,0.85,0.228,1.518,0.683,2.002c0.455,0.485,1.062,0.728,1.822,0.728
		c0.48,0,0.91-0.112,1.29-0.337c0.38-0.226,0.68-0.543,0.9-0.953c0.22-0.41,0.329-0.89,0.329-1.439c0-0.54-0.109-1.018-0.329-1.433
		c-0.221-0.415-0.521-0.735-0.9-0.96c-0.38-0.226-0.81-0.338-1.29-0.338C156.015,183.89,155.407,184.133,154.952,184.617z"/>
	<path fill="#808080" d="M169.39,183.237c0.699,0.565,1.135,1.333,1.305,2.303h-1.814c-0.101-0.521-0.343-0.928-0.728-1.223
		c-0.386-0.295-0.868-0.442-1.448-0.442c-0.66,0-1.21,0.232-1.649,0.697c-0.44,0.465-0.66,1.147-0.66,2.048
		c0,0.899,0.22,1.585,0.66,2.055c0.439,0.47,0.989,0.705,1.649,0.705c0.58,0,1.062-0.15,1.448-0.45
		c0.385-0.3,0.627-0.71,0.728-1.229h1.814c-0.17,0.97-0.605,1.739-1.305,2.31c-0.7,0.57-1.585,0.855-2.655,0.855
		c-0.8,0-1.508-0.17-2.122-0.511c-0.615-0.34-1.098-0.83-1.448-1.47c-0.35-0.64-0.524-1.395-0.524-2.265
		c0-0.86,0.175-1.61,0.524-2.25c0.351-0.641,0.833-1.13,1.448-1.471c0.614-0.34,1.322-0.51,2.122-0.51
		C167.805,182.39,168.689,182.673,169.39,183.237z M168.332,191.997c0.365,0.245,0.548,0.628,0.548,1.147
		c0,0.51-0.178,0.896-0.533,1.155c-0.354,0.26-0.808,0.39-1.357,0.39h-1.725v-0.96h1.529c0.601,0,0.9-0.21,0.9-0.63
		c0-0.18-0.072-0.325-0.218-0.435c-0.145-0.11-0.372-0.165-0.683-0.165h-0.885v-1.846h1.05v1.006
		C167.509,191.64,167.967,191.752,168.332,191.997z"/>
	<path fill="#808080" d="M177.579,182.944c0.53,0.37,0.905,0.86,1.125,1.471v-1.92h1.711v8.265h-1.711v-1.92
		c-0.22,0.61-0.595,1.1-1.125,1.47c-0.529,0.37-1.17,0.556-1.92,0.556c-0.72,0-1.362-0.17-1.927-0.511
		c-0.565-0.34-1.008-0.83-1.328-1.47s-0.479-1.395-0.479-2.265c0-0.86,0.159-1.61,0.479-2.25c0.32-0.641,0.763-1.13,1.328-1.471
		c0.564-0.34,1.207-0.51,1.927-0.51C176.409,182.39,177.05,182.575,177.579,182.944z M175.772,179.982
		c0.145,0.065,0.327,0.162,0.547,0.292c0.15,0.11,0.287,0.193,0.413,0.248c0.125,0.055,0.257,0.082,0.397,0.082
		c0.17,0,0.312-0.06,0.427-0.18c0.115-0.12,0.192-0.295,0.233-0.525h0.899c-0.08,0.58-0.263,1.016-0.548,1.306
		c-0.284,0.29-0.643,0.435-1.072,0.435c-0.21,0-0.397-0.035-0.562-0.104c-0.165-0.07-0.348-0.17-0.547-0.301
		c-0.19-0.109-0.333-0.188-0.428-0.232c-0.096-0.045-0.208-0.067-0.338-0.067c-0.37,0-0.585,0.235-0.645,0.705h-0.915
		c0.189-1.17,0.729-1.755,1.62-1.755C175.454,179.885,175.627,179.917,175.772,179.982z M174.362,184.617
		c-0.455,0.485-0.683,1.152-0.683,2.003c0,0.85,0.228,1.518,0.683,2.002c0.455,0.485,1.062,0.728,1.822,0.728
		c0.48,0,0.91-0.112,1.29-0.337c0.38-0.226,0.68-0.543,0.9-0.953c0.22-0.41,0.329-0.89,0.329-1.439c0-0.54-0.109-1.018-0.329-1.433
		c-0.221-0.415-0.521-0.735-0.9-0.96c-0.38-0.226-0.81-0.338-1.29-0.338C175.425,183.89,174.817,184.133,174.362,184.617z"/>
	<path fill="#808080" d="M188.409,182.899c0.641,0.341,1.141,0.83,1.5,1.471c0.36,0.64,0.54,1.39,0.54,2.25
		c0,0.87-0.18,1.625-0.54,2.265c-0.359,0.64-0.859,1.13-1.5,1.47c-0.64,0.341-1.359,0.511-2.159,0.511
		c-0.801,0-1.518-0.17-2.153-0.511c-0.635-0.34-1.135-0.832-1.5-1.478c-0.365-0.645-0.547-1.397-0.547-2.257
		c0-0.86,0.182-1.61,0.547-2.25c0.365-0.641,0.865-1.13,1.5-1.471c0.636-0.34,1.353-0.51,2.153-0.51
		C187.05,182.39,187.77,182.56,188.409,182.899z M185.034,184.175c-0.37,0.2-0.667,0.508-0.893,0.923
		c-0.225,0.415-0.337,0.922-0.337,1.522c0,0.609,0.112,1.12,0.337,1.529c0.226,0.41,0.522,0.716,0.893,0.915
		c0.37,0.2,0.775,0.301,1.216,0.301c0.439,0,0.845-0.101,1.215-0.301c0.369-0.199,0.667-0.505,0.893-0.915
		c0.225-0.409,0.337-0.92,0.337-1.529c0-0.601-0.112-1.107-0.337-1.522c-0.226-0.415-0.523-0.723-0.893-0.923
		c-0.37-0.2-0.775-0.3-1.215-0.3C185.81,183.875,185.404,183.975,185.034,184.175z"/>
	<path fill="#808080" d="M203.229,186.965h-6.36c0.03,0.85,0.265,1.48,0.705,1.89c0.439,0.41,0.984,0.615,1.635,0.615
		c0.57,0,1.053-0.145,1.447-0.435c0.396-0.29,0.638-0.676,0.728-1.155h1.83c-0.109,0.58-0.34,1.095-0.689,1.545
		c-0.351,0.45-0.806,0.803-1.365,1.058c-0.561,0.255-1.185,0.383-1.875,0.383c-0.8,0-1.508-0.17-2.122-0.511
		c-0.615-0.34-1.098-0.83-1.448-1.47c-0.35-0.64-0.524-1.395-0.524-2.265c0-0.86,0.175-1.61,0.524-2.25
		c0.351-0.641,0.833-1.13,1.448-1.471c0.614-0.34,1.322-0.51,2.122-0.51c0.81,0,1.518,0.168,2.122,0.503
		c0.605,0.335,1.07,0.795,1.396,1.38s0.487,1.237,0.487,1.957C203.289,186.51,203.27,186.755,203.229,186.965z M201.287,184.827
		c-0.205-0.365-0.485-0.635-0.841-0.81c-0.354-0.175-0.742-0.263-1.162-0.263c-0.67,0-1.229,0.205-1.68,0.615
		s-0.695,1.015-0.735,1.814h4.695C201.584,185.645,201.491,185.192,201.287,184.827z"/>
	<path fill="#808080" d="M214.779,183.237c0.699,0.565,1.135,1.333,1.305,2.303h-1.814c-0.101-0.521-0.343-0.928-0.728-1.223
		c-0.386-0.295-0.868-0.442-1.448-0.442c-0.66,0-1.21,0.232-1.649,0.697c-0.44,0.465-0.66,1.147-0.66,2.048
		c0,0.899,0.22,1.585,0.66,2.055c0.439,0.47,0.989,0.705,1.649,0.705c0.58,0,1.062-0.15,1.448-0.45
		c0.385-0.3,0.627-0.71,0.728-1.229h1.814c-0.17,0.97-0.605,1.739-1.305,2.31c-0.7,0.57-1.585,0.855-2.655,0.855
		c-0.8,0-1.508-0.17-2.122-0.511c-0.615-0.34-1.098-0.83-1.448-1.47c-0.35-0.64-0.524-1.395-0.524-2.265
		c0-0.86,0.175-1.61,0.524-2.25c0.351-0.641,0.833-1.13,1.448-1.471c0.614-0.34,1.322-0.51,2.122-0.51
		C213.194,182.39,214.079,182.673,214.779,183.237z"/>
	<path fill="#808080" d="M225.354,182.495v8.265h-1.726v-1.8c-0.21,0.61-0.575,1.082-1.095,1.417
		c-0.521,0.336-1.125,0.503-1.815,0.503c-0.96,0-1.729-0.31-2.31-0.93s-0.87-1.505-0.87-2.655v-4.8h1.71v4.62
		c0,0.75,0.19,1.327,0.57,1.732c0.38,0.404,0.899,0.607,1.56,0.607c0.681,0,1.226-0.22,1.636-0.66c0.409-0.44,0.614-1.08,0.614-1.92
		v-4.38H225.354z"/>
	<path fill="#808080" d="M227.468,179.375c0.2-0.19,0.465-0.285,0.795-0.285s0.598,0.095,0.803,0.285
		c0.205,0.189,0.308,0.43,0.308,0.72s-0.103,0.525-0.308,0.705s-0.473,0.27-0.803,0.27s-0.595-0.09-0.795-0.27s-0.3-0.415-0.3-0.705
		S227.268,179.564,227.468,179.375z M229.118,182.495v8.265h-1.71v-8.265H229.118z"/>
	<path fill="#808080" d="M236.423,182.944c0.53,0.37,0.9,0.86,1.11,1.471v-4.755h1.726v11.1h-1.726v-1.92
		c-0.21,0.61-0.58,1.1-1.11,1.47c-0.529,0.37-1.17,0.556-1.92,0.556c-0.72,0-1.362-0.17-1.927-0.511
		c-0.565-0.34-1.008-0.83-1.328-1.47s-0.479-1.395-0.479-2.265c0-0.86,0.159-1.61,0.479-2.25c0.32-0.641,0.763-1.13,1.328-1.471
		c0.564-0.34,1.207-0.51,1.927-0.51C235.253,182.39,235.894,182.575,236.423,182.944z M233.206,184.617
		c-0.455,0.485-0.683,1.152-0.683,2.003c0,0.85,0.228,1.518,0.683,2.002c0.455,0.485,1.062,0.728,1.822,0.728
		c0.48,0,0.91-0.112,1.29-0.337c0.38-0.226,0.68-0.543,0.9-0.953c0.22-0.41,0.329-0.89,0.329-1.439c0-0.54-0.109-1.018-0.329-1.433
		c-0.221-0.415-0.521-0.735-0.9-0.96c-0.38-0.226-0.81-0.338-1.29-0.338C234.269,183.89,233.661,184.133,233.206,184.617z"/>
	<path fill="#808080" d="M246.548,182.944c0.53,0.37,0.905,0.86,1.125,1.471v-1.92h1.711v8.265h-1.711v-1.92
		c-0.22,0.61-0.595,1.1-1.125,1.47c-0.529,0.37-1.17,0.556-1.92,0.556c-0.72,0-1.362-0.17-1.927-0.511
		c-0.565-0.34-1.008-0.83-1.328-1.47s-0.479-1.395-0.479-2.265c0-0.86,0.159-1.61,0.479-2.25c0.32-0.641,0.763-1.13,1.328-1.471
		c0.564-0.34,1.207-0.51,1.927-0.51C245.378,182.39,246.019,182.575,246.548,182.944z M243.331,184.617
		c-0.455,0.485-0.683,1.152-0.683,2.003c0,0.85,0.228,1.518,0.683,2.002c0.455,0.485,1.062,0.728,1.822,0.728
		c0.48,0,0.91-0.112,1.29-0.337c0.38-0.226,0.68-0.543,0.9-0.953c0.22-0.41,0.329-0.89,0.329-1.439c0-0.54-0.109-1.018-0.329-1.433
		c-0.221-0.415-0.521-0.735-0.9-0.96c-0.38-0.226-0.81-0.338-1.29-0.338C244.394,183.89,243.786,184.133,243.331,184.617z"/>
	<path fill="#808080" d="M256.673,182.944c0.53,0.37,0.9,0.86,1.11,1.471v-4.755h1.726v11.1h-1.726v-1.92
		c-0.21,0.61-0.58,1.1-1.11,1.47c-0.529,0.37-1.17,0.556-1.92,0.556c-0.72,0-1.362-0.17-1.927-0.511
		c-0.565-0.34-1.008-0.83-1.328-1.47s-0.479-1.395-0.479-2.265c0-0.86,0.159-1.61,0.479-2.25c0.32-0.641,0.763-1.13,1.328-1.471
		c0.564-0.34,1.207-0.51,1.927-0.51C255.503,182.39,256.144,182.575,256.673,182.944z M253.456,184.617
		c-0.455,0.485-0.683,1.152-0.683,2.003c0,0.85,0.228,1.518,0.683,2.002c0.455,0.485,1.062,0.728,1.822,0.728
		c0.48,0,0.91-0.112,1.29-0.337c0.38-0.226,0.68-0.543,0.9-0.953c0.22-0.41,0.329-0.89,0.329-1.439c0-0.54-0.109-1.018-0.329-1.433
		c-0.221-0.415-0.521-0.735-0.9-0.96c-0.38-0.226-0.81-0.338-1.29-0.338C254.519,183.89,253.911,184.133,253.456,184.617z"/>
	<path fill="#808080" d="M267.503,182.899c0.641,0.341,1.141,0.83,1.5,1.471c0.36,0.64,0.54,1.39,0.54,2.25
		c0,0.87-0.18,1.625-0.54,2.265c-0.359,0.64-0.859,1.13-1.5,1.47c-0.64,0.341-1.359,0.511-2.159,0.511
		c-0.801,0-1.518-0.17-2.153-0.511c-0.635-0.34-1.135-0.832-1.5-1.478c-0.365-0.645-0.547-1.397-0.547-2.257
		c0-0.86,0.182-1.61,0.547-2.25c0.365-0.641,0.865-1.13,1.5-1.471c0.636-0.34,1.353-0.51,2.153-0.51
		C266.144,182.39,266.863,182.56,267.503,182.899z M264.128,184.175c-0.37,0.2-0.667,0.508-0.893,0.923
		c-0.225,0.415-0.337,0.922-0.337,1.522c0,0.609,0.112,1.12,0.337,1.529c0.226,0.41,0.522,0.716,0.893,0.915
		c0.37,0.2,0.775,0.301,1.216,0.301c0.439,0,0.845-0.101,1.215-0.301c0.369-0.199,0.667-0.505,0.893-0.915
		c0.225-0.409,0.337-0.92,0.337-1.529c0-0.601-0.112-1.107-0.337-1.522c-0.226-0.415-0.523-0.723-0.893-0.923
		c-0.37-0.2-0.775-0.3-1.215-0.3C264.903,183.875,264.498,183.975,264.128,184.175z"/>
</g>
<g>
	<path opacity="0.59" fill="#C7C7D8" enable-background="new    " d="M549.613,254.677c-18.978,0-36.617,0.685-51.314,1.857
		c-14.697-1.175-32.339-1.857-51.315-1.857c-51.219,0-92.739,4.984-92.739,11.13c0,6.148,41.521,11.133,92.739,11.133
		c18.978,0,36.618-0.685,51.315-1.859c14.697,1.176,32.338,1.859,51.314,1.859c51.221,0,92.739-4.983,92.739-11.133
		C642.354,259.661,600.834,254.677,549.613,254.677z"/>
	<g>
		<g>
			<path fill="#EADAAD" d="M461.005,226.902c-3.824,3.318-8.165,5.949-8.646,1.109c-0.289-2.916,3.683-4.203,5.614-5.537
				c3.442-2.373,6.246-5.873,8.312-9.451c1.405-2.436,2.455-4.94,3.316-7.584c0.591-1.817,0.917-5.262,2.559-6.492
				c4.52-3.377,1.703,10.604,1.263,11.683c-1.639,4.037-3.708,7.649-6.729,10.71C465.941,222.102,463.594,224.658,461.005,226.902z"
				/>
			<path fill="#995120" d="M472.162,198.948c-1.641,1.229-1.968,4.674-2.559,6.491c-0.659,2.023-1.434,3.967-2.388,5.858
				c1.717,0.397,3.316,1.606,4.717,2.61c0.536-1.061,1.034-2.151,1.491-3.279C473.865,209.552,476.682,195.57,472.162,198.948z"/>
		</g>
		<g>
			<g>
				<g>
					<path fill="#EADAAD" d="M478.074,254.322c-2.057-1.957-4.979-1.146-7.444-2.008c0.041-0.039,0.087-0.084,0.128-0.125
						c4.466-4.446,10.732-12.842,6.516-18.77c-9.115-12.816-25.965-5.107-34.881,5.311c-4.146,4.847-3.731,12.713,0.444,16.896
						c3.562,3.559,8.945,5.062,14.06,6.023c1.105,0.207,2.195,0.391,3.25,0.561c5.361,0.87,13.258,2.955,18.011-1.386
						C480.078,259.072,479.882,256.027,478.074,254.322z"/>
				</g>
			</g>
		</g>
		<g>
			<g>
				<g>
					<path fill="#EADAAD" d="M380.822,254.918c2.059-1.954,4.979-1.143,7.446-2.005c-0.043-0.04-0.087-0.083-0.131-0.129
						c-4.461-4.446-10.73-12.836-6.512-18.769c9.113-12.812,25.964-5.106,34.88,5.312c4.145,4.842,3.73,12.715-0.444,16.895
						c-3.56,3.56-8.946,5.061-14.062,6.022c-1.104,0.208-2.194,0.391-3.251,0.562c-5.358,0.87-13.255,2.957-18.009-1.385
						C378.821,259.668,379.02,256.624,380.822,254.918z"/>
				</g>
			</g>
		</g>
		<path fill="#FCF7E7" d="M459.293,245.086c-0.328,0.992-0.655,1.986-1.021,2.975c-0.66,1.793-1.713,3.399-2.973,4.938
			c-0.934,1.142-1.911,2.567-3.037,3.542c-2.718,2.341-8.74,2.898-12.312,3.318c-5.144,0.608-10.336,0.742-15.512,0.972
			c-3.005,0.135-6.619,0.511-9.562-0.168c-2.544-0.593-4.365-2.31-6.256-3.804c-1.258-0.998-2.644-1.969-3.69-3.15
			c-2.009-2.254-2.776-4.975-3.895-7.686c-1.865-4.524-2.721-8.773-3.686-13.508c-0.924-4.521-0.202-8.656,0.03-13.182
			c0.204-4.009,1.873-8.247,3.654-11.874c1.044-2.134,2.101-3.374,3.93-5.065c6.653-6.156,14.452-11.658,24.582-12.174
			c11.129-0.564,23.826,3.032,28.001,13.139c0.789,1.922,1.676,3.785,2.328,5.748c1.156,3.496,2.354,7.09,2.855,10.686
			c0.991,7.113,0.891,14.25-1.898,20.98C460.24,242.206,459.764,243.646,459.293,245.086z"/>
		<g>
			<path fill="#995120" d="M462.959,219.676c-0.504-3.592-1.924-7.072-3.08-10.568c-0.465-1.396-1.045-2.74-1.626-4.094
				c-1.164,1.314-1.587,3.824-1.044,5.448c0.745,2.218,0.408,3.699-0.295,6.06c-0.965,3.229-0.546,5.479,0.896,8.547
				c0.955,2.027,3.048,4.647,5.439,4.496C463.409,226.329,463.411,222.943,462.959,219.676z"/>
			<path fill="#995120" d="M401.777,225.066c1.443-3.065,1.86-5.317,0.895-8.547c-0.704-2.358-1.04-3.84-0.295-6.059
				c0.442-1.314,0.248-3.211-0.456-4.582c-0.307,0.477-0.596,0.994-0.883,1.58c-1.781,3.627-3.45,7.865-3.654,11.874
				c-0.181,3.515-0.646,6.796-0.419,10.202C399.091,229.256,400.906,226.918,401.777,225.066z"/>
		</g>
		<path fill="#EF4136" d="M402.621,195.332c-1.374,2.965-1.464,8.18-0.067,11.087c1.326,2.767,3.852,5.19,6.167,6.927
			c5.121,3.834,11.507,5.575,17.646,5.911c8.999,0.498,18.357,0.437,25.701-5.79c3.659-3.104,6.748-6.308,7.398-11.555
			c1.708-13.775-10.213-16.885-20.39-18.876c-9.574-1.879-24.281-3.229-31.483,5.598
			C406.044,190.535,403.678,193.041,402.621,195.332z"/>
		<path fill="#EADAAD" d="M447.69,256.34c-0.107,0.084-0.219,0.169-0.334,0.25c-5.04,3.704-15.322,4.934-22.063,4.7
			c-5.001-0.172-12.43-1.899-15.251-5.297c-3.145-3.79-1.346-10.077-1.346-14.295c0-2.979-2.014-11.216,3.933-12.236
			c1.902-0.325,3.276,0.705,4.996,1.29c4.35,1.475,9.257,1.684,14.017,1.331c2.522-0.183,5.174-0.179,7.572-0.771
			c2.251-0.561,4.136-1.924,6.445-2.324c7.103-1.23,7.915,6.025,8.29,9.66C454.576,244.704,453.633,251.779,447.69,256.34z"/>
		<g>
			<path fill="#FCF7E7" d="M444.621,229.956c0,0,6.727,13.003-3.582,29.19l14.889,2.26c0,0,15.32-21.914-0.143-38.77
				c0,0-2.396-3.425-8.621-0.648C440.939,224.764,444.621,229.956,444.621,229.956z"/>
			<g>
				<g>
					<g>
						<path fill="#FCF7E7" d="M436.617,258.609c-1.006,4.729,4.178,9.225,11.568,10.053c7.395,0.816,14.195-2.344,15.196-7.066
							c1.004-4.729-4.175-9.226-11.562-10.05C444.424,250.725,437.616,253.884,436.617,258.609z"/>
					</g>
				</g>
			</g>
		</g>
		<g>
			<path fill="#FCF7E7" d="M416.293,230.352c0,0-6.729,13.008,3.58,29.192l-14.888,2.259c0,0-15.318-21.912,0.144-38.768
				c0,0,2.396-3.428,8.62-0.651C419.976,225.16,416.293,230.352,416.293,230.352z"/>
			<g>
				<g>
					<g>
						<path fill="#FCF7E7" d="M424.023,259.037c0.979,4.63-4.095,9.033-11.335,9.843c-7.24,0.806-13.902-2.293-14.886-6.921
							c-0.98-4.625,4.095-9.032,11.332-9.841C416.375,251.311,423.047,254.406,424.023,259.037z"/>
					</g>
				</g>
			</g>
		</g>
		<g>
			<path fill="#663008" d="M373.017,156.672c5.058-9.103,11.316-20.269,17.902-28.511c6.334-7.926,15.441-7.836,13.665,3.936
				c-1.263,8.365-6.5,14.892-8.502,22.916c-4.24,16.994-3.631,39.377,0.805,56.393c1.847,7.076,1.645,12.402-5.804,16.033
				c-3.25,1.584-12.241,5.004-15.319,3.897c-11.021-3.974-14.924-21.989-15.069-31.907
				C360.476,184.691,365.893,169.507,373.017,156.672z"/>
			<path fill="#663008" d="M486.803,157.021c-6.624-11.929-13.237-28.006-26.206-34.361c-3.237-1.586-5.704-2.956-6.24,1.441
				c-0.391,3.203,1.184,5.775,1.485,8.884c0.777,8.014,5.952,14.592,7.896,22.374c4.24,16.995,3.632,39.381-0.807,56.393
				c-1.845,7.078-1.645,12.408,5.809,16.038c3.248,1.583,12.236,5.003,15.313,3.894c11.022-3.969,14.928-21.985,15.071-31.904
				C499.344,185.036,493.928,169.855,486.803,157.021z"/>
			<path fill="#995120" d="M470.123,184.009c-0.591-10.897-5.031-20.987-6.717-31.396c-1.773-10.968-1.041-23.328-6.46-33.47
				c-5.9-11.045-16.498-14.315-27.457-13.91c-10.961-0.405-21.559,2.865-27.457,13.91c-5.417,10.142-4.688,22.502-6.46,33.47
				c-1.689,10.407-6.128,20.497-6.72,31.396c-0.977,18.03,20.319,23.878,34.093,22.087c2.174-0.281,4.357-0.201,6.544,0.088
				c2.185-0.289,4.368-0.369,6.543-0.088C449.805,207.887,471.102,202.039,470.123,184.009z"/>
			<path fill="#EADAAD" d="M433.771,212.165c2.938,0.509,5.897,1.653,8.768,0.806c4.092-1.213,3.922-4.773,2.855-8.224
				c-2.558-8.272-12.752-8.759-19.438-5.733c-3.132,1.414-7.123,3.961-8.378,7.407c-1.154,3.179,1.584,6.55,4.889,7.056
				c2.75,0.422,5.428-1.227,8.144-1.49C431.658,211.879,432.714,211.982,433.771,212.165z"/>
			<path d="M436.04,199.712c-3.371-0.171-9.809-1.565-12.849,0.257c-3.348,2.01,1.135,5.939,3.6,6.62
				c3.839,1.065,8.449,0.668,11.682-1.718C442.118,202.18,440.233,199.925,436.04,199.712z"/>
			<path fill="#FCF7E7" d="M453.378,175.247c-3.218-6.021-8.075-10.921-11.521-16.793c-2.851-4.853-3.196-12.203-3.523-17.815
				c-0.011-0.168-0.021-0.366-0.033-0.583c-0.285-5.86-0.163-31.32-6.705-34.853c-0.696-0.005-1.4,0.003-2.104,0.03
				c-0.403-0.016-0.802-0.025-1.201-0.027c-8.651,3.838-4.845,31.516-6.413,39.617c-1.13,5.828-2.058,11.442-6.066,15.849
				c-6.887,7.567-12.441,12.799-13.149,25.215c-0.327,5.737,0.205,13.207,2.809,18.639c1.131,2.355,2.647,4.33,4.656,5.611
				c6.577,4.198,10.195-0.056,13.628-4.115c2.924-3.457,5.713-6.778,10.081-4.615c1.961,0.972,3.605,3.031,5.306,4.951
				c1.744,1.971,3.553,3.789,5.84,4.127c4.998,0.736,8.216-2.254,10.09-6.483c1.111-2.508,1.752-5.452,2.011-8.317
				C457.701,188.768,456.668,181.402,453.378,175.247z"/>
			<path d="M431.043,173.445c5.486,0.674,16.645,6.728,9.921,13.932c-3.61,3.865-18.056,4.797-20.946-0.374
				C416.004,179.809,425.349,172.742,431.043,173.445z"/>
			<g>
				<ellipse cx="409.41" cy="145.652" rx="6.388" ry="11.09"/>
				<path fill="#FFFFFF" d="M409.688,141.985c-0.808,1.884-2.559,2.963-3.902,2.409c-1.344-0.557-1.779-2.536-0.974-4.425
					c0.813-1.885,2.559-2.962,3.904-2.407C410.062,138.119,410.498,140.097,409.688,141.985z"/>
			</g>
			<g>
				<ellipse cx="449.867" cy="145.652" rx="6.389" ry="11.09"/>
				<path fill="#FFFFFF" d="M450.143,141.985c-0.809,1.884-2.556,2.963-3.9,2.409c-1.345-0.557-1.781-2.536-0.971-4.425
					c0.811-1.885,2.556-2.962,3.9-2.407C450.519,138.119,450.954,140.097,450.143,141.985z"/>
			</g>
			<rect x="430.347" y="184.531" transform="matrix(-1 -0.0075 0.0075 -1 860.6497 390.8561)" width="1.427" height="18.553"/>
		</g>
	</g>
	<g>
		<path fill="#F59776" d="M527.246,184.488c0.162,0.938,0.354,1.867,0.576,2.783c0.296,1.217,0.637,2.525,1.01,3.853"/>
		<path fill="#F59776" d="M528.832,191.124c1.371,4.88,3.192,10.022,4.954,11.989c2.24,2.503,5.285,3.684,5.285,3.684
			c6.952-1.681,13.047-0.337,15.709,0.786c2.664,1.123,6.155,2.608,8.664,3.147s6.296-1.271,6.927-1.635
			c0.634-0.363,2.929-1.688,2.929-1.688s-3.376-1.69-7.761-6.982c-4.386-5.293-5.557-12.733-4.907-16.038
			c0.651-3.302,1.576-5.393,3.226-7.457c1.646-2.062,4.587-5.16,5.394-5.668c0.807-0.507,0.303-1.199-0.03-2.191
			c-0.331-0.986-2.968-8.18-3.431-13.014c-0.462-4.839-0.521-6.072-0.481-9.086c0.039-3.014,2.065-2.551,3.354-2.208
			c1.288,0.342,6.738,1.829,10.775,4.03c4.038,2.202,10.136,6.41,11.025,7.187c0.891,0.775,1.335,0.718,2.956,0.551
			c1.622-0.168,7.392-0.873,12.132,1.176c4.739,2.045,8.929,4.045,10.49,5.413c1.561,1.367,2.049,1.012,2.559,0.229
			c0.508-0.785,4.896-6.304,12.583-9.69c7.688-3.389,9.313-3.547,10.899-3.923c1.585-0.375,1.48,0.718,1.501,1.303
			c0.02,0.588,0.576,6.66,0.892,8.326c0.316,1.667-0.103,1.706-0.222,3.546c-0.12,1.84-0.827,13.387-2.715,19.995
			c-1.892,6.611-4.513,10.709-6.384,12.871c-1.871,2.16-1.341,2.147-1.562,3.354c-0.223,1.207-1.127,5.735-3.847,10.789
			c-2.72,5.056-7.758,6.379-10.725,7.169c-2.965,0.793-5.616,1.221-6.393,1.594c-0.775,0.373-0.729,0.188-1.038,1.25
			c-0.311,1.062-5.566,14.73-6.866,17.657c-1.299,2.929-2.229,4.983-2.229,4.983c0.509,2.678,5.649,20.349,5.649,20.349
			c0.413,0.709,0.411,0.827,1.605,0.752c1.193-0.071,3.311,0.841,3.96,1.658s1.658,2.903-0.521,3.89
			c-0.54,0.244-2.375,0.491-2.375,0.491h-9.771c-0.862,0.071-1.531-0.646-1.531-0.646l-9.024-9.473
			c-1.57-1.835-4.793-5.408-5.332-6.115c0,0-0.326-0.084-0.515,0.031c-0.187,0.119-6.196,2.026-10.821,2.112
			c-4.626,0.084-5.586-0.215-6.136-0.203c-0.548,0.013-0.781,0.437-0.781,0.437s0.13,1.297-0.154,2.391
			c-0.285,1.09-1.498,4.298-1.825,5.016c-0.328,0.719,0.137,0.291,0.595,0.324c0.458,0.035,4.071,0.577,4.847,2.846
			c0.774,2.271-0.409,3.205-2.075,3.205l-10.62-0.018c-0.794,0-0.775,0.072-1.605-0.746c-0.83-0.82-5.326-4.756-7.017-6.52
			c-1.69-1.76-5.799-6.344-5.799-6.344c-0.594,2.795-3.058,7.471-3.058,7.471c-0.498,0.645-0.202,0.66,0.143,0.699
			c0.346,0.043,2.19,0.897,2.066,2.752c-0.149,2.266-1.786,2.266-1.786,2.266c-1.101,0-11.837,0-11.837,0
			c-1.498,0-1.885-1.43-1.885-1.43c-2.003-6.5-1.703-13.697-1.533-17.588c0.17-3.888,0.387-11.242,0.826-16.781
			c0.925-11.609,3.22-17.819,3.22-17.819c0.278-0.617,0.956-1.575,0.33-2.731c-0.624-1.153-3.055-5.629-4.187-9.877
			c-1.136-4.248-2.799-11.072-3.25-15.641c-0.451-4.564-1.042-11.05-1.104-16.104c-0.064-5.053,2.025-11.323,3.965-14.174
			c1.938-2.852,6.348-6.034,10.713-5.371c4.363,0.663,6.062,3.953,6.705,5.16c0.641,1.207,0.895,5.417-0.53,8.756
			c-1.421,3.345-3.521,5.11-6.016,5.155c-2.494,0.046-2.866-2.776-2.639-3.784c0.229-1.01,1.823-2.205,2.637-3.177
			c0.812-0.971,2.17-3.316,1.048-5.176c-1.12-1.862-4.07-1.713-5.908-0.603c-1.836,1.11-4.653,6.021-4.753,11.65
			c-0.082,4.726-0.014,9.911,0.833,14.827"/>
		<path fill="#FFD5AC" d="M606.639,257.63c0.853,2.972,1.508,5.289,1.508,5.289c0.413,0.709,0.411,0.827,1.605,0.752
			c1.193-0.071,3.311,0.841,3.96,1.658s1.658,2.903-0.521,3.89c-0.54,0.244-2.375,0.491-2.375,0.491h-9.772
			c-0.862,0.071-1.531-0.646-1.531-0.646l-9.024-9.474c-0.183-0.212-0.38-0.438-0.588-0.672"/>
		<path fill="#FFD8AF" d="M610.861,222.096c-1.469,3.943-5.066,13.084-6.138,15.491c-1.299,2.929-2.229,4.983-2.229,4.983"/>
		<path fill="#FFD5AC" d="M589.898,258.919c5.145-0.724,16.739-1.289,16.739-1.289"/>
		<g>
			<path fill="#FFD5AC" d="M566.27,259.727c-0.474,1.354-1.121,3.037-1.348,3.531c-0.328,0.719,0.137,0.292,0.595,0.325
				c0.458,0.035,4.071,0.577,4.847,2.847c0.774,2.271-0.409,3.203-2.075,3.203l-10.62-0.017c-0.794,0-0.775,0.073-1.605-0.746
				c-0.83-0.82-5.326-4.756-7.017-6.521c-0.336-0.35-0.765-0.809-1.24-1.32l0.021-0.018c8.245-1.693,18.347-1.318,18.347-1.318
				L566.27,259.727z"/>
		</g>
		<path fill="#FFD5AC" d="M585.271,253.627c0,0-2.771-5.182-5.221-6.468c0,0-4.301-2.759-13.149-1.136c0,0,0.348,6.85,0,10.039
			c0,0,0.233-0.422,0.781-0.437c0.55-0.011,1.509,0.286,6.136,0.204c4.625-0.086,10.422-1.941,10.636-1.994
			C584.74,253.766,585.18,253.634,585.271,253.627z"/>
		<path fill="#FFD8AF" d="M602.496,242.57c-1.232-4.258-1.078-5.896-1.783-9.44c-0.707-3.548-3.982-12.192-7.824-17.575
			c-3.843-5.387-4.466-4.736-9.078-7.893c-4.611-3.155-7.635-5.053-14-8.987c-6.363-3.932-4.455-10.53-3.639-12.305
			c0.816-1.772,4.084-3.558,5.382-4.068c1.298-0.513,3.43-0.976,2.953-2.305c-0.474-1.334,0.624-3.755,1.478-4.586
			c0.853-0.83,3.836-1.92,6.086-1.149c2.251,0.77,5.1,1.691,5.89,3.373c0.792,1.678,0.662,3.098,0.46,3.488
			c-0.201,0.389-0.135,0.736,0.536,1.298s5.162,2.463,8.398,8.818c3.235,6.356,3.841,5.896,4.622,9.724
			c0.783,3.827,1.22,5.946,1.967,8.342c0.747,2.395,1.473,5.426,1.473,5.426s0.286,0.606,0.903,1.189
			c2.084,1.971,4.543,6.176,4.543,6.176l-4.224,11.952L602.496,242.57z"/>
		<path fill="#D9514E" d="M633.767,192.866c3.286-3.568,6.492-14.066,7.478-20.767c0.982-6.699,1.01-15.71,0.957-17.99
			c-0.051-2.28-0.166-2.13-1.506-1.17c-1.338,0.961-9.103,7.28-11.819,11.078c-2.717,3.797-5.271,5.474-2.999,10.086
			c2.274,4.611,5.266,10.035,6.151,12.756C632.914,189.581,633.767,192.866,633.767,192.866z"/>
		<path fill="#D9514E" d="M571.488,169.074c3.871-3.184,8.52-6.575,9.475-7.073c0.957-0.498,1.559-1.061,1.075-1.539
			c-0.482-0.477-0.482-0.477-0.482-0.477s-6.872-7.202-9.532-9.482c-2.659-2.275-5.118-3.873-5.118-3.873
			C565.409,155.323,571.488,169.074,571.488,169.074z"/>
		<path fill="#433023" d="M594.907,174.927c-1.129,2.378-0.906,3.243-0.399,3.786c0.508,0.545,1.474,1.051,2.363-0.611
			c0.891-1.662,1.424-3.59,1.477-4.562c0.058-0.975-1.191-1.62-2.039-0.991C595.459,173.184,594.907,174.927,594.907,174.927z"/>
		<path fill="#433023" d="M575.194,170.316c-1.098,1.863-1.078,3.443-0.836,3.803c0.245,0.357,1.223,1.165,2.104-0.361
			c0.885-1.529,1.265-3.126,1.104-4.021c-0.164-0.894-1.48-0.895-1.72-0.451C575.611,169.727,575.194,170.316,575.194,170.316z"/>
		<path fill="#433023" d="M575.946,180.21c-0.034,0.743,0.841,1.363,1.343,1.767c0.503,0.399,1.116,0.395,1.5,0.053
			c0.389-0.34,0.471-0.055,0.779,0.087c0.31,0.144,1.764,0.554,3.32-0.308c0.989-0.545,1.498-1.226,1.062-1.082
			c-0.436,0.143-0.938,0.472-1.269,0.621c-0.331,0.151-1.472,0.354-1.977,0.192c-0.504-0.163-1.263-1.032-0.929-1.961
			s0.99-1.822,1.553-2.065c0.562-0.242,1.748-0.656,1.096-1.189c-0.538-0.438-3.15-0.828-3.979-0.898
			c-0.975-0.084-1.224,0.455-1.215,0.828c0.007,0.373,0.479,1.241,0.951,1.661c0.473,0.424,0.913,1.61,0.399,2.493
			c-0.399,0.685-0.714,0.867-1.216,0.785c-0.78-0.123-0.981-0.799-1.173-1.025C576.006,179.941,575.946,180.21,575.946,180.21z"/>
		<path fill="#E9AC83" d="M576.539,184.893c1.343,2.322,3.671,1.662,5.448,1.321c1.776-0.339,2.125-2.104,1.251-2.01
			c-0.875,0.096-0.963-0.041-2.595,0.346c-1.632,0.388-2.267,0.187-3.021-0.226C575.976,183.43,576.539,184.893,576.539,184.893z"/>
		<path fill="#C86A49" d="M632.295,203.684c-1.988-4.853-8.326-13.295-11.136-15.773s-6.593-5.283-9.175-6.346
			c-2.582-1.063-3.497-1.729-3.497-1.729c6.392-0.479,10.89,1.759,14.129,3.794c3.241,2.037,6.785,6.83,8.515,9.166
			c1.729,2.338,2.636,4.837,2.636,4.837l0.008,0.116c-0.157,0.451-0.065,0.748-0.183,1.381c-0.125,0.682-0.468,2.419-1.23,4.712"/>
		<path fill="#C86A49" d="M625.886,214.053c0,0-14.354-20.611-18.231-25.266c0,0,7.14,5.523,9.992,9.109
			c2.854,3.59,7.966,7.778,10.605,13.748l0.122,0.312c-0.735,0.887-1.551,1.613-2.402,2.215L625.886,214.053z"/>
		<path fill="#C86A49" d="M560.843,183.4c3.778-3.875,7.753-5.82,7.753-5.82c-2.343-1.207-4.738-0.65-4.738-0.65
			c-1.432,1.795-2.318,3.606-2.953,6.215L560.843,183.4z"/>
		<path fill="#C86A49" d="M569.112,171.357c0,0,1.679-0.258,2.708,0.765c0,0-2.969,0.644-5.133,1.58L569.112,171.357z"/>
		<g>
			<path fill="#C86A49" d="M626.523,156.259c0,0,2.273,3.343,3.029,5.847c0,0-3.363-2.613-6.556-3.322
				c0.999-0.841,2.162-1.724,3.479-2.58L626.523,156.259z"/>
		</g>
		<path fill="#C86A49" d="M632.516,153.073c0.698-0.304,1.343-0.572,1.936-0.82l0.011,0.027c0,0,0.759,1.663,1.023,3.219
			c0,0-1.99-1.139-2.904-2.254L632.516,153.073z"/>
		<path fill="#C86A49" d="M570.371,209.098c0,0,2.061,1.703,3.663,3.281c0,0,10.465,10.798,14.999,15.855
			c0,0-2.986-10.672-4.285-12.674c-1.301-2-3.191-3.986-11.448-8.153C573.3,207.407,571.005,208.732,570.371,209.098z"/>
		<path fill="#C86A49" d="M567.026,210.35c7.161,9.012,5.913,19.838,5.913,19.838c-1.548-2.182-5.182-8.82-6.577-10.89
			c-1.398-2.069-6.155-9.538-6.155-9.538c1.156,0.415,2.27,0.764,3.237,0.973c1.083,0.229,2.399,0.026,3.603-0.311"/>
		<path fill="#C86A49" d="M554.553,207.453c4.699,6.913,3.983,10.804,4.314,15.175c0.33,4.375-1.082,10.149-1.082,10.149
			s-0.108-1.035-1.679-5.58c-1.568-4.547-5.096-12.856-6.493-15.082c-1.398-2.225-4.189-6.036-4.189-6.036l-0.001-0.071
			c4.163-0.05,7.55,0.812,9.357,1.575"/>
		<path fill="#C86A49" d="M541.521,260.729c0.685-1.508,1.432-3.346,1.725-4.723c0,0-11.607-14.55-13.779-40.607
			c-0.047,0.092-0.027,0.097-0.063,0.178c0,0-2.295,6.21-3.22,17.818c-0.439,5.541-0.656,12.896-0.826,16.783
			c-0.104,2.359-0.256,5.938,0.091,9.84c0,0,7.188,1.66,7.295,1.623C532.854,261.604,541.521,260.729,541.521,260.729z"/>
		<path fill="#C86A49" d="M529.161,211.773c-0.832-1.597-2.211-4.395-3.161-7.287l0.014-0.004c0.949-2.867,4.482-8.063,4.482-8.063
			l-0.013-0.028c1.038,2.937,2.184,5.471,3.303,6.725c0.615,0.686,1.291,1.271,1.947,1.763l-0.003-0.003
			c0,0-4.402,4.667-6.606,6.917"/>
		<path fill="#C86A49" d="M521.532,167.156c0,0,2.4-1.586,4.902,1.863c-0.012,0.213-0.02,0.426-0.021,0.643
			c-0.042,2.421-0.046,4.963,0.076,7.525c0,0-3.144-1.121-5.163-2.23c-0.069-1.384-0.118-2.477-0.135-3.732
			c-0.018-1.256,0.102-2.588,0.315-3.925L521.532,167.156z"/>
		<g>
			<path fill="#C86A49" d="M532.646,157.393c-0.531,0.139-1.038,0.353-1.48,0.619c-0.911,0.551-2.068,2.041-3.011,4.093l0.017,0.016
				c-1.123-1.115-3.445-4.388-3.445-4.388c0.144-0.245,0.287-0.474,0.431-0.683c1.168-1.719,3.236-3.56,5.651-4.604l-0.012,0.006
				C531.852,155.073,532.646,157.393,532.646,157.393z"/>
		</g>
		<g>
			<path fill="#C86A49" d="M542.75,157.275c0,0-3.01-1.103-5.99,0.915l0,0c0.117,0.128,0.223,0.268,0.314,0.424
				c1.122,1.859-0.234,4.205-1.048,5.176c2.773-0.138,5.543,2.752,5.543,2.752l0.045-0.021c0.147-0.293,0.293-0.604,0.43-0.928
				C543.33,162.581,543.248,158.86,542.75,157.275L542.75,157.275z"/>
		</g>
		<g>
			<path fill="#C86A49" d="M528.792,190.984c-0.373-1.33-0.675-2.496-0.97-3.713c-0.224-0.916-0.397-1.75-0.56-2.688l-0.14-0.027
				c0,0-3.277,0.274-5.051,0.418l0.033,0.377c0.062,0.688,0.129,1.351,0.189,1.976c0.183,1.834,0.537,4.155,0.997,6.405l0,0
				c2.651-0.375,5.538-2.61,5.538-2.61L528.792,190.984z"/>
		</g>
		<path fill="#C86A49" d="M581.168,149.793c-0.427,0.415-3.193,3.905-3.188,4.443c0.002,0.536-0.357,0.956,1.241,0.403
			c1.599-0.552,5.945-2.326,5.945-2.326C584.08,151.595,581.168,149.793,581.168,149.793z"/>
		<path fill="#C86A49" d="M574.531,146.63c-0.575,1.452-1.259,3.278-1.259,3.278c1.312-0.903,3.042-2.587,3.042-2.587
			c-0.48-0.165-0.48-0.165-0.48-0.165L574.531,146.63z"/>
		<path fill="#FFD5AC" d="M541.422,260.718c0,0-9.708-1.198-15.975-0.692v-0.006c0.224,2.526,0.653,5.19,1.442,7.746
			c0,0,0.387,1.43,1.885,1.43c0,0,10.736,0,11.837,0c0,0,1.637,0,1.787-2.266c0.123-1.854-1.723-2.709-2.067-2.753
			c-0.345-0.038-0.64-0.055-0.143-0.698c0,0,0.635-1.199,1.333-2.748L541.422,260.718z"/>
	</g>
</g>
<g enable-background="new    ">
	<path fill="#F47A45" d="M49.321,64.391h15.17v6.724h-3.485v20.336h-8.2V71.115h-3.485V64.391z"/>
	<path fill="#F47A45" d="M71.667,82.841v0.41c0,1.107,0.369,1.968,2.992,1.968c2.42,0,5.167-0.86,5.167-0.86l0.573,0.328
		c0,0,0.246,2.665,0.287,5.739c0,0-2.583,1.518-7.175,1.518c-6.273,0-10.045-3.28-10.045-10.537V79.93
		c0-6.765,4.059-10.291,9.184-10.291h0.943c5.125,0,7.831,2.788,7.831,8.733v0.697c0,1.476-0.369,3.771-0.369,3.771H71.667z
		 M71.667,78.823h2.46v-2.337c0-0.943-0.328-1.353-1.066-1.353c-0.697,0-1.394,0.574-1.394,1.845V78.823z"/>
	<path fill="#F47A45" d="M91.224,91.451h-8.2v-21.32h4.797l2.337,2.419c1.147-1.394,2.706-2.911,5.74-2.911
		c2.255,0,3.977,1.066,4.961,2.624c1.106-1.271,2.665-2.624,5.494-2.624c3.607,0,5.781,2.542,5.781,6.027v15.785h-8.2V77.306
		c0-0.41-0.164-0.943-1.066-0.943c-0.615,0-1.188,0.246-1.188,0.246s0,1.927,0,14.842h-8.2V77.306c0-0.41-0.164-0.943-1.066-0.943
		c-0.615,0-1.188,0.246-1.188,0.246V91.451z"/>
	<path fill="#F47A45" d="M131.321,70.131v13.94c0,0.819,0.409,1.147,1.106,1.147c0.779,0,1.354-0.409,1.354-0.409V70.131h8.199
		v13.694c0,0.697,0.246,1.065,0.902,1.188l0.902,0.164l0.328,0.779c-0.41,2.173-0.902,4.223-0.902,4.223s-1.517,1.764-4.428,1.764
		c-1.969,0-3.485-0.902-4.265-2.009h-0.328c-1.065,0.983-2.747,2.009-5.043,2.009c-3.402,0-6.026-1.927-6.026-7.175V70.131H131.321z
		"/>
	<path fill="#F47A45" d="M153.665,91.451h-8.199v-21.32h4.797l2.337,2.419c1.147-1.394,2.706-2.911,5.74-2.911
		c2.255,0,3.977,1.066,4.961,2.624c1.106-1.271,2.665-2.624,5.494-2.624c3.607,0,5.781,2.542,5.781,6.027v15.785h-8.2V77.306
		c0-0.41-0.164-0.943-1.066-0.943c-0.615,0-1.188,0.246-1.188,0.246s0,1.927,0,14.842h-8.2V77.306c0-0.41-0.164-0.943-1.066-0.943
		c-0.615,0-1.189,0.246-1.189,0.246V91.451z"/>
</g>
<g>
	<path fill="#663008" d="M64.081,130.451v-14.596h-4.305v14.596h-8.2v-14.596h-2.255v-6.724h2.255v-0.984
		c0-6.15,3.69-8.036,9.43-8.036c5.042,0,8.692,1.353,8.692,1.353c-0.492,3.198-1.107,5.822-1.107,5.822l-0.532,0.246
		c0,0-2.583-0.697-5.412-0.697c-2.255,0-2.87,0.574-2.87,1.476v0.82h12.505v21.32H64.081z"/>
	<path fill="#663008" d="M74.249,101.751h8.199v20.418c0,1.477,0.574,2.05,1.682,2.05c0.328,0,0.943-0.123,0.943-0.123l0.778,0.615
		v5.248c0,0-1.599,0.984-4.469,0.984c-4.715,0-7.134-2.501-7.134-7.462V101.751z"/>
	<path fill="#663008" d="M87.205,130.451v-28.7h8.2v8.733h0.081c1.23-1.025,2.788-1.845,4.962-1.845
		c3.484,0,5.616,2.419,5.616,5.863v15.949h-8.199v-14.227c0-0.492-0.287-0.861-1.025-0.861s-1.435,0.41-1.435,0.41v14.678H87.205z"
		/>
	<path fill="#663008" d="M117.463,108.639c5.084,0,9.062,3.772,9.062,10.291v1.723c0,6.519-3.978,10.291-9.062,10.291h-0.738
		c-5.084,0-9.061-3.772-9.061-10.291v-1.723c0-6.519,3.977-10.291,9.061-10.291H117.463z M118.324,116.921
		c0-1.23-0.492-1.558-1.23-1.558s-1.229,0.328-1.229,1.558v5.74c0,1.189,0.491,1.558,1.229,1.558s1.23-0.368,1.23-1.558V116.921z"/>
	<path fill="#663008" d="M127.671,109.131h2.255l2.46-4.92h5.74v4.92h4.305v6.724h-4.305v5.986c0,1.682,0.574,2.378,2.091,2.378
		c0.902,0,1.681-0.205,1.681-0.205l0.533,0.287v5.781c0,0-1.722,0.861-4.428,0.861c-6.848,0-8.077-3.075-8.077-8.897v-6.191h-2.255
		V109.131z"/>
	<path fill="#663008" d="M151.779,121.841v0.41c0,1.107,0.368,1.968,2.993,1.968c2.419,0,5.166-0.86,5.166-0.86l0.573,0.328
		c0,0,0.246,2.665,0.287,5.739c0,0-2.583,1.518-7.175,1.518c-6.273,0-10.045-3.28-10.045-10.537v-1.477
		c0-6.765,4.059-10.291,9.184-10.291h0.943c5.125,0,7.831,2.788,7.831,8.733v0.697c0,1.476-0.369,3.771-0.369,3.771H151.779z
		 M151.779,117.823h2.46v-2.337c0-0.943-0.328-1.353-1.066-1.353c-0.697,0-1.394,0.574-1.394,1.845V117.823z"/>
	<path fill="#663008" d="M179.699,110.976c0,2.993-1.106,5.084-3.607,6.478l-1.271,0.697c-0.492,0.287-0.738,0.696-0.738,1.435
		v0.861h-8.199v-3.731c0-1.845,0.573-2.665,2.255-3.567l2.337-1.271c0.779-0.41,1.024-0.738,1.024-1.189v-0.082
		c0-0.697-0.614-0.984-1.968-0.984c-2.337,0-4.797,0.738-4.797,0.738l-0.615-0.328c0,0-0.41-3.075-0.574-5.535
		c0,0,2.829-1.599,7.627-1.599c6.272,0,8.527,3.362,8.527,7.626V110.976z M169.982,130.861c-2.542,0-4.51-1.723-4.51-4.346
		c0-2.625,1.968-4.347,4.51-4.347s4.51,1.722,4.51,4.347C174.492,129.139,172.524,130.861,169.982,130.861z"/>
</g>
</svg>
