<?xml version="1.0" encoding="utf-8"?>
<!-- Generator: Adobe Illustrator 16.0.0, SVG Export Plug-In . SVG Version: 6.00 Build 0)  -->
<!DOCTYPE svg PUBLIC "-//W3C//DTD SVG 1.1//EN" "http://www.w3.org/Graphics/SVG/1.1/DTD/svg11.dtd">
<svg version="1.1" id="Layer_1" xmlns="http://www.w3.org/2000/svg" xmlns:xlink="http://www.w3.org/1999/xlink" x="0px" y="0px"
	 width="707px" height="321px" viewBox="0 0 707 321" enable-background="new 0 0 707 321" xml:space="preserve">
<g enable-background="new    ">
	<path fill="#7E5189" d="M110.459,92.067l-2.174-8.613c-0.164-0.656-0.41-0.902-0.943-0.902h-0.328v9.516h-8.203v-27.07h10.664
		c6.275,0,9.023,3.281,9.023,8.326v0.697c0,3.322-1.189,5.66-3.322,6.85v0.205c0.656,0.492,1.066,1.518,1.395,2.625l2.338,8.367
		H110.459z M107.014,71.724v5.168h1.189c1.354,0,2.092-0.451,2.092-2.051v-0.615c0-1.436-0.287-2.502-2.379-2.502H107.014z"/>
	<path fill="#7E5189" d="M128.34,83.454v0.41c0,1.107,0.369,1.969,2.994,1.969c2.42,0,5.168-0.861,5.168-0.861l0.574,0.328
		c0,0,0.246,2.666,0.287,5.742c0,0-2.584,1.518-7.178,1.518c-6.275,0-10.049-3.281-10.049-10.541v-1.477
		c0-6.768,4.061-10.295,9.188-10.295h0.943c5.127,0,7.834,2.789,7.834,8.736v0.697c0,1.477-0.369,3.773-0.369,3.773H128.34z
		 M128.34,79.435h2.461v-2.338c0-0.943-0.328-1.354-1.066-1.354c-0.697,0-1.395,0.574-1.395,1.846V79.435z"/>
	<path fill="#7E5189" d="M141.872,92.149v-0.205c-1.354-0.82-1.559-2.01-1.559-2.953c0-2.01,1.025-3.404,2.666-5.168
		c-2.174-1.189-3.65-2.994-3.65-6.07c0-4.717,3.527-7.506,9.105-7.506h0.615c2.912,0,5.332,0.902,6.85,2.379h0.082
		c0.779-1.025,1.928-1.887,3.65-1.887h1.025v6.439l-0.738,0.451c0,0-0.533-0.164-1.271-0.164h-0.492v0.287
		c0,4.676-2.994,7.342-9.023,7.342c-1.148,0-1.969-0.041-1.969-0.041s-0.123,0.369-0.123,0.82c0,0.574,0.246,0.861,0.943,0.861
		h4.471c5.168,0,7.629,2.871,7.629,6.275v0.697c0,3.691-2.297,7.055-8.941,7.055h-3.158c-5.332,0-8.613-1.723-8.613-4.799v-0.205
		C139.37,93.872,140.56,92.765,141.872,92.149z M149.993,76.933c0-1.107-0.287-1.6-1.23-1.6s-1.23,0.492-1.23,1.6v1.477
		c0,1.107,0.287,1.6,1.23,1.6s1.23-0.492,1.23-1.6V76.933z M147.573,92.806v1.641c0,1.107,0.615,1.887,2.215,1.887
		s2.092-0.656,2.092-1.805v-0.205c0-1.148-0.738-1.518-1.682-1.518H147.573z"/>
	<path fill="#7E5189" d="M166.315,61.88c2.625,0,4.594,1.107,4.594,3.609c0,2.543-1.969,3.609-4.594,3.609
		c-2.666,0-4.594-1.066-4.594-3.609C161.722,62.987,163.649,61.88,166.315,61.88z M162.214,92.067V70.739h8.203v21.328H162.214z"/>
	<path fill="#7E5189" d="M172.754,85.505l0.697-0.328c0,0,3.199,0.656,5.742,0.656c2.01,0,2.42-0.287,2.42-0.738
		c0-0.246-0.082-0.369-0.533-0.451l-2.666-0.41c-4.512-0.697-6.398-2.748-6.398-6.316c0-4.717,3.035-7.67,9.844-7.67
		c3.527,0,6.562,0.82,6.562,0.861c-0.123,2.543-0.533,6.152-0.533,6.152l-0.697,0.369c0,0-2.83-0.656-4.963-0.656
		c-1.641,0-2.01,0.287-2.01,0.656c0,0.246,0.123,0.369,0.41,0.41l2.502,0.41c4.758,0.779,6.645,2.584,6.645,6.234
		c0,4.922-2.543,7.875-9.352,7.875c-4.553,0-7.26-0.82-7.26-0.82C172.836,88.622,172.754,85.505,172.754,85.505z"/>
	<path fill="#7E5189" d="M190.922,70.739h2.256l2.461-4.922h5.742v4.922h4.307v6.727h-4.307v5.988c0,1.682,0.574,2.379,2.092,2.379
		c0.902,0,1.682-0.205,1.682-0.205l0.533,0.287v5.783c0,0-1.723,0.861-4.43,0.861c-6.85,0-8.08-3.076-8.08-8.9v-6.193h-2.256V70.739
		z"/>
	<path fill="#7E5189" d="M214.955,70.247c7.67,0,10.623,2.666,10.623,8.203v5.988c0,0.492,0.082,1.025,0.902,1.189l0.902,0.164
		l0.328,0.779c-0.205,1.271-0.943,4.266-0.943,4.266s-1.518,1.723-4.389,1.723c-2.092,0-3.527-0.984-4.266-2.01h-0.328
		c-1.148,1.189-2.502,2.01-4.881,2.01c-3.732,0-6.193-2.543-6.193-6.234v-0.82c0-3.938,2.789-6.029,6.398-6.398l4.266-0.451v-0.123
		c0-1.025-0.533-1.559-3.445-1.559c-2.748,0-4.922,0.574-4.922,0.574l-0.738-0.492c0.369-3.814,0.902-6.275,0.902-6.275
		S211.551,70.247,214.955,70.247z M217.375,85.874v-3.24l-1.518,0.492c-0.697,0.205-0.943,0.902-0.943,1.559v0.574
		c0,0.697,0.369,1.148,0.984,1.148C216.596,86.407,217.375,85.874,217.375,85.874z"/>
	<path fill="#7E5189" d="M245.837,70.247c7.67,0,10.623,2.666,10.623,8.203v5.988c0,0.492,0.082,1.025,0.902,1.189l0.902,0.164
		l0.328,0.779c-0.205,1.271-0.943,4.266-0.943,4.266s-1.518,1.723-4.389,1.723c-2.092,0-3.527-0.984-4.266-2.01h-0.328
		c-1.148,1.189-2.502,2.01-4.881,2.01c-3.732,0-6.193-2.543-6.193-6.234v-0.82c0-3.938,2.789-6.029,6.398-6.398l4.266-0.451v-0.123
		c0-1.025-0.533-1.559-3.445-1.559c-2.748,0-4.922,0.574-4.922,0.574l-0.738-0.492c0.369-3.814,0.902-6.275,0.902-6.275
		S242.433,70.247,245.837,70.247z M248.257,85.874v-3.24l-1.518,0.492c-0.697,0.205-0.943,0.902-0.943,1.559v0.574
		c0,0.697,0.369,1.148,0.984,1.148C247.478,86.407,248.257,85.874,248.257,85.874z"/>
</g>
<g enable-background="new    ">
	<path fill="#FF524F" d="M98.934,125.376l0.697-0.328c0,0,3.199,0.656,5.742,0.656c2.01,0,2.42-0.287,2.42-0.738
		c0-0.246-0.082-0.369-0.533-0.451l-2.666-0.41c-4.512-0.697-6.398-2.748-6.398-6.316c0-4.717,3.035-7.67,9.844-7.67
		c3.527,0,6.562,0.82,6.562,0.861c-0.123,2.543-0.533,6.152-0.533,6.152l-0.697,0.369c0,0-2.83-0.656-4.963-0.656
		c-1.641,0-2.01,0.287-2.01,0.656c0,0.246,0.123,0.369,0.41,0.41l2.502,0.41c4.758,0.779,6.645,2.584,6.645,6.234
		c0,4.922-2.543,7.875-9.352,7.875c-4.553,0-7.26-0.82-7.26-0.82C99.016,128.493,98.934,125.376,98.934,125.376z"/>
	<path fill="#FF524F" d="M125.756,110.61v13.945c0,0.82,0.41,1.148,1.107,1.148c0.779,0,1.354-0.41,1.354-0.41V110.61h8.203v13.699
		c0,0.697,0.246,1.066,0.902,1.189l0.902,0.164l0.328,0.779c-0.41,2.174-0.902,4.225-0.902,4.225s-1.518,1.764-4.43,1.764
		c-1.969,0-3.486-0.902-4.266-2.01h-0.328c-1.066,0.984-2.748,2.01-5.045,2.01c-3.404,0-6.029-1.928-6.029-7.178V110.61H125.756z"/>
	<path fill="#FF524F" d="M147.656,110.118c7.67,0,10.623,2.666,10.623,8.203v5.988c0,0.492,0.082,1.025,0.902,1.189l0.902,0.164
		l0.328,0.779c-0.205,1.271-0.943,4.266-0.943,4.266s-1.518,1.723-4.389,1.723c-2.092,0-3.527-0.984-4.266-2.01h-0.328
		c-1.148,1.189-2.502,2.01-4.881,2.01c-3.732,0-6.193-2.543-6.193-6.234v-0.82c0-3.938,2.789-6.029,6.398-6.398l4.266-0.451v-0.123
		c0-1.025-0.533-1.559-3.445-1.559c-2.748,0-4.922,0.574-4.922,0.574l-0.738-0.492c0.369-3.814,0.902-6.275,0.902-6.275
		S144.252,110.118,147.656,110.118z M150.076,125.745v-3.24l-1.518,0.492c-0.697,0.205-0.943,0.902-0.943,1.559v0.574
		c0,0.697,0.369,1.148,0.984,1.148C149.297,126.278,150.076,125.745,150.076,125.745z"/>
	<path fill="#FF524F" d="M178.989,131.938h-8.203V110.61h4.799l2.338,2.42c1.148-1.395,2.707-2.912,5.742-2.912
		c2.256,0,3.979,1.066,4.963,2.625c1.107-1.271,2.666-2.625,5.496-2.625c3.609,0,5.783,2.543,5.783,6.029v15.791h-8.203v-14.15
		c0-0.41-0.164-0.943-1.066-0.943c-0.615,0-1.189,0.246-1.189,0.246s0,1.928,0,14.848h-8.203v-14.15c0-0.41-0.164-0.943-1.066-0.943
		c-0.615,0-1.189,0.246-1.189,0.246V131.938z"/>
	<path fill="#FF524F" d="M209.625,110.118c7.67,0,10.623,2.666,10.623,8.203v5.988c0,0.492,0.082,1.025,0.902,1.189l0.902,0.164
		l0.328,0.779c-0.205,1.271-0.943,4.266-0.943,4.266s-1.518,1.723-4.389,1.723c-2.092,0-3.527-0.984-4.266-2.01h-0.328
		c-1.148,1.189-2.502,2.01-4.881,2.01c-3.732,0-6.193-2.543-6.193-6.234v-0.82c0-3.938,2.789-6.029,6.398-6.398l4.266-0.451v-0.123
		c0-1.025-0.533-1.559-3.445-1.559c-2.748,0-4.922,0.574-4.922,0.574l-0.738-0.492c0.369-3.814,0.902-6.275,0.902-6.275
		S206.221,110.118,209.625,110.118z M212.045,125.745v-3.24l-1.518,0.492c-0.697,0.205-0.943,0.902-0.943,1.559v0.574
		c0,0.697,0.369,1.148,0.984,1.148C211.266,126.278,212.045,125.745,212.045,125.745z"/>
	<path fill="#FF524F" d="M224.101,125.376l0.697-0.328c0,0,3.199,0.656,5.742,0.656c2.01,0,2.42-0.287,2.42-0.738
		c0-0.246-0.082-0.369-0.533-0.451l-2.666-0.41c-4.512-0.697-6.398-2.748-6.398-6.316c0-4.717,3.035-7.67,9.844-7.67
		c3.527,0,6.562,0.82,6.562,0.861c-0.123,2.543-0.533,6.152-0.533,6.152l-0.697,0.369c0,0-2.83-0.656-4.963-0.656
		c-1.641,0-2.01,0.287-2.01,0.656c0,0.246,0.123,0.369,0.41,0.41l2.502,0.41c4.758,0.779,6.645,2.584,6.645,6.234
		c0,4.922-2.543,7.875-9.352,7.875c-4.553,0-7.26-0.82-7.26-0.82C224.183,128.493,224.101,125.376,224.101,125.376z"/>
	<path fill="#FF524F" d="M251.785,132.431c-5.537,0-9.434-2.543-9.434-10.541v-0.615c0-7.998,3.527-11.156,9.639-11.156
		c2.543,0,4.266,0.615,4.266,0.615c-0.164,2.707-0.656,6.193-0.656,6.111l-0.574,0.246c0,0-0.984-0.246-1.805-0.246
		c-1.641,0-2.666,0.943-2.666,4.102v0.861c0,3.158,1.025,3.896,2.871,3.896c0.82,0,1.969-0.41,1.969-0.41l0.574,0.246
		c0,0,0.41,2.543,0.779,5.947C256.748,131.487,254.697,132.431,251.785,132.431z"/>
	<path fill="#FF524F" d="M267.082,110.118c5.086,0,9.064,3.773,9.064,10.295v1.723c0,6.521-3.979,10.295-9.064,10.295h-0.738
		c-5.086,0-9.064-3.773-9.064-10.295v-1.723c0-6.521,3.979-10.295,9.064-10.295H267.082z M267.943,118.403
		c0-1.23-0.492-1.559-1.23-1.559s-1.23,0.328-1.23,1.559v5.742c0,1.189,0.492,1.559,1.23,1.559s1.23-0.369,1.23-1.559V118.403z"/>
	<path fill="#FF524F" d="M277.293,110.61h2.256l2.461-4.922h5.742v4.922h4.307v6.727h-4.307v5.988c0,1.682,0.574,2.379,2.092,2.379
		c0.902,0,1.682-0.205,1.682-0.205l0.533,0.287v5.783c0,0-1.723,0.861-4.43,0.861c-6.85,0-8.08-3.076-8.08-8.9v-6.193h-2.256V110.61
		z"/>
	<path fill="#FF524F" d="M301.408,123.325v0.41c0,1.107,0.369,1.969,2.994,1.969c2.42,0,5.168-0.861,5.168-0.861l0.574,0.328
		c0,0,0.246,2.666,0.287,5.742c0,0-2.584,1.518-7.178,1.518c-6.275,0-10.049-3.281-10.049-10.541v-1.477
		c0-6.768,4.061-10.295,9.188-10.295h0.943c5.127,0,7.834,2.789,7.834,8.736v0.697c0,1.477-0.369,3.773-0.369,3.773H301.408z
		 M301.408,119.306h2.461v-2.338c0-0.943-0.328-1.354-1.066-1.354c-0.697,0-1.395,0.574-1.395,1.846V119.306z"/>
</g>
<rect x="97.581" y="163.88" fill="none" width="271.605" height="15.216"/>
<g enable-background="new    ">
	<path fill="#1D4259" d="M100.875,166.147v3.852h4.68v1.584h-4.68v3.942h5.22v1.674h-7.272v-12.708h7.272v1.656H100.875z"/>
	<path fill="#1D4259" d="M119.901,168.172c0.84,0.679,1.361,1.6,1.566,2.764h-2.18c-0.119-0.624-0.41-1.113-0.873-1.468
		c-0.461-0.354-1.041-0.53-1.736-0.53c-0.791,0-1.451,0.278-1.98,0.837c-0.527,0.558-0.791,1.377-0.791,2.457
		s0.264,1.902,0.791,2.466c0.529,0.564,1.189,0.846,1.98,0.846c0.695,0,1.275-0.18,1.736-0.54c0.463-0.359,0.754-0.852,0.873-1.476
		h2.18c-0.205,1.164-0.727,2.088-1.566,2.771c-0.84,0.685-1.902,1.026-3.186,1.026c-0.961,0-1.811-0.204-2.547-0.612
		c-0.738-0.407-1.318-0.995-1.738-1.764c-0.42-0.768-0.63-1.674-0.63-2.718c0-1.032,0.21-1.933,0.63-2.7s1-1.355,1.738-1.764
		c0.736-0.408,1.586-0.612,2.547-0.612C117.999,167.155,119.062,167.494,119.901,168.172z"/>
	<path fill="#1D4259" d="M130.575,167.768c0.768,0.408,1.368,0.996,1.8,1.764s0.648,1.668,0.648,2.7c0,1.044-0.217,1.95-0.648,2.718
		c-0.432,0.769-1.032,1.356-1.8,1.764c-0.769,0.408-1.632,0.612-2.592,0.612c-0.961,0-1.821-0.204-2.583-0.612
		c-0.763-0.407-1.362-0.999-1.801-1.772c-0.438-0.774-0.656-1.677-0.656-2.709s0.219-1.933,0.656-2.7
		c0.438-0.768,1.038-1.355,1.801-1.764c0.762-0.408,1.622-0.612,2.583-0.612C128.943,167.155,129.807,167.359,130.575,167.768z
		 M126.525,169.297c-0.444,0.24-0.802,0.609-1.071,1.107c-0.271,0.498-0.405,1.106-0.405,1.827c0,0.731,0.135,1.344,0.405,1.836
		c0.27,0.492,0.627,0.858,1.071,1.098c0.443,0.24,0.93,0.36,1.458,0.36c0.527,0,1.014-0.12,1.458-0.36
		c0.443-0.239,0.801-0.605,1.07-1.098c0.271-0.492,0.405-1.104,0.405-1.836c0-0.721-0.135-1.329-0.405-1.827
		c-0.27-0.498-0.627-0.867-1.07-1.107c-0.444-0.239-0.931-0.359-1.458-0.359C127.455,168.938,126.969,169.058,126.525,169.297z"/>
	<path fill="#1D4259" d="M143.318,168.235c0.696,0.744,1.044,1.806,1.044,3.186v5.778h-2.052v-5.562
		c0-0.889-0.228-1.575-0.684-2.062s-1.08-0.729-1.872-0.729c-0.816,0-1.471,0.261-1.962,0.782c-0.492,0.522-0.738,1.287-0.738,2.295
		v5.274h-2.052v-9.918h2.052v2.178c0.264-0.744,0.708-1.319,1.332-1.728s1.344-0.612,2.16-0.612
		C141.699,167.119,142.623,167.491,143.318,168.235z"/>
	<path fill="#1D4259" d="M152.813,168.046c0.702,0.595,1.131,1.39,1.287,2.386h-1.944c-0.084-0.54-0.314-0.976-0.692-1.306
		s-0.88-0.495-1.503-0.495c-0.517,0-0.915,0.124-1.197,0.369c-0.282,0.246-0.423,0.579-0.423,0.999c0,0.312,0.102,0.564,0.306,0.756
		c0.204,0.192,0.459,0.343,0.766,0.45c0.306,0.108,0.74,0.229,1.305,0.36c0.744,0.168,1.347,0.342,1.809,0.521
		c0.462,0.181,0.858,0.466,1.188,0.855s0.495,0.921,0.495,1.593c0,0.828-0.315,1.5-0.945,2.016c-0.63,0.517-1.479,0.774-2.547,0.774
		c-1.236,0-2.235-0.288-2.997-0.864c-0.763-0.576-1.222-1.38-1.377-2.412h1.998c0.06,0.54,0.3,0.979,0.72,1.314
		s0.972,0.504,1.656,0.504c0.492,0,0.879-0.129,1.161-0.387c0.281-0.258,0.423-0.585,0.423-0.981c0-0.348-0.108-0.624-0.324-0.828
		c-0.216-0.203-0.486-0.362-0.81-0.477c-0.324-0.114-0.769-0.231-1.332-0.352c-0.721-0.167-1.306-0.335-1.755-0.504
		c-0.45-0.168-0.835-0.44-1.152-0.818c-0.318-0.378-0.478-0.892-0.478-1.539c0-0.84,0.315-1.521,0.945-2.043
		c0.63-0.522,1.503-0.783,2.619-0.783C151.179,167.155,152.111,167.452,152.813,168.046z"/>
	<path fill="#1D4259" d="M156.333,163.537c0.239-0.228,0.558-0.342,0.953-0.342c0.396,0,0.718,0.114,0.964,0.342
		c0.245,0.229,0.368,0.516,0.368,0.864c0,0.348-0.123,0.63-0.368,0.846c-0.246,0.216-0.567,0.324-0.964,0.324
		c-0.396,0-0.714-0.108-0.953-0.324c-0.24-0.216-0.36-0.498-0.36-0.846C155.973,164.053,156.093,163.766,156.333,163.537z
		 M158.312,167.281v9.918h-2.052v-9.918H158.312z"/>
	<path fill="#1D4259" d="M167.079,167.821c0.636,0.444,1.086,1.032,1.35,1.764v-2.304h2.052v10.026c0,0.924-0.188,1.742-0.566,2.457
		c-0.378,0.714-0.922,1.274-1.629,1.683c-0.709,0.408-1.549,0.612-2.521,0.612c-1.393,0-2.518-0.33-3.375-0.99
		c-0.858-0.66-1.395-1.555-1.611-2.682h2.034c0.168,0.587,0.492,1.046,0.973,1.377c0.479,0.329,1.092,0.494,1.836,0.494
		c0.815,0,1.487-0.252,2.016-0.756s0.792-1.235,0.792-2.195v-2.412c-0.264,0.731-0.714,1.32-1.35,1.764
		c-0.637,0.444-1.404,0.666-2.305,0.666c-0.863,0-1.635-0.204-2.312-0.612c-0.679-0.407-1.209-0.995-1.593-1.764
		c-0.385-0.768-0.576-1.674-0.576-2.718c0-1.032,0.191-1.933,0.576-2.7c0.384-0.768,0.914-1.355,1.593-1.764
		c0.678-0.408,1.449-0.612,2.312-0.612C165.675,167.155,166.442,167.377,167.079,167.821z M163.218,169.828
		c-0.546,0.582-0.819,1.383-0.819,2.403c0,1.02,0.273,1.821,0.819,2.402c0.546,0.583,1.274,0.873,2.187,0.873
		c0.576,0,1.092-0.135,1.549-0.404c0.455-0.271,0.815-0.651,1.079-1.144c0.265-0.491,0.396-1.067,0.396-1.728
		c0-0.648-0.132-1.221-0.396-1.719c-0.264-0.498-0.624-0.883-1.079-1.152c-0.457-0.271-0.973-0.405-1.549-0.405
		C164.492,168.955,163.764,169.246,163.218,169.828z"/>
	<path fill="#1D4259" d="M179.229,167.821c0.636,0.444,1.086,1.032,1.35,1.764v-2.304h2.052v9.918h-2.052v-2.304
		c-0.264,0.731-0.714,1.32-1.35,1.764c-0.637,0.444-1.404,0.666-2.305,0.666c-0.863,0-1.635-0.204-2.312-0.612
		c-0.679-0.407-1.209-0.995-1.593-1.764c-0.385-0.768-0.576-1.674-0.576-2.718c0-1.032,0.191-1.933,0.576-2.7
		c0.384-0.768,0.914-1.355,1.593-1.764c0.678-0.408,1.449-0.612,2.312-0.612C177.824,167.155,178.592,167.377,179.229,167.821z
		 M175.367,169.828c-0.546,0.582-0.819,1.383-0.819,2.403c0,1.02,0.273,1.821,0.819,2.402c0.546,0.583,1.274,0.873,2.187,0.873
		c0.576,0,1.092-0.135,1.549-0.404c0.455-0.271,0.815-0.651,1.079-1.144c0.265-0.491,0.396-1.067,0.396-1.728
		c0-0.648-0.132-1.221-0.396-1.719c-0.264-0.498-0.624-0.883-1.079-1.152c-0.457-0.271-0.973-0.405-1.549-0.405
		C176.642,168.955,175.913,169.246,175.367,169.828z"/>
	<path fill="#1D4259" d="M195.626,164.536c0.601,0.294,1.054,0.699,1.359,1.215c0.306,0.517,0.459,1.093,0.459,1.729
		c0,0.804-0.225,1.473-0.675,2.007s-1.083,0.854-1.899,0.963v0.09c0.876,0.252,1.563,0.627,2.062,1.125s0.747,1.186,0.747,2.062
		c0,1.067-0.354,1.935-1.062,2.601s-1.722,0.999-3.042,0.999c-1.356,0-2.448-0.345-3.275-1.035
		c-0.828-0.689-1.303-1.713-1.423-3.068h2.034c0.072,0.72,0.33,1.293,0.774,1.719c0.443,0.426,1.044,0.639,1.8,0.639
		c0.708,0,1.251-0.186,1.629-0.558s0.567-0.853,0.567-1.44c0-0.708-0.273-1.248-0.819-1.62c-0.546-0.371-1.335-0.558-2.367-0.558
		h-0.485v-1.692h0.485c1.956,0.024,2.935-0.642,2.935-1.998c0-0.588-0.181-1.05-0.54-1.386c-0.36-0.336-0.853-0.504-1.477-0.504
		s-1.146,0.189-1.565,0.567c-0.421,0.378-0.673,0.927-0.756,1.646h-2.017c0.084-1.248,0.504-2.217,1.26-2.907
		c0.757-0.689,1.801-1.034,3.133-1.034C194.307,164.096,195.026,164.242,195.626,164.536z"/>
	<path fill="#1D4259" d="M209,174.725c0.659-0.45,1.134-1.054,1.422-1.81h2.178c-0.359,1.356-1.053,2.428-2.079,3.213
		c-1.025,0.786-2.319,1.18-3.879,1.18c-1.5,0-2.771-0.414-3.815-1.242s-1.734-1.944-2.07-3.349h-1.674v-1.008h1.494
		c-0.024-0.384-0.036-0.672-0.036-0.863c0-0.168,0.012-0.408,0.036-0.721h-1.494V169.1h1.638c0.324-1.44,1.011-2.589,2.062-3.447
		c1.05-0.858,2.337-1.287,3.86-1.287c1.56,0,2.854,0.396,3.879,1.188c1.026,0.793,1.72,1.866,2.079,3.223h-2.178
		c-0.288-0.768-0.759-1.377-1.413-1.827s-1.455-0.675-2.403-0.675c-0.876,0-1.646,0.249-2.312,0.747s-1.131,1.19-1.396,2.079h4.051
		v1.025h-4.267c-0.024,0.312-0.036,0.553-0.036,0.721c0,0.3,0.019,0.588,0.055,0.863h4.248v1.008h-4.015
		c0.288,0.841,0.756,1.497,1.404,1.972c0.647,0.474,1.404,0.711,2.268,0.711C207.542,175.399,208.34,175.174,209,174.725z"/>
	<path fill="#1D4259" d="M225.164,167.821c0.636,0.444,1.079,1.032,1.332,1.764v-5.706h2.069v13.32h-2.069v-2.304
		c-0.253,0.731-0.696,1.32-1.332,1.764c-0.637,0.444-1.404,0.666-2.305,0.666c-0.863,0-1.635-0.204-2.312-0.612
		c-0.679-0.407-1.209-0.995-1.593-1.764c-0.385-0.768-0.576-1.674-0.576-2.718c0-1.032,0.191-1.933,0.576-2.7
		c0.384-0.768,0.914-1.355,1.593-1.764c0.678-0.408,1.449-0.612,2.312-0.612C223.76,167.155,224.527,167.377,225.164,167.821z
		 M221.303,169.828c-0.546,0.582-0.819,1.383-0.819,2.403c0,1.02,0.273,1.821,0.819,2.402c0.546,0.583,1.274,0.873,2.187,0.873
		c0.576,0,1.092-0.135,1.549-0.404c0.455-0.271,0.815-0.651,1.079-1.144c0.265-0.491,0.396-1.067,0.396-1.728
		c0-0.648-0.132-1.221-0.396-1.719c-0.264-0.498-0.624-0.883-1.079-1.152c-0.457-0.271-0.973-0.405-1.549-0.405
		C222.577,168.955,221.849,169.246,221.303,169.828z"/>
	<path fill="#1D4259" d="M240.175,172.646h-7.632c0.036,1.02,0.318,1.775,0.846,2.268c0.528,0.492,1.183,0.738,1.962,0.738
		c0.685,0,1.264-0.174,1.737-0.522c0.474-0.348,0.766-0.81,0.873-1.386h2.196c-0.133,0.696-0.408,1.314-0.828,1.854
		s-0.966,0.963-1.638,1.269c-0.673,0.306-1.422,0.459-2.25,0.459c-0.961,0-1.81-0.204-2.547-0.612
		c-0.738-0.407-1.317-0.995-1.737-1.764c-0.42-0.768-0.63-1.674-0.63-2.718c0-1.032,0.21-1.933,0.63-2.7s0.999-1.355,1.737-1.764
		c0.737-0.408,1.586-0.612,2.547-0.612c0.972,0,1.82,0.201,2.547,0.603c0.726,0.402,1.283,0.954,1.674,1.656
		c0.39,0.702,0.585,1.485,0.585,2.35C240.247,172.1,240.223,172.394,240.175,172.646z M237.844,170.08
		c-0.246-0.438-0.582-0.762-1.008-0.972s-0.891-0.315-1.395-0.315c-0.805,0-1.477,0.246-2.017,0.738s-0.834,1.218-0.882,2.178h5.634
		C238.201,171.062,238.09,170.519,237.844,170.08z"/>
	<path fill="#1D4259" d="M252.722,167.821c0.636,0.444,1.079,1.032,1.332,1.764v-5.706h2.069v13.32h-2.069v-2.304
		c-0.253,0.731-0.696,1.32-1.332,1.764c-0.637,0.444-1.404,0.666-2.305,0.666c-0.863,0-1.635-0.204-2.312-0.612
		c-0.679-0.407-1.209-0.995-1.593-1.764c-0.385-0.768-0.576-1.674-0.576-2.718c0-1.032,0.191-1.933,0.576-2.7
		c0.384-0.768,0.914-1.355,1.593-1.764c0.678-0.408,1.449-0.612,2.312-0.612C251.317,167.155,252.085,167.377,252.722,167.821z
		 M248.86,169.828c-0.546,0.582-0.819,1.383-0.819,2.403c0,1.02,0.273,1.821,0.819,2.402c0.546,0.583,1.274,0.873,2.187,0.873
		c0.576,0,1.092-0.135,1.549-0.404c0.455-0.271,0.815-0.651,1.079-1.144c0.265-0.491,0.396-1.067,0.396-1.728
		c0-0.648-0.132-1.221-0.396-1.719c-0.264-0.498-0.624-0.883-1.079-1.152c-0.457-0.271-0.973-0.405-1.549-0.405
		C250.135,168.955,249.406,169.246,248.86,169.828z"/>
	<path fill="#1D4259" d="M267.732,172.646h-7.632c0.036,1.02,0.318,1.775,0.846,2.268c0.528,0.492,1.183,0.738,1.962,0.738
		c0.685,0,1.264-0.174,1.737-0.522c0.474-0.348,0.766-0.81,0.873-1.386h2.196c-0.133,0.696-0.408,1.314-0.828,1.854
		s-0.966,0.963-1.638,1.269c-0.673,0.306-1.422,0.459-2.25,0.459c-0.961,0-1.81-0.204-2.547-0.612
		c-0.738-0.407-1.317-0.995-1.737-1.764c-0.42-0.768-0.63-1.674-0.63-2.718c0-1.032,0.21-1.933,0.63-2.7s0.999-1.355,1.737-1.764
		c0.737-0.408,1.586-0.612,2.547-0.612c0.972,0,1.82,0.201,2.547,0.603c0.726,0.402,1.283,0.954,1.674,1.656
		c0.39,0.702,0.585,1.485,0.585,2.35C267.805,172.1,267.78,172.394,267.732,172.646z M265.401,170.08
		c-0.246-0.438-0.582-0.762-1.008-0.972s-0.891-0.315-1.395-0.315c-0.805,0-1.477,0.246-2.017,0.738s-0.834,1.218-0.882,2.178h5.634
		C265.759,171.062,265.647,170.519,265.401,170.08z"/>
	<path fill="#1D4259" d="M275.842,168.046c0.702,0.595,1.131,1.39,1.287,2.386h-1.944c-0.084-0.54-0.314-0.976-0.692-1.306
		s-0.88-0.495-1.503-0.495c-0.517,0-0.915,0.124-1.197,0.369c-0.282,0.246-0.423,0.579-0.423,0.999c0,0.312,0.102,0.564,0.306,0.756
		c0.204,0.192,0.459,0.343,0.766,0.45c0.306,0.108,0.74,0.229,1.305,0.36c0.744,0.168,1.347,0.342,1.809,0.521
		c0.462,0.181,0.858,0.466,1.188,0.855s0.495,0.921,0.495,1.593c0,0.828-0.315,1.5-0.945,2.016c-0.63,0.517-1.479,0.774-2.547,0.774
		c-1.236,0-2.235-0.288-2.997-0.864c-0.763-0.576-1.222-1.38-1.377-2.412h1.998c0.06,0.54,0.3,0.979,0.72,1.314
		s0.972,0.504,1.656,0.504c0.492,0,0.879-0.129,1.161-0.387c0.281-0.258,0.423-0.585,0.423-0.981c0-0.348-0.108-0.624-0.324-0.828
		c-0.216-0.203-0.486-0.362-0.81-0.477c-0.324-0.114-0.769-0.231-1.332-0.352c-0.721-0.167-1.306-0.335-1.755-0.504
		c-0.45-0.168-0.835-0.44-1.152-0.818c-0.318-0.378-0.478-0.892-0.478-1.539c0-0.84,0.315-1.521,0.945-2.043
		c0.63-0.522,1.503-0.783,2.619-0.783C274.207,167.155,275.14,167.452,275.842,168.046z"/>
	<path fill="#1D4259" d="M286.885,168.172c0.84,0.679,1.362,1.6,1.566,2.764h-2.179c-0.12-0.624-0.411-1.113-0.873-1.468
		c-0.462-0.354-1.041-0.53-1.736-0.53c-0.792,0-1.452,0.278-1.98,0.837c-0.528,0.558-0.792,1.377-0.792,2.457
		s0.264,1.902,0.792,2.466c0.528,0.564,1.188,0.846,1.98,0.846c0.695,0,1.274-0.18,1.736-0.54c0.462-0.359,0.753-0.852,0.873-1.476
		h2.179c-0.204,1.164-0.727,2.088-1.566,2.771c-0.84,0.685-1.902,1.026-3.186,1.026c-0.961,0-1.81-0.204-2.547-0.612
		c-0.738-0.407-1.317-0.995-1.737-1.764c-0.42-0.768-0.63-1.674-0.63-2.718c0-1.032,0.21-1.933,0.63-2.7s0.999-1.355,1.737-1.764
		c0.737-0.408,1.586-0.612,2.547-0.612C284.982,167.155,286.045,167.494,286.885,168.172z"/>
	<path fill="#1D4259" d="M297.559,167.768c0.768,0.408,1.368,0.996,1.8,1.764s0.648,1.668,0.648,2.7c0,1.044-0.217,1.95-0.648,2.718
		c-0.432,0.769-1.032,1.356-1.8,1.764c-0.769,0.408-1.632,0.612-2.592,0.612c-0.961,0-1.821-0.204-2.583-0.612
		c-0.763-0.407-1.362-0.999-1.801-1.772c-0.438-0.774-0.656-1.677-0.656-2.709s0.219-1.933,0.656-2.7
		c0.438-0.768,1.038-1.355,1.801-1.764c0.762-0.408,1.622-0.612,2.583-0.612C295.927,167.155,296.79,167.359,297.559,167.768z
		 M293.509,169.297c-0.444,0.24-0.802,0.609-1.071,1.107c-0.271,0.498-0.405,1.106-0.405,1.827c0,0.731,0.135,1.344,0.405,1.836
		c0.27,0.492,0.627,0.858,1.071,1.098c0.443,0.24,0.93,0.36,1.458,0.36c0.527,0,1.014-0.12,1.458-0.36
		c0.443-0.239,0.801-0.605,1.07-1.098c0.271-0.492,0.405-1.104,0.405-1.836c0-0.721-0.135-1.329-0.405-1.827
		c-0.27-0.498-0.627-0.867-1.07-1.107c-0.444-0.239-0.931-0.359-1.458-0.359C294.438,168.938,293.952,169.058,293.509,169.297z"/>
	<path fill="#1D4259" d="M310.303,168.235c0.696,0.744,1.044,1.806,1.044,3.186v5.778h-2.052v-5.562
		c0-0.889-0.228-1.575-0.684-2.062s-1.08-0.729-1.872-0.729c-0.816,0-1.471,0.261-1.962,0.782c-0.492,0.522-0.738,1.287-0.738,2.295
		v5.274h-2.052v-9.918h2.052v2.178c0.264-0.744,0.708-1.319,1.332-1.728s1.344-0.612,2.16-0.612
		C308.684,167.119,309.607,167.491,310.303,168.235z"/>
	<path fill="#1D4259" d="M318.727,175.417v1.782h-1.26c-1.056,0-1.856-0.255-2.402-0.765c-0.547-0.511-0.819-1.359-0.819-2.547
		v-4.86h-1.422v-1.746h1.422v-2.466h2.07v2.466h2.394v1.746h-2.394v4.896c0,0.564,0.104,0.954,0.314,1.17
		c0.21,0.217,0.579,0.324,1.107,0.324H318.727z"/>
	<path fill="#1D4259" d="M327.78,167.768c0.768,0.408,1.368,0.996,1.8,1.764s0.648,1.668,0.648,2.7c0,1.044-0.217,1.95-0.648,2.718
		c-0.432,0.769-1.032,1.356-1.8,1.764c-0.769,0.408-1.632,0.612-2.592,0.612c-0.961,0-1.821-0.204-2.583-0.612
		c-0.763-0.407-1.362-0.999-1.801-1.772c-0.438-0.774-0.656-1.677-0.656-2.709s0.219-1.933,0.656-2.7
		c0.438-0.768,1.038-1.355,1.801-1.764c0.762-0.408,1.622-0.612,2.583-0.612C326.148,167.155,327.012,167.359,327.78,167.768z
		 M323.73,169.297c-0.444,0.24-0.802,0.609-1.071,1.107c-0.271,0.498-0.405,1.106-0.405,1.827c0,0.731,0.135,1.344,0.405,1.836
		c0.27,0.492,0.627,0.858,1.071,1.098c0.443,0.24,0.93,0.36,1.458,0.36c0.527,0,1.014-0.12,1.458-0.36
		c0.443-0.239,0.801-0.605,1.07-1.098c0.271-0.492,0.405-1.104,0.405-1.836c0-0.721-0.135-1.329-0.405-1.827
		c-0.27-0.498-0.627-0.867-1.07-1.107c-0.444-0.239-0.931-0.359-1.458-0.359C324.66,168.938,324.174,169.058,323.73,169.297z"/>
	<path fill="#1D4259" d="M335.143,174.932v2.268h-2.34v-2.268H335.143z M335.089,164.096l-0.271,9.126h-1.728l-0.271-9.126H335.089z
		"/>
</g>
<g>
	<path fill="#EFDE43" d="M580.977,269.916c-17.957,0-34.649,0.62-48.557,1.686c-13.905-1.064-30.6-1.686-48.557-1.686
		c-48.463,0-87.752,4.52-87.752,10.092c0,5.575,39.289,10.094,87.752,10.094c17.957,0,34.65-0.621,48.557-1.686
		c13.906,1.064,30.6,1.686,48.557,1.686c48.466,0,87.752-4.519,87.752-10.094C668.729,274.436,629.441,269.916,580.977,269.916z"/>
	<g>
		<path fill="#4D2B03" d="M545.879,159.74c-0.619,0.266-1.33,0.527-1.82,0.794l-0.803,0.4c-0.249,0.134-0.455,0.269-0.688,0.402
			c-0.93,0.537-1.738,1.076-2.379,1.621c-1.339,1.088-2.229,2.188-2.812,3.298c-0.608,1.108-1.112,3.253-1.243,4.373
			c-0.53,4.483-0.929,11.315-1.031,15.813c-0.105,4.496,0.049,9,0.465,13.511c0.455,4.516-10.854,38.36-10.854,38.36l-0.609,1.225
			c-0.794,1.587-0.721,3.402,0.021,4.876l13.497,26.356l0.278,0.543c0.431,0.836,1.225,1.381,2.082,1.539l6.033,1.068
			c1.631,0.291,3.186-0.795,3.476-2.426c0.28-1.57-0.727-3.071-2.255-3.441l-5.958-1.427l2.358,2.084l-4.728-25.062l16.541-25.221
			l1.234-4.387c1.655-4.453,2.545-8.932,3.248-13.412c0.663-4.48,1.069-8.971,1.215-13.466c0.145-4.495,0.073-8.998-0.205-13.505
			c-0.068-1.126-0.146-2.254-0.242-3.383c-0.072-1.125-0.159-2.254-0.704-3.396c-0.521-1.139-1.349-2.286-2.624-3.446
			c-0.607-0.58-1.389-1.164-2.287-1.75c-0.222-0.148-0.42-0.295-0.663-0.442l-0.777-0.442c-0.477-0.294-1.17-0.596-1.775-0.894
			C549.928,158.947,547.732,158.962,545.879,159.74z"/>
		<path fill="#78461E" d="M503.37,242.536l0.612-1.224l12.993-25.992c0,0-1.688-7.854-2.143-12.367
			c-0.415-4.512-0.572-9.018-0.463-13.514c0.104-4.496,0.5-11.328,1.031-15.812c0.018-0.146,0.04-0.309,0.067-0.482l-0.067-0.062
			c0-0.705,0.02-1.376,0.047-2.03c-13.144-2.373-1.297-22.765-1.297-22.765l6.592,7.992c1.582-1.411,2.9-1.699,2.9-1.699
			l86.186-32.994l10.117-41.574c0-1.23,0.218-2.415,0.595-3.551l-3.704-2.766c-0.66-0.493-1.201-1.572-1.201-2.395V44.883
			c0-0.826,0.427-0.976,0.944-0.334c0,0,9.244,11.419,8.851,25.404c3-2.229,6.985-3.598,11.377-3.598
			c2.714,0,5.269,0.532,7.538,1.453c0.524-12.989,8.842-23.26,8.842-23.26c0.521-0.642,0.943-0.492,0.943,0.334V71.3
			c0,0.822-0.539,1.901-1.199,2.395l-0.818,0.611c0.988,1.738,1.557,3.665,1.557,5.705c0,12.521-4.338,13.905-10.492,13.843v5.13
			v46.978c0,0,1.883,19.424-4.246,34.726c-0.069,0.451-0.144,0.896-0.211,1.349c-0.586,3.897-1.134,7.834-1.555,11.795
			c-0.938,7.924-1.557,15.928-2.102,23.972c-0.525,8.047-0.873,16.139-1.172,24.275l-0.414,12.245l-0.187,6.151
			c-0.067,1.346-0.108,2.69-0.16,4.039l4.222,0.781c1.629,0.303,2.703,1.865,2.401,3.494c-0.301,1.627-1.866,2.701-3.494,2.4
			l-6.743-1.25l-0.015-0.002c-1.26-0.232-2.272-1.271-2.419-2.611c-0.568-2.02-1.038-4.057-1.538-6.094l-1.301-6.14
			c-0.834-4.104-1.506-8.235-2.111-12.384c-1.182-8.298-1.922-16.668-2.256-25.08c-0.271-6.395-0.255-12.807,0.005-19.234
			c-1.083,0.268-2.195,0.486-3.339,0.662c-0.797,7.193-1.363,14.45-1.858,21.743c-0.523,8.046-0.871,16.138-1.173,24.272
			l-0.411,12.244l-0.188,6.154c-0.064,1.344-0.109,2.69-0.158,4.038l4.222,0.782c1.627,0.302,2.702,1.865,2.399,3.492
			c-0.301,1.629-1.864,2.703-3.493,2.402l-6.744-1.25l-0.014-0.002c-1.261-0.232-2.272-1.271-2.421-2.611
			c-0.568-2.02-1.035-4.059-1.535-6.094l-1.301-6.142c-0.836-4.103-1.507-8.233-2.113-12.382c-1.18-8.298-1.92-16.671-2.254-25.081
			c-0.305-7.196-0.231-14.418,0.131-21.659c-18.524-2.292-38.559-10.253-47.509-12.912c-4.998-1.486-8.812-1.453-11.667-0.818
			c0.004,1.644,0.011,3.285-0.043,4.927c-0.143,4.495-0.547,8.985-1.213,13.467c-0.705,4.479-1.591,8.956-3.246,13.409l-1.238,4.387
			l-16.537,25.223l4.429,23.472l3.897,0.933c1.528,0.371,2.531,1.872,2.254,3.442c-0.289,1.631-1.846,2.717-3.477,2.426
			l-6.031-1.067c-0.86-0.158-1.653-0.703-2.082-1.541l-0.278-0.545l-13.496-26.355C502.653,245.939,502.576,244.123,503.37,242.536z
			"/>
		<path fill="#78461E" d="M624.875,109.561c-0.34,0.752,0.041,1.497,0.851,1.658l27.037,5.408c0.809,0.16,1.759-0.316,2.113-1.061
			l7.706-16.215c0.354-0.745,0.155-1.82-0.439-2.391l-11.832-11.333c-0.594-0.57-1.756-1.04-2.58-1.046l-9.985-0.063
			c-0.822-0.006-1.777,0.603-2.117,1.354L624.875,109.561z"/>
		<path d="M644.177,113.424h8.573l5.973-12.721c-2.132-0.059-3.834-1.075-3.834-2.331c0-1.292,1.803-2.342,4.027-2.342
			s4.027,1.05,4.027,2.342c0,1.071-1.246,1.966-2.937,2.243l-6.014,12.809h0.549c0.312,0,0.562,0.252,0.562,0.561
			c0,0.312-0.253,0.563-0.562,0.563h-1.436h-8.932c-0.31,0-0.562-0.252-0.562-0.563
			C643.614,113.676,643.867,113.424,644.177,113.424z"/>
		<path fill="none" stroke="#262626" stroke-width="1.8721" stroke-linecap="round" stroke-miterlimit="10" d="M626.904,78.604
			c0,2.407,1.951,4.356,4.356,4.356c2.406,0,4.357-1.949,4.357-4.356"/>
		<path fill="none" stroke="#262626" stroke-width="1.8721" stroke-linecap="round" stroke-miterlimit="10" d="M642.329,78.604
			c0,2.407,1.95,4.356,4.355,4.356c2.406,0,4.357-1.949,4.357-4.356"/>
	</g>
	<g>
		<g>
			<path fill="#FFFFFF" d="M471.523,267.236c0,0-11.808,2.119-11.247,11.511c0,0,1.822,2.522,11.386,0.979
				c0,0,11.744-3.644,16.378-1.664c0,0,13.036-0.199,13.729-4.361l-0.841-6.168c0,0-28.433-2.518-28.988-0.854"/>
			<path fill="#F39D2F" d="M419.663,221.898c0,0,0.021,0.254,0.06,0.722c0.365,4.649,2.244,30.489-0.614,39.065
				c0,0,7.588,4.07,12.028,2.221c0,0,2.405-21.467,4.996-24.242"/>
			<path fill="#FFFFFF" d="M419.246,260.621l-3.516,14.805c0,0-3.747,2.221-1.249,4.996c0,0,8.188,6.244,12.214-1.527
				c0,0,5.272-10.455,4.532-14.758c-0.045-0.266-0.646-0.369-0.646-0.369S420.912,258.956,419.246,260.621"/>
			<path fill="#A87144" d="M459.033,253.775"/>
			<path fill="#FFFFFF" d="M457.137,267.329c-0.276,0.093-13.139-2.036-13.787-3.054c0,0-4.023,11.936-6.522,15.176
				c0,0-1.387,3.561,3.192,5.273c0.193,0.07,8.623,2.571,13.14-8.42L457.137,267.329z"/>
			<path fill="#FFFFFF" d="M489.338,143.229c1.84-2.34,4.992-4.126,8.016-4.889c2.812-0.71,6.203-0.158,7.87,2.472
				c1.444,2.279,0.54,5.39-1.183,7.467c-1.723,2.077-4.104,3.49-6.069,5.34C497.766,148.843,493.99,144.324,489.338,143.229"/>
			<path fill="#F39D2F" d="M519.406,220.232c0-17.58-18.69-42.006-18.69-42.006c-10.363-16.656-2.22-25.907-2.22-25.907
				c-0.187-4.812-7.773-10.548-8.328-9.993c-12.223,12.223-6.292,27.017-6.292,27.017c1.212,4.409,20.171,38.307,20.171,38.307
				c5.139,11.761,2.469,17.504-0.914,20.345c-0.619-1.331-1.299-2.472-2.047-3.319c0,0-31.822-32.525-43.199-37.255
				c-0.295-0.123-0.576-0.228-0.843-0.312c-10.548-3.33-38.491,6.848-38.491,6.848s17.396,38.676,28.128,38.676l-3.517,33.264
				c0,0,1.48,0.647,4.58,1.25c0,0,3.981,1.09,9.168,0.317c0,0,0.617-0.921,1.369-2.875c2.455,0.675,11.567,3.574,14.677,3.574
				c1.311,0,1.823-0.026,1.952-0.06c2.047,0.383,8.545,1.479,14.494,1.273l8.86,1.24c0,0,6.22,0.102,9.183-11.706
				C518.936,250.091,519.406,220.232,519.406,220.232z"/>
		</g>
		<path fill="#F39D2F" d="M442.414,148.605c0,0-16.4-3.504-19.064,1.402l-19.063,17.662c0,0-5.607,4.767,1.963,14.019l14.298,15.701
			c0,0,34.124-2.926,38.329-7.691c0,0,0.42-15.559,0.525-22.077c0.008-0.489-0.045-0.181,0.104-0.421
			C460.908,164.957,442.414,148.605,442.414,148.605z"/>
		<path fill="#E9E9F4" d="M413.98,158.352c0.303,0.016,5.627,2.435,4.207,8.585c0,0-0.128,0.877-0.938,1.149
			c0,0-6.748,1.95-6.455-6.317C410.795,161.77,412.926,158.299,413.98,158.352z"/>
		<g>
			<path fill="#EFCDC2" d="M413.667,159.735c0,0-5.177-20.907-0.13-24.587l10.934,16.19L413.667,159.735z"/>
			<path fill="#F39D2F" d="M413.537,135.779c0,0,3.895,12.01,9.642,18.039l5.218-5.843l-14.018-12.757
				C414.379,135.219,413.537,134.658,413.537,135.779z"/>
		</g>
		<path fill="#F9FDFF" d="M434.764,182.584c0,0-0.104,11.18-14.719,10.023c0,0-3.645-0.07-6.938-3.646
			c-2.234-2.423-5.166-6.104-6.591-9.986C406.518,178.975,434.238,181.428,434.764,182.584z"/>
		<g>
			<g>
				<path fill="#EFCDC2" d="M459.656,167.95c0,0,4.336-19.22,3.074-26.369l-0.271-3.068c0,0-12.756,5.748-13.037,6.168
					c-0.279,0.421-6.166,7.43-6.166,7.43L459.656,167.95z"/>
				<path fill="#F39D2F" d="M443.049,153.713c0.42-0.28,15.346-13.098,18.43-13.938c0,0,1.183-0.646,1.253,1.807
					c0,0,1.663-5.238-1.112-4.75c0,0-15.561,6.448-19.905,11.074l-1.121,1.121L443.049,153.713z"/>
			</g>
			<path fill="#F39D2F" d="M462.188,139.707l-4.434,27.316l1.611,3.435l3.873-31.54
				C463.238,138.918,462.607,137.744,462.188,139.707z"/>
		</g>
		<g>
			<path fill="#E9E9F4" d="M441.983,164.906c0.299,0.232-7.307-4.708-11.44,1.445c0,0-0.896,1.729-0.881,2.385
				c0,0,1.475,3.48,5.479,3.717C435.141,172.453,441.738,172.072,441.983,164.906z"/>
			<path fill="#663A1A" d="M435.17,163.197c0,0-1.603,6.945,2.137,8.902c0,0,4.546-0.498,4.678-7.193
				C441.983,164.906,439.799,162.842,435.17,163.197z"/>
		</g>
		<path fill="#663A1A" d="M413.316,167.865c0,0-1.857-8.13,3.715-7.395c0,0,3.084,3.541,0.842,7.326
			C417.873,167.797,415.35,169.337,413.316,167.865z"/>
		<path fill="#F9FDFF" d="M436.865,209.119c-1.92-4.337-3.203-8.203-3.375-12.6c-0.07-1.797-0.08-3.619,0.362-5.363
			c0.438-1.721,1.302-3.313,1.707-5.043c0.396-1.687,0.24-3.659-0.985-4.863c-0.07-0.135-0.15-0.27-0.252-0.404
			c0,0-4.359-4.552-6.254-9.772c-0.302-1.513,0.028-3.082-0.034-4.628c-0.065-1.578-0.761-3.354-2.272-3.816
			c-1.569-0.482-3.166,0.682-4.203,1.954c-0.886,1.086-1.661,2.354-2.802,3.124c-3.437,1.641-11.462,5.67-11.462,5.67
			c-4.064,1.66,1.342,9.423,1.736,9.949l5.608,1.311c-0.907,0.586-1.707,1.297-2.264,2.223c-0.112,0.188-0.217,0.392-0.223,0.611
			c-0.009,0.268,0.133,0.518,0.274,0.745c1.699,2.739,4.306,5.048,4.986,8.198c0.158,0.736,0.199,1.488,0.211,2.243
			c-1.831,9.229-2.617,28.301,17.025,42.116l10.548,6.849l1.665-14.25C446.865,233.371,442.861,220.359,436.865,209.119z"/>
		<path fill="#E9F1F4" d="M419.4,175.02c-0.504,1.881-1.972,3.478-3.805,4.137c-1.833,0.66-3.979,0.365-5.567-0.762
			c0.649,1.021,1.806,1.674,3.007,1.826c1.202,0.153,2.438-0.162,3.49-0.762c1.522-0.869,2.69-2.344,3.188-4.025"/>
		<path fill="#E9F1F4" d="M420.385,174.876c-0.42,1.901,0.146,3.993,1.469,5.425c1.322,1.428,3.363,2.158,5.294,1.889
			c-1.049,0.608-2.373,0.654-3.511,0.236s-2.089-1.268-2.746-2.285c-0.953-1.473-1.311-3.318-0.975-5.043"/>
		<path fill="#F7AD7C" d="M425.698,171.904c0.101-0.543-1.562-2.307-3.988-2.76s-4.696,0.578-4.796,1.121
			c-0.074,0.391,0.547,0.715,1.916,1.102c0.219,0.062,0.318,0.311,0.207,0.508c-0.223,0.393-0.253,0.977-0.353,1.502
			c-0.218,1.171,0.438,2.273,1.466,2.467c1.026,0.19,2.036-0.604,2.256-1.773c0.104-0.562,0.329-1.062,0.221-1.481
			c-0.037-0.146,0.071-0.284,0.222-0.267C424.65,172.541,425.614,172.354,425.698,171.904z"/>
	</g>
</g>
<path fill="#EFDE43" d="M226.995,250.932c0,2.762-2.238,5-5,5H103c-2.762,0-5-2.238-5-5v-30c0-2.763,2.238-5,5-5h118.995
	c2.762,0,5,2.237,5,5V250.932z"/>
<path fill="#E84253" d="M226.995,248.932c0,2.762-2.238,5-5,5H103c-2.762,0-5-2.238-5-5v-30c0-2.763,2.238-5,5-5h118.995
	c2.762,0,5,2.237,5,5V248.932z"/>
<rect x="122.789" y="227.48" fill="none" width="79.417" height="10.611"/>
<g enable-background="new    ">
	<path fill="#FFFFFF" d="M138.292,237.841l-2.142-3.738h-0.546v3.738h-2.394v-9.898h4.088c0.784,0,1.446,0.136,1.988,0.406
		c0.542,0.271,0.947,0.642,1.218,1.113c0.271,0.472,0.406,1.011,0.406,1.617c0,0.719-0.198,1.33-0.595,1.834
		c-0.397,0.504-0.973,0.85-1.729,1.036l2.352,3.892H138.292z M135.604,232.465h1.484c0.476,0,0.826-0.105,1.05-0.315
		s0.336-0.52,0.336-0.931c0-0.392-0.114-0.7-0.343-0.924c-0.229-0.224-0.577-0.336-1.043-0.336h-1.484V232.465z"/>
	<path fill="#FFFFFF" d="M149.464,234.369h-5.418c0.028,0.588,0.177,1.01,0.448,1.267c0.271,0.257,0.616,0.385,1.036,0.385
		c0.354,0,0.648-0.088,0.881-0.266c0.234-0.178,0.388-0.406,0.463-0.687h2.533c-0.102,0.552-0.326,1.044-0.672,1.478
		s-0.783,0.774-1.316,1.021c-0.531,0.248-1.124,0.371-1.777,0.371c-0.766,0-1.444-0.161-2.037-0.482
		c-0.593-0.322-1.057-0.786-1.393-1.394c-0.336-0.606-0.504-1.315-0.504-2.128c0-0.821,0.166-1.533,0.497-2.135
		c0.331-0.602,0.795-1.064,1.393-1.386c0.597-0.322,1.278-0.483,2.044-0.483c0.774,0,1.456,0.159,2.045,0.477
		c0.588,0.317,1.043,0.763,1.363,1.337c0.322,0.573,0.484,1.234,0.484,1.98C149.535,233.921,149.511,234.136,149.464,234.369z
		 M146.699,232.206c-0.285-0.257-0.637-0.385-1.057-0.385c-0.439,0-0.803,0.13-1.092,0.392c-0.29,0.262-0.453,0.644-0.49,1.147
		h3.053C147.121,232.848,146.984,232.463,146.699,232.206z"/>
	<path fill="#FFFFFF" d="M155.288,230.337c0.43,0.271,0.747,0.64,0.952,1.105v-1.413h2.38v7.77c0,0.728-0.14,1.384-0.42,1.967
		s-0.71,1.048-1.288,1.394c-0.579,0.345-1.298,0.518-2.156,0.518c-1.176,0-2.116-0.277-2.82-0.833
		c-0.705-0.556-1.128-1.309-1.268-2.261h2.366c0.074,0.317,0.245,0.564,0.511,0.742c0.267,0.177,0.614,0.266,1.043,0.266
		c0.495,0,0.894-0.143,1.197-0.427c0.303-0.285,0.455-0.74,0.455-1.365v-1.372c-0.205,0.467-0.522,0.836-0.952,1.106
		s-0.942,0.405-1.54,0.405c-0.644,0-1.221-0.161-1.729-0.482c-0.509-0.322-0.91-0.786-1.204-1.394
		c-0.294-0.606-0.441-1.315-0.441-2.128c0-0.821,0.147-1.533,0.441-2.135s0.695-1.064,1.204-1.386
		c0.508-0.322,1.085-0.483,1.729-0.483C154.345,229.931,154.858,230.066,155.288,230.337z M153.279,232.535
		c-0.313,0.336-0.469,0.803-0.469,1.399c0,0.598,0.155,1.064,0.469,1.4c0.312,0.336,0.726,0.504,1.239,0.504
		c0.504,0,0.917-0.173,1.238-0.518c0.322-0.346,0.483-0.808,0.483-1.387c0-0.588-0.161-1.052-0.483-1.393
		c-0.321-0.341-0.734-0.511-1.238-0.511C154.004,232.031,153.591,232.199,153.279,232.535z"/>
	<path fill="#FFFFFF" d="M160.44,226.928c0.261-0.238,0.606-0.356,1.036-0.356c0.429,0,0.774,0.118,1.036,0.356
		c0.261,0.238,0.392,0.539,0.392,0.903c0,0.354-0.131,0.65-0.392,0.889c-0.262,0.238-0.607,0.357-1.036,0.357
		c-0.43,0-0.775-0.119-1.036-0.357c-0.262-0.238-0.393-0.534-0.393-0.889C160.047,227.467,160.178,227.166,160.44,226.928z
		 M162.666,230.029v7.812h-2.394v-7.812H162.666z"/>
	<path fill="#FFFFFF" d="M169.533,230.673c0.593,0.495,0.964,1.148,1.113,1.96h-2.24c-0.065-0.317-0.213-0.567-0.441-0.749
		s-0.516-0.273-0.86-0.273c-0.271,0-0.477,0.059-0.616,0.176c-0.14,0.116-0.21,0.282-0.21,0.497c0,0.242,0.128,0.425,0.385,0.546
		s0.66,0.242,1.211,0.363c0.598,0.141,1.087,0.283,1.47,0.428s0.715,0.38,0.994,0.707c0.28,0.326,0.42,0.765,0.42,1.315
		c0,0.448-0.121,0.845-0.363,1.19c-0.243,0.346-0.593,0.616-1.051,0.812c-0.457,0.196-0.998,0.294-1.624,0.294
		c-1.055,0-1.899-0.232-2.533-0.699c-0.635-0.467-1.022-1.135-1.162-2.002h2.31c0.037,0.336,0.18,0.593,0.427,0.77
		c0.248,0.178,0.567,0.266,0.959,0.266c0.271,0,0.477-0.062,0.616-0.188c0.141-0.126,0.21-0.292,0.21-0.497
		c0-0.271-0.128-0.464-0.385-0.581c-0.257-0.116-0.675-0.24-1.253-0.371c-0.579-0.121-1.055-0.252-1.428-0.392
		c-0.374-0.141-0.695-0.366-0.966-0.68c-0.271-0.312-0.406-0.739-0.406-1.28c0-0.7,0.266-1.268,0.798-1.701
		c0.532-0.435,1.283-0.651,2.254-0.651C168.149,229.931,168.94,230.179,169.533,230.673z"/>
	<path fill="#FFFFFF" d="M176.511,235.783v2.058h-1.078c-0.915,0-1.626-0.227-2.135-0.679c-0.509-0.453-0.763-1.202-0.763-2.247
		v-2.87h-1.051v-2.016h1.051v-1.919h2.394v1.919h1.568v2.016h-1.568v2.912c0,0.308,0.063,0.522,0.189,0.644
		c0.126,0.122,0.338,0.183,0.637,0.183H176.511z"/>
	<path fill="#FFFFFF" d="M182.364,230.337c0.43,0.271,0.747,0.64,0.952,1.105v-1.413h2.38v7.812h-2.38v-1.414
		c-0.205,0.467-0.522,0.836-0.952,1.106s-0.942,0.405-1.54,0.405c-0.644,0-1.221-0.161-1.729-0.482
		c-0.509-0.322-0.91-0.786-1.204-1.394c-0.294-0.606-0.441-1.315-0.441-2.128c0-0.821,0.147-1.533,0.441-2.135
		s0.695-1.064,1.204-1.386c0.508-0.322,1.085-0.483,1.729-0.483C181.421,229.931,181.934,230.066,182.364,230.337z M180.355,232.535
		c-0.313,0.336-0.469,0.803-0.469,1.399c0,0.598,0.155,1.064,0.469,1.4c0.312,0.336,0.726,0.504,1.239,0.504
		c0.504,0,0.917-0.173,1.238-0.518c0.322-0.346,0.483-0.808,0.483-1.387c0-0.588-0.161-1.052-0.483-1.393
		c-0.321-0.341-0.734-0.511-1.238-0.511C181.081,232.031,180.667,232.199,180.355,232.535z"/>
	<path fill="#FFFFFF" d="M190.896,230.365c0.471-0.28,0.982-0.421,1.533-0.421v2.562h-0.687c-0.635,0-1.127,0.136-1.477,0.406
		c-0.351,0.271-0.525,0.728-0.525,1.372v3.556h-2.394v-7.812h2.394v1.47C190.04,231.022,190.424,230.645,190.896,230.365z"/>
</g>
</svg>
