<?xml version="1.0" encoding="utf-8"?>
<!-- Generator: Adobe Illustrator 16.0.0, SVG Export Plug-In . SVG Version: 6.00 Build 0)  -->
<!DOCTYPE svg PUBLIC "-//W3C//DTD SVG 1.1//EN" "http://www.w3.org/Graphics/SVG/1.1/DTD/svg11.dtd">
<svg version="1.1" id="Layer_1" xmlns="http://www.w3.org/2000/svg" xmlns:xlink="http://www.w3.org/1999/xlink" x="0px" y="0px"
	 width="707px" height="321px" viewBox="0 0 707 321" enable-background="new 0 0 707 321" xml:space="preserve">
<path fill="#008B8E" d="M177.906,250.932c0,2.762-2.238,5-5,5H53.911c-2.762,0-5-2.238-5-5v-30c0-2.763,2.238-5,5-5h118.995
	c2.762,0,5,2.237,5,5V250.932z"/>
<path fill="#E84253" d="M177.906,248.932c0,2.762-2.238,5-5,5H53.911c-2.762,0-5-2.238-5-5v-30c0-2.763,2.238-5,5-5h118.995
	c2.762,0,5,2.237,5,5V248.932z"/>
<rect x="73.7" y="227.48" fill="none" width="79.417" height="10.611"/>
<g enable-background="new    ">
	<path fill="#FFFFFF" d="M80.397,236.497c-0.266,0.438-0.658,0.788-1.176,1.05c-0.518,0.262-1.146,0.392-1.883,0.392
		c-1.111,0-2.025-0.271-2.744-0.812s-1.111-1.297-1.176-2.269h2.548c0.037,0.374,0.17,0.668,0.399,0.883s0.521,0.321,0.875,0.321
		c0.308,0,0.551-0.084,0.728-0.252s0.266-0.392,0.266-0.672c0-0.252-0.082-0.462-0.245-0.63s-0.366-0.306-0.609-0.413
		s-0.579-0.235-1.008-0.385c-0.625-0.215-1.137-0.422-1.533-0.623c-0.397-0.2-0.737-0.499-1.022-0.896
		c-0.285-0.396-0.427-0.912-0.427-1.547c0-0.588,0.149-1.097,0.448-1.525c0.299-0.43,0.711-0.759,1.239-0.987
		c0.527-0.229,1.131-0.343,1.813-0.343c1.101,0,1.976,0.261,2.625,0.784c0.648,0.522,1.015,1.241,1.099,2.155h-2.59
		c-0.047-0.326-0.166-0.585-0.357-0.776c-0.191-0.191-0.451-0.287-0.777-0.287c-0.28,0-0.507,0.074-0.679,0.224
		c-0.173,0.149-0.259,0.369-0.259,0.658c0,0.233,0.077,0.432,0.231,0.595c0.154,0.164,0.347,0.297,0.581,0.399
		s0.569,0.233,1.008,0.392c0.635,0.215,1.152,0.427,1.554,0.637c0.401,0.211,0.747,0.517,1.036,0.918
		c0.289,0.401,0.434,0.924,0.434,1.567C80.796,235.577,80.663,236.059,80.397,236.497z"/>
	<path fill="#FFFFFF" d="M86.634,230.337c0.429,0.271,0.748,0.64,0.953,1.105v-1.413h2.379v7.812h-2.379v-1.414
		c-0.205,0.467-0.523,0.836-0.953,1.106s-0.943,0.405-1.54,0.405c-0.644,0-1.22-0.161-1.729-0.482
		c-0.509-0.322-0.91-0.786-1.204-1.394c-0.294-0.606-0.441-1.315-0.441-2.128c0-0.821,0.147-1.533,0.441-2.135
		s0.695-1.064,1.204-1.386c0.509-0.322,1.085-0.483,1.729-0.483C85.691,229.931,86.205,230.066,86.634,230.337z M84.625,232.535
		c-0.313,0.336-0.469,0.803-0.469,1.399c0,0.598,0.156,1.064,0.469,1.4c0.312,0.336,0.726,0.504,1.239,0.504
		c0.504,0,0.917-0.173,1.239-0.518c0.321-0.346,0.483-0.808,0.483-1.387c0-0.588-0.162-1.052-0.483-1.393
		c-0.322-0.341-0.735-0.511-1.239-0.511C85.351,232.031,84.938,232.199,84.625,232.535z"/>
	<path fill="#FFFFFF" d="M98.218,230.414c0.509,0.321,0.91,0.784,1.204,1.386s0.441,1.313,0.441,2.135
		c0,0.812-0.147,1.521-0.441,2.128c-0.294,0.607-0.695,1.071-1.204,1.394c-0.509,0.321-1.085,0.482-1.729,0.482
		c-0.598,0-1.111-0.135-1.54-0.405c-0.43-0.271-0.742-0.64-0.938-1.106v1.414h-2.394v-10.36h2.394v3.962
		c0.196-0.466,0.509-0.835,0.938-1.105c0.429-0.271,0.942-0.406,1.54-0.406C97.133,229.931,97.709,230.092,98.218,230.414z
		 M94.481,232.542c-0.322,0.341-0.483,0.805-0.483,1.393c0,0.579,0.161,1.041,0.483,1.387c0.321,0.345,0.734,0.518,1.238,0.518
		c0.514,0,0.927-0.168,1.239-0.504s0.469-0.803,0.469-1.4c0-0.597-0.156-1.063-0.469-1.399s-0.726-0.504-1.239-0.504
		C95.215,232.031,94.802,232.201,94.481,232.542z"/>
	<path fill="#FFFFFF" d="M108.459,234.369h-5.418c0.028,0.588,0.178,1.01,0.448,1.267s0.616,0.385,1.036,0.385
		c0.354,0,0.648-0.088,0.882-0.266s0.387-0.406,0.462-0.687h2.534c-0.103,0.552-0.327,1.044-0.672,1.478
		c-0.346,0.434-0.784,0.774-1.316,1.021c-0.532,0.248-1.125,0.371-1.778,0.371c-0.765,0-1.444-0.161-2.036-0.482
		c-0.593-0.322-1.058-0.786-1.394-1.394c-0.336-0.606-0.504-1.315-0.504-2.128c0-0.821,0.166-1.533,0.497-2.135
		s0.796-1.064,1.393-1.386c0.598-0.322,1.279-0.483,2.044-0.483c0.775,0,1.456,0.159,2.045,0.477
		c0.588,0.317,1.043,0.763,1.364,1.337c0.322,0.573,0.483,1.234,0.483,1.98C108.53,233.921,108.506,234.136,108.459,234.369z
		 M105.695,232.206c-0.285-0.257-0.637-0.385-1.058-0.385c-0.438,0-0.803,0.13-1.092,0.392s-0.452,0.644-0.489,1.147h3.052
		C106.117,232.848,105.979,232.463,105.695,232.206z"/>
	<path fill="#FFFFFF" d="M113.325,230.365c0.471-0.28,0.982-0.421,1.533-0.421v2.562h-0.687c-0.635,0-1.127,0.136-1.477,0.406
		c-0.351,0.271-0.525,0.728-0.525,1.372v3.556h-2.394v-7.812h2.394v1.47C112.468,231.022,112.853,230.645,113.325,230.365z"/>
	<path fill="#FFFFFF" d="M131.055,230.834c0.551,0.593,0.826,1.416,0.826,2.471v4.536h-2.38v-4.256c0-0.495-0.133-0.88-0.399-1.155
		c-0.266-0.275-0.628-0.413-1.085-0.413c-0.476,0-0.852,0.147-1.127,0.441s-0.413,0.707-0.413,1.239v4.144h-2.394v-4.256
		c0-0.495-0.131-0.88-0.393-1.155c-0.261-0.275-0.62-0.413-1.077-0.413c-0.477,0-0.854,0.146-1.135,0.435
		c-0.279,0.289-0.42,0.704-0.42,1.246v4.144h-2.394v-7.812h2.394v1.329c0.205-0.438,0.521-0.783,0.945-1.035
		s0.922-0.379,1.491-0.379c0.597,0,1.124,0.139,1.582,0.413c0.457,0.275,0.803,0.67,1.036,1.184
		c0.271-0.485,0.642-0.873,1.112-1.162c0.472-0.289,0.992-0.435,1.562-0.435C129.749,229.944,130.504,230.241,131.055,230.834z"/>
	<path fill="#FFFFFF" d="M137.986,230.337c0.43,0.271,0.747,0.64,0.952,1.105v-1.413h2.38v7.812h-2.38v-1.414
		c-0.205,0.467-0.522,0.836-0.952,1.106s-0.942,0.405-1.54,0.405c-0.644,0-1.221-0.161-1.729-0.482
		c-0.509-0.322-0.91-0.786-1.204-1.394c-0.294-0.606-0.441-1.315-0.441-2.128c0-0.821,0.147-1.533,0.441-2.135
		s0.695-1.064,1.204-1.386c0.508-0.322,1.085-0.483,1.729-0.483C137.043,229.931,137.556,230.066,137.986,230.337z M135.977,232.535
		c-0.313,0.336-0.469,0.803-0.469,1.399c0,0.598,0.155,1.064,0.469,1.4c0.312,0.336,0.726,0.504,1.239,0.504
		c0.504,0,0.917-0.173,1.238-0.518c0.322-0.346,0.483-0.808,0.483-1.387c0-0.588-0.161-1.052-0.483-1.393
		c-0.321-0.341-0.734-0.511-1.238-0.511C136.703,232.031,136.29,232.199,135.977,232.535z"/>
	<path fill="#FFFFFF" d="M143.137,226.928c0.261-0.238,0.606-0.356,1.036-0.356c0.429,0,0.774,0.118,1.036,0.356
		c0.261,0.238,0.392,0.539,0.392,0.903c0,0.354-0.131,0.65-0.392,0.889c-0.262,0.238-0.607,0.357-1.036,0.357
		c-0.43,0-0.775-0.119-1.036-0.357c-0.262-0.238-0.393-0.534-0.393-0.889C142.745,227.467,142.875,227.166,143.137,226.928z
		 M145.363,230.029v7.812h-2.394v-7.812H145.363z"/>
	<path fill="#FFFFFF" d="M152.23,230.673c0.593,0.495,0.964,1.148,1.113,1.96h-2.24c-0.065-0.317-0.213-0.567-0.441-0.749
		s-0.516-0.273-0.86-0.273c-0.271,0-0.477,0.059-0.616,0.176c-0.14,0.116-0.21,0.282-0.21,0.497c0,0.242,0.128,0.425,0.385,0.546
		s0.66,0.242,1.211,0.363c0.598,0.141,1.087,0.283,1.47,0.428s0.715,0.38,0.994,0.707c0.28,0.326,0.42,0.765,0.42,1.315
		c0,0.448-0.121,0.845-0.363,1.19c-0.243,0.346-0.593,0.616-1.051,0.812c-0.457,0.196-0.998,0.294-1.624,0.294
		c-1.055,0-1.899-0.232-2.533-0.699c-0.635-0.467-1.022-1.135-1.162-2.002h2.31c0.037,0.336,0.18,0.593,0.427,0.77
		c0.248,0.178,0.567,0.266,0.959,0.266c0.271,0,0.477-0.062,0.616-0.188c0.141-0.126,0.21-0.292,0.21-0.497
		c0-0.271-0.128-0.464-0.385-0.581c-0.257-0.116-0.675-0.24-1.253-0.371c-0.579-0.121-1.055-0.252-1.428-0.392
		c-0.374-0.141-0.695-0.366-0.966-0.68c-0.271-0.312-0.406-0.739-0.406-1.28c0-0.7,0.266-1.268,0.798-1.701
		c0.532-0.435,1.283-0.651,2.254-0.651C150.846,229.931,151.637,230.179,152.23,230.673z"/>
</g>
<g>
	<g>
		<g>
			<path fill="#27261D" d="M567.019,321h12.938c1.408-26.771,3.083-58.053,3.282-59.256c0.202-1.217,8.567,31.348,15.646,59.256
				h13.467c-3.59-28.248-8.281-55.029-13.049-84.671c-21.181-8.524-13.51-8.024-35.368-0.771c0,0,0.106,1.103,0.289,21.571
				C564.321,268.096,565.73,296.75,567.019,321z"/>
			<path fill="#1D2B31" d="M372.939,321c7.074-27.896,15.431-60.416,15.635-59.201c0.2,1.202,1.872,32.442,3.278,59.201h12.943
				c1.287-24.238,2.695-52.859,2.793-63.814c0.184-20.469,0.288-21.572,0.288-21.572c-21.857-7.254-14.188-7.756-35.368,0.771
				c-4.763,29.621-9.452,56.388-13.041,84.617L372.939,321L372.939,321z"/>
			<polygon fill="#A8CB38" points="392.3,155.597 383.353,152.689 366.34,155.641 368.365,242.818 413.767,244.122 415.524,155.992 
				401.688,152.689 			"/>
			<path fill="#EAA462" d="M388.201,140.611h8.638v12.078h4.849c0,5.062-4.104,9.165-9.169,9.165c-5.062,0-9.166-4.104-9.166-9.165
				h4.85L388.201,140.611L388.201,140.611z"/>
			<path fill="#3E3B3A" d="M412.53,77.678c0,0,4.938,6.258,6.967,9.344c2.025,3.084-1.5,22.213-1.5,21.42
				s-9.167-26.444-9.167-26.444L412.53,77.678z"/>
			<path fill="#F6BE88" d="M422.448,114.372c0,29.043-10.947,32.95-27.271,32.95c-13.371,0-24.754-2.068-28.407-19.963
				c-0.805-3.954-3.442-7.73-3.442-12.987c0-29.048,13.234-41.134,29.562-41.134S422.448,85.324,422.448,114.372z"/>
			<path fill="#3E3B3A" d="M357.396,84.116c3.348-1.411,6.697-3.174,6.697-3.174l0.706-5.29c27.287-13.777,19.454-7.99,45.043-9.079
				c8.285-0.352,11.372-2.556,11.372-2.556c-1.695,24.822-25.244,34.091-46.983,29.354c0,0-1.231,10.843-1.146,18.246
				c0.087,7.404,0,9.609,0,9.609l-2.909-0.09c0,0,0.266-9.695-2.909-11.193c-3.174-1.498-3.941,4.429-3.941,4.429
				C359.912,108.582,353.398,85.799,357.396,84.116z"/>
			<path fill="#F6BE88" d="M363.081,104.123c4.188,0,7.867,4.953,8.219,11.062c0.351,6.109-2.757,11.063-6.941,11.063
				c-4.188,0-7.866-4.954-8.217-11.063C355.789,109.076,358.897,104.123,363.081,104.123z"/>
			<path fill="#F6BE88" d="M374.091,162.425l-7.732-6.02c0,0-9.634,3.991-24.616,21.975c-14.985,17.981-17.808,51.828-17.808,51.828
				h4.761C333.948,194.876,346.708,183.352,374.091,162.425z"/>
			<path fill="#F6BE88" d="M408.137,155.836l5.188,8.9c0,0,10.628-1.447,30.56-13.72c19.933-12.273,33.387-43.46,33.387-43.46
				l-4.513-1.517C456.526,137.861,440.758,144.721,408.137,155.836z"/>
			<path fill="#EBA460" d="M366.094,116.398c0-1.272,0.719-2.305,1.605-2.305c0.13,0,0.253,0.022,0.373,0.063
				c-0.108-1.702-0.559-3.228-1.229-4.376c-0.771-1.324-1.843-2.143-3.021-2.143c-0.081,0-0.164,0.004-0.243,0.011
				c-0.947,0.091-1.813,0.709-2.5,1.689c-0.938,1.343-1.534,3.359-1.534,5.616c0,4.039,1.914,7.315,4.277,7.315
				c0.401,0,0.791-0.095,1.16-0.274c1.066-0.515,1.963-1.718,2.518-3.312C366.708,118.543,366.094,117.572,366.094,116.398z"/>
			<path fill="#A8CB38" d="M374.088,167.157c-4.207,2.014-13.265,8.954-16.703,12.56l-9.223-8.626
				c-0.977-0.915,9.118-10.57,18.445-15.497c2.176-1.15,8.156-1.842,10.851-1.882L374.088,167.157z"/>
			<path fill="#A8CB38" d="M404.894,153.979c0.267-0.045,2.379-0.123,8.552-1.146c6.172-1.022,15.871-4.823,15.871-4.823
				l4.182,14.52c0,0-8.77,5.111-15.115,5.599c-6.348,0.483-8.508-0.176-8.508-0.176L404.894,153.979z"/>
			<path fill="#F6BE88" d="M473.518,107.563c-2.821-2.064-2.148-5.048-3.385-8.002c-1.233-2.953-2.521-6.55-1.684-6.812
				c0.838-0.261,4.408,5.647,4.541,5.169c0.131-0.478,0.481-7.344,0.703-10.168c0.221-2.822,0.662-4.194,1.677-3.775
				c1.013,0.42,0.438,10.521,0.438,10.219c0-0.305,1.587-11.83,3.262-11.398c1.676,0.431-0.483,12.028-0.483,12.028
				s2.247-9.722,3.57-9.153c1.321,0.566-1.542,9.609-1.542,9.609s3.569-6.96,3.967-5.484c0.396,1.479-2.732,7.298-2.776,7.603
				c-0.046,0.305,0.178,4.529-0.927,7.435C479.774,107.738,477.132,108.886,473.518,107.563z"/>
			<path fill="#F6BE88" d="M330.463,222.855c2.821,2.065,2.149,5.051,3.385,8.004s2.521,6.551,1.686,6.812
				c-0.838,0.263-4.408-5.647-4.541-5.169c-0.132,0.479-0.483,7.344-0.704,10.167c-0.222,2.822-0.661,4.196-1.675,3.776
				c-1.015-0.422-0.439-10.522-0.439-10.219c0,0.303-1.587,11.828-3.266,11.397c-1.672-0.431,0.488-12.028,0.488-12.028
				s-2.249,9.721-3.57,9.153c-1.323-0.567,1.543-9.606,1.543-9.606s-3.57,6.959-3.968,5.479c-0.396-1.476,2.729-7.298,2.775-7.601
				c0.046-0.307-0.177-4.529,0.925-7.437C324.206,222.684,326.85,221.534,330.463,222.855z"/>
			<path fill="#3E3B3A" d="M397.06,111.654c-2.812-4.52-7.223-6.146-10.639-1.041l-0.906,1.31
				C383.442,102.438,400.047,104.463,397.06,111.654z"/>
			<path fill="#3E3B3A" d="M417.681,110.835c-2.815-4.518-7.228-6.147-10.643-1.04l-0.904,1.309
				C404.061,101.621,420.665,103.645,417.681,110.835z"/>
			<path fill="#3E3B3A" d="M385.292,99.425h11.194c0.531,0,0.971,0.437,0.971,0.971v0.351c0,0.535-0.438,0.971-0.971,0.971h-11.194
				c-0.532,0-0.969-0.436-0.969-0.971v-0.351C384.323,99.861,384.76,99.425,385.292,99.425z"/>
			<path fill="#3E3B3A" d="M405.302,98.764h11.193c0.533,0,0.971,0.438,0.971,0.971v0.352c0,0.533-0.438,0.971-0.971,0.971h-11.193
				c-0.533,0-0.969-0.438-0.969-0.971v-0.352C404.333,99.201,404.769,98.764,405.302,98.764z"/>
			<path fill="#642528" d="M407.647,125.514c0.418,1.189,0.651,2.5,0.651,3.879c0,5.404-3.572,9.785-7.979,9.785
				c-4.407,0-7.978-4.381-7.978-9.785c0-1.379,0.232-2.689,0.65-3.879H407.647z"/>
			<path fill="#EFEFEF" d="M406.401,125.514h-13.406c-0.418,1.189-0.65,2.5-0.65,3.879c0,0.046,0,0.091,0,0.135h12.911
				c0.632,0,1.146-0.516,1.146-1.146L406.401,125.514L406.401,125.514z"/>
			<path fill="#F08A65" d="M410.59,120.184c0.938,5.619-17.486,6.325-9.255-12.605C402.834,115.62,410.46,119.401,410.59,120.184z"
				/>
			<polygon fill="#EF8236" points="579.513,155.543 588.46,152.635 605.476,155.586 603.447,242.764 558.046,244.064 
				556.288,155.939 570.126,152.635 			"/>
			<path fill="#EAA462" d="M583.613,140.558h-8.642v12.077h-4.847c0,5.064,4.104,9.167,9.166,9.167s9.168-4.103,9.168-9.167h-4.847
				L583.613,140.558L583.613,140.558z"/>
			<path fill="#7D4028" d="M554.561,79.604c0,0-4.936,6.258-6.962,9.344c-2.028,3.085,1.496,22.214,1.496,21.421
				c0-0.795,9.169-26.446,9.169-26.446L554.561,79.604z"/>
			<path fill="#F6BE88" d="M549.364,114.152c0,29.043,10.945,32.95,27.272,32.95c13.371,0,24.753-2.069,28.404-19.963
				c0.807-3.955,3.443-7.73,3.443-12.987c0-29.047-13.235-41.135-29.561-41.135C562.6,73.018,549.364,85.105,549.364,114.152z"/>
			<path fill="#964C2F" d="M600.192,108.539c0.088,1.061-3.791,16.31-6.7,18.952c-2.907,2.644-6.128-4.188-10.977-4.452
				c-8.567-0.469-27.394-2.979-31.428,7.47c-0.876,2.271,3.487,12.188,5.028,14.613c1.545,2.424,2.116,2.819,2.205,2.335
				s0.528-0.793,0.528-0.793s2.601,3.217,3.525,2.688c0.925-0.527,1.277-1.101,1.765-1.013c0.483,0.089,4.009,4.099,5.021,2.953
				c1.016-1.146,1.721-1.982,2.603-1.499c0.882,0.485,4.894,2.513,5.816,2.072c0.926-0.44,3.172-2.336,3.35-2.072
				c0.177,0.265,0.935,2.072,1.809,1.454c0.874-0.616,6.654-2.819,6.742-2.381c0.09,0.443,1.544,0.531,2.865-0.264
				c1.322-0.793,2.952-2.775,2.952-2.775s1.366,0.705,2.338-0.441c0.968-1.146,3.57-5.687,4.273-12.738
				c0.705-7.051-1.32-14.865-1.365-15.541c-0.044-0.679,0.838-8.787,0.838-8.787L600.192,108.539z"/>
			<path fill="#964C2F" d="M614.418,84.062c-3.352-1.412-6.7-3.173-6.7-3.173l-0.704-5.291
				c-23.902-12.069-58.302-0.306-56.314,14.863c1.039,7.942,14.742,10.062,46.794-1.642c0,0,1.323,15.338,1.233,22.743
				c-0.087,7.405,0,9.607,0,9.607l2.91-0.088c0,0-0.265-9.696,2.907-11.194c3.174-1.499,3.941,4.43,3.941,4.43
				C611.899,108.527,618.417,85.744,614.418,84.062z"/>
			<path fill="#F6BE88" d="M608.73,104.068c-4.188,0-7.865,4.953-8.218,11.063c-0.353,6.108,2.757,11.062,6.942,11.062
				c4.187,0,7.865-4.953,8.217-11.062C616.024,109.021,612.917,104.068,608.73,104.068z"/>
			<path fill="#F6BE88" d="M597.723,162.369l7.734-6.018c0,0,9.63,3.991,24.614,21.973c14.985,17.982,17.805,51.832,17.805,51.832
				h-4.759C637.864,194.823,625.105,183.299,597.723,162.369z"/>
			<path fill="#F6BE88" d="M563.676,155.783l-5.188,8.898c0,0-10.627-1.447-30.561-13.719
				c-19.932-12.272-33.387-43.461-33.387-43.461l4.513-1.516C515.287,137.808,531.052,144.668,563.676,155.783z"/>
			<path fill="#EBA460" d="M605.722,116.345c0-1.272-0.721-2.303-1.608-2.303c-0.129,0-0.253,0.021-0.37,0.062
				c0.106-1.703,0.555-3.229,1.227-4.375c0.773-1.324,1.841-2.145,3.023-2.145c0.08,0,0.161,0.004,0.239,0.013
				c0.948,0.089,1.814,0.71,2.499,1.688c0.939,1.343,1.534,3.359,1.534,5.614c0,4.043-1.915,7.317-4.272,7.317
				c-0.403,0-0.794-0.096-1.163-0.274c-1.068-0.513-1.964-1.717-2.52-3.312C605.107,118.488,605.722,117.52,605.722,116.345z"/>
			<path fill="#EF8236" d="M597.725,167.104c4.209,2.014,13.266,8.955,16.706,12.562l9.22-8.628
				c0.977-0.915-9.116-10.571-18.442-15.498c-2.18-1.15-8.158-1.842-10.853-1.881L597.725,167.104z"/>
			<path fill="#EF8236" d="M566.917,153.924c-0.262-0.045-2.378-0.123-8.548-1.146c-6.173-1.022-15.874-4.821-15.874-4.821
				l-4.181,14.518c0,0,8.771,5.112,15.115,5.599c6.348,0.483,8.508-0.179,8.508-0.179L566.917,153.924z"/>
			<path fill="#F6BE88" d="M498.296,107.512c2.821-2.065,2.149-5.05,3.385-8.004c1.232-2.953,2.521-6.553,1.685-6.812
				c-0.838-0.261-4.408,5.646-4.539,5.168c-0.133-0.479-0.485-7.345-0.707-10.166c-0.219-2.825-0.661-4.197-1.674-3.777
				c-1.016,0.42-0.441,10.521-0.441,10.22c0-0.306-1.585-11.833-3.261-11.4c-1.674,0.43,0.482,12.029,0.482,12.029
				s-2.248-9.722-3.569-9.154c-1.322,0.569,1.544,9.609,1.544,9.609s-3.57-6.959-3.967-5.483c-0.396,1.477,2.731,7.298,2.777,7.603
				c0.042,0.303-0.179,4.529,0.925,7.434C492.037,107.685,494.681,108.834,498.296,107.512z"/>
			<path fill="#F6BE88" d="M641.273,220.77c-2.646,2.683-1.828,5.559-2.874,8.806c-1.048,3.249-2.108,7.157-1.278,7.243
				c0.835,0.089,4.002-6.639,4.158-6.182c0.154,0.455,0.873,7.322,1.242,10.133c0.366,2.81,0.873,4.103,1.841,3.465
				c0.967-0.639-0.14-10.732-0.123-10.426c0.017,0.308,2.192,11.629,3.807,10.84c1.613-0.789-1.127-12.062-1.127-12.062
				s2.417,10.551,3.678,9.695c1.265-0.854-1.72-10.582-1.72-10.582s3.074,8.27,3.382,6.691c0.309-1.578-2.272-8.787-2.333-9.084
				c-0.062-0.3-0.076-4.619-1.311-7.324C647.382,219.275,644.734,218.67,641.273,220.77z"/>
			<path fill="#3E3B3A" d="M574.752,111.6c2.814-4.518,7.227-6.146,10.641-1.04l0.907,1.311
				C588.371,102.385,571.768,104.41,574.752,111.6z"/>
			<path fill="#3E3B3A" d="M554.134,110.781c2.813-4.521,7.228-6.147,10.641-1.04l0.907,1.309
				C567.753,101.566,551.146,103.591,554.134,110.781z"/>
			<path fill="#944626" d="M586.521,99.372h-11.196c-0.533,0-0.967,0.435-0.967,0.968v0.354c0,0.532,0.434,0.968,0.967,0.968h11.196
				c0.533,0,0.969-0.436,0.969-0.968v-0.354C587.489,99.807,587.055,99.372,586.521,99.372z"/>
			<path fill="#944626" d="M566.512,98.711h-11.194c-0.534,0-0.971,0.436-0.971,0.969v0.354c0,0.532,0.437,0.969,0.971,0.969h11.194
				c0.534,0,0.972-0.437,0.972-0.969V99.68C567.482,99.146,567.046,98.711,566.512,98.711z"/>
			<path fill="#642528" d="M564.164,125.46c-0.419,1.19-0.649,2.502-0.649,3.879c0,5.403,3.572,9.785,7.978,9.785
				c4.404,0,7.978-4.382,7.978-9.785c0-1.377-0.233-2.688-0.651-3.879H564.164L564.164,125.46z"/>
			<path fill="#BF5347" d="M567.698,137.95c1.13,0.747,2.421,1.174,3.793,1.174c3.702,0,6.812-3.091,7.714-7.283
				c-0.985-0.123-2.065-0.124-3.201,0.016c-4.586,0.572-8.308,3.266-8.308,6.017C567.696,137.898,567.698,137.924,567.698,137.95z"
				/>
			<path fill="#EFEFEF" d="M565.41,125.46h13.406c0.418,1.19,0.651,2.502,0.651,3.879c0,0.045,0,0.089,0,0.134h-12.913
				c-0.629,0-1.146-0.515-1.146-1.145L565.41,125.46L565.41,125.46z"/>
			<path fill="#F08A65" d="M561.223,120.129c-0.935,5.62,17.487,6.326,9.259-12.605C568.98,115.564,561.354,119.35,561.223,120.129z
				"/>
			<path fill="#964C2F" d="M593.029,81.721c-1.411,0.177-42.331,8.741-42.331,8.741s-2.536-6.009-2.623-17.117
				c-0.09-11.105,6.698-15.073,9.692-16.747c3-1.677,4.321-1.853,3.703-1.5c-0.615,0.354-3.347,5.377-3.261,9.258
				c0.089,3.876,7.976-5.515,7.89-5.029c-0.089,0.484,1.365,6.037,1.675,5.199c0.309-0.837,5.11-4.054,8.197-4.715
				c3.086-0.661,3.966-0.661,3.966-0.661l-2.996,4.716c0,0,6.787-1.498,9.872-1.851c3.086-0.354,5.198,0.265,3.969,0.704
				c-1.234,0.441-1.941,1.498-1.941,1.498s5.73-1.85,12.43,1.764c6.698,3.613,7.942,15.669,7.942,15.669L593.029,81.721z"/>
			<path fill="#944626" d="M550.698,90.462c0.166,1.274,0.658,2.398,1.502,3.34c0.528,0.593,1.194,1.11,2.008,1.55
				c5.942,3.217,19.604,2.115,43.284-6.531c0,0,1.323,15.338,1.233,22.743c-0.016,1.282-0.024,2.407-0.031,3.394
				c0.002-0.002,0.002-0.006,0.005-0.008c0.012-0.043,0.023-0.087,0.038-0.136c0.392-1.41,1.418-5.837,2.595-12.432
				c0.609-3.434,1.786-8.419,2.805-12.531c1.011-4.08,1.865-7.302,1.865-7.302l-5.656,0.808l-3.601,0.515
				c0,0,0.692-0.994,1.569-2.173c0.1-0.136,0.2-0.272,0.305-0.411c1.136-1.515,2.462-3.177,2.974-3.41
				c0.853-0.388-1.278-0.435-5.972,0.627c-0.661,0.15-1.373,0.322-2.136,0.52c-6.17,1.586-11.89,5.008-11.89,5.008l1.398-8.447
				c0,0-2.997,0.97-7.494,4.32c-2.762,2.059-4.824,4.816-6.007,6.635c-0.739,1.142-1.133,1.916-1.133,1.916
				s-0.387-0.587-0.913-1.488c-1.23-2.111-3.222-5.96-2.787-8.12c0.511-2.556-1.854,5.507-2.503,9.222
				c-0.139,0.771-0.196,1.357-0.143,1.619c0.108,0.518-0.797,0.062-2.119-1.148c-0.703-0.643-1.524-1.498-2.377-2.533
				c-0.329-0.4-0.659-0.827-0.992-1.279c-0.792-1.075-1.581-2.294-2.299-3.629c-0.11-0.21-0.225-0.426-0.333-0.645
				c-0.896-1.777-1.647-3.743-2.104-5.839c-2.116-9.695,2.028-15.323,2.028-15.323c-2.865,2.502-5.805,6.723-5.744,14.054
				c0.044,5.694,0.732,10.049,1.392,12.94C550.097,89.035,550.698,90.462,550.698,90.462z"/>
			<path fill="#964C2F" d="M611.979,124.138c0,0-1.35,3.807-3.688,7.905c-2.335,4.1-7.266,6.52-7.468,6.379
				c-0.203-0.142,1.222-7.832,1.222-7.832c1.452-1.184,1.531-3.902,2.72-5.138l0.624,0.316
				C607.392,127.222,610.309,125.394,611.979,124.138z"/>
			<path fill="#854123" d="M578.984,142.333c-0.274,0.251-2.305,0.896-4.013,1.41c-1.305,0.393-2.425,0.706-2.425,0.706
				s-1.1-2.116-1.409-1.852c-0.309,0.265-2.6,2.116-3.085,1.983c-0.484-0.132-3.48-4.848-3.567-4.274
				c-0.092,0.573-0.573,3.393-1.545,2.645c-0.969-0.75-4.101-3.614-4.496-2.954c-0.284,0.476-0.297,1.884-0.937,2.099
				c-0.248,0.085-0.596-0.015-1.09-0.424c-0.852-0.701-2.344-2.311-3.664-3.765c1.164,3.017,2.606,6.021,3.362,7.215
				c1.545,2.424,2.116,2.819,2.205,2.335s0.528-0.793,0.528-0.793s2.601,3.217,3.525,2.688c0.925-0.527,1.277-1.101,1.765-1.013
				c0.483,0.089,4.009,4.099,5.021,2.953c1.016-1.146,1.721-1.982,2.603-1.499c0.478,0.264,1.881,0.981,3.207,1.514
				c1.119,0.446,2.188,0.76,2.609,0.559c0.926-0.44,3.172-2.336,3.35-2.072c0.177,0.265,0.935,2.072,1.809,1.454
				c0.156-0.108,0.467-0.27,0.874-0.455c1.877-0.862,5.797-2.287,5.868-1.926c0.09,0.443,1.544,0.531,2.865-0.264
				c1.322-0.793,2.952-2.775,2.952-2.775s1.366,0.705,2.338-0.441c0.668-0.792,2.123-3.213,3.188-6.965
				c-0.028-0.021-0.024-0.176,0-0.436c0.157-1.648,1.222-7.396,1.222-7.396c0.104-3.471-0.326-6.938-0.753-9.496l-0.127,0.004
				c-0.333,1.986-2.068,11.302-5.874,16.168c-4.276,5.464-8.067,6.434-8.067,6.434s0.661-2.6,0.266-2.424
				c-0.224,0.101-2.203,1.169-3.876,1.994c-1.293,0.636-2.401,1.125-2.38,0.916C581.274,143.699,579.469,141.893,578.984,142.333z"
				/>
			<path fill="#E27626" d="M556.535,168.234l1.511,75.83l6.04-0.172l19.287-0.554c-6.925-2.653-20.33-0.519-21.277-3.541
				c-0.943-3.022-0.358-54.387-1.915-71.641c-0.229-2.517-0.399-4.431-0.496-5.525c-0.062-0.678-0.095-1.043-0.095-1.043
				l-3.135,2.66c0,0-0.396-0.104-1.048-0.278c-2.7-0.725-9.787-2.66-11.419-3.439c-0.336-0.16-0.602-0.613-0.812-1.259
				c-1.054-3.243-0.683-11.315-0.683-11.315l-2.773,9.636l-1.406,4.882c0,0,8.771,5.112,15.115,5.599
				C554.604,168.162,555.634,168.212,556.535,168.234z"/>
			<path fill="#E27626" d="M603.447,242.764l1.648-70.924c-0.93-0.682-1.854-1.338-2.737-1.939l-1.162,11.082
				c0,0-2.23,39.688-3.747,54.596c-0.321,3.146-0.609,5.188-0.837,5.521c-1.312,1.898-7.093,2.064-7.093,2.064l10.839-0.309
				L603.447,242.764z"/>
			<path fill="#E27626" d="M605.097,171.84c3.646,2.678,7.388,5.784,9.334,7.825l2.136-1.999l3.594-3.365l-12.378-4.086
				l-1.824-0.604l-0.789-0.83l-2.425-2.545l-0.385,3.664C603.243,170.502,604.167,171.158,605.097,171.84z"/>
			<path fill="#BF5347" d="M402.803,138.693c-0.482-1.763-2.062-3.649-4.35-4.944c-1.975-1.117-4.056-1.555-5.722-1.336
				c1.038,3.926,4.045,6.765,7.59,6.765C401.188,139.178,402.021,139.009,402.803,138.693z"/>
			<path fill="#EEB074" d="M535.873,151.271c-4.321-1.676-21.157-14.633-29.091-26.357c-6.599-9.748-8.806-15.474-9.361-17.127
				c-0.968,0.259-1.856,0.325-2.654,0.221c1.829,4.062,14.724,31.602,33.162,42.956c4.387,2.7,8.322,4.876,11.793,6.629l1.931-6.7
				C540.65,151.57,538.709,152.369,535.873,151.271z"/>
			<path fill="#EEB074" d="M494.767,108.008c0.798,0.104,1.688,0.038,2.654-0.221c-0.112-0.336-0.157-0.502-0.157-0.502
				s-0.364-0.092-0.927-0.385c-0.843-0.439-2.123-1.334-3.262-3.053c-1.894-2.864-2.224-6.898-2.224-6.898l-3.37-7.407
				c-0.118-0.026-0.203,0.033-0.249,0.199c-0.396,1.477,2.731,7.298,2.777,7.603c0.042,0.303-0.179,4.529,0.925,7.434
				C491.636,106.626,492.961,107.766,494.767,108.008z"/>
			<path fill="#EEB074" d="M641.273,220.77c-2.646,2.683-1.828,5.559-2.874,8.806c-0.507,1.573-1.019,3.302-1.315,4.676
				c0,0,2.139-5.19,2.844-7.479c0.422-1.364,1.186-3.428,1.737-4.875c0.373-0.987,0.65-1.688,0.65-1.688s-1.417-17.062-8.821-28.435
				c-7.403-11.371-13.335-17.473-13.335-17.473l-3.594,3.365c12.867,11.688,20.529,23.131,24.843,43.021
				C641.363,220.715,641.318,220.742,641.273,220.77z"/>
			<path fill="#EEB074" d="M596.119,113.851c-0.354,0.31-7.582,5.291-7.582,5.291s-0.862,2.839-1.682,5.745
				c2.61,1.908,4.693,4.371,6.637,2.604c1.739-1.581,3.825-7.667,5.202-12.534c0.007-0.986,0.017-2.111,0.032-3.394
				c0.089-7.405-1.234-22.743-1.234-22.743c-23.679,8.646-37.342,9.748-43.284,6.531c-0.812-0.439-1.479-0.957-2.008-1.55
				c0,0,0.612,0.995,1.87,1.938c0.892,0.664,2.106,1.303,3.661,1.542c3.747,0.57,17.495-0.135,25.343-2.338
				c7.844-2.203,10.445-2.247,10.445-2.247S596.472,113.543,596.119,113.851z"/>
			<path fill="#98BA43" d="M413.767,244.122l1.515-75.833c-3.68,0.092-5.181-0.277-5.382-0.333
				c-0.405,13.567-1.861,62.112-2.025,67.655c-0.008,0.295-0.013,0.471-0.015,0.509c-0.023,0.879-8.17,7.597-8.17,7.597l8.036,0.23
				L413.767,244.122z"/>
			<path fill="#98BA43" d="M418.382,168.127c6.346-0.486,15.115-5.6,15.115-5.6l-1.405-4.881l-0.747-2.596
				c-0.962,1.771-1.999,3.247-3.119,4.466c-3.454,3.753-7.695,5.077-12.875,5.177c-0.559,0.012-1.131,0.008-1.713-0.01
				c-0.116-0.002-0.231-0.006-0.35-0.011c-1.06-0.037-2.152-0.116-3.283-0.228c0,0-0.04,1.283-0.105,3.51
				c0.201,0.056,1.702,0.425,5.382,0.333C416.179,168.266,417.208,168.216,418.382,168.127z"/>
			<path fill="#EEB074" d="M432.092,157.646c3.473-1.754,7.405-3.928,11.792-6.63c18.438-11.354,31.334-38.894,33.164-42.957
				c-0.615,0.085-1.281,0.062-1.999-0.069c-9.174,23.346-23.716,33.477-43.704,47.061L432.092,157.646z"/>
			<path fill="#EEB074" d="M475.049,107.99c0.718,0.131,1.384,0.154,1.999,0.069c1.801-0.241,3.128-1.379,3.83-3.228
				c1.104-2.905,0.881-7.13,0.927-7.435c0.044-0.305,3.173-6.124,2.776-7.603c-0.005-0.01-0.007-0.022-0.012-0.033l-3.232,6.438
				c0,0-1.307,6.889-2.687,9.125c-0.684,1.104-1.533,1.668-2.219,1.951c-0.694,0.291-1.221,0.296-1.221,0.296
				C475.158,107.71,475.104,107.85,475.049,107.99z"/>
			<path fill="#EEB074" d="M329.76,223.898c0.735,0.773,1.581,1.992,2.096,3.787c1.057,3.703,1.321,5.289,1.498,5.553
				c0.106,0.162,1.337,2.533,2.284,4.373c0.608-0.545-0.613-3.94-1.79-6.752c-1.234-2.953-0.562-5.938-3.385-8.004
				c-0.157-0.057-0.313-0.108-0.466-0.158c-0.558-0.174-1.088-0.289-1.594-0.346c-0.051,0.269-0.074,0.396-0.074,0.396
				S328.981,223.077,329.76,223.898z"/>
			<path fill="#EEB074" d="M329.997,222.697c4.23-21.104,11.966-32.914,25.251-44.979l-2.119-1.979c0,0-7.172,6.946-13.604,17.524
				c-6.436,10.576-8.198,15.777-9.476,21.42c-0.981,4.34-1.472,6.773-1.646,7.668C328.909,222.408,329.439,222.523,329.997,222.697z
				"/>
			<path fill="#98BA43" d="M355.248,177.719l2.137,1.998c1.943-2.037,5.688-5.143,9.331-7.822c1.013-0.744,2.016-1.453,2.972-2.098
				l-0.104-3.02c-0.479,0.039-0.962,0.123-1.446,0.238c-0.506,0.123-1.012,0.279-1.522,0.471c-4.58,1.705-9.375,5.936-13.485,8.254
				L355.248,177.719z"/>
			<path fill="#98BA43" d="M366.716,171.895l1.649,70.924l3.087,0.09l17.339,0.498l-16.705-4.398l-2.398-69.21
				C368.73,170.439,367.729,171.15,366.716,171.895z"/>
			<path fill="#363533" d="M374.231,93.371c13.117,2.858,26.896,0.616,36.134-7.064c1.23-1.025,2.385-2.15,3.443-3.369
				c0.494-0.569,0.97-1.162,1.422-1.773c3.348-4.533,5.513-10.237,5.984-17.146c0,0-3.396,6.389-8.332,11.061
				c-1.49,1.409-2.752,2.472-3.793,3.27c-2.408,1.854-3.612,2.283-3.612,2.283l1.294-3.824l0.821-2.434c0,0-0.784,0.659-2.189,1.688
				c-2.377,1.734-6.537,4.518-11.738,6.951c-8.285,3.879-14.191,3.791-14.191,3.791l1.767-5.907c0,0-7.937,4.937-11.55,9.961
				s-2.646,8.462-2.646,8.462l2.75,9.969c0.758,1.548,1.276,3.355,1.459,5.293l1.834,6.646c0,0,0.087-2.205,0-9.609
				C373,104.214,374.231,93.371,374.231,93.371z"/>
			<path fill="#EEB074" d="M366.77,127.359c2.998,14.684,11.199,18.711,21.433,19.684c2.237,0.215,4.574,0.279,6.976,0.279
				c0.561,0,1.114-0.004,1.662-0.014c8.648-0.158,15.662-1.682,20.146-7.953c-5.342,3.501-12.867,5.409-20.146,5.438
				c-2.978,0.011-5.912-0.293-8.638-0.932c-3.6-0.843-6.833-2.271-9.32-4.327c-7.362-6.082-9.501-15.843-9.501-15.843l-0.816,0.585
				c-0.646,0.693-1.381,1.227-2.184,1.562C366.533,126.347,366.667,126.852,366.77,127.359z"/>
			<path fill="#EEB074" d="M374.231,93.371c0,0-1.231,10.843-1.146,18.246c0.087,7.404,0,9.609,0,9.609l3.766-23.959
				c0,0,12.214,1.951,23.711-2.114c5.285-1.872,8.513-4.604,10.453-7.011c2.281-2.828,2.793-5.205,2.793-5.205
				c-1.06,1.219-2.213,2.344-3.443,3.369C401.129,93.987,387.35,96.229,374.231,93.371z"/>
			<path fill="#98BA43" d="M402.589,165.67c2.271-0.967,3.857-2.488,4.966-4.229l-2.661-7.463c0.114-0.019,0.576-0.045,1.564-0.15
				l-4.771-1.139c0,5.062-4.104,9.165-9.169,9.165c-5.062,0-9.166-4.104-9.166-9.165l-5.895,1.022l-0.99,3.947
				c0.691,1.297,1.567,2.737,2.674,4.308C384.511,169.583,393.688,169.46,402.589,165.67z"/>
			<path fill="#E27626" d="M564.183,161.596c2.843,3.687,11.353,10.771,20.079,7.158c5.208-2.154,8.721-7.954,10.766-12.43
				l-0.672-2.666l-5.896-1.023c0,5.064-4.104,9.167-9.168,9.167c-5.062,0-9.166-4.103-9.166-9.167l-4.771,1.138
				c0.988,0.106,1.449,0.133,1.562,0.151L564.183,161.596z"/>
			<path fill="#98BA43" d="M376.468,157.659l0.99-3.947c-0.713,0.011-1.651,0.066-2.688,0.164c0.031,0.093,0.066,0.187,0.104,0.284
				C375.249,155.168,375.764,156.34,376.468,157.659z"/>
			<path fill="#98BA43" d="M404.894,153.979l2.661,7.462c0.755-1.185,1.288-2.467,1.663-3.75c0.236-0.814,0.412-1.626,0.54-2.41
				c0.037-0.215,0.067-0.431,0.098-0.643c0.058-0.436,0.103-0.86,0.138-1.268c-1.589,0.23-2.734,0.371-3.534,0.457
				C405.47,153.934,405.008,153.96,404.894,153.979z"/>
			<path fill="#E27626" d="M594.355,153.658l0.671,2.666c0.385-0.852,0.721-1.655,1.006-2.375c0.024-0.07,0.053-0.14,0.079-0.207
				C595.445,153.694,594.846,153.664,594.355,153.658z"/>
			<path fill="#E27626" d="M564.183,161.596l2.734-7.672c-0.113-0.019-0.574-0.045-1.562-0.151
				c-0.796-0.084-1.933-0.223-3.508-0.451c0.015,0.391,0.04,0.818,0.078,1.272c0.02,0.199,0.038,0.403,0.061,0.611
				c0.096,0.845,0.249,1.752,0.482,2.648C562.82,159.202,563.361,160.529,564.183,161.596z"/>
			<path fill="#17232B" d="M404.797,321c1.287-24.238,2.695-52.859,2.793-63.814c0.053-5.854,0.1-10.125,0.136-13.237l-8.036-0.23
				L399.396,321H404.797z"/>
			<path fill="#17232B" d="M363.074,321l11.887-74.538l13.83-3.058l-17.339-0.497c-4.395,27.062-8.66,51.95-11.983,78.093H363.074z"
				/>
			<path fill="#22231C" d="M612.354,321c-3.323-26.162-7.596-51.066-11.994-78.145l-10.84,0.309L605.479,321H612.354z"/>
			<path fill="#22231C" d="M579.957,321c1.408-26.771,3.083-58.053,3.282-59.256c0.005-0.02,0.01-0.029,0.017-0.031l-4.32-8.893
				L574.492,321H579.957z"/>
		</g>
	</g>
</g>
<g enable-background="new    ">
	<path fill="#FEFEFE" d="M49.181,64.444h9.987v4.427h-2.294V82.26h-5.398V68.871h-2.294V64.444z"/>
	<path fill="#FEFEFE" d="M60.089,82.26V68.224h3.158l1.431,1.512h0.054c0.54-0.837,1.296-1.836,3.131-1.836
		c0.405,0,0.756,0.054,0.756,0.054l-0.351,4.913l-0.594,0.297c0,0-0.513-0.162-1.106-0.162c-0.729,0-1.08,0.216-1.08,0.216v9.043
		H60.089z"/>
	<path fill="#FEFEFE" d="M73.938,67.899c5.048,0,6.991,1.755,6.991,5.398v3.941c0,0.324,0.055,0.675,0.594,0.782l0.595,0.108
		l0.216,0.513c-0.136,0.837-0.621,2.808-0.621,2.808s-0.999,1.134-2.889,1.134c-1.376,0-2.321-0.648-2.807-1.323h-0.216
		c-0.756,0.783-1.646,1.323-3.213,1.323c-2.456,0-4.075-1.674-4.075-4.104v-0.539c0-2.592,1.835-3.969,4.211-4.211l2.807-0.297
		v-0.081c0-0.675-0.351-1.026-2.268-1.026c-1.808,0-3.238,0.378-3.238,0.378l-0.486-0.323c0.243-2.511,0.594-4.13,0.594-4.13
		S71.698,67.899,73.938,67.899z M75.531,78.184v-2.132l-0.998,0.323c-0.459,0.136-0.621,0.594-0.621,1.026v0.378
		c0,0.459,0.243,0.756,0.647,0.756C75.019,78.535,75.531,78.184,75.531,78.184z"/>
	<path fill="#FEFEFE" d="M93.647,70.518l-3.563,6.506l-0.566,0.81l0.107,0.135l0.918-0.135h3.104v4.427H82.985v-2.969l3.077-5.642
		l0.675-0.918l-0.055-0.162l-0.944,0.081H83.12v-4.427h10.527V70.518z"/>
	<path fill="#FEFEFE" d="M106.04,68.224v9.178c0,0.54,0.271,0.756,0.729,0.756c0.513,0,0.891-0.271,0.891-0.271v-9.663h5.398v9.016
		c0,0.459,0.162,0.702,0.594,0.782l0.594,0.108l0.216,0.513c-0.27,1.431-0.594,2.78-0.594,2.78s-0.998,1.161-2.915,1.161
		c-1.296,0-2.294-0.594-2.808-1.323h-0.216c-0.701,0.648-1.809,1.323-3.319,1.323c-2.241,0-3.969-1.269-3.969-4.724v-9.637H106.04z"
		/>
	<path fill="#FEFEFE" d="M120.755,82.26h-5.398V68.224h3.158l1.539,1.593c0.756-0.918,1.781-1.917,3.779-1.917
		c1.484,0,2.618,0.702,3.266,1.728c0.729-0.836,1.755-1.728,3.617-1.728c2.375,0,3.806,1.674,3.806,3.968V82.26h-5.398v-9.312
		c0-0.27-0.107-0.621-0.702-0.621c-0.404,0-0.782,0.162-0.782,0.162s0,1.269,0,9.771h-5.398v-9.312c0-0.27-0.108-0.621-0.702-0.621
		c-0.405,0-0.783,0.162-0.783,0.162V82.26z"/>
</g>
<g enable-background="new    ">
	<path fill="#FFED00" d="M147.262,67.899c5.047,0,6.991,1.755,6.991,5.398v3.941c0,0.324,0.054,0.675,0.594,0.782l0.594,0.108
		l0.216,0.513c-0.136,0.837-0.621,2.808-0.621,2.808s-0.999,1.134-2.888,1.134c-1.377,0-2.321-0.648-2.807-1.323h-0.216
		c-0.756,0.783-1.646,1.323-3.212,1.323c-2.457,0-4.076-1.674-4.076-4.104v-0.539c0-2.592,1.835-3.969,4.211-4.211l2.807-0.297
		v-0.081c0-0.675-0.351-1.026-2.267-1.026c-1.809,0-3.239,0.378-3.239,0.378l-0.486-0.323c0.243-2.511,0.594-4.13,0.594-4.13
		S145.022,67.899,147.262,67.899z M148.854,78.184v-2.132l-0.999,0.323c-0.459,0.136-0.621,0.594-0.621,1.026v0.378
		c0,0.459,0.243,0.756,0.647,0.756C148.342,78.535,148.854,78.184,148.854,78.184z"/>
	<path fill="#FFED00" d="M161.95,82.26h-5.399V68.224h3.158l1.539,1.593c0.756-0.918,1.781-1.917,3.779-1.917
		c1.484,0,2.618,0.702,3.266,1.728c0.729-0.836,1.755-1.728,3.617-1.728c2.375,0,3.806,1.674,3.806,3.968V82.26h-5.398v-9.312
		c0-0.27-0.107-0.621-0.702-0.621c-0.404,0-0.782,0.162-0.782,0.162s0,1.269,0,9.771h-5.398v-9.312c0-0.27-0.108-0.621-0.702-0.621
		c-0.405,0-0.782,0.162-0.782,0.162V82.26z"/>
	<path fill="#FFED00" d="M179.716,62.393c1.728,0,3.023,0.729,3.023,2.375c0,1.673-1.296,2.375-3.023,2.375
		c-1.754,0-3.022-0.702-3.022-2.375C176.693,63.122,177.962,62.393,179.716,62.393z M177.017,82.26V68.224h5.398V82.26H177.017z"/>
	<path fill="#FFED00" d="M185.143,82.313v-0.135c-0.891-0.54-1.025-1.322-1.025-1.943c0-1.322,0.675-2.24,1.755-3.401
		c-1.431-0.782-2.402-1.971-2.402-3.995c0-3.104,2.321-4.939,5.992-4.939h0.404c1.917,0,3.51,0.594,4.508,1.565h0.055
		c0.513-0.674,1.269-1.241,2.402-1.241h0.675v4.237l-0.486,0.297c0,0-0.351-0.107-0.837-0.107h-0.323v0.188
		c0,3.077-1.971,4.832-5.938,4.832c-0.756,0-1.296-0.027-1.296-0.027s-0.081,0.243-0.081,0.54c0,0.378,0.162,0.567,0.621,0.567
		h2.942c3.4,0,5.021,1.89,5.021,4.13v0.459c0,2.429-1.512,4.643-5.885,4.643h-2.078c-3.51,0-5.669-1.134-5.669-3.158v-0.135
		C183.496,83.447,184.279,82.719,185.143,82.313z M190.487,72.3c0-0.729-0.188-1.053-0.81-1.053s-0.81,0.323-0.81,1.053v0.972
		c0,0.729,0.188,1.053,0.81,1.053s0.81-0.324,0.81-1.053V72.3z M188.895,82.746v1.079c0,0.729,0.405,1.242,1.458,1.242
		s1.377-0.433,1.377-1.188v-0.135c0-0.756-0.486-0.998-1.107-0.998H188.895z"/>
	<path fill="#FFED00" d="M210.467,79.317h-0.162c-0.837,0.702-1.809,1.106-3.132,1.106c-2.321,0-3.887-1.728-3.887-4.372
		c0-0.675,0.081-2.052,0.459-3.401c0.891-3.212,2.861-4.751,5.264-4.751c1.674,0,2.564,0.972,2.78,1.215l1.025-0.891h2.646
		l-1.593,7.936c-0.162,0.837,0.243,1.242,0.81,1.242c1.242,0,2.78-1.485,2.78-4.67v-1.106c0-3.671-2.294-5.831-7.53-5.831h-0.567
		c-5.236,0-8.179,3.293-8.179,7.937v1.619c0,4.643,2.618,7.396,7.855,7.396h0.297c2.132,0,4.696-0.324,6.802-0.621l0.324,2.349
		c-1.862,0.513-4.643,1.025-7.126,1.025h-0.297c-7.1,0-10.608-3.779-10.608-10.149V73.73c0-6.371,3.859-10.689,10.932-10.689h0.567
		c7.099,0,10.284,3.104,10.284,8.584v1.106c0,5.587-3.32,7.692-6.641,7.692C212.248,80.424,211.195,80.046,210.467,79.317z
		 M209.44,76.537c0-0.485,0.027-1.025,0.162-1.593l0.675-3.319c0,0-0.351-0.108-0.621-0.108c-0.756,0-1.269,0.297-1.7,2.321
		c-0.162,0.756-0.243,1.512-0.243,1.89c0,0.783,0.324,1.188,0.864,1.188C208.981,76.915,209.306,76.672,209.44,76.537z"/>
	<path fill="#FFED00" d="M224.644,76.808c1.674,0,2.97,1.16,2.97,2.86c0,1.404-0.621,2.403-1.701,3.779l-2.159,2.754h-1.7v-0.595
		l1.269-3.293v-0.107c-0.999-0.459-1.646-1.323-1.646-2.538C221.675,77.941,222.971,76.808,224.644,76.808z"/>
</g>
<g enable-background="new    ">
	<path fill="#1D4259" d="M54.714,103.78v0.271c0,0.729,0.243,1.296,1.971,1.296c1.593,0,3.401-0.567,3.401-0.567l0.378,0.216
		c0,0,0.162,1.755,0.189,3.779c0,0-1.7,0.999-4.724,0.999c-4.13,0-6.613-2.16-6.613-6.938v-0.972c0-4.454,2.672-6.775,6.046-6.775
		h0.621c3.374,0,5.155,1.836,5.155,5.75v0.459c0,0.972-0.243,2.482-0.243,2.482H54.714z M54.714,101.135h1.62v-1.539
		c0-0.621-0.216-0.891-0.702-0.891c-0.459,0-0.918,0.378-0.918,1.215V101.135z"/>
	<path fill="#1D4259" d="M68.377,105.13l0.459-0.217c0,0,2.105,0.433,3.779,0.433c1.322,0,1.593-0.189,1.593-0.486
		c0-0.162-0.055-0.243-0.352-0.297l-1.754-0.27c-2.97-0.459-4.211-1.809-4.211-4.157c0-3.104,1.997-5.048,6.478-5.048
		c2.321,0,4.319,0.54,4.319,0.567c-0.081,1.673-0.351,4.049-0.351,4.049l-0.459,0.242c0,0-1.863-0.432-3.267-0.432
		c-1.08,0-1.322,0.189-1.322,0.432c0,0.162,0.081,0.243,0.27,0.271l1.646,0.27c3.132,0.513,4.373,1.701,4.373,4.104
		c0,3.239-1.674,5.183-6.154,5.183c-2.996,0-4.777-0.54-4.777-0.54C68.431,107.181,68.377,105.13,68.377,105.13z"/>
	<path fill="#1D4259" d="M85.791,103.78v0.271c0,0.729,0.243,1.296,1.97,1.296c1.593,0,3.401-0.567,3.401-0.567l0.378,0.216
		c0,0,0.162,1.755,0.189,3.779c0,0-1.701,0.999-4.724,0.999c-4.13,0-6.613-2.16-6.613-6.938v-0.972c0-4.454,2.672-6.775,6.046-6.775
		h0.621c3.374,0,5.155,1.836,5.155,5.75v0.459c0,0.972-0.243,2.482-0.243,2.482H85.791z M85.791,101.135h1.619v-1.539
		c0-0.621-0.216-0.891-0.701-0.891c-0.459,0-0.918,0.378-0.918,1.215V101.135z"/>
	<path fill="#1D4259" d="M105.176,109.773c-3.645,0-6.208-1.674-6.208-6.938v-0.405c0-5.263,2.321-7.342,6.343-7.342
		c1.674,0,2.808,0.405,2.808,0.405c-0.108,1.781-0.432,4.076-0.432,4.021l-0.378,0.162c0,0-0.648-0.162-1.188-0.162
		c-1.079,0-1.754,0.621-1.754,2.699v0.567c0,2.078,0.675,2.564,1.89,2.564c0.539,0,1.295-0.271,1.295-0.271l0.378,0.162
		c0,0,0.271,1.674,0.513,3.914C108.441,109.152,107.092,109.773,105.176,109.773z"/>
	<path fill="#1D4259" d="M115.247,95.088c3.347,0,5.965,2.483,5.965,6.775v1.134c0,4.292-2.618,6.775-5.965,6.775h-0.486
		c-3.347,0-5.965-2.483-5.965-6.775v-1.134c0-4.292,2.618-6.775,5.965-6.775H115.247z M115.813,100.542
		c0-0.811-0.324-1.026-0.81-1.026c-0.486,0-0.81,0.216-0.81,1.026v3.778c0,0.783,0.323,1.026,0.81,1.026
		c0.485,0,0.81-0.243,0.81-1.026V100.542z"/>
	<path fill="#1D4259" d="M127.667,109.449h-5.399V95.413h3.158l1.539,1.593c0.756-0.918,1.781-1.917,3.779-1.917
		c1.484,0,2.618,0.702,3.266,1.728c0.729-0.836,1.755-1.728,3.617-1.728c2.375,0,3.806,1.674,3.806,3.968v10.393h-5.398v-9.312
		c0-0.27-0.107-0.621-0.702-0.621c-0.404,0-0.782,0.162-0.782,0.162s0,1.269,0,9.771h-5.398v-9.312c0-0.27-0.108-0.621-0.702-0.621
		c-0.405,0-0.782,0.162-0.782,0.162V109.449z"/>
	<path fill="#1D4259" d="M142.733,114.847V95.413h3.158l1.431,1.484c0.702-0.945,1.89-1.809,3.482-1.809
		c2.888,0,4.615,1.917,4.615,7.153v0.729c0,4.805-1.781,6.803-4.399,6.803c-1.16,0-2.133-0.378-2.834-0.864h-0.055v5.938H142.733z
		 M150.021,102.242c0-2.133-0.323-2.727-1.214-2.727c-0.378,0-0.676,0.081-0.676,0.081v5.938c0,0,0.271,0.081,0.595,0.081
		c0.782,0,1.295-0.188,1.295-3.239V102.242z"/>
	<path fill="#1D4259" d="M156.477,109.449V95.413h3.158l1.431,1.512h0.055c0.539-0.837,1.295-1.836,3.131-1.836
		c0.404,0,0.756,0.054,0.756,0.054l-0.352,4.913l-0.594,0.297c0,0-0.513-0.162-1.106-0.162c-0.729,0-1.079,0.216-1.079,0.216v9.043
		H156.477z"/>
	<path fill="#1D4259" d="M170.326,95.088c5.048,0,6.991,1.755,6.991,5.398v3.941c0,0.324,0.055,0.675,0.594,0.782l0.595,0.108
		l0.216,0.513c-0.136,0.837-0.621,2.808-0.621,2.808s-0.999,1.134-2.889,1.134c-1.376,0-2.321-0.648-2.807-1.323h-0.216
		c-0.756,0.783-1.646,1.323-3.213,1.323c-2.456,0-4.075-1.674-4.075-4.104v-0.539c0-2.592,1.835-3.969,4.211-4.211l2.807-0.297
		v-0.081c0-0.675-0.351-1.026-2.268-1.026c-1.808,0-3.238,0.378-3.238,0.378l-0.486-0.323c0.243-2.511,0.594-4.13,0.594-4.13
		S168.086,95.088,170.326,95.088z M171.919,105.373v-2.132l-0.998,0.323c-0.459,0.136-0.621,0.594-0.621,1.026v0.378
		c0,0.459,0.243,0.756,0.647,0.756C171.406,105.724,171.919,105.373,171.919,105.373z"/>
	<path fill="#1D4259" d="M179.615,109.449V95.413h3.158l1.431,1.512h0.055c0.539-0.837,1.295-1.836,3.131-1.836
		c0.404,0,0.756,0.054,0.756,0.054l-0.352,4.913l-0.594,0.297c0,0-0.513-0.162-1.106-0.162c-0.729,0-1.079,0.216-1.079,0.216v9.043
		H179.615z"/>
	<path fill="#1D4259" d="M190.253,103.997c1.674,0,2.97,1.16,2.97,2.86c0,1.404-0.621,2.403-1.701,3.779l-2.159,2.754h-1.7v-0.595
		l1.269-3.293v-0.107c-0.999-0.459-1.646-1.323-1.646-2.538C187.284,105.13,188.58,103.997,190.253,103.997z"/>
	<path fill="#1D4259" d="M206.938,95.088c3.347,0,5.965,2.483,5.965,6.775v1.134c0,4.292-2.618,6.775-5.965,6.775h-0.486
		c-3.347,0-5.965-2.483-5.965-6.775v-1.134c0-4.292,2.618-6.775,5.965-6.775H206.938z M207.504,100.542
		c0-0.811-0.324-1.026-0.81-1.026c-0.486,0-0.81,0.216-0.81,1.026v3.778c0,0.783,0.323,1.026,0.81,1.026
		c0.485,0,0.81-0.243,0.81-1.026V100.542z"/>
	<path fill="#1D4259" d="M214.201,105.13l0.459-0.217c0,0,2.105,0.433,3.779,0.433c1.322,0,1.593-0.189,1.593-0.486
		c0-0.162-0.055-0.243-0.352-0.297l-1.754-0.27c-2.97-0.459-4.211-1.809-4.211-4.157c0-3.104,1.997-5.048,6.478-5.048
		c2.321,0,4.319,0.54,4.319,0.567c-0.081,1.673-0.351,4.049-0.351,4.049l-0.459,0.242c0,0-1.863-0.432-3.267-0.432
		c-1.08,0-1.322,0.189-1.322,0.432c0,0.162,0.081,0.243,0.27,0.271l1.646,0.27c3.132,0.513,4.373,1.701,4.373,4.104
		c0,3.239-1.674,5.183-6.154,5.183c-2.996,0-4.777-0.54-4.777-0.54C214.255,107.181,214.201,105.13,214.201,105.13z"/>
	<path fill="#1D4259" d="M49.559,141.847v-19.435h3.158l1.431,1.484c0.702-0.944,1.889-1.809,3.482-1.809
		c2.888,0,4.616,1.917,4.616,7.153v0.729c0,4.805-1.782,6.803-4.4,6.803c-1.161,0-2.132-0.378-2.834-0.864h-0.054v5.938H49.559z
		 M56.847,129.242c0-2.133-0.324-2.727-1.215-2.727c-0.378,0-0.675,0.081-0.675,0.081v5.938c0,0,0.27,0.081,0.594,0.081
		c0.783,0,1.296-0.188,1.296-3.239V129.242z"/>
	<path fill="#1D4259" d="M62.627,136.449v-14.036h3.158l1.431,1.512h0.054c0.54-0.837,1.296-1.836,3.131-1.836
		c0.405,0,0.756,0.054,0.756,0.054l-0.351,4.913l-0.594,0.297c0,0-0.513-0.162-1.106-0.162c-0.729,0-1.08,0.216-1.08,0.216v9.043
		H62.627z"/>
	<path fill="#1D4259" d="M75.855,130.78v0.271c0,0.729,0.243,1.296,1.97,1.296c1.593,0,3.401-0.567,3.401-0.567l0.378,0.216
		c0,0,0.162,1.755,0.189,3.779c0,0-1.701,0.999-4.724,0.999c-4.13,0-6.613-2.16-6.613-6.938v-0.972c0-4.454,2.672-6.775,6.046-6.775
		h0.621c3.374,0,5.155,1.836,5.155,5.75v0.459c0,0.972-0.243,2.482-0.243,2.482H75.855z M75.855,128.135h1.619v-1.539
		c0-0.621-0.216-0.891-0.701-0.891c-0.459,0-0.918,0.378-0.918,1.215V128.135z"/>
	<path fill="#1D4259" d="M82.903,132.13l0.459-0.217c0,0,2.105,0.433,3.779,0.433c1.322,0,1.593-0.189,1.593-0.486
		c0-0.162-0.055-0.243-0.352-0.297l-1.754-0.27c-2.97-0.459-4.211-1.809-4.211-4.157c0-3.104,1.997-5.048,6.478-5.048
		c2.321,0,4.319,0.54,4.319,0.567c-0.081,1.673-0.351,4.049-0.351,4.049l-0.459,0.242c0,0-1.863-0.432-3.267-0.432
		c-1.079,0-1.322,0.189-1.322,0.432c0,0.162,0.081,0.243,0.27,0.271l1.646,0.27c3.132,0.513,4.373,1.701,4.373,4.104
		c0,3.239-1.674,5.183-6.154,5.183c-2.996,0-4.777-0.54-4.777-0.54C82.957,134.181,82.903,132.13,82.903,132.13z"/>
	<path fill="#1D4259" d="M99.643,130.78v0.271c0,0.729,0.243,1.296,1.97,1.296c1.593,0,3.401-0.567,3.401-0.567l0.378,0.216
		c0,0,0.162,1.755,0.189,3.779c0,0-1.701,0.999-4.724,0.999c-4.13,0-6.613-2.16-6.613-6.938v-0.972c0-4.454,2.672-6.775,6.046-6.775
		h0.621c3.374,0,5.155,1.836,5.155,5.75v0.459c0,0.972-0.243,2.482-0.243,2.482H99.643z M99.643,128.135h1.619v-1.539
		c0-0.621-0.216-0.891-0.701-0.891c-0.459,0-0.918,0.378-0.918,1.215V128.135z"/>
	<path fill="#1D4259" d="M106.446,136.449v-14.036h3.158l1.565,1.565c0.837-0.918,2.105-1.89,3.995-1.89
		c2.268,0,3.698,1.565,3.698,3.86v10.5h-5.398v-9.34c0-0.351-0.189-0.594-0.675-0.594c-0.486,0-0.945,0.271-0.945,0.271v9.663
		H106.446z"/>
	<path fill="#1D4259" d="M119.19,122.413h1.485l1.619-3.239h3.779v3.239h2.834v4.427h-2.834v3.94c0,1.107,0.378,1.566,1.376,1.566
		c0.594,0,1.107-0.136,1.107-0.136l0.351,0.189v3.806c0,0-1.134,0.567-2.915,0.567c-4.508,0-5.317-2.024-5.317-5.857v-4.076h-1.485
		V122.413z"/>
	<path fill="#1D4259" d="M134.391,130.78v0.271c0,0.729,0.243,1.296,1.97,1.296c1.593,0,3.401-0.567,3.401-0.567l0.378,0.216
		c0,0,0.162,1.755,0.189,3.779c0,0-1.701,0.999-4.724,0.999c-4.13,0-6.613-2.16-6.613-6.938v-0.972c0-4.454,2.672-6.775,6.046-6.775
		h0.621c3.374,0,5.155,1.836,5.155,5.75v0.459c0,0.972-0.243,2.482-0.243,2.482H134.391z M134.391,128.135h1.619v-1.539
		c0-0.621-0.216-0.891-0.701-0.891c-0.459,0-0.918,0.378-0.918,1.215V128.135z"/>
	<path fill="#1D4259" d="M146.296,122.088c5.048,0,6.991,1.755,6.991,5.398v3.941c0,0.324,0.055,0.675,0.594,0.782l0.595,0.108
		l0.216,0.513c-0.136,0.837-0.621,2.808-0.621,2.808s-0.999,1.134-2.889,1.134c-1.376,0-2.321-0.648-2.807-1.323h-0.216
		c-0.756,0.783-1.646,1.323-3.213,1.323c-2.456,0-4.075-1.674-4.075-4.104v-0.539c0-2.592,1.835-3.969,4.211-4.211l2.807-0.297
		v-0.081c0-0.675-0.351-1.026-2.268-1.026c-1.808,0-3.238,0.378-3.238,0.378l-0.486-0.323c0.243-2.511,0.594-4.13,0.594-4.13
		S144.056,122.088,146.296,122.088z M147.889,132.373v-2.132l-0.998,0.323c-0.459,0.136-0.621,0.594-0.621,1.026v0.378
		c0,0.459,0.243,0.756,0.647,0.756C147.376,132.724,147.889,132.373,147.889,132.373z"/>
	<path fill="#1D4259" d="M160.31,136.449h-5.399v-14.036h3.158l1.539,1.593c0.756-0.918,1.781-1.917,3.779-1.917
		c1.484,0,2.618,0.702,3.266,1.728c0.729-0.837,1.755-1.728,3.617-1.728c2.375,0,3.806,1.674,3.806,3.968v10.393h-5.398v-9.312
		c0-0.27-0.107-0.621-0.702-0.621c-0.404,0-0.782,0.162-0.782,0.162s0,1.269,0,9.771h-5.398v-9.312c0-0.27-0.108-0.621-0.702-0.621
		c-0.405,0-0.782,0.162-0.782,0.162V136.449z"/>
	<path fill="#1D4259" d="M180.91,122.088c3.347,0,5.965,2.483,5.965,6.775v1.134c0,4.292-2.618,6.775-5.965,6.775h-0.486
		c-3.347,0-5.965-2.483-5.965-6.775v-1.134c0-4.292,2.618-6.775,5.965-6.775H180.91z M181.477,127.542
		c0-0.811-0.324-1.026-0.81-1.026c-0.486,0-0.81,0.216-0.81,1.026v3.778c0,0.783,0.323,1.026,0.81,1.026
		c0.485,0,0.81-0.243,0.81-1.026V127.542z"/>
	<path fill="#1D4259" d="M187.499,132.13l0.459-0.217c0,0,2.105,0.433,3.779,0.433c1.322,0,1.593-0.189,1.593-0.486
		c0-0.162-0.055-0.243-0.352-0.297l-1.754-0.27c-2.97-0.459-4.211-1.809-4.211-4.157c0-3.104,1.997-5.048,6.478-5.048
		c2.321,0,4.319,0.54,4.319,0.567c-0.081,1.673-0.351,4.049-0.351,4.049l-0.459,0.242c0,0-1.863-0.432-3.267-0.432
		c-1.079,0-1.322,0.189-1.322,0.432c0,0.162,0.081,0.243,0.27,0.271l1.646,0.27c3.132,0.513,4.373,1.701,4.373,4.104
		c0,3.239-1.674,5.183-6.154,5.183c-2.996,0-4.777-0.54-4.777-0.54C187.553,134.181,187.499,132.13,187.499,132.13z"/>
	<path fill="#1D4259" d="M209.745,122.413v9.178c0,0.54,0.271,0.756,0.729,0.756c0.513,0,0.891-0.271,0.891-0.271v-9.663h5.398
		v9.016c0,0.459,0.162,0.702,0.594,0.782l0.594,0.108l0.216,0.513c-0.27,1.431-0.594,2.78-0.594,2.78s-0.998,1.161-2.915,1.161
		c-1.296,0-2.294-0.594-2.808-1.323h-0.216c-0.701,0.648-1.809,1.323-3.319,1.323c-2.241,0-3.969-1.269-3.969-4.724v-9.637H209.745z
		"/>
	<path fill="#1D4259" d="M223.786,136.449h-5.399v-14.036h3.158l1.539,1.593c0.756-0.918,1.781-1.917,3.779-1.917
		c1.484,0,2.618,0.702,3.266,1.728c0.729-0.837,1.755-1.728,3.617-1.728c2.375,0,3.806,1.674,3.806,3.968v10.393h-5.398v-9.312
		c0-0.27-0.107-0.621-0.702-0.621c-0.404,0-0.782,0.162-0.782,0.162s0,1.269,0,9.771h-5.398v-9.312c0-0.27-0.108-0.621-0.702-0.621
		c-0.405,0-0.782,0.162-0.782,0.162V136.449z"/>
	<path fill="#1D4259" d="M254.753,130.241c0,4.453-2.105,6.532-5.885,6.532c-3.212,0-5.29-1.134-5.29-1.134
		c0.107-1.701,0.378-3.59,0.378-3.59l0.432-0.217c0,0,1.646,0.514,2.942,0.514c1.565,0,2.024-0.864,2.024-1.728v-0.108
		c0-0.783-0.514-1.458-1.485-1.458c-0.836,0-1.457,0.514-1.457,0.514l-2.699-0.783l0.54-10.149h9.42v4.427h-4.265l-0.108,2.079
		l0.055,0.026c0,0,0.378-0.107,0.863-0.107c2.996,0,4.535,1.943,4.535,4.912V130.241z"/>
	<path fill="#1D4259" d="M260.396,118.904c1.674,0,3.888,1.188,3.888,4.075v1.107c0,2.86-2.214,4.049-3.888,4.049h-0.701
		c-1.674,0-3.888-1.188-3.888-4.049v-1.107c0-2.888,2.214-4.075,3.888-4.075H260.396z M269.925,118.661h3.536l-10.985,18.112h-3.536
		L269.925,118.661z M260.586,122.142c0-0.27-0.162-0.539-0.54-0.539s-0.54,0.27-0.54,0.539v2.754c0,0.27,0.162,0.54,0.54,0.54
		s0.54-0.271,0.54-0.54V122.142z M272.544,127.542c1.673,0,3.887,1.188,3.887,4.075v1.107c0,2.861-2.214,4.049-3.887,4.049h-0.702
		c-1.674,0-3.887-1.188-3.887-4.049v-1.107c0-2.888,2.213-4.075,3.887-4.075H272.544z M272.732,130.78
		c0-0.27-0.162-0.539-0.54-0.539s-0.54,0.27-0.54,0.539v2.754c0,0.27,0.162,0.54,0.54,0.54s0.54-0.271,0.54-0.54V130.78z"/>
	<path fill="#1D4259" d="M62.002,158.428c0,0.404,0.108,0.702,0.594,0.782l0.594,0.108l0.216,0.513
		c-0.27,1.403-0.621,2.807-0.621,2.807s-0.999,1.135-2.834,1.135c-1.35,0-2.294-0.541-2.861-1.324h-0.216
		c-0.567,0.594-1.512,1.324-2.996,1.324c-2.861,0-4.562-2.268-4.562-6.884v-0.647c0-5.345,2.213-7.153,5.507-7.153
		c0.54,0,1.161,0.027,1.781,0.162v-4.696h5.398V158.428z M54.714,156.43c0,2.646,0.405,3.186,1.188,3.186
		c0.378,0,0.702-0.243,0.702-0.243v-5.776c0,0-0.324-0.081-0.675-0.081c-0.81,0-1.215,0.513-1.215,2.727V156.43z"/>
	<path fill="#1D4259" d="M69.457,157.78v0.271c0,0.729,0.243,1.296,1.97,1.296c1.593,0,3.401-0.567,3.401-0.567l0.378,0.216
		c0,0,0.162,1.755,0.189,3.779c0,0-1.701,1-4.724,1c-4.13,0-6.613-2.16-6.613-6.938v-0.972c0-4.454,2.672-6.775,6.046-6.775h0.621
		c3.374,0,5.155,1.836,5.155,5.75v0.459c0,0.972-0.243,2.482-0.243,2.482H69.457z M69.457,155.135h1.619v-1.539
		c0-0.621-0.216-0.891-0.701-0.891c-0.459,0-0.918,0.378-0.918,1.215V155.135z"/>
	<path fill="#1D4259" d="M95.32,158.428c0,0.404,0.107,0.702,0.594,0.782l0.594,0.108l0.216,0.513
		c-0.27,1.403-0.621,2.807-0.621,2.807s-0.998,1.135-2.834,1.135c-1.35,0-2.294-0.541-2.861-1.324h-0.216
		c-0.566,0.594-1.512,1.324-2.996,1.324c-2.861,0-4.562-2.268-4.562-6.884v-0.647c0-5.345,2.213-7.153,5.506-7.153
		c0.54,0,1.161,0.027,1.782,0.162v-4.696h5.398V158.428z M88.032,156.43c0,2.646,0.404,3.186,1.188,3.186
		c0.378,0,0.702-0.243,0.702-0.243v-5.776c0,0-0.324-0.081-0.675-0.081c-0.811,0-1.215,0.513-1.215,2.727V156.43z"/>
	<path fill="#1D4259" d="M102.773,157.78v0.271c0,0.729,0.243,1.296,1.97,1.296c1.593,0,3.401-0.567,3.401-0.567l0.378,0.216
		c0,0,0.162,1.755,0.189,3.779c0,0-1.701,1-4.724,1c-4.13,0-6.613-2.16-6.613-6.938v-0.972c0-4.454,2.672-6.775,6.046-6.775h0.621
		c3.374,0,5.155,1.836,5.155,5.75v0.459c0,0.972-0.243,2.482-0.243,2.482H102.773z M102.773,155.135h1.619v-1.539
		c0-0.621-0.216-0.891-0.701-0.891c-0.459,0-0.918,0.378-0.918,1.215V155.135z"/>
	<path fill="#1D4259" d="M110.496,159.13l0.459-0.217c0,0,2.105,0.433,3.779,0.433c1.322,0,1.593-0.189,1.593-0.486
		c0-0.162-0.055-0.243-0.352-0.297l-1.754-0.27c-2.97-0.459-4.211-1.809-4.211-4.157c0-3.104,1.997-5.048,6.478-5.048
		c2.321,0,4.319,0.54,4.319,0.567c-0.081,1.673-0.351,4.049-0.351,4.049l-0.459,0.242c0,0-1.863-0.432-3.267-0.432
		c-1.08,0-1.322,0.189-1.322,0.432c0,0.162,0.081,0.243,0.27,0.271l1.646,0.27c3.132,0.513,4.373,1.701,4.373,4.104
		c0,3.24-1.674,5.183-6.154,5.183c-2.996,0-4.777-0.541-4.777-0.541C110.55,161.182,110.496,159.13,110.496,159.13z"/>
	<path fill="#1D4259" d="M128.72,163.773c-3.645,0-6.208-1.674-6.208-6.938v-0.405c0-5.263,2.321-7.342,6.343-7.342
		c1.674,0,2.808,0.405,2.808,0.405c-0.108,1.781-0.432,4.076-0.432,4.021l-0.378,0.162c0,0-0.648-0.162-1.188-0.162
		c-1.079,0-1.754,0.621-1.754,2.699v0.567c0,2.078,0.675,2.564,1.89,2.564c0.539,0,1.295-0.271,1.295-0.271l0.378,0.162
		c0,0,0.271,1.674,0.513,3.915C131.985,163.152,130.636,163.773,128.72,163.773z"/>
	<path fill="#1D4259" d="M138.791,149.088c3.347,0,5.965,2.483,5.965,6.775v1.134c0,4.292-2.618,6.776-5.965,6.776h-0.486
		c-3.347,0-5.965-2.484-5.965-6.776v-1.134c0-4.292,2.618-6.775,5.965-6.775H138.791z M139.357,154.542
		c0-0.811-0.324-1.026-0.81-1.026c-0.486,0-0.81,0.216-0.81,1.026v3.778c0,0.783,0.323,1.026,0.81,1.026
		c0.485,0,0.81-0.243,0.81-1.026V154.542z"/>
	<path fill="#1D4259" d="M145.812,163.449v-14.037h3.158l1.565,1.565c0.837-0.918,2.105-1.89,3.995-1.89
		c2.268,0,3.698,1.565,3.698,3.86v10.5h-5.398v-9.34c0-0.351-0.189-0.594-0.675-0.594c-0.486,0-0.945,0.271-0.945,0.271v9.664
		H145.812z"/>
	<path fill="#1D4259" d="M159.23,149.413h1.485l1.619-3.239h3.779v3.239h2.834v4.427h-2.834v3.94c0,1.107,0.378,1.566,1.376,1.566
		c0.594,0,1.107-0.136,1.107-0.136l0.351,0.189v3.805c0,0-1.134,0.568-2.915,0.568c-4.508,0-5.317-2.025-5.317-5.858v-4.076h-1.485
		V149.413z"/>
	<path fill="#1D4259" d="M176.158,149.088c3.347,0,5.965,2.483,5.965,6.775v1.134c0,4.292-2.618,6.776-5.965,6.776h-0.486
		c-3.347,0-5.965-2.484-5.965-6.776v-1.134c0-4.292,2.618-6.775,5.965-6.775H176.158z M176.725,154.542
		c0-0.811-0.324-1.026-0.81-1.026c-0.486,0-0.81,0.216-0.81,1.026v3.778c0,0.783,0.323,1.026,0.81,1.026
		c0.485,0,0.81-0.243,0.81-1.026V154.542z"/>
	<path fill="#1D4259" d="M189.118,163.449v-14.037h3.158l1.565,1.565c0.837-0.918,2.105-1.89,3.995-1.89
		c2.268,0,3.698,1.565,3.698,3.86v10.5h-5.398v-9.34c0-0.351-0.189-0.594-0.675-0.594c-0.486,0-0.945,0.271-0.945,0.271v9.664
		H189.118z"/>
	<path fill="#1D4259" d="M207.936,149.088c5.048,0,6.991,1.755,6.991,5.398v3.941c0,0.324,0.055,0.675,0.594,0.782l0.595,0.108
		l0.216,0.513c-0.136,0.837-0.621,2.807-0.621,2.807s-0.999,1.135-2.889,1.135c-1.376,0-2.321-0.648-2.807-1.324h-0.216
		c-0.756,0.783-1.646,1.324-3.213,1.324c-2.456,0-4.075-1.674-4.075-4.104v-0.539c0-2.592,1.835-3.969,4.211-4.211l2.807-0.297
		v-0.081c0-0.675-0.351-1.026-2.268-1.026c-1.808,0-3.238,0.378-3.238,0.378l-0.486-0.323c0.243-2.511,0.594-4.13,0.594-4.13
		S205.695,149.088,207.936,149.088z M209.528,159.373v-2.132l-0.998,0.323c-0.459,0.136-0.621,0.594-0.621,1.026v0.378
		c0,0.459,0.243,0.756,0.647,0.756C209.016,159.724,209.528,159.373,209.528,159.373z"/>
	<path fill="#1D4259" d="M223.408,159.13l0.459-0.217c0,0,2.105,0.433,3.779,0.433c1.322,0,1.593-0.189,1.593-0.486
		c0-0.162-0.055-0.243-0.352-0.297l-1.754-0.27c-2.97-0.459-4.211-1.809-4.211-4.157c0-3.104,1.997-5.048,6.478-5.048
		c2.321,0,4.319,0.54,4.319,0.567c-0.081,1.673-0.351,4.049-0.351,4.049l-0.459,0.242c0,0-1.863-0.432-3.267-0.432
		c-1.08,0-1.322,0.189-1.322,0.432c0,0.162,0.081,0.243,0.27,0.271l1.646,0.27c3.132,0.513,4.373,1.701,4.373,4.104
		c0,3.24-1.674,5.183-6.154,5.183c-2.996,0-4.777-0.541-4.777-0.541C223.462,161.182,223.408,159.13,223.408,159.13z"/>
	<path fill="#1D4259" d="M241.065,149.413v9.178c0,0.54,0.27,0.756,0.729,0.756c0.513,0,0.891-0.271,0.891-0.271v-9.663h5.398v9.016
		c0,0.459,0.162,0.702,0.594,0.782l0.594,0.108l0.216,0.513c-0.27,1.43-0.594,2.78-0.594,2.78s-0.998,1.162-2.915,1.162
		c-1.296,0-2.294-0.594-2.808-1.324h-0.216c-0.701,0.648-1.809,1.324-3.319,1.324c-2.241,0-3.969-1.27-3.969-4.724v-9.637H241.065z"
		/>
	<path fill="#1D4259" d="M255.482,149.088c5.048,0,6.991,1.755,6.991,5.398v3.941c0,0.324,0.055,0.675,0.594,0.782l0.595,0.108
		l0.216,0.513c-0.136,0.837-0.621,2.807-0.621,2.807s-0.999,1.135-2.889,1.135c-1.376,0-2.321-0.648-2.807-1.324h-0.216
		c-0.756,0.783-1.646,1.324-3.213,1.324c-2.456,0-4.075-1.674-4.075-4.104v-0.539c0-2.592,1.835-3.969,4.211-4.211l2.807-0.297
		v-0.081c0-0.675-0.351-1.026-2.268-1.026c-1.808,0-3.238,0.378-3.238,0.378l-0.486-0.323c0.243-2.511,0.594-4.13,0.594-4.13
		S253.242,149.088,255.482,149.088z M257.075,159.373v-2.132l-0.998,0.323c-0.459,0.136-0.621,0.594-0.621,1.026v0.378
		c0,0.459,0.243,0.756,0.647,0.756C256.562,159.724,257.075,159.373,257.075,159.373z"/>
	<path fill="#1D4259" d="M49.559,195.848v-19.436h3.158l1.431,1.484c0.702-0.943,1.889-1.809,3.482-1.809
		c2.888,0,4.616,1.918,4.616,7.154v0.729c0,4.805-1.782,6.803-4.4,6.803c-1.161,0-2.132-0.379-2.834-0.865h-0.054v5.939H49.559z
		 M56.847,183.242c0-2.133-0.324-2.727-1.215-2.727c-0.378,0-0.675,0.08-0.675,0.08v5.939c0,0,0.27,0.08,0.594,0.08
		c0.783,0,1.296-0.188,1.296-3.238V183.242z"/>
	<path fill="#1D4259" d="M63.302,190.449v-14.037h3.158l1.431,1.512h0.054c0.54-0.836,1.296-1.836,3.131-1.836
		c0.405,0,0.756,0.055,0.756,0.055l-0.351,4.912l-0.594,0.297c0,0-0.513-0.162-1.106-0.162c-0.729,0-1.08,0.217-1.08,0.217v9.043
		H63.302z"/>
	<path fill="#1D4259" d="M78.259,176.088c3.347,0,5.965,2.484,5.965,6.775v1.135c0,4.291-2.618,6.775-5.965,6.775h-0.486
		c-3.347,0-5.965-2.484-5.965-6.775v-1.135c0-4.291,2.618-6.775,5.965-6.775H78.259z M82.523,172.525l-3.104,2.268h-2.996
		l-0.297-0.621l1.836-3.158h4.562V172.525z M78.825,181.541c0-0.811-0.324-1.025-0.81-1.025c-0.486,0-0.81,0.215-0.81,1.025v3.779
		c0,0.783,0.323,1.025,0.81,1.025c0.485,0,0.81-0.242,0.81-1.025V181.541z"/>
	<path fill="#1D4259" d="M95.51,183.377l2.564,7.072h-5.561l-1.106-4.158l-0.136-0.729H91.11l-0.136,0.729l-1.106,4.158h-5.561
		l2.564-6.992l-2.43-7.045h5.479l1.08,4.293l0.108,0.674h0.161l0.108-0.674l1.08-4.293h5.479L95.51,183.377z"/>
	<path fill="#1D4259" d="M101.641,170.582c1.728,0,3.023,0.729,3.023,2.375c0,1.674-1.296,2.375-3.023,2.375
		c-1.754,0-3.022-0.701-3.022-2.375C98.618,171.311,99.887,170.582,101.641,170.582z M98.941,190.449v-14.037h5.399v14.037H98.941z"
		/>
	<path fill="#1D4259" d="M111.036,190.449h-5.399v-14.037h3.158l1.539,1.594c0.756-0.918,1.781-1.918,3.779-1.918
		c1.484,0,2.618,0.703,3.266,1.729c0.729-0.838,1.755-1.729,3.617-1.729c2.375,0,3.806,1.674,3.806,3.969v10.393h-5.398v-9.312
		c0-0.27-0.107-0.621-0.702-0.621c-0.404,0-0.782,0.162-0.782,0.162s0,1.268,0,9.771h-5.398v-9.312c0-0.27-0.108-0.621-0.702-0.621
		c-0.405,0-0.782,0.162-0.782,0.162V190.449z"/>
	<path fill="#1D4259" d="M131.204,176.088c5.048,0,6.991,1.756,6.991,5.398v3.941c0,0.324,0.055,0.676,0.594,0.783l0.595,0.107
		l0.216,0.514c-0.136,0.836-0.621,2.807-0.621,2.807s-0.999,1.135-2.889,1.135c-1.376,0-2.321-0.648-2.807-1.324h-0.216
		c-0.756,0.783-1.646,1.324-3.213,1.324c-2.456,0-4.075-1.674-4.075-4.104v-0.539c0-2.592,1.835-3.969,4.211-4.211l2.807-0.297
		v-0.082c0-0.674-0.351-1.025-2.268-1.025c-1.808,0-3.238,0.377-3.238,0.377l-0.486-0.322c0.243-2.512,0.594-4.131,0.594-4.131
		S128.964,176.088,131.204,176.088z M132.797,186.373v-2.133l-0.998,0.324c-0.459,0.135-0.621,0.594-0.621,1.025v0.379
		c0,0.459,0.243,0.756,0.647,0.756C132.284,186.725,132.797,186.373,132.797,186.373z"/>
	<path fill="#1D4259" d="M151.589,184.779v0.271c0,0.729,0.242,1.295,1.971,1.295c1.592,0,3.4-0.566,3.4-0.566l0.378,0.215
		c0,0,0.162,1.756,0.189,3.779c0,0-1.701,1-4.724,1c-4.13,0-6.613-2.16-6.613-6.938v-0.973c0-4.453,2.672-6.775,6.046-6.775h0.621
		c3.374,0,5.155,1.836,5.155,5.75v0.459c0,0.973-0.243,2.482-0.243,2.482H151.589z M151.589,182.135h1.619v-1.539
		c0-0.621-0.216-0.891-0.701-0.891c-0.459,0-0.918,0.379-0.918,1.215V182.135z"/>
	<path fill="#1D4259" d="M159.068,190.449v-14.037h3.158l1.565,1.566c0.837-0.918,2.105-1.891,3.995-1.891
		c2.268,0,3.698,1.566,3.698,3.861v10.5h-5.398v-9.34c0-0.352-0.189-0.594-0.675-0.594c-0.486,0-0.944,0.27-0.944,0.27v9.664
		H159.068z"/>
	<path fill="#1D4259" d="M178.75,190.773c-3.645,0-6.208-1.674-6.208-6.938v-0.406c0-5.262,2.321-7.342,6.343-7.342
		c1.674,0,2.808,0.406,2.808,0.406c-0.108,1.781-0.432,4.076-0.432,4.021l-0.378,0.162c0,0-0.648-0.162-1.188-0.162
		c-1.079,0-1.754,0.621-1.754,2.699v0.566c0,2.078,0.675,2.564,1.89,2.564c0.539,0,1.295-0.27,1.295-0.27l0.378,0.162
		c0,0,0.271,1.674,0.513,3.914C182.016,190.152,180.666,190.773,178.75,190.773z"/>
	<path fill="#1D4259" d="M188.821,176.088c3.347,0,5.965,2.484,5.965,6.775v1.135c0,4.291-2.618,6.775-5.965,6.775h-0.486
		c-3.347,0-5.965-2.484-5.965-6.775v-1.135c0-4.291,2.618-6.775,5.965-6.775H188.821z M189.388,181.541
		c0-0.811-0.324-1.025-0.81-1.025c-0.486,0-0.81,0.215-0.81,1.025v3.779c0,0.783,0.323,1.025,0.81,1.025
		c0.485,0,0.81-0.242,0.81-1.025V181.541z"/>
	<path fill="#1D4259" d="M201.241,190.449h-5.399v-14.037H199l1.539,1.594c0.756-0.918,1.781-1.918,3.779-1.918
		c1.484,0,2.618,0.703,3.266,1.729c0.729-0.838,1.755-1.729,3.617-1.729c2.375,0,3.806,1.674,3.806,3.969v10.393h-5.398v-9.312
		c0-0.27-0.107-0.621-0.702-0.621c-0.404,0-0.782,0.162-0.782,0.162s0,1.268,0,9.771h-5.398v-9.312c0-0.27-0.108-0.621-0.702-0.621
		c-0.405,0-0.782,0.162-0.782,0.162V190.449z"/>
	<path fill="#1D4259" d="M221.464,184.779v0.271c0,0.729,0.242,1.295,1.971,1.295c1.592,0,3.4-0.566,3.4-0.566l0.378,0.215
		c0,0,0.162,1.756,0.189,3.779c0,0-1.701,1-4.724,1c-4.13,0-6.613-2.16-6.613-6.938v-0.973c0-4.453,2.672-6.775,6.046-6.775h0.621
		c3.374,0,5.155,1.836,5.155,5.75v0.459c0,0.973-0.243,2.482-0.243,2.482H221.464z M221.464,182.135h1.619v-1.539
		c0-0.621-0.216-0.891-0.701-0.891c-0.459,0-0.918,0.379-0.918,1.215V182.135z"/>
	<path fill="#1D4259" d="M228.943,190.449v-14.037h3.158l1.565,1.566c0.837-0.918,2.105-1.891,3.995-1.891
		c2.268,0,3.698,1.566,3.698,3.861v10.5h-5.398v-9.34c0-0.352-0.189-0.594-0.675-0.594c-0.486,0-0.944,0.27-0.944,0.27v9.664
		H228.943z"/>
	<path fill="#1D4259" d="M255.104,185.428c0,0.404,0.107,0.703,0.594,0.783l0.594,0.107l0.216,0.514
		c-0.27,1.402-0.621,2.807-0.621,2.807s-0.998,1.135-2.834,1.135c-1.35,0-2.294-0.541-2.861-1.324h-0.216
		c-0.566,0.594-1.512,1.324-2.996,1.324c-2.861,0-4.562-2.268-4.562-6.885v-0.646c0-5.346,2.213-7.154,5.506-7.154
		c0.54,0,1.161,0.027,1.782,0.162v-4.695h5.398V185.428z M247.815,183.43c0,2.646,0.404,3.186,1.188,3.186
		c0.378,0,0.702-0.242,0.702-0.242v-5.777c0,0-0.324-0.08-0.675-0.08c-0.811,0-1.215,0.512-1.215,2.727V183.43z"/>
	<path fill="#1D4259" d="M262.503,176.088c5.048,0,6.991,1.756,6.991,5.398v3.941c0,0.324,0.055,0.676,0.594,0.783l0.595,0.107
		l0.216,0.514c-0.136,0.836-0.621,2.807-0.621,2.807s-0.999,1.135-2.889,1.135c-1.376,0-2.321-0.648-2.807-1.324h-0.216
		c-0.756,0.783-1.646,1.324-3.213,1.324c-2.456,0-4.075-1.674-4.075-4.104v-0.539c0-2.592,1.835-3.969,4.211-4.211l2.807-0.297
		v-0.082c0-0.674-0.351-1.025-2.268-1.025c-1.808,0-3.238,0.377-3.238,0.377l-0.486-0.322c0.243-2.512,0.594-4.131,0.594-4.131
		S260.263,176.088,262.503,176.088z M264.096,186.373v-2.133l-0.998,0.324c-0.459,0.135-0.621,0.594-0.621,1.025v0.379
		c0,0.459,0.243,0.756,0.647,0.756C263.583,186.725,264.096,186.373,264.096,186.373z"/>
</g>
</svg>
