<?xml version="1.0" encoding="utf-8"?>
<!-- Generator: Adobe Illustrator 16.0.0, SVG Export Plug-In . SVG Version: 6.00 Build 0)  -->
<!DOCTYPE svg PUBLIC "-//W3C//DTD SVG 1.1//EN" "http://www.w3.org/Graphics/SVG/1.1/DTD/svg11.dtd">
<svg version="1.1" id="Layer_1" xmlns="http://www.w3.org/2000/svg" xmlns:xlink="http://www.w3.org/1999/xlink" x="0px" y="0px"
	 width="707px" height="321px" viewBox="0 0 707 321" enable-background="new 0 0 707 321" xml:space="preserve">
<g>
	<path opacity="0.3" fill="#84C3F7" enable-background="new    " d="M627.502,271.749c23.25-23.987,37.565-56.685,37.565-92.728
		c0-73.595-59.659-133.253-133.255-133.253c-73.597,0-133.255,59.659-133.255,133.253c0,36.043,14.316,68.739,37.565,92.728H627.502
		z"/>
	<g>
		<path opacity="0.59" fill="#C7C7D8" enable-background="new    " d="M662.582,274.501c0,1.795-63.907,3.248-142.739,3.248
			s-111.806-1.453-111.806-3.248c0-1.793,32.974-3.248,111.806-3.248S662.582,272.708,662.582,274.501z"/>
		<path fill="#0F222C" d="M450.514,239.477c10.087,0,18.266,8.178,18.266,18.266c0,10.086-8.179,18.266-18.266,18.266h-5.063
			v-36.529h5.063V239.477z"/>
		<path fill="#0F222C" d="M545.864,239.477c10.087,0,18.265,8.178,18.265,18.266c0,10.086-8.178,18.266-18.265,18.266H540.8v-36.529
			h5.064V239.477z"/>
		<path fill="#0F222C" d="M450.514,239.477c10.087,0,18.266,8.178,18.266,18.266c0,10.086-8.179,18.266-18.266,18.266h-5.063
			v-36.529h5.063V239.477z"/>
		<circle fill="#0F222C" cx="485.065" cy="254.332" r="18.266"/>
		<path fill="#0F222C" d="M587.641,236.066c10.086,0,18.265,8.179,18.265,18.266s-8.179,18.264-18.265,18.264h-5.065v-36.527h5.065
			V236.066z"/>
		<circle fill="#0F222C" cx="582.575" cy="254.332" r="18.266"/>
		<g>
			<rect x="540.8" y="138.392" fill="#E8BF7C" width="93.679" height="32.354"/>
			<rect x="503.33" y="170.66" fill="#E53A44" width="74.941" height="74.943"/>
			<rect x="532.982" y="202.376" fill="#AB7A45" width="15.635" height="11.511"/>
			<rect x="578.271" y="170.66" fill="#D0A56B" width="56.207" height="74.943"/>
			<rect x="578.271" y="202.376" opacity="0.5" fill="#AB7A45" enable-background="new    " width="56.207" height="11.511"/>
			<rect x="598.33" y="202.376" fill="#986E3E" width="15.635" height="11.511"/>
			<polygon fill="#A87944" points="578.271,170.746 634.479,170.746 662.582,142.812 606.374,142.812 			"/>
			<rect x="600.393" y="170.66" opacity="0.5" fill="#AB7A45" enable-background="new    " width="11.512" height="74.943"/>
			<polygon opacity="0.5" fill="#986E3E" enable-background="new    " points="600.393,170.66 611.903,170.66 639.752,142.812 
				628.24,142.812 			"/>
			<polygon fill="#BF3246" points="578.271,170.66 503.33,170.66 475.227,142.556 550.169,142.556 			"/>
			<polygon opacity="0.5" fill="#AB7A45" enable-background="new    " points="546.557,170.66 535.045,170.66 506.94,142.556 
				518.453,142.556 			"/>
			<g>
				<polygon fill="#FEAE35" points="562.65,198.729 562.65,196.385 548.586,196.385 548.586,194.04 555.617,194.04 555.617,191.695 
					557.963,191.695 557.963,182.32 555.617,182.32 555.617,179.977 548.586,179.977 548.586,182.32 529.833,182.32 
					529.833,179.977 518.112,179.977 518.112,182.32 515.768,182.32 515.768,194.04 518.112,194.04 518.112,196.385 
					522.801,196.385 522.801,187.008 525.146,187.008 525.146,184.664 527.488,184.664 527.488,215.137 536.865,215.137 
					536.865,208.105 564.994,208.105 564.994,198.729 				"/>
				<polygon fill="#F77321" points="527.488,184.664 527.488,189.352 529.833,189.352 529.833,187.008 532.177,187.008 
					532.177,184.664 				"/>
				<rect x="536.865" y="189.352" fill="#3B4568" width="2.344" height="7.033"/>
				<rect x="543.896" y="189.352" fill="#3B4568" width="2.346" height="7.033"/>
				<rect x="525.146" y="215.137" fill="#A22534" width="11.72" height="7.033"/>
				<rect x="536.865" y="215.137" fill="#7F1325" width="14.063" height="7.033"/>
				<polygon fill="#FEAE35" points="522.801,222.17 522.801,224.512 520.456,224.512 520.456,229.202 534.521,229.202 
					534.521,222.17 				"/>
				<polygon fill="#F77321" points="553.274,224.512 553.274,222.17 534.521,222.17 534.521,229.202 555.617,229.202 
					555.617,224.512 				"/>
				<polyline fill="#F77321" points="548.586,184.664 553.274,184.664 553.274,194.04 548.586,194.04 				"/>
				<polygon fill="#F77321" points="562.65,208.105 539.209,208.105 539.209,205.756 536.865,205.756 536.865,203.41 
					534.521,203.41 534.521,210.441 534.521,210.449 536.865,210.449 536.865,215.137 548.586,215.137 548.586,210.449 
					562.65,210.449 				"/>
				<polygon fill="#3B4568" points="555.617,198.729 555.617,201.072 557.963,201.072 557.963,203.416 560.307,203.416 
					560.307,201.072 562.65,201.072 562.65,198.729 				"/>
			</g>
		</g>
		<path fill="#1D4259" d="M411.641,257.741h166.631v-12.138H411.641c-1.989,0-3.604,1.612-3.604,3.603v4.931
			C408.037,256.127,409.65,257.741,411.641,257.741z"/>
		<path fill="#A26BAF" d="M411.641,245.604h91.689V170.66h-45.945c-8.97,0-17.353,4.454-22.373,11.885l-18.742,27.739
			c-3.018,4.465-4.629,9.729-4.629,15.116V245.604z"/>
		<path fill="#F2F2F2" d="M481.323,215.006v-35.91h-23.938c-6.177,0-11.929,3.055-15.385,8.172l-18.742,27.738H481.323
			L481.323,215.006z"/>
		<rect x="492.287" y="170.66" fill="#7E5189" width="11.043" height="74.943"/>
		<path fill="#0F222C" d="M539.957,236.066c11.97,0,21.674,9.703,21.674,21.675h-43.348
			C518.283,245.771,527.985,236.066,539.957,236.066z"/>
		<path fill="#0F222C" d="M444.605,236.066c11.971,0,21.674,9.703,21.674,21.675h-43.349
			C422.932,245.771,432.635,236.066,444.605,236.066z"/>
		<circle fill="#222846" cx="540.8" cy="257.741" r="18.265"/>
		<circle fill="#F2F2F2" cx="540.8" cy="257.741" r="8.987"/>
		<circle fill="#222846" cx="445.45" cy="257.741" r="18.265"/>
		<circle fill="#F2F2F2" cx="445.45" cy="257.741" r="8.987"/>
		<rect x="578.271" y="232.343" fill="#CE3836" width="7.827" height="7.449"/>
		<rect x="570.443" y="232.343" fill="#FF524F" width="7.828" height="7.449"/>
		<rect x="626.65" y="232.343" fill="#CE3836" width="7.828" height="7.449"/>
		<g>
			<path fill="#7E5189" d="M471.829,221.938h7.205c1.265,0,2.289-1.023,2.289-2.287v-1.639h-11.782v1.639
				C469.541,220.914,470.565,221.938,471.829,221.938z"/>
			<path fill="#222846" d="M471.829,220.968h7.205c1.265,0,2.289-1.026,2.289-2.29v-0.666h-11.782v0.666
				C469.541,219.941,470.565,220.968,471.829,220.968z"/>
		</g>
		<path fill="#F2F2F2" d="M418.758,236.066c0-3.93-3.187-7.115-7.117-7.115v14.232C415.571,243.184,418.758,239.998,418.758,236.066
			z"/>
		<path fill="#1B3241" d="M634.479,245.604h-56.207c-1.99,0-3.604,1.613-3.604,3.604v4.932c0,1.989,1.613,3.604,3.604,3.604h56.207
			c1.989,0,3.604-1.614,3.604-3.604v-4.932C638.082,247.217,636.468,245.604,634.479,245.604z"/>
		<circle fill="#F2F2F2" cx="582.185" cy="251.672" r="2.58"/>
		<circle fill="#F2F2F2" cx="587.916" cy="251.672" r="1.29"/>
		<circle fill="#F2F2F2" cx="630.564" cy="251.672" r="2.58"/>
		<circle fill="#F2F2F2" cx="624.833" cy="251.672" r="1.29"/>
	</g>
</g>
<g>
	<path fill="#A26BAF" d="M104.876,47.383h10.086c5.781,0,8.774,2.665,8.774,8.897v2.173c0,5.658-2.624,8.2-7.216,8.2h-3.444v7.79
		h-8.2V47.383z M113.077,54.106v6.889h0.82c1.394,0,1.64-1.066,1.64-2.501v-1.845c0-1.682-0.492-2.543-1.886-2.543H113.077z"/>
	<path fill="#A26BAF" d="M134.765,52.631c5.084,0,9.061,3.772,9.061,10.291v1.722c0,6.52-3.977,10.292-9.061,10.292h-0.738
		c-5.084,0-9.061-3.772-9.061-10.292v-1.722c0-6.519,3.977-10.291,9.061-10.291H134.765z M135.626,60.913
		c0-1.23-0.492-1.559-1.23-1.559c-0.738,0-1.23,0.328-1.23,1.559v5.74c0,1.188,0.492,1.558,1.23,1.558
		c0.738,0,1.23-0.369,1.23-1.558V60.913z"/>
	<path fill="#A26BAF" d="M145.424,74.443v-21.32h4.797l2.173,2.296h0.082c0.82-1.271,1.968-2.788,4.756-2.788
		c0.615,0,1.148,0.082,1.148,0.082l-0.533,7.462l-0.902,0.451c0,0-0.779-0.246-1.681-0.246c-1.107,0-1.64,0.328-1.64,0.328v13.735
		H145.424z"/>
	<path fill="#A26BAF" d="M159.896,53.123h2.255l2.46-4.92h5.74v4.92h4.305v6.724h-4.305v5.986c0,1.681,0.574,2.378,2.091,2.378
		c0.902,0,1.681-0.205,1.681-0.205l0.533,0.287v5.781c0,0-1.722,0.861-4.428,0.861c-6.847,0-8.077-3.075-8.077-8.897v-6.191h-2.255
		V53.123z"/>
	<path fill="#A26BAF" d="M184.003,65.833v0.41c0,1.106,0.369,1.968,2.993,1.968c2.419,0,5.166-0.861,5.166-0.861l0.574,0.328
		c0,0,0.246,2.665,0.287,5.74c0,0-2.583,1.518-7.175,1.518c-6.273,0-10.045-3.28-10.045-10.537v-1.477
		c0-6.765,4.059-10.291,9.184-10.291h0.943c5.125,0,7.831,2.788,7.831,8.733v0.696c0,1.477-0.369,3.772-0.369,3.772H184.003z
		 M184.003,61.815h2.46v-2.338c0-0.942-0.328-1.353-1.066-1.353c-0.697,0-1.394,0.574-1.394,1.845V61.815z"/>
	<path fill="#A26BAF" d="M195.729,67.883l0.697-0.328c0,0,3.198,0.656,5.74,0.656c2.009,0,2.419-0.287,2.419-0.738
		c0-0.246-0.082-0.368-0.533-0.45l-2.665-0.41c-4.51-0.697-6.396-2.747-6.396-6.314c0-4.715,3.034-7.667,9.84-7.667
		c3.526,0,6.56,0.82,6.56,0.861c-0.123,2.542-0.533,6.149-0.533,6.149l-0.697,0.369c0,0-2.829-0.656-4.961-0.656
		c-1.64,0-2.009,0.287-2.009,0.656c0,0.246,0.123,0.369,0.41,0.41l2.501,0.41c4.756,0.779,6.642,2.583,6.642,6.232
		c0,4.92-2.542,7.872-9.348,7.872c-4.551,0-7.257-0.82-7.257-0.82C195.811,70.999,195.729,67.883,195.729,67.883z"/>
	<path fill="#A26BAF" d="M242.264,66.817c0,0.614,0.164,1.065,0.902,1.188l0.902,0.164l0.328,0.779
		c-0.41,2.132-0.943,4.264-0.943,4.264s-1.517,1.723-4.305,1.723c-2.05,0-3.485-0.82-4.346-2.01h-0.328
		c-0.861,0.902-2.296,2.01-4.551,2.01c-4.346,0-6.929-3.444-6.929-10.455v-0.984c0-8.118,3.362-10.865,8.364-10.865
		c0.82,0,1.763,0.041,2.706,0.246v-7.134h8.2V66.817z M231.193,63.783c0,4.018,0.615,4.838,1.804,4.838
		c0.574,0,1.066-0.369,1.066-0.369v-8.774c0,0-0.492-0.123-1.025-0.123c-1.23,0-1.845,0.779-1.845,4.142V63.783z"/>
	<path fill="#A26BAF" d="M253.579,65.833v0.41c0,1.106,0.369,1.968,2.993,1.968c2.419,0,5.166-0.861,5.166-0.861l0.574,0.328
		c0,0,0.246,2.665,0.287,5.74c0,0-2.583,1.518-7.175,1.518c-6.273,0-10.045-3.28-10.045-10.537v-1.477
		c0-6.765,4.059-10.291,9.184-10.291h0.943c5.125,0,7.831,2.788,7.831,8.733v0.696c0,1.477-0.369,3.772-0.369,3.772H253.579z
		 M253.579,61.815h2.46v-2.338c0-0.942-0.328-1.353-1.066-1.353c-0.697,0-1.394,0.574-1.394,1.845V61.815z"/>
	<path fill="#A26BAF" d="M112.461,97.568v0.409c0,1.107,0.369,1.969,2.993,1.969c2.419,0,5.166-0.861,5.166-0.861l0.574,0.328
		c0,0,0.246,2.665,0.287,5.74c0,0-2.583,1.517-7.175,1.517c-6.273,0-10.045-3.28-10.045-10.537v-1.476
		c0-6.766,4.059-10.291,9.184-10.291h0.943c5.125,0,7.831,2.787,7.831,8.732v0.697c0,1.476-0.369,3.772-0.369,3.772H112.461z
		 M112.461,93.55h2.46v-2.337c0-0.943-0.328-1.354-1.066-1.354c-0.697,0-1.394,0.574-1.394,1.846V93.55z"/>
	<path fill="#A26BAF" d="M123.818,106.178v-21.32h4.797l2.378,2.378c1.271-1.394,3.198-2.869,6.068-2.869
		c3.444,0,5.617,2.378,5.617,5.862v15.949h-8.2V91.992c0-0.533-0.287-0.902-1.025-0.902c-0.738,0-1.435,0.41-1.435,0.41v14.678
		H123.818z"/>
	<path fill="#A26BAF" d="M149.156,106.178l-5.576-21.32h8.118l1.804,8.569l0.287,4.142h0.574l0.287-4.142l1.804-8.569h8.118
		l-5.576,21.32H149.156z"/>
	<path fill="#A26BAF" d="M169.984,76.002c2.624,0,4.592,1.106,4.592,3.607c0,2.542-1.968,3.608-4.592,3.608
		c-2.665,0-4.592-1.066-4.592-3.608C165.392,77.108,167.319,76.002,169.984,76.002z M165.884,106.178v-21.32h8.2v21.32H165.884z"/>
	<path fill="#A26BAF" d="M185.481,84.366c5.084,0,9.061,3.771,9.061,10.291v1.722c0,6.519-3.977,10.291-9.061,10.291h-0.738
		c-5.084,0-9.061-3.772-9.061-10.291v-1.722c0-6.52,3.977-10.291,9.061-10.291H185.481z M186.342,92.647
		c0-1.229-0.492-1.558-1.23-1.558c-0.738,0-1.23,0.328-1.23,1.558v5.74c0,1.189,0.492,1.559,1.23,1.559
		c0.738,0,1.23-0.369,1.23-1.559V92.647z"/>
	<path fill="#FF524F" d="M207.333,106.26v-0.205c-1.353-0.819-1.558-2.009-1.558-2.952c0-2.009,1.025-3.402,2.665-5.166
		c-2.173-1.188-3.649-2.992-3.649-6.067c0-4.716,3.526-7.503,9.102-7.503h0.615c2.911,0,5.33,0.901,6.847,2.378h0.082
		c0.779-1.025,1.927-1.887,3.649-1.887h1.025v6.438l-0.738,0.451c0,0-0.533-0.164-1.271-0.164h-0.492v0.287
		c0,4.674-2.993,7.339-9.02,7.339c-1.148,0-1.968-0.041-1.968-0.041s-0.123,0.369-0.123,0.82c0,0.573,0.246,0.86,0.943,0.86h4.469
		c5.166,0,7.626,2.87,7.626,6.273v0.697c0,3.689-2.296,7.052-8.938,7.052h-3.157c-5.33,0-8.61-1.722-8.61-4.797v-0.205
		C204.832,107.982,206.021,106.875,207.333,106.26z M215.451,91.049c0-1.107-0.287-1.599-1.23-1.599c-0.943,0-1.23,0.491-1.23,1.599
		v1.476c0,1.107,0.287,1.6,1.23,1.6c0.943,0,1.23-0.492,1.23-1.6V91.049z M213.032,106.916v1.64c0,1.107,0.615,1.887,2.214,1.887
		c1.599,0,2.091-0.656,2.091-1.805v-0.205c0-1.147-0.738-1.517-1.681-1.517H213.032z"/>
	<path fill="#FF524F" d="M227.669,106.178v-21.32h4.797l2.173,2.296h0.082c0.82-1.271,1.968-2.787,4.756-2.787
		c0.615,0,1.148,0.082,1.148,0.082l-0.533,7.462l-0.902,0.451c0,0-0.779-0.246-1.681-0.246c-1.107,0-1.64,0.327-1.64,0.327v13.735
		H227.669z"/>
	<path fill="#FF524F" d="M248.702,84.366c7.667,0,10.619,2.665,10.619,8.199v5.986c0,0.492,0.082,1.025,0.902,1.189l0.902,0.164
		l0.328,0.778c-0.205,1.271-0.943,4.265-0.943,4.265s-1.517,1.722-4.387,1.722c-2.091,0-3.526-0.984-4.264-2.009h-0.328
		c-1.148,1.188-2.501,2.009-4.879,2.009c-3.731,0-6.191-2.542-6.191-6.232v-0.819c0-3.937,2.788-6.027,6.396-6.396l4.264-0.451
		v-0.123c0-1.024-0.533-1.558-3.444-1.558c-2.747,0-4.92,0.574-4.92,0.574l-0.738-0.492c0.369-3.813,0.902-6.273,0.902-6.273
		S245.299,84.366,248.702,84.366z M256.533,78.954l-4.715,3.443h-4.551l-0.451-0.942l2.788-4.798h6.929V78.954z M251.121,99.987
		v-3.239l-1.517,0.492c-0.697,0.205-0.943,0.901-0.943,1.558v0.574c0,0.697,0.369,1.147,0.984,1.147
		C250.342,100.52,251.121,99.987,251.121,99.987z"/>
	<path fill="#FF524F" d="M262.354,84.857h2.255l2.46-4.92h5.74v4.92h4.305v6.725h-4.305v5.986c0,1.681,0.574,2.378,2.091,2.378
		c0.902,0,1.681-0.205,1.681-0.205l0.533,0.287v5.78c0,0-1.722,0.861-4.428,0.861c-6.847,0-8.077-3.075-8.077-8.897v-6.19h-2.255
		V84.857z"/>
	<path fill="#FF524F" d="M282.73,76.002c2.624,0,4.592,1.106,4.592,3.607c0,2.542-1.968,3.608-4.592,3.608
		c-2.665,0-4.592-1.066-4.592-3.608C278.139,77.108,280.065,76.002,282.73,76.002z M278.63,106.178v-21.32h8.2v21.32H278.63z"/>
	<path fill="#FF524F" d="M289.167,99.618l0.697-0.328c0,0,3.198,0.656,5.74,0.656c2.009,0,2.419-0.287,2.419-0.738
		c0-0.246-0.082-0.369-0.533-0.451l-2.665-0.41c-4.51-0.697-6.396-2.747-6.396-6.313c0-4.716,3.034-7.667,9.84-7.667
		c3.526,0,6.56,0.819,6.56,0.86c-0.123,2.542-0.533,6.15-0.533,6.15l-0.697,0.369c0,0-2.829-0.656-4.961-0.656
		c-1.64,0-2.009,0.287-2.009,0.656c0,0.246,0.123,0.369,0.41,0.41l2.501,0.409c4.756,0.779,6.642,2.583,6.642,6.232
		c0,4.92-2.542,7.872-9.348,7.872c-4.551,0-7.257-0.82-7.257-0.82C289.249,102.734,289.167,99.618,289.167,99.618z"/>
	<path fill="#FF524F" d="M313.029,106.588c-2.542,0-4.51-1.722-4.51-4.346s1.968-4.347,4.51-4.347s4.51,1.723,4.51,4.347
		S315.571,106.588,313.029,106.588z M313.357,77.806c2.87,0,3.69,1.066,3.69,2.952v5.494l-2.05,8.814h-3.936l-2.05-8.814v-5.494
		c0-1.886,0.697-2.952,3.567-2.952H313.357z"/>
</g>
<g>
	<path fill="#1D4259" d="M118.399,260.346c0,3.068-1.175,4.766-4.798,7.865l-1.501,1.371v0.164h5.973v5.352h-13.676v-4.21
		c0-2.644,1.697-4.178,3.819-6.169l1.795-1.664c1.697-1.6,1.86-2.154,1.86-2.904c0-0.719-0.555-1.633-2.513-1.633
		c-1.665,0-3.59,0.686-3.59,0.686l-0.49-0.262c0,0-0.326-2.382-0.522-4.438c0-0.033,2.644-1.339,6.234-1.339
		c4.863,0,7.409,2.938,7.409,6.821V260.346z"/>
	<path fill="#1D4259" d="M124.635,253.557H131l-4.667,13.252h1.665l1.697-4.766h3.786v4.766h1.534v5.352h-1.534v2.938h-6.528v-2.938
		h-7.115v-5.025L124.635,253.557z"/>
	<path fill="#1D4259" d="M148.203,250.945h4.994l-12.207,27.416h-4.994L148.203,250.945z"/>
	<path fill="#1D4259" d="M159.237,253.557h6.365l-4.667,13.252h1.665l1.697-4.766h3.786v4.766h1.534v5.352h-1.534v2.938h-6.528
		v-2.938h-7.115v-5.025L159.237,253.557z"/>
	<path fill="#1D4259" d="M172.948,264.458v-0.229c-1.24-1.077-1.86-2.709-1.86-4.472c0-4.373,3.101-6.593,7.507-6.593
		c4.406,0,7.343,2.22,7.343,5.94c0,1.86-0.783,3.492-2.056,4.309v0.13c1.404,0.946,2.546,2.579,2.546,4.863
		c0,4.603-2.48,7.083-7.833,7.083c-4.08,0-7.833-1.763-7.833-6.268C170.761,266.547,172.001,265.176,172.948,264.458z
		 M178.202,260.9l1.077,0.49c0.359-0.359,0.947-1.11,0.947-1.894c0-0.653-0.522-1.306-1.697-1.306s-1.567,0.686-1.567,1.24
		S177.19,260.443,178.202,260.9z M177.778,266.938c0,0-0.816,0.914-0.816,1.958c0,0.947,0.718,1.566,1.697,1.566
		c0.947,0,1.567-0.555,1.567-1.469c0-0.685-0.359-1.174-1.273-1.566L177.778,266.938z"/>
	<path fill="#1D4259" d="M195.21,275.098v-22.847h6.528v6.952h0.065c0.979-0.816,2.219-1.469,3.949-1.469
		c2.774,0,4.471,1.926,4.471,4.668v12.695h-6.527v-11.325c0-0.392-0.229-0.686-0.816-0.686c-0.588,0-1.143,0.327-1.143,0.327v11.684
		H195.21z"/>
</g>
<g>
	<path fill="#808080" d="M106.208,142.593v3.836h-1.596v-9.884h3.36c1.138,0,1.995,0.271,2.569,0.812
		c0.574,0.541,0.861,1.283,0.861,2.226c0,0.934-0.294,1.668-0.882,2.205c-0.588,0.537-1.438,0.805-2.548,0.805H106.208z
		 M109.778,139.583c0-0.56-0.156-0.987-0.469-1.281c-0.313-0.294-0.814-0.441-1.505-0.441h-1.596v3.43h1.596
		C109.121,141.291,109.778,140.722,109.778,139.583z"/>
	<path fill="#808080" d="M117.688,139.135c0.495,0.345,0.845,0.803,1.05,1.372v-1.792h1.596v7.714h-1.596v-1.792
		c-0.205,0.569-0.555,1.027-1.05,1.372s-1.092,0.518-1.792,0.518c-0.672,0-1.272-0.159-1.799-0.476
		c-0.528-0.317-0.94-0.775-1.239-1.372s-0.448-1.302-0.448-2.114c0-0.803,0.149-1.503,0.448-2.1s0.711-1.055,1.239-1.372
		c0.527-0.317,1.127-0.476,1.799-0.476C116.596,138.617,117.194,138.79,117.688,139.135z M114.686,140.696
		c-0.425,0.453-0.637,1.076-0.637,1.869c0,0.793,0.212,1.416,0.637,1.869c0.424,0.453,0.992,0.679,1.701,0.679
		c0.448,0,0.85-0.105,1.204-0.315s0.635-0.506,0.84-0.889c0.205-0.383,0.308-0.831,0.308-1.344c0-0.504-0.103-0.95-0.308-1.337
		c-0.206-0.387-0.486-0.686-0.84-0.896s-0.756-0.315-1.204-0.315C115.677,140.017,115.11,140.244,114.686,140.696z"/>
	<path fill="#808080" d="M124.968,139.03c0.485-0.294,1.045-0.441,1.68-0.441v1.736h-0.476c-0.7,0-1.263,0.17-1.687,0.511
		c-0.425,0.341-0.637,0.903-0.637,1.687v3.906h-1.596v-7.714h1.596v1.512C124.109,139.723,124.483,139.324,124.968,139.03z"/>
	<path fill="#808080" d="M132.724,139.135c0.495,0.345,0.845,0.803,1.05,1.372v-1.792h1.596v7.714h-1.596v-1.792
		c-0.205,0.569-0.555,1.027-1.05,1.372s-1.092,0.518-1.792,0.518c-0.672,0-1.272-0.159-1.799-0.476
		c-0.528-0.317-0.94-0.775-1.239-1.372s-0.448-1.302-0.448-2.114c0-0.803,0.149-1.503,0.448-2.1s0.711-1.055,1.239-1.372
		c0.527-0.317,1.127-0.476,1.799-0.476C131.632,138.617,132.229,138.79,132.724,139.135z M129.721,140.696
		c-0.425,0.453-0.637,1.076-0.637,1.869c0,0.793,0.212,1.416,0.637,1.869c0.424,0.453,0.992,0.679,1.701,0.679
		c0.448,0,0.85-0.105,1.204-0.315s0.635-0.506,0.84-0.889c0.205-0.383,0.308-0.831,0.308-1.344c0-0.504-0.103-0.95-0.308-1.337
		c-0.206-0.387-0.486-0.686-0.84-0.896s-0.756-0.315-1.204-0.315C130.713,140.017,130.146,140.244,129.721,140.696z"/>
	<path fill="#808080" d="M147.676,142.887h-5.936c0.028,0.793,0.247,1.381,0.658,1.764s0.919,0.574,1.526,0.574
		c0.532,0,0.982-0.135,1.351-0.406s0.595-0.63,0.679-1.078h1.708c-0.103,0.542-0.317,1.022-0.644,1.442s-0.751,0.749-1.274,0.987
		c-0.523,0.238-1.106,0.357-1.75,0.357c-0.747,0-1.407-0.159-1.981-0.476c-0.574-0.317-1.024-0.775-1.351-1.372
		s-0.49-1.302-0.49-2.114c0-0.803,0.163-1.503,0.49-2.1s0.777-1.055,1.351-1.372c0.574-0.317,1.234-0.476,1.981-0.476
		c0.756,0,1.416,0.156,1.981,0.469c0.564,0.312,0.999,0.742,1.302,1.288c0.303,0.546,0.455,1.155,0.455,1.827
		C147.731,142.462,147.713,142.691,147.676,142.887z M145.863,140.892c-0.191-0.34-0.453-0.592-0.784-0.756
		c-0.332-0.163-0.693-0.245-1.085-0.245c-0.625,0-1.148,0.191-1.568,0.574s-0.649,0.947-0.686,1.694h4.382
		C146.14,141.655,146.054,141.233,145.863,140.892z"/>
	<path fill="#808080" d="M155.74,139.457c0.541,0.579,0.812,1.405,0.812,2.478v4.494h-1.596v-4.326c0-0.69-0.177-1.225-0.532-1.603
		c-0.355-0.378-0.84-0.567-1.456-0.567c-0.635,0-1.144,0.203-1.526,0.609c-0.383,0.406-0.574,1.001-0.574,1.785v4.102h-1.596v-7.714
		h1.596v1.694c0.205-0.579,0.551-1.026,1.036-1.344c0.485-0.317,1.045-0.476,1.68-0.476
		C154.479,138.589,155.198,138.878,155.74,139.457z"/>
	<path fill="#808080" d="M164.322,139.408c0.653,0.527,1.059,1.244,1.218,2.149h-1.694c-0.093-0.485-0.32-0.866-0.679-1.141
		c-0.36-0.275-0.81-0.413-1.351-0.413c-0.616,0-1.129,0.217-1.54,0.651c-0.411,0.434-0.616,1.071-0.616,1.911
		c0,0.84,0.205,1.479,0.616,1.918c0.411,0.438,0.924,0.658,1.54,0.658c0.541,0,0.991-0.14,1.351-0.42
		c0.359-0.28,0.585-0.663,0.679-1.148h1.694c-0.159,0.905-0.564,1.624-1.218,2.156c-0.653,0.532-1.479,0.798-2.478,0.798
		c-0.747,0-1.407-0.159-1.981-0.476c-0.574-0.317-1.024-0.775-1.351-1.372s-0.49-1.302-0.49-2.114c0-0.803,0.163-1.503,0.49-2.1
		s0.777-1.055,1.351-1.372c0.574-0.317,1.234-0.476,1.981-0.476C162.842,138.617,163.668,138.881,164.322,139.408z"/>
	<path fill="#808080" d="M172.624,139.093c0.598,0.317,1.064,0.775,1.4,1.372s0.504,1.297,0.504,2.1
		c0,0.812-0.168,1.517-0.504,2.114s-0.803,1.055-1.4,1.372c-0.597,0.317-1.269,0.476-2.016,0.476c-0.747,0-1.417-0.159-2.009-0.476
		s-1.059-0.777-1.4-1.379s-0.511-1.304-0.511-2.107s0.17-1.503,0.511-2.1s0.807-1.055,1.4-1.372s1.262-0.476,2.009-0.476
		C171.354,138.617,172.026,138.776,172.624,139.093z M169.474,140.283c-0.345,0.187-0.623,0.474-0.833,0.861
		c-0.21,0.388-0.315,0.861-0.315,1.421c0,0.569,0.105,1.045,0.315,1.428c0.21,0.383,0.488,0.667,0.833,0.854
		c0.345,0.187,0.723,0.28,1.134,0.28c0.411,0,0.789-0.093,1.134-0.28c0.345-0.187,0.623-0.471,0.833-0.854
		c0.21-0.382,0.315-0.858,0.315-1.428c0-0.56-0.105-1.034-0.315-1.421c-0.21-0.387-0.488-0.674-0.833-0.861
		c-0.345-0.187-0.723-0.28-1.134-0.28C170.197,140.003,169.819,140.097,169.474,140.283z"/>
	<path fill="#808080" d="M187.905,139.457c0.546,0.579,0.819,1.405,0.819,2.478v4.494h-1.596v-4.326
		c0-0.672-0.168-1.192-0.504-1.561c-0.336-0.368-0.798-0.553-1.386-0.553c-0.625,0-1.123,0.198-1.491,0.595
		c-0.369,0.397-0.553,0.978-0.553,1.743v4.102h-1.596v-4.326c0-0.672-0.168-1.192-0.504-1.561c-0.336-0.368-0.798-0.553-1.386-0.553
		c-0.625,0-1.123,0.198-1.491,0.595c-0.369,0.397-0.553,0.978-0.553,1.743v4.102h-1.596v-7.714h1.596v1.61
		c0.196-0.56,0.522-0.989,0.98-1.288c0.457-0.298,0.994-0.448,1.61-0.448c0.644,0,1.202,0.159,1.673,0.476
		c0.471,0.317,0.814,0.774,1.029,1.372c0.224-0.579,0.583-1.031,1.078-1.358c0.495-0.327,1.055-0.49,1.68-0.49
		C186.628,138.589,187.358,138.878,187.905,139.457z"/>
	<path fill="#808080" d="M197.697,142.887h-5.936c0.028,0.793,0.247,1.381,0.658,1.764s0.919,0.574,1.526,0.574
		c0.532,0,0.982-0.135,1.351-0.406s0.595-0.63,0.679-1.078h1.708c-0.103,0.542-0.317,1.022-0.644,1.442s-0.751,0.749-1.274,0.987
		c-0.523,0.238-1.106,0.357-1.75,0.357c-0.747,0-1.407-0.159-1.981-0.476c-0.574-0.317-1.024-0.775-1.351-1.372
		s-0.49-1.302-0.49-2.114c0-0.803,0.163-1.503,0.49-2.1s0.777-1.055,1.351-1.372c0.574-0.317,1.234-0.476,1.981-0.476
		c0.756,0,1.416,0.156,1.981,0.469c0.564,0.312,0.999,0.742,1.302,1.288c0.303,0.546,0.455,1.155,0.455,1.827
		C197.753,142.462,197.734,142.691,197.697,142.887z M195.884,140.892c-0.191-0.34-0.453-0.592-0.784-0.756
		c-0.332-0.163-0.693-0.245-1.085-0.245c-0.625,0-1.148,0.191-1.568,0.574s-0.649,0.947-0.686,1.694h4.382
		C196.162,141.655,196.075,141.233,195.884,140.892z"/>
	<path fill="#808080" d="M205.761,139.457c0.541,0.579,0.812,1.405,0.812,2.478v4.494h-1.596v-4.326c0-0.69-0.177-1.225-0.532-1.603
		c-0.355-0.378-0.84-0.567-1.456-0.567c-0.635,0-1.144,0.203-1.526,0.609c-0.383,0.406-0.574,1.001-0.574,1.785v4.102h-1.596v-7.714
		h1.596v1.694c0.205-0.579,0.551-1.026,1.036-1.344c0.485-0.317,1.045-0.476,1.68-0.476
		C204.501,138.589,205.22,138.878,205.761,139.457z"/>
	<path fill="#808080" d="M213.321,139.135c0.495,0.345,0.84,0.803,1.036,1.372v-4.438h1.61v10.36h-1.61v-1.792
		c-0.196,0.569-0.542,1.027-1.036,1.372s-1.092,0.518-1.792,0.518c-0.672,0-1.272-0.159-1.799-0.476
		c-0.528-0.317-0.94-0.775-1.239-1.372s-0.448-1.302-0.448-2.114c0-0.803,0.149-1.503,0.448-2.1s0.711-1.055,1.239-1.372
		c0.527-0.317,1.127-0.476,1.799-0.476C212.229,138.617,212.827,138.79,213.321,139.135z M210.318,140.696
		c-0.425,0.453-0.637,1.076-0.637,1.869c0,0.793,0.212,1.416,0.637,1.869c0.424,0.453,0.992,0.679,1.701,0.679
		c0.448,0,0.85-0.105,1.204-0.315s0.635-0.506,0.84-0.889c0.205-0.383,0.308-0.831,0.308-1.344c0-0.504-0.103-0.95-0.308-1.337
		c-0.206-0.387-0.486-0.686-0.84-0.896s-0.756-0.315-1.204-0.315C211.31,140.017,210.743,140.244,210.318,140.696z"/>
	<path fill="#808080" d="M222.771,139.135c0.495,0.345,0.845,0.803,1.05,1.372v-1.792h1.596v7.714h-1.596v-1.792
		c-0.205,0.569-0.555,1.027-1.05,1.372s-1.092,0.518-1.792,0.518c-0.672,0-1.272-0.159-1.799-0.476
		c-0.528-0.317-0.94-0.775-1.239-1.372s-0.448-1.302-0.448-2.114c0-0.803,0.149-1.503,0.448-2.1s0.711-1.055,1.239-1.372
		c0.527-0.317,1.127-0.476,1.799-0.476C221.679,138.617,222.276,138.79,222.771,139.135z M219.768,140.696
		c-0.425,0.453-0.637,1.076-0.637,1.869c0,0.793,0.212,1.416,0.637,1.869c0.424,0.453,0.992,0.679,1.701,0.679
		c0.448,0,0.85-0.105,1.204-0.315s0.635-0.506,0.84-0.889c0.205-0.383,0.308-0.831,0.308-1.344c0-0.504-0.103-0.95-0.308-1.337
		c-0.206-0.387-0.486-0.686-0.84-0.896s-0.756-0.315-1.204-0.315C220.76,140.017,220.192,140.244,219.768,140.696z"/>
	<path fill="#808080" d="M232.045,139.31c0.546,0.462,0.88,1.081,1.001,1.855h-1.512c-0.065-0.42-0.245-0.758-0.539-1.015
		s-0.684-0.385-1.169-0.385c-0.401,0-0.712,0.096-0.931,0.287s-0.329,0.45-0.329,0.777c0,0.243,0.079,0.439,0.238,0.588
		c0.159,0.149,0.357,0.266,0.595,0.35c0.238,0.084,0.577,0.178,1.015,0.28c0.579,0.131,1.048,0.266,1.407,0.406
		c0.359,0.14,0.667,0.362,0.924,0.665s0.385,0.716,0.385,1.239c0,0.644-0.245,1.167-0.735,1.568c-0.49,0.401-1.15,0.602-1.981,0.602
		c-0.961,0-1.738-0.224-2.331-0.672c-0.593-0.448-0.95-1.073-1.071-1.876h1.554c0.046,0.42,0.233,0.761,0.56,1.022
		c0.327,0.262,0.756,0.392,1.288,0.392c0.383,0,0.684-0.1,0.903-0.301c0.219-0.201,0.329-0.455,0.329-0.763
		c0-0.271-0.084-0.485-0.252-0.644c-0.168-0.159-0.378-0.282-0.63-0.371c-0.252-0.088-0.597-0.179-1.036-0.273
		c-0.56-0.13-1.015-0.261-1.365-0.392c-0.35-0.131-0.649-0.343-0.896-0.637c-0.248-0.294-0.371-0.693-0.371-1.197
		c0-0.653,0.245-1.183,0.735-1.589c0.49-0.406,1.169-0.609,2.037-0.609C230.774,138.617,231.5,138.848,232.045,139.31z"/>
	<path fill="#808080" d="M242.713,139.31c0.546,0.462,0.88,1.081,1.001,1.855h-1.512c-0.065-0.42-0.245-0.758-0.539-1.015
		s-0.684-0.385-1.169-0.385c-0.401,0-0.712,0.096-0.931,0.287s-0.329,0.45-0.329,0.777c0,0.243,0.079,0.439,0.238,0.588
		c0.159,0.149,0.357,0.266,0.595,0.35c0.238,0.084,0.577,0.178,1.015,0.28c0.579,0.131,1.048,0.266,1.407,0.406
		c0.359,0.14,0.667,0.362,0.924,0.665s0.385,0.716,0.385,1.239c0,0.644-0.245,1.167-0.735,1.568c-0.49,0.401-1.15,0.602-1.981,0.602
		c-0.961,0-1.738-0.224-2.331-0.672c-0.593-0.448-0.95-1.073-1.071-1.876h1.554c0.046,0.42,0.233,0.761,0.56,1.022
		c0.327,0.262,0.756,0.392,1.288,0.392c0.383,0,0.684-0.1,0.903-0.301c0.219-0.201,0.329-0.455,0.329-0.763
		c0-0.271-0.084-0.485-0.252-0.644c-0.168-0.159-0.378-0.282-0.63-0.371c-0.252-0.088-0.597-0.179-1.036-0.273
		c-0.56-0.13-1.015-0.261-1.365-0.392c-0.35-0.131-0.649-0.343-0.896-0.637c-0.248-0.294-0.371-0.693-0.371-1.197
		c0-0.653,0.245-1.183,0.735-1.589c0.49-0.406,1.169-0.609,2.037-0.609C241.442,138.617,242.167,138.848,242.713,139.31z"/>
	<path fill="#808080" d="M252.507,138.715v7.714h-1.61v-1.68c-0.196,0.57-0.537,1.011-1.022,1.323
		c-0.485,0.313-1.05,0.469-1.694,0.469c-0.896,0-1.615-0.289-2.156-0.868c-0.542-0.579-0.812-1.405-0.812-2.478v-4.48h1.596v4.312
		c0,0.7,0.177,1.239,0.532,1.617c0.354,0.378,0.84,0.567,1.456,0.567c0.634,0,1.143-0.206,1.526-0.616
		c0.382-0.411,0.574-1.008,0.574-1.792v-4.088H252.507z"/>
	<path fill="#808080" d="M260.647,139.093c0.527,0.317,0.94,0.775,1.239,1.372c0.298,0.597,0.448,1.297,0.448,2.1
		c0,0.812-0.149,1.517-0.448,2.114c-0.299,0.597-0.712,1.055-1.239,1.372s-1.127,0.476-1.799,0.476c-0.7,0-1.297-0.173-1.792-0.518
		c-0.495-0.345-0.84-0.803-1.036-1.372v5.46h-1.596v-11.382h1.596v1.792c0.196-0.569,0.541-1.027,1.036-1.372
		c0.495-0.345,1.092-0.518,1.792-0.518C259.521,138.617,260.12,138.776,260.647,139.093z M257.154,140.332
		c-0.354,0.21-0.635,0.509-0.84,0.896c-0.206,0.388-0.308,0.833-0.308,1.337c0,0.513,0.103,0.961,0.308,1.344
		c0.205,0.383,0.485,0.679,0.84,0.889c0.355,0.21,0.756,0.315,1.204,0.315c0.709,0,1.279-0.226,1.708-0.679
		c0.429-0.453,0.644-1.076,0.644-1.869c0-0.784-0.215-1.405-0.644-1.862c-0.429-0.457-0.999-0.686-1.708-0.686
		C257.911,140.017,257.509,140.122,257.154,140.332z"/>
	<path fill="#808080" d="M270.986,142.887h-5.936c0.028,0.793,0.247,1.381,0.658,1.764s0.919,0.574,1.526,0.574
		c0.532,0,0.982-0.135,1.351-0.406s0.595-0.63,0.679-1.078h1.708c-0.103,0.542-0.317,1.022-0.644,1.442s-0.751,0.749-1.274,0.987
		c-0.523,0.238-1.106,0.357-1.75,0.357c-0.747,0-1.407-0.159-1.981-0.476c-0.574-0.317-1.024-0.775-1.351-1.372
		s-0.49-1.302-0.49-2.114c0-0.803,0.163-1.503,0.49-2.1s0.777-1.055,1.351-1.372c0.574-0.317,1.234-0.476,1.981-0.476
		c0.756,0,1.416,0.156,1.981,0.469c0.564,0.312,0.999,0.742,1.302,1.288c0.303,0.546,0.455,1.155,0.455,1.827
		C271.042,142.462,271.023,142.691,270.986,142.887z M269.173,140.892c-0.191-0.34-0.453-0.592-0.784-0.756
		c-0.332-0.163-0.693-0.245-1.085-0.245c-0.625,0-1.148,0.191-1.568,0.574s-0.649,0.947-0.686,1.694h4.382
		C269.451,141.655,269.364,141.233,269.173,140.892z"/>
	<path fill="#808080" d="M275.298,139.03c0.485-0.294,1.045-0.441,1.68-0.441v1.736h-0.476c-0.7,0-1.263,0.17-1.687,0.511
		c-0.425,0.341-0.637,0.903-0.637,1.687v3.906h-1.596v-7.714h1.596v1.512C274.439,139.723,274.813,139.324,275.298,139.03z"/>
	<path fill="#808080" d="M278.224,135.803c0.187-0.177,0.434-0.266,0.742-0.266c0.308,0,0.558,0.089,0.749,0.266
		c0.191,0.177,0.287,0.401,0.287,0.672c0,0.271-0.096,0.49-0.287,0.658c-0.191,0.168-0.441,0.252-0.749,0.252
		c-0.308,0-0.556-0.084-0.742-0.252c-0.187-0.168-0.28-0.387-0.28-0.658C277.944,136.205,278.037,135.98,278.224,135.803z
		 M279.764,138.715v7.714h-1.596v-7.714H279.764z"/>
	<path fill="#808080" d="M287.24,139.093c0.598,0.317,1.064,0.775,1.4,1.372s0.504,1.297,0.504,2.1c0,0.812-0.168,1.517-0.504,2.114
		s-0.803,1.055-1.4,1.372c-0.597,0.317-1.269,0.476-2.016,0.476c-0.747,0-1.417-0.159-2.009-0.476s-1.059-0.777-1.4-1.379
		s-0.511-1.304-0.511-2.107s0.17-1.503,0.511-2.1s0.807-1.055,1.4-1.372s1.262-0.476,2.009-0.476
		C285.971,138.617,286.643,138.776,287.24,139.093z M284.09,140.283c-0.345,0.187-0.623,0.474-0.833,0.861
		c-0.21,0.388-0.315,0.861-0.315,1.421c0,0.569,0.105,1.045,0.315,1.428c0.21,0.383,0.488,0.667,0.833,0.854
		c0.345,0.187,0.723,0.28,1.134,0.28c0.411,0,0.789-0.093,1.134-0.28c0.345-0.187,0.623-0.471,0.833-0.854
		c0.21-0.382,0.315-0.858,0.315-1.428c0-0.56-0.105-1.034-0.315-1.421c-0.21-0.387-0.488-0.674-0.833-0.861
		c-0.345-0.187-0.723-0.28-1.134-0.28C284.813,140.003,284.435,140.097,284.09,140.283z"/>
	<path fill="#808080" d="M293.4,139.03c0.485-0.294,1.045-0.441,1.68-0.441v1.736h-0.476c-0.7,0-1.263,0.17-1.687,0.511
		c-0.425,0.341-0.637,0.903-0.637,1.687v3.906h-1.596v-7.714h1.596v1.512C292.541,139.723,292.915,139.324,293.4,139.03z"/>
	<path fill="#808080" d="M303.382,142.887h-5.936c0.028,0.793,0.247,1.381,0.658,1.764s0.919,0.574,1.526,0.574
		c0.532,0,0.982-0.135,1.351-0.406s0.595-0.63,0.679-1.078h1.708c-0.103,0.542-0.317,1.022-0.644,1.442s-0.751,0.749-1.274,0.987
		c-0.523,0.238-1.106,0.357-1.75,0.357c-0.747,0-1.407-0.159-1.981-0.476c-0.574-0.317-1.024-0.775-1.351-1.372
		s-0.49-1.302-0.49-2.114c0-0.803,0.163-1.503,0.49-2.1s0.777-1.055,1.351-1.372c0.574-0.317,1.234-0.476,1.981-0.476
		c0.756,0,1.416,0.156,1.981,0.469c0.564,0.312,0.999,0.742,1.302,1.288c0.303,0.546,0.455,1.155,0.455,1.827
		C303.438,142.462,303.419,142.691,303.382,142.887z M301.569,140.892c-0.191-0.34-0.453-0.592-0.784-0.756
		c-0.332-0.163-0.693-0.245-1.085-0.245c-0.625,0-1.148,0.191-1.568,0.574s-0.649,0.947-0.686,1.694h4.382
		C301.846,141.655,301.76,141.233,301.569,140.892z"/>
	<path fill="#808080" d="M309.688,139.31c0.546,0.462,0.88,1.081,1.001,1.855h-1.512c-0.065-0.42-0.245-0.758-0.539-1.015
		s-0.684-0.385-1.169-0.385c-0.401,0-0.712,0.096-0.931,0.287s-0.329,0.45-0.329,0.777c0,0.243,0.079,0.439,0.238,0.588
		c0.159,0.149,0.357,0.266,0.595,0.35c0.238,0.084,0.577,0.178,1.015,0.28c0.579,0.131,1.048,0.266,1.407,0.406
		c0.359,0.14,0.667,0.362,0.924,0.665s0.385,0.716,0.385,1.239c0,0.644-0.245,1.167-0.735,1.568c-0.49,0.401-1.15,0.602-1.981,0.602
		c-0.961,0-1.738-0.224-2.331-0.672c-0.593-0.448-0.95-1.073-1.071-1.876h1.554c0.046,0.42,0.233,0.761,0.56,1.022
		c0.327,0.262,0.756,0.392,1.288,0.392c0.383,0,0.684-0.1,0.903-0.301c0.219-0.201,0.329-0.455,0.329-0.763
		c0-0.271-0.084-0.485-0.252-0.644c-0.168-0.159-0.378-0.282-0.63-0.371c-0.252-0.088-0.597-0.179-1.036-0.273
		c-0.56-0.13-1.015-0.261-1.365-0.392c-0.35-0.131-0.649-0.343-0.896-0.637c-0.248-0.294-0.371-0.693-0.371-1.197
		c0-0.653,0.245-1.183,0.735-1.589c0.49-0.406,1.169-0.609,2.037-0.609C308.417,138.617,309.143,138.848,309.688,139.31z"/>
	<path fill="#808080" d="M320.532,139.135c0.495,0.345,0.845,0.803,1.05,1.372v-1.792h1.596v7.714h-1.596v-1.792
		c-0.205,0.569-0.555,1.027-1.05,1.372s-1.092,0.518-1.792,0.518c-0.672,0-1.272-0.159-1.799-0.476
		c-0.528-0.317-0.94-0.775-1.239-1.372s-0.448-1.302-0.448-2.114c0-0.803,0.149-1.503,0.448-2.1s0.711-1.055,1.239-1.372
		c0.527-0.317,1.127-0.476,1.799-0.476C319.439,138.617,320.037,138.79,320.532,139.135z M317.529,140.696
		c-0.425,0.453-0.637,1.076-0.637,1.869c0,0.793,0.212,1.416,0.637,1.869c0.424,0.453,0.992,0.679,1.701,0.679
		c0.448,0,0.85-0.105,1.204-0.315s0.635-0.506,0.84-0.889c0.205-0.383,0.308-0.831,0.308-1.344c0-0.504-0.103-0.95-0.308-1.337
		c-0.206-0.387-0.486-0.686-0.84-0.896s-0.756-0.315-1.204-0.315C318.521,140.017,317.953,140.244,317.529,140.696z"/>
	<path fill="#808080" d="M333.285,136.58c0.467,0.229,0.819,0.544,1.057,0.945s0.357,0.849,0.357,1.344
		c0,0.625-0.175,1.146-0.525,1.561c-0.35,0.416-0.842,0.665-1.477,0.749v0.07c0.681,0.196,1.216,0.488,1.603,0.875
		c0.387,0.388,0.581,0.922,0.581,1.603c0,0.831-0.275,1.505-0.826,2.023c-0.551,0.518-1.339,0.777-2.366,0.777
		c-1.055,0-1.904-0.269-2.548-0.805s-1.013-1.332-1.106-2.387h1.582c0.056,0.56,0.257,1.006,0.602,1.337
		c0.345,0.331,0.812,0.497,1.4,0.497c0.551,0,0.973-0.145,1.267-0.434c0.294-0.29,0.441-0.663,0.441-1.12
		c0-0.551-0.212-0.971-0.637-1.26c-0.425-0.289-1.039-0.434-1.841-0.434h-0.378v-1.316h0.378c1.521,0.019,2.282-0.499,2.282-1.554
		c0-0.457-0.14-0.817-0.42-1.078c-0.28-0.261-0.663-0.392-1.148-0.392c-0.486,0-0.892,0.147-1.218,0.441
		c-0.327,0.294-0.523,0.721-0.588,1.281h-1.568c0.065-0.971,0.392-1.724,0.98-2.261c0.588-0.537,1.4-0.805,2.436-0.805
		C332.258,136.237,332.818,136.352,333.285,136.58z"/>
	<path fill="#808080" d="M338.752,144.805c0.294,0.29,0.693,0.434,1.197,0.434c0.709,0,1.239-0.282,1.589-0.847
		c0.35-0.564,0.525-1.454,0.525-2.667l-0.014-0.476c-0.149,0.504-0.46,0.908-0.931,1.211c-0.471,0.304-1.02,0.455-1.645,0.455
		c-0.971,0-1.731-0.292-2.282-0.875c-0.551-0.583-0.826-1.397-0.826-2.443c0-0.635,0.126-1.204,0.378-1.708s0.63-0.903,1.134-1.197
		c0.504-0.294,1.125-0.441,1.862-0.441c1.428,0,2.41,0.437,2.947,1.309c0.537,0.873,0.805,2.079,0.805,3.619
		c0,1.746-0.273,3.075-0.819,3.99c-0.546,0.915-1.454,1.372-2.723,1.372c-0.98,0-1.748-0.277-2.303-0.833
		c-0.555-0.555-0.875-1.267-0.959-2.135h1.512C338.274,144.105,338.458,144.516,338.752,144.805z M341.37,138.246
		c-0.35-0.406-0.875-0.609-1.575-0.609c-0.579,0-1.043,0.173-1.393,0.518c-0.35,0.345-0.525,0.831-0.525,1.456
		c0,0.663,0.175,1.171,0.525,1.526c0.35,0.355,0.828,0.532,1.435,0.532c0.354,0,0.688-0.072,1.001-0.217
		c0.312-0.145,0.567-0.359,0.763-0.644c0.196-0.285,0.294-0.632,0.294-1.043C341.895,139.159,341.72,138.652,341.37,138.246z"/>
	<path fill="#808080" d="M346.403,146.667c0,0.523-0.136,0.95-0.406,1.281c-0.271,0.331-0.682,0.497-1.232,0.497v-0.644
		c0.233,0,0.406-0.061,0.518-0.182c0.112-0.122,0.168-0.327,0.168-0.616v-0.126h-0.812v-1.54h1.512
		C346.319,145.767,346.403,146.21,346.403,146.667z"/>
	<path fill="#808080" d="M349.938,144.805c0.294,0.29,0.693,0.434,1.197,0.434c0.709,0,1.239-0.282,1.589-0.847
		c0.35-0.564,0.525-1.454,0.525-2.667l-0.014-0.476c-0.149,0.504-0.46,0.908-0.931,1.211c-0.471,0.304-1.02,0.455-1.645,0.455
		c-0.971,0-1.731-0.292-2.282-0.875c-0.551-0.583-0.826-1.397-0.826-2.443c0-0.635,0.126-1.204,0.378-1.708s0.63-0.903,1.134-1.197
		c0.504-0.294,1.125-0.441,1.862-0.441c1.428,0,2.41,0.437,2.947,1.309c0.536,0.873,0.806,2.079,0.806,3.619
		c0,1.746-0.273,3.075-0.819,3.99c-0.546,0.915-1.454,1.372-2.723,1.372c-0.98,0-1.748-0.277-2.303-0.833
		c-0.555-0.555-0.875-1.267-0.959-2.135h1.512C349.46,144.105,349.644,144.516,349.938,144.805z M352.556,138.246
		c-0.35-0.406-0.875-0.609-1.575-0.609c-0.579,0-1.043,0.173-1.393,0.518c-0.35,0.345-0.525,0.831-0.525,1.456
		c0,0.663,0.175,1.171,0.525,1.526c0.35,0.355,0.828,0.532,1.435,0.532c0.354,0,0.688-0.072,1.001-0.217
		c0.312-0.145,0.567-0.359,0.763-0.644c0.196-0.285,0.294-0.632,0.294-1.043C353.081,139.159,352.906,138.652,352.556,138.246z"/>
	<path fill="#808080" d="M356.119,141.417c0-1.568,0.279-2.795,0.84-3.682s1.493-1.33,2.801-1.33c1.307,0,2.239,0.446,2.799,1.337
		c0.561,0.892,0.84,2.116,0.84,3.675c0,1.568-0.279,2.8-0.84,3.696c-0.56,0.896-1.492,1.344-2.799,1.344
		c-1.308,0-2.24-0.445-2.801-1.337C356.398,144.229,356.119,142.995,356.119,141.417z M361.803,141.417
		c0-1.12-0.14-1.981-0.42-2.583c-0.279-0.602-0.821-0.903-1.623-0.903c-0.812,0-1.359,0.299-1.639,0.896
		c-0.279,0.598-0.42,1.461-0.42,2.59c0,1.139,0.141,2.012,0.42,2.618c0.279,0.607,0.826,0.91,1.639,0.91
		c0.802,0,1.344-0.303,1.623-0.91C361.663,143.429,361.803,142.556,361.803,141.417z"/>
	<path fill="#808080" d="M372.078,144.504c0.514-0.35,0.883-0.819,1.106-1.407h1.694c-0.28,1.055-0.819,1.888-1.617,2.499
		s-1.804,0.917-3.018,0.917c-1.166,0-2.155-0.322-2.967-0.966c-0.812-0.644-1.35-1.512-1.61-2.604h-1.302v-0.784h1.162
		c-0.02-0.298-0.028-0.522-0.028-0.672c0-0.131,0.009-0.317,0.028-0.56h-1.162v-0.798h1.273c0.252-1.12,0.786-2.014,1.604-2.681
		c0.816-0.667,1.817-1.001,3.002-1.001c1.214,0,2.22,0.308,3.018,0.924c0.798,0.616,1.337,1.452,1.617,2.506h-1.694
		c-0.224-0.598-0.591-1.071-1.099-1.421c-0.509-0.35-1.132-0.525-1.869-0.525c-0.682,0-1.281,0.194-1.799,0.581
		s-0.88,0.926-1.085,1.617h3.149v0.798h-3.318c-0.018,0.243-0.027,0.429-0.027,0.56c0,0.233,0.014,0.458,0.042,0.672h3.304v0.784
		h-3.121c0.224,0.653,0.588,1.164,1.092,1.533c0.504,0.369,1.092,0.553,1.764,0.553
		C370.945,145.029,371.565,144.854,372.078,144.504z"/>
</g>
<g>
	<circle fill="#CCCCCC" cx="104.834" cy="164.453" r="1.188"/>
	<circle fill="#CCCCCC" cx="112.07" cy="164.453" r="1.188"/>
	<circle fill="#CCCCCC" cx="119.307" cy="164.453" r="1.188"/>
	<circle fill="#CCCCCC" cx="126.543" cy="164.453" r="1.188"/>
	<circle fill="#CCCCCC" cx="133.779" cy="164.453" r="1.188"/>
	<circle fill="#CCCCCC" cx="141.015" cy="164.453" r="1.188"/>
	<circle fill="#CCCCCC" cx="148.251" cy="164.453" r="1.188"/>
	<circle fill="#CCCCCC" cx="155.488" cy="164.453" r="1.188"/>
	<circle fill="#CCCCCC" cx="162.724" cy="164.453" r="1.188"/>
	<circle fill="#CCCCCC" cx="169.96" cy="164.453" r="1.188"/>
	<circle fill="#CCCCCC" cx="177.196" cy="164.453" r="1.188"/>
	<circle fill="#CCCCCC" cx="184.433" cy="164.453" r="1.188"/>
	<circle fill="#CCCCCC" cx="191.669" cy="164.453" r="1.188"/>
	<circle fill="#CCCCCC" cx="198.905" cy="164.453" r="1.188"/>
	<circle fill="#CCCCCC" cx="206.142" cy="164.453" r="1.188"/>
	<circle fill="#CCCCCC" cx="213.378" cy="164.453" r="1.188"/>
	<circle fill="#CCCCCC" cx="220.614" cy="164.453" r="1.188"/>
	<circle fill="#CCCCCC" cx="227.851" cy="164.453" r="1.188"/>
	<circle fill="#CCCCCC" cx="235.086" cy="164.453" r="1.188"/>
	<circle fill="#CCCCCC" cx="242.323" cy="164.453" r="1.188"/>
	<circle fill="#CCCCCC" cx="249.559" cy="164.453" r="1.188"/>
	<circle fill="#CCCCCC" cx="256.795" cy="164.453" r="1.188"/>
	<circle fill="#CCCCCC" cx="264.031" cy="164.453" r="1.188"/>
	<circle fill="#CCCCCC" cx="270.905" cy="164.453" r="1.188"/>
	<circle fill="#CCCCCC" cx="278.142" cy="164.453" r="1.188"/>
	<circle fill="#CCCCCC" cx="285.378" cy="164.453" r="1.188"/>
	<circle fill="#CCCCCC" cx="292.614" cy="164.453" r="1.188"/>
	<circle fill="#CCCCCC" cx="299.851" cy="164.453" r="1.188"/>
	<circle fill="#CCCCCC" cx="307.086" cy="164.453" r="1.188"/>
	<circle fill="#CCCCCC" cx="314.323" cy="164.453" r="1.188"/>
	<circle fill="#CCCCCC" cx="321.559" cy="164.453" r="1.188"/>
	<circle fill="#CCCCCC" cx="328.795" cy="164.453" r="1.188"/>
	<circle fill="#CCCCCC" cx="336.031" cy="164.453" r="1.188"/>
	<circle fill="#CCCCCC" cx="343.268" cy="164.453" r="1.188"/>
	<g>
		<circle fill="#CCCCCC" cx="350.559" cy="164.453" r="1.188"/>
		<circle fill="#CCCCCC" cx="357.795" cy="164.453" r="1.188"/>
		<circle fill="#CCCCCC" cx="365.031" cy="164.453" r="1.188"/>
		<circle fill="#CCCCCC" cx="372.268" cy="164.453" r="1.188"/>
	</g>
</g>
<g>
	<path fill="#808080" d="M106.208,188.868v3.836h-1.596v-9.884h3.36c1.138,0,1.995,0.271,2.569,0.812
		c0.574,0.542,0.861,1.283,0.861,2.227c0,0.934-0.294,1.668-0.882,2.205c-0.588,0.536-1.438,0.805-2.548,0.805H106.208z
		 M109.778,185.858c0-0.561-0.156-0.987-0.469-1.281c-0.313-0.294-0.814-0.441-1.505-0.441h-1.596v3.431h1.596
		C109.121,187.566,109.778,186.997,109.778,185.858z"/>
	<path fill="#808080" d="M117.688,185.41c0.495,0.346,0.845,0.803,1.05,1.372v-1.792h1.596v7.714h-1.596v-1.792
		c-0.205,0.569-0.555,1.026-1.05,1.372s-1.092,0.518-1.792,0.518c-0.672,0-1.272-0.158-1.799-0.476
		c-0.528-0.317-0.94-0.774-1.239-1.372s-0.448-1.302-0.448-2.114c0-0.803,0.149-1.502,0.448-2.1s0.711-1.055,1.239-1.372
		c0.527-0.317,1.127-0.476,1.799-0.476C116.596,184.893,117.194,185.064,117.688,185.41z M114.686,186.971
		c-0.425,0.453-0.637,1.076-0.637,1.869c0,0.794,0.212,1.417,0.637,1.869c0.424,0.453,0.992,0.679,1.701,0.679
		c0.448,0,0.85-0.104,1.204-0.314s0.635-0.506,0.84-0.889c0.205-0.383,0.308-0.831,0.308-1.345c0-0.504-0.103-0.949-0.308-1.337
		c-0.206-0.387-0.486-0.686-0.84-0.896s-0.756-0.315-1.204-0.315C115.677,186.292,115.11,186.519,114.686,186.971z"/>
	<path fill="#808080" d="M124.968,185.305c0.485-0.294,1.045-0.44,1.68-0.44v1.736h-0.476c-0.7,0-1.263,0.17-1.687,0.511
		c-0.425,0.341-0.637,0.902-0.637,1.687v3.906h-1.596v-7.714h1.596v1.512C124.109,185.998,124.483,185.599,124.968,185.305z"/>
	<path fill="#808080" d="M132.724,185.41c0.495,0.346,0.845,0.803,1.05,1.372v-1.792h1.596v7.714h-1.596v-1.792
		c-0.205,0.569-0.555,1.026-1.05,1.372s-1.092,0.518-1.792,0.518c-0.672,0-1.272-0.158-1.799-0.476
		c-0.528-0.317-0.94-0.774-1.239-1.372s-0.448-1.302-0.448-2.114c0-0.803,0.149-1.502,0.448-2.1s0.711-1.055,1.239-1.372
		c0.527-0.317,1.127-0.476,1.799-0.476C131.632,184.893,132.229,185.064,132.724,185.41z M129.721,186.971
		c-0.425,0.453-0.637,1.076-0.637,1.869c0,0.794,0.212,1.417,0.637,1.869c0.424,0.453,0.992,0.679,1.701,0.679
		c0.448,0,0.85-0.104,1.204-0.314s0.635-0.506,0.84-0.889c0.205-0.383,0.308-0.831,0.308-1.345c0-0.504-0.103-0.949-0.308-1.337
		c-0.206-0.387-0.486-0.686-0.84-0.896s-0.756-0.315-1.204-0.315C130.713,186.292,130.146,186.519,129.721,186.971z"/>
	<path fill="#808080" d="M147.676,189.162h-5.936c0.028,0.793,0.247,1.382,0.658,1.764c0.411,0.383,0.919,0.574,1.526,0.574
		c0.532,0,0.982-0.135,1.351-0.406c0.369-0.271,0.595-0.63,0.679-1.078h1.708c-0.103,0.542-0.317,1.022-0.644,1.442
		s-0.751,0.749-1.274,0.987c-0.523,0.237-1.106,0.356-1.75,0.356c-0.747,0-1.407-0.158-1.981-0.476
		c-0.574-0.317-1.024-0.774-1.351-1.372s-0.49-1.302-0.49-2.114c0-0.803,0.163-1.502,0.49-2.1s0.777-1.055,1.351-1.372
		c0.574-0.317,1.234-0.476,1.981-0.476c0.756,0,1.416,0.156,1.981,0.469c0.564,0.312,0.999,0.742,1.302,1.288
		c0.303,0.546,0.455,1.154,0.455,1.827C147.731,188.737,147.713,188.966,147.676,189.162z M145.863,187.167
		c-0.191-0.341-0.453-0.593-0.784-0.756c-0.332-0.163-0.693-0.245-1.085-0.245c-0.625,0-1.148,0.191-1.568,0.574
		s-0.649,0.947-0.686,1.694h4.382C146.14,187.93,146.054,187.508,145.863,187.167z"/>
	<path fill="#808080" d="M155.74,185.732c0.541,0.578,0.812,1.404,0.812,2.478v4.494h-1.596v-4.326c0-0.69-0.177-1.225-0.532-1.603
		c-0.355-0.378-0.84-0.567-1.456-0.567c-0.635,0-1.144,0.203-1.526,0.609c-0.383,0.405-0.574,1.001-0.574,1.785v4.102h-1.596v-7.714
		h1.596v1.694c0.205-0.579,0.551-1.027,1.036-1.345c0.485-0.317,1.045-0.476,1.68-0.476
		C154.479,184.864,155.198,185.153,155.74,185.732z"/>
	<path fill="#808080" d="M164.322,185.683c0.653,0.528,1.059,1.244,1.218,2.149h-1.694c-0.093-0.485-0.32-0.865-0.679-1.141
		c-0.36-0.275-0.81-0.413-1.351-0.413c-0.616,0-1.129,0.217-1.54,0.65c-0.411,0.435-0.616,1.071-0.616,1.911
		s0.205,1.479,0.616,1.918c0.411,0.439,0.924,0.658,1.54,0.658c0.541,0,0.991-0.14,1.351-0.42c0.359-0.28,0.585-0.662,0.679-1.148
		h1.694c-0.159,0.906-0.564,1.624-1.218,2.156s-1.479,0.798-2.478,0.798c-0.747,0-1.407-0.158-1.981-0.476
		c-0.574-0.317-1.024-0.774-1.351-1.372s-0.49-1.302-0.49-2.114c0-0.803,0.163-1.502,0.49-2.1s0.777-1.055,1.351-1.372
		c0.574-0.317,1.234-0.476,1.981-0.476C162.842,184.893,163.668,185.156,164.322,185.683z"/>
	<path fill="#808080" d="M172.623,185.368c0.598,0.317,1.064,0.774,1.4,1.372s0.504,1.297,0.504,2.1
		c0,0.812-0.168,1.517-0.504,2.114s-0.803,1.055-1.4,1.372c-0.597,0.317-1.269,0.476-2.016,0.476c-0.747,0-1.417-0.158-2.009-0.476
		s-1.059-0.777-1.4-1.379c-0.341-0.603-0.511-1.305-0.511-2.107s0.17-1.502,0.511-2.1s0.807-1.055,1.4-1.372
		s1.262-0.476,2.009-0.476C171.354,184.893,172.026,185.051,172.623,185.368z M169.473,186.558
		c-0.345,0.188-0.623,0.475-0.833,0.861c-0.21,0.388-0.315,0.861-0.315,1.421c0,0.569,0.105,1.046,0.315,1.429
		s0.488,0.667,0.833,0.854s0.723,0.28,1.134,0.28c0.411,0,0.789-0.094,1.134-0.28s0.623-0.471,0.833-0.854s0.315-0.859,0.315-1.429
		c0-0.56-0.105-1.033-0.315-1.421c-0.21-0.387-0.488-0.674-0.833-0.861c-0.345-0.187-0.723-0.279-1.134-0.279
		C170.196,186.278,169.818,186.371,169.473,186.558z"/>
	<path fill="#808080" d="M187.905,185.732c0.546,0.578,0.819,1.404,0.819,2.478v4.494h-1.596v-4.326
		c0-0.672-0.168-1.192-0.504-1.561c-0.336-0.369-0.798-0.554-1.386-0.554c-0.625,0-1.123,0.199-1.491,0.596
		s-0.553,0.978-0.553,1.743v4.102h-1.596v-4.326c0-0.672-0.168-1.192-0.504-1.561c-0.336-0.369-0.798-0.554-1.386-0.554
		c-0.625,0-1.123,0.199-1.491,0.596c-0.369,0.396-0.553,0.978-0.553,1.743v4.102h-1.596v-7.714h1.596v1.61
		c0.196-0.561,0.522-0.989,0.98-1.288c0.457-0.299,0.994-0.448,1.61-0.448c0.644,0,1.202,0.158,1.673,0.476
		c0.471,0.317,0.814,0.775,1.029,1.372c0.224-0.578,0.583-1.031,1.078-1.357c0.495-0.327,1.055-0.49,1.68-0.49
		C186.628,184.864,187.358,185.153,187.905,185.732z"/>
	<path fill="#808080" d="M197.697,189.162h-5.936c0.028,0.793,0.247,1.382,0.658,1.764c0.411,0.383,0.919,0.574,1.526,0.574
		c0.532,0,0.982-0.135,1.351-0.406c0.369-0.271,0.595-0.63,0.679-1.078h1.708c-0.103,0.542-0.317,1.022-0.644,1.442
		s-0.751,0.749-1.274,0.987c-0.523,0.237-1.106,0.356-1.75,0.356c-0.747,0-1.407-0.158-1.981-0.476
		c-0.574-0.317-1.024-0.774-1.351-1.372s-0.49-1.302-0.49-2.114c0-0.803,0.163-1.502,0.49-2.1s0.777-1.055,1.351-1.372
		c0.574-0.317,1.234-0.476,1.981-0.476c0.756,0,1.416,0.156,1.981,0.469c0.564,0.312,0.999,0.742,1.302,1.288
		c0.303,0.546,0.455,1.154,0.455,1.827C197.753,188.737,197.734,188.966,197.697,189.162z M195.884,187.167
		c-0.191-0.341-0.453-0.593-0.784-0.756c-0.332-0.163-0.693-0.245-1.085-0.245c-0.625,0-1.148,0.191-1.568,0.574
		s-0.649,0.947-0.686,1.694h4.382C196.162,187.93,196.075,187.508,195.884,187.167z"/>
	<path fill="#808080" d="M205.761,185.732c0.541,0.578,0.812,1.404,0.812,2.478v4.494h-1.596v-4.326c0-0.69-0.177-1.225-0.532-1.603
		c-0.355-0.378-0.84-0.567-1.456-0.567c-0.635,0-1.144,0.203-1.526,0.609c-0.383,0.405-0.574,1.001-0.574,1.785v4.102h-1.596v-7.714
		h1.596v1.694c0.205-0.579,0.551-1.027,1.036-1.345c0.485-0.317,1.045-0.476,1.68-0.476
		C204.501,184.864,205.22,185.153,205.761,185.732z"/>
	<path fill="#808080" d="M213.321,185.41c0.495,0.346,0.84,0.803,1.036,1.372v-4.438h1.61v10.36h-1.61v-1.792
		c-0.196,0.569-0.542,1.026-1.036,1.372s-1.092,0.518-1.792,0.518c-0.672,0-1.272-0.158-1.799-0.476
		c-0.528-0.317-0.94-0.774-1.239-1.372s-0.448-1.302-0.448-2.114c0-0.803,0.149-1.502,0.448-2.1s0.711-1.055,1.239-1.372
		c0.527-0.317,1.127-0.476,1.799-0.476C212.229,184.893,212.827,185.064,213.321,185.41z M210.318,186.971
		c-0.425,0.453-0.637,1.076-0.637,1.869c0,0.794,0.212,1.417,0.637,1.869c0.424,0.453,0.992,0.679,1.701,0.679
		c0.448,0,0.85-0.104,1.204-0.314s0.635-0.506,0.84-0.889c0.205-0.383,0.308-0.831,0.308-1.345c0-0.504-0.103-0.949-0.308-1.337
		c-0.206-0.387-0.486-0.686-0.84-0.896s-0.756-0.315-1.204-0.315C211.31,186.292,210.743,186.519,210.318,186.971z"/>
	<path fill="#808080" d="M222.771,185.41c0.495,0.346,0.845,0.803,1.05,1.372v-1.792h1.596v7.714h-1.596v-1.792
		c-0.205,0.569-0.555,1.026-1.05,1.372s-1.092,0.518-1.792,0.518c-0.672,0-1.272-0.158-1.799-0.476
		c-0.528-0.317-0.94-0.774-1.239-1.372s-0.448-1.302-0.448-2.114c0-0.803,0.149-1.502,0.448-2.1s0.711-1.055,1.239-1.372
		c0.527-0.317,1.127-0.476,1.799-0.476C221.679,184.893,222.276,185.064,222.771,185.41z M219.768,186.971
		c-0.425,0.453-0.637,1.076-0.637,1.869c0,0.794,0.212,1.417,0.637,1.869c0.424,0.453,0.992,0.679,1.701,0.679
		c0.448,0,0.85-0.104,1.204-0.314s0.635-0.506,0.84-0.889c0.205-0.383,0.308-0.831,0.308-1.345c0-0.504-0.103-0.949-0.308-1.337
		c-0.206-0.387-0.486-0.686-0.84-0.896s-0.756-0.315-1.204-0.315C220.76,186.292,220.192,186.519,219.768,186.971z"/>
	<path fill="#808080" d="M232.045,185.585c0.546,0.462,0.88,1.08,1.001,1.855h-1.512c-0.065-0.42-0.245-0.759-0.539-1.016
		c-0.294-0.256-0.684-0.385-1.169-0.385c-0.401,0-0.712,0.096-0.931,0.287s-0.329,0.45-0.329,0.777c0,0.242,0.079,0.438,0.238,0.588
		s0.357,0.266,0.595,0.35c0.238,0.084,0.577,0.178,1.015,0.28c0.579,0.131,1.048,0.266,1.407,0.406
		c0.359,0.14,0.667,0.361,0.924,0.665c0.257,0.303,0.385,0.716,0.385,1.238c0,0.645-0.245,1.167-0.735,1.568
		c-0.49,0.401-1.15,0.602-1.981,0.602c-0.961,0-1.738-0.224-2.331-0.672s-0.95-1.073-1.071-1.876h1.554
		c0.046,0.42,0.233,0.761,0.56,1.022c0.327,0.261,0.756,0.392,1.288,0.392c0.383,0,0.684-0.1,0.903-0.301
		c0.219-0.2,0.329-0.455,0.329-0.763c0-0.271-0.084-0.485-0.252-0.645c-0.168-0.158-0.378-0.282-0.63-0.371
		c-0.252-0.088-0.597-0.18-1.036-0.272c-0.56-0.131-1.015-0.262-1.365-0.393c-0.35-0.13-0.649-0.343-0.896-0.637
		c-0.248-0.294-0.371-0.693-0.371-1.197c0-0.653,0.245-1.183,0.735-1.589c0.49-0.406,1.169-0.608,2.037-0.608
		C230.774,184.893,231.5,185.123,232.045,185.585z"/>
	<path fill="#808080" d="M238.059,182.078c0.187-0.177,0.434-0.266,0.742-0.266c0.308,0,0.558,0.089,0.749,0.266
		c0.191,0.178,0.287,0.401,0.287,0.672s-0.096,0.49-0.287,0.658c-0.191,0.168-0.441,0.252-0.749,0.252
		c-0.308,0-0.556-0.084-0.742-0.252c-0.187-0.168-0.28-0.388-0.28-0.658S237.872,182.256,238.059,182.078z M239.599,184.99v7.714
		h-1.596v-7.714H239.599z"/>
	<path fill="#808080" d="M247.999,185.732c0.541,0.578,0.812,1.404,0.812,2.478v4.494h-1.596v-4.326c0-0.69-0.177-1.225-0.532-1.603
		c-0.355-0.378-0.84-0.567-1.456-0.567c-0.635,0-1.144,0.203-1.526,0.609c-0.383,0.405-0.574,1.001-0.574,1.785v4.102h-1.596v-7.714
		h1.596v1.694c0.205-0.579,0.551-1.027,1.036-1.345c0.485-0.317,1.045-0.476,1.68-0.476
		C246.739,184.864,247.458,185.153,247.999,185.732z"/>
	<path fill="#808080" d="M252.955,183.695c-0.252,0.229-0.378,0.618-0.378,1.169v0.126h1.694v1.372h-1.694v6.342h-1.61v-6.342h-1.05
		v-1.372h1.05v-0.252c0-0.942,0.275-1.649,0.826-2.121s1.376-0.679,2.478-0.623v1.4
		C253.645,183.366,253.207,183.467,252.955,183.695z"/>
	<path fill="#808080" d="M262.671,189.162h-5.936c0.028,0.793,0.247,1.382,0.658,1.764c0.411,0.383,0.919,0.574,1.526,0.574
		c0.532,0,0.982-0.135,1.351-0.406c0.369-0.271,0.595-0.63,0.679-1.078h1.708c-0.103,0.542-0.317,1.022-0.644,1.442
		s-0.751,0.749-1.274,0.987c-0.523,0.237-1.106,0.356-1.75,0.356c-0.747,0-1.407-0.158-1.981-0.476
		c-0.574-0.317-1.024-0.774-1.351-1.372s-0.49-1.302-0.49-2.114c0-0.803,0.163-1.502,0.49-2.1s0.777-1.055,1.351-1.372
		c0.574-0.317,1.234-0.476,1.981-0.476c0.756,0,1.416,0.156,1.981,0.469c0.564,0.312,0.999,0.742,1.302,1.288
		c0.303,0.546,0.455,1.154,0.455,1.827C262.727,188.737,262.708,188.966,262.671,189.162z M260.858,187.167
		c-0.191-0.341-0.453-0.593-0.784-0.756c-0.332-0.163-0.693-0.245-1.085-0.245c-0.625,0-1.148,0.191-1.568,0.574
		s-0.649,0.947-0.686,1.694h4.382C261.135,187.93,261.049,187.508,260.858,187.167z"/>
	<path fill="#808080" d="M266.983,185.305c0.485-0.294,1.045-0.44,1.68-0.44v1.736h-0.476c-0.7,0-1.263,0.17-1.687,0.511
		c-0.425,0.341-0.637,0.902-0.637,1.687v3.906h-1.596v-7.714h1.596v1.512C266.124,185.998,266.498,185.599,266.983,185.305z"/>
	<path fill="#808080" d="M269.908,182.078c0.187-0.177,0.434-0.266,0.742-0.266c0.308,0,0.558,0.089,0.749,0.266
		c0.191,0.178,0.287,0.401,0.287,0.672s-0.096,0.49-0.287,0.658c-0.191,0.168-0.441,0.252-0.749,0.252
		c-0.308,0-0.556-0.084-0.742-0.252c-0.187-0.168-0.28-0.388-0.28-0.658S269.721,182.256,269.908,182.078z M271.448,184.99v7.714
		h-1.596v-7.714H271.448z"/>
	<path fill="#808080" d="M278.924,185.368c0.598,0.317,1.064,0.774,1.4,1.372s0.504,1.297,0.504,2.1
		c0,0.812-0.168,1.517-0.504,2.114s-0.803,1.055-1.4,1.372c-0.597,0.317-1.269,0.476-2.016,0.476c-0.747,0-1.417-0.158-2.009-0.476
		s-1.059-0.777-1.4-1.379c-0.341-0.603-0.511-1.305-0.511-2.107s0.17-1.502,0.511-2.1s0.807-1.055,1.4-1.372
		s1.262-0.476,2.009-0.476C277.655,184.893,278.327,185.051,278.924,185.368z M275.774,186.558
		c-0.345,0.188-0.623,0.475-0.833,0.861c-0.21,0.388-0.315,0.861-0.315,1.421c0,0.569,0.105,1.046,0.315,1.429
		s0.488,0.667,0.833,0.854s0.723,0.28,1.134,0.28c0.411,0,0.789-0.094,1.134-0.28s0.623-0.471,0.833-0.854s0.315-0.859,0.315-1.429
		c0-0.56-0.105-1.033-0.315-1.421c-0.21-0.387-0.488-0.674-0.833-0.861c-0.345-0.187-0.723-0.279-1.134-0.279
		C276.498,186.278,276.12,186.371,275.774,186.558z"/>
	<path fill="#808080" d="M285.084,185.305c0.485-0.294,1.045-0.44,1.68-0.44v1.736h-0.476c-0.7,0-1.263,0.17-1.687,0.511
		c-0.425,0.341-0.637,0.902-0.637,1.687v3.906h-1.596v-7.714h1.596v1.512C284.226,185.998,284.599,185.599,285.084,185.305z"/>
	<path fill="#808080" d="M295.066,189.162h-5.936c0.028,0.793,0.247,1.382,0.658,1.764c0.411,0.383,0.919,0.574,1.526,0.574
		c0.532,0,0.982-0.135,1.351-0.406c0.369-0.271,0.595-0.63,0.679-1.078h1.708c-0.103,0.542-0.317,1.022-0.644,1.442
		s-0.751,0.749-1.274,0.987c-0.523,0.237-1.106,0.356-1.75,0.356c-0.747,0-1.407-0.158-1.981-0.476
		c-0.574-0.317-1.024-0.774-1.351-1.372s-0.49-1.302-0.49-2.114c0-0.803,0.163-1.502,0.49-2.1s0.777-1.055,1.351-1.372
		c0.574-0.317,1.234-0.476,1.981-0.476c0.756,0,1.416,0.156,1.981,0.469c0.564,0.312,0.999,0.742,1.302,1.288
		c0.303,0.546,0.455,1.154,0.455,1.827C295.122,188.737,295.104,188.966,295.066,189.162z M293.253,187.167
		c-0.191-0.341-0.453-0.593-0.784-0.756c-0.332-0.163-0.693-0.245-1.085-0.245c-0.625,0-1.148,0.191-1.568,0.574
		s-0.649,0.947-0.686,1.694h4.382C293.531,187.93,293.444,187.508,293.253,187.167z"/>
	<path fill="#808080" d="M301.373,185.585c0.546,0.462,0.88,1.08,1.001,1.855h-1.512c-0.065-0.42-0.245-0.759-0.539-1.016
		c-0.294-0.256-0.684-0.385-1.169-0.385c-0.401,0-0.712,0.096-0.931,0.287s-0.329,0.45-0.329,0.777c0,0.242,0.079,0.438,0.238,0.588
		s0.357,0.266,0.595,0.35c0.238,0.084,0.577,0.178,1.015,0.28c0.579,0.131,1.048,0.266,1.407,0.406
		c0.359,0.14,0.667,0.361,0.924,0.665c0.257,0.303,0.385,0.716,0.385,1.238c0,0.645-0.245,1.167-0.735,1.568
		c-0.49,0.401-1.15,0.602-1.981,0.602c-0.961,0-1.738-0.224-2.331-0.672s-0.95-1.073-1.071-1.876h1.554
		c0.046,0.42,0.233,0.761,0.56,1.022c0.327,0.261,0.756,0.392,1.288,0.392c0.383,0,0.684-0.1,0.903-0.301
		c0.219-0.2,0.329-0.455,0.329-0.763c0-0.271-0.084-0.485-0.252-0.645c-0.168-0.158-0.378-0.282-0.63-0.371
		c-0.252-0.088-0.597-0.18-1.036-0.272c-0.56-0.131-1.015-0.262-1.365-0.393c-0.35-0.13-0.649-0.343-0.896-0.637
		c-0.248-0.294-0.371-0.693-0.371-1.197c0-0.653,0.245-1.183,0.735-1.589c0.49-0.406,1.169-0.608,2.037-0.608
		C300.102,184.893,300.827,185.123,301.373,185.585z"/>
	<path fill="#808080" d="M305.287,192.942c0,0.522-0.136,0.949-0.406,1.28c-0.271,0.332-0.682,0.497-1.232,0.497v-0.644
		c0.233,0,0.406-0.061,0.518-0.182c0.112-0.122,0.168-0.327,0.168-0.616v-0.126h-0.812v-1.54h1.512
		C305.202,192.042,305.287,192.485,305.287,192.942z"/>
	<path fill="#808080" d="M315.576,185.368c0.598,0.317,1.064,0.774,1.4,1.372s0.504,1.297,0.504,2.1
		c0,0.812-0.168,1.517-0.504,2.114s-0.803,1.055-1.4,1.372c-0.597,0.317-1.269,0.476-2.016,0.476c-0.747,0-1.417-0.158-2.009-0.476
		s-1.059-0.777-1.4-1.379c-0.341-0.603-0.511-1.305-0.511-2.107s0.17-1.502,0.511-2.1s0.807-1.055,1.4-1.372
		s1.262-0.476,2.009-0.476C314.307,184.893,314.979,185.051,315.576,185.368z M312.426,186.558
		c-0.345,0.188-0.623,0.475-0.833,0.861c-0.21,0.388-0.315,0.861-0.315,1.421c0,0.569,0.105,1.046,0.315,1.429
		s0.488,0.667,0.833,0.854s0.723,0.28,1.134,0.28c0.411,0,0.789-0.094,1.134-0.28s0.623-0.471,0.833-0.854s0.315-0.859,0.315-1.429
		c0-0.56-0.105-1.033-0.315-1.421c-0.21-0.387-0.488-0.674-0.833-0.861c-0.345-0.187-0.723-0.279-1.134-0.279
		C313.149,186.278,312.771,186.371,312.426,186.558z"/>
	<path fill="#808080" d="M323.731,185.585c0.546,0.462,0.88,1.08,1.001,1.855h-1.512c-0.065-0.42-0.245-0.759-0.539-1.016
		c-0.294-0.256-0.684-0.385-1.169-0.385c-0.401,0-0.712,0.096-0.931,0.287s-0.329,0.45-0.329,0.777c0,0.242,0.079,0.438,0.238,0.588
		s0.357,0.266,0.595,0.35c0.238,0.084,0.577,0.178,1.015,0.28c0.579,0.131,1.048,0.266,1.407,0.406
		c0.359,0.14,0.667,0.361,0.924,0.665c0.257,0.303,0.385,0.716,0.385,1.238c0,0.645-0.245,1.167-0.735,1.568
		c-0.49,0.401-1.15,0.602-1.981,0.602c-0.961,0-1.738-0.224-2.331-0.672s-0.95-1.073-1.071-1.876h1.554
		c0.046,0.42,0.233,0.761,0.56,1.022c0.327,0.261,0.756,0.392,1.288,0.392c0.383,0,0.684-0.1,0.903-0.301
		c0.219-0.2,0.329-0.455,0.329-0.763c0-0.271-0.084-0.485-0.252-0.645c-0.168-0.158-0.378-0.282-0.63-0.371
		c-0.252-0.088-0.597-0.18-1.036-0.272c-0.56-0.131-1.015-0.262-1.365-0.393c-0.35-0.13-0.649-0.343-0.896-0.637
		c-0.248-0.294-0.371-0.693-0.371-1.197c0-0.653,0.245-1.183,0.735-1.589c0.49-0.406,1.169-0.608,2.037-0.608
		C322.459,184.893,323.185,185.123,323.731,185.585z"/>
	<path fill="#808080" d="M335.911,185.368c0.527,0.317,0.94,0.774,1.239,1.372c0.298,0.598,0.448,1.297,0.448,2.1
		c0,0.812-0.149,1.517-0.448,2.114c-0.299,0.598-0.712,1.055-1.239,1.372s-1.127,0.476-1.799,0.476c-0.7,0-1.297-0.172-1.792-0.518
		c-0.495-0.346-0.84-0.803-1.036-1.372v5.46h-1.596V184.99h1.596v1.792c0.196-0.569,0.541-1.026,1.036-1.372
		c0.495-0.346,1.092-0.518,1.792-0.518C334.784,184.893,335.383,185.051,335.911,185.368z M332.417,186.607
		c-0.354,0.21-0.635,0.509-0.84,0.896c-0.206,0.388-0.308,0.833-0.308,1.337c0,0.514,0.103,0.962,0.308,1.345
		c0.205,0.383,0.485,0.679,0.84,0.889c0.355,0.21,0.756,0.314,1.204,0.314c0.709,0,1.279-0.226,1.708-0.679
		c0.429-0.452,0.644-1.075,0.644-1.869c0-0.784-0.215-1.404-0.644-1.861c-0.429-0.458-0.999-0.687-1.708-0.687
		C333.174,186.292,332.772,186.397,332.417,186.607z"/>
	<path fill="#808080" d="M344.682,185.368c0.598,0.317,1.064,0.774,1.4,1.372s0.504,1.297,0.504,2.1
		c0,0.812-0.168,1.517-0.504,2.114s-0.803,1.055-1.4,1.372c-0.597,0.317-1.269,0.476-2.016,0.476c-0.747,0-1.417-0.158-2.009-0.476
		s-1.059-0.777-1.4-1.379c-0.341-0.603-0.511-1.305-0.511-2.107s0.17-1.502,0.511-2.1s0.807-1.055,1.4-1.372
		s1.262-0.476,2.009-0.476C343.413,184.893,344.084,185.051,344.682,185.368z M341.532,186.558
		c-0.345,0.188-0.623,0.475-0.833,0.861c-0.21,0.388-0.315,0.861-0.315,1.421c0,0.569,0.105,1.046,0.315,1.429
		s0.488,0.667,0.833,0.854s0.723,0.28,1.134,0.28c0.411,0,0.789-0.094,1.134-0.28s0.623-0.471,0.833-0.854s0.315-0.859,0.315-1.429
		c0-0.56-0.105-1.033-0.315-1.421c-0.21-0.387-0.488-0.674-0.833-0.861c-0.345-0.187-0.723-0.279-1.134-0.279
		C342.255,186.278,341.877,186.371,341.532,186.558z"/>
	<path fill="#808080" d="M350.842,185.305c0.485-0.294,1.045-0.44,1.68-0.44v1.736h-0.476c-0.7,0-1.263,0.17-1.687,0.511
		c-0.425,0.341-0.637,0.902-0.637,1.687v3.906h-1.596v-7.714h1.596v1.512C349.983,185.998,350.356,185.599,350.842,185.305z"/>
	<path fill="#808080" d="M357.59,191.318v1.386h-0.98c-0.821,0-1.444-0.198-1.869-0.595c-0.424-0.396-0.637-1.058-0.637-1.981v-3.78
		h-1.106v-1.357h1.106v-1.918h1.609v1.918h1.863v1.357h-1.863v3.809c0,0.438,0.082,0.742,0.246,0.91
		c0.162,0.168,0.449,0.252,0.861,0.252H357.59z"/>
	<path fill="#808080" d="M366.199,189.162h-5.936c0.027,0.793,0.246,1.382,0.657,1.764c0.411,0.383,0.919,0.574,1.526,0.574
		c0.531,0,0.982-0.135,1.351-0.406c0.368-0.271,0.595-0.63,0.679-1.078h1.709c-0.104,0.542-0.318,1.022-0.645,1.442
		s-0.752,0.749-1.273,0.987c-0.523,0.237-1.106,0.356-1.75,0.356c-0.747,0-1.408-0.158-1.981-0.476
		c-0.574-0.317-1.024-0.774-1.351-1.372c-0.327-0.598-0.49-1.302-0.49-2.114c0-0.803,0.163-1.502,0.49-2.1
		c0.326-0.598,0.776-1.055,1.351-1.372c0.573-0.317,1.234-0.476,1.981-0.476c0.756,0,1.416,0.156,1.98,0.469
		s0.998,0.742,1.303,1.288c0.303,0.546,0.454,1.154,0.454,1.827C366.255,188.737,366.236,188.966,366.199,189.162z M364.387,187.167
		c-0.191-0.341-0.453-0.593-0.785-0.756c-0.331-0.163-0.692-0.245-1.084-0.245c-0.626,0-1.148,0.191-1.568,0.574
		s-0.648,0.947-0.686,1.694h4.381C364.664,187.93,364.577,187.508,364.387,187.167z"/>
	<path fill="#808080" d="M372.506,185.585c0.547,0.462,0.88,1.08,1.002,1.855h-1.513c-0.065-0.42-0.245-0.759-0.539-1.016
		c-0.294-0.256-0.684-0.385-1.169-0.385c-0.401,0-0.712,0.096-0.932,0.287c-0.219,0.191-0.328,0.45-0.328,0.777
		c0,0.242,0.079,0.438,0.238,0.588c0.158,0.149,0.356,0.266,0.594,0.35c0.238,0.084,0.577,0.178,1.016,0.28
		c0.578,0.131,1.048,0.266,1.407,0.406c0.358,0.14,0.667,0.361,0.924,0.665c0.257,0.303,0.386,0.716,0.386,1.238
		c0,0.645-0.246,1.167-0.736,1.568c-0.489,0.401-1.15,0.602-1.98,0.602c-0.961,0-1.738-0.224-2.331-0.672s-0.95-1.073-1.071-1.876
		h1.555c0.047,0.42,0.232,0.761,0.56,1.022c0.327,0.261,0.757,0.392,1.288,0.392c0.383,0,0.684-0.1,0.903-0.301
		c0.219-0.2,0.329-0.455,0.329-0.763c0-0.271-0.084-0.485-0.252-0.645c-0.168-0.158-0.379-0.282-0.631-0.371
		c-0.252-0.088-0.597-0.18-1.035-0.272c-0.561-0.131-1.016-0.262-1.365-0.393c-0.35-0.13-0.648-0.343-0.896-0.637
		c-0.247-0.294-0.371-0.693-0.371-1.197c0-0.653,0.246-1.183,0.735-1.589c0.49-0.406,1.169-0.608,2.037-0.608
		C371.234,184.893,371.96,185.123,372.506,185.585z"/>
	<path fill="#808080" d="M109.499,203.41c0.495,0.346,0.84,0.803,1.036,1.372v-4.438h1.61v10.36h-1.61v-1.792
		c-0.196,0.569-0.542,1.026-1.036,1.372s-1.092,0.518-1.792,0.518c-0.672,0-1.272-0.158-1.799-0.476
		c-0.528-0.317-0.94-0.774-1.239-1.372s-0.448-1.302-0.448-2.114c0-0.803,0.149-1.502,0.448-2.1s0.711-1.055,1.239-1.372
		c0.527-0.317,1.127-0.476,1.799-0.476C108.406,202.893,109.004,203.064,109.499,203.41z M106.496,204.971
		c-0.425,0.453-0.637,1.076-0.637,1.869c0,0.794,0.212,1.417,0.637,1.869c0.424,0.453,0.992,0.679,1.701,0.679
		c0.448,0,0.85-0.104,1.204-0.314s0.635-0.506,0.84-0.889c0.205-0.383,0.308-0.831,0.308-1.345c0-0.504-0.103-0.949-0.308-1.337
		c-0.206-0.387-0.486-0.686-0.84-0.896s-0.756-0.315-1.204-0.315C107.487,204.292,106.92,204.519,106.496,204.971z"/>
	<path fill="#808080" d="M121.174,207.162h-5.936c0.028,0.793,0.247,1.382,0.658,1.764c0.411,0.383,0.919,0.574,1.526,0.574
		c0.532,0,0.982-0.135,1.351-0.406c0.369-0.271,0.595-0.63,0.679-1.078h1.708c-0.103,0.542-0.317,1.022-0.644,1.442
		s-0.751,0.749-1.274,0.987c-0.523,0.237-1.106,0.356-1.75,0.356c-0.747,0-1.407-0.158-1.981-0.476
		c-0.574-0.317-1.024-0.774-1.351-1.372s-0.49-1.302-0.49-2.114c0-0.803,0.163-1.502,0.49-2.1s0.777-1.055,1.351-1.372
		c0.574-0.317,1.234-0.476,1.981-0.476c0.756,0,1.416,0.156,1.981,0.469c0.564,0.312,0.999,0.742,1.302,1.288
		c0.303,0.546,0.455,1.154,0.455,1.827C121.23,206.737,121.211,206.966,121.174,207.162z M119.361,205.167
		c-0.191-0.341-0.453-0.593-0.784-0.756c-0.332-0.163-0.693-0.245-1.085-0.245c-0.625,0-1.148,0.191-1.568,0.574
		s-0.649,0.947-0.686,1.694h4.382C119.639,205.93,119.552,205.508,119.361,205.167z"/>
	<path fill="#808080" d="M133.158,207.162h-5.936c0.028,0.793,0.247,1.382,0.658,1.764c0.411,0.383,0.919,0.574,1.526,0.574
		c0.532,0,0.982-0.135,1.351-0.406c0.369-0.271,0.595-0.63,0.679-1.078h1.708c-0.103,0.542-0.317,1.022-0.644,1.442
		s-0.751,0.749-1.274,0.987c-0.523,0.237-1.106,0.356-1.75,0.356c-0.747,0-1.407-0.158-1.981-0.476
		c-0.574-0.317-1.024-0.774-1.351-1.372s-0.49-1.302-0.49-2.114c0-0.803,0.163-1.502,0.49-2.1s0.777-1.055,1.351-1.372
		c0.574-0.317,1.234-0.476,1.981-0.476c0.756,0,1.416,0.156,1.981,0.469c0.564,0.312,0.999,0.742,1.302,1.288
		c0.303,0.546,0.455,1.154,0.455,1.827C133.214,206.737,133.195,206.966,133.158,207.162z M131.345,205.167
		c-0.191-0.341-0.453-0.593-0.784-0.756c-0.332-0.163-0.693-0.245-1.085-0.245c-0.625,0-1.148,0.191-1.568,0.574
		s-0.649,0.947-0.686,1.694h4.382C131.623,205.93,131.536,205.508,131.345,205.167z"/>
	<path fill="#808080" d="M141.222,203.732c0.541,0.578,0.812,1.404,0.812,2.478v4.494h-1.596v-4.326c0-0.69-0.177-1.225-0.532-1.603
		c-0.355-0.378-0.84-0.567-1.456-0.567c-0.635,0-1.144,0.203-1.526,0.609c-0.383,0.405-0.574,1.001-0.574,1.785v4.102h-1.596v-7.714
		h1.596v1.694c0.205-0.579,0.551-1.027,1.036-1.345c0.485-0.317,1.045-0.476,1.68-0.476
		C139.962,202.864,140.681,203.153,141.222,203.732z"/>
	<path fill="#808080" d="M147.06,209.052l2.184-6.062h1.708l-2.94,7.714h-1.932l-2.94-7.714h1.708L147.06,209.052z"/>
	<path fill="#808080" d="M152.184,200.078c0.187-0.177,0.434-0.266,0.742-0.266c0.308,0,0.558,0.089,0.749,0.266
		c0.191,0.178,0.287,0.401,0.287,0.672s-0.096,0.49-0.287,0.658c-0.191,0.168-0.441,0.252-0.749,0.252
		c-0.308,0-0.556-0.084-0.742-0.252c-0.187-0.168-0.28-0.388-0.28-0.658S151.997,200.256,152.184,200.078z M153.724,202.99v7.714
		h-1.596v-7.714H153.724z"/>
	<path fill="#808080" d="M161.2,203.368c0.598,0.317,1.064,0.774,1.4,1.372s0.504,1.297,0.504,2.1c0,0.812-0.168,1.517-0.504,2.114
		s-0.803,1.055-1.4,1.372c-0.597,0.317-1.269,0.476-2.016,0.476c-0.747,0-1.417-0.158-2.009-0.476s-1.059-0.777-1.4-1.379
		c-0.341-0.603-0.511-1.305-0.511-2.107s0.17-1.502,0.511-2.1s0.807-1.055,1.4-1.372s1.262-0.476,2.009-0.476
		C159.931,202.893,160.603,203.051,161.2,203.368z M158.05,204.558c-0.345,0.188-0.623,0.475-0.833,0.861
		c-0.21,0.388-0.315,0.861-0.315,1.421c0,0.569,0.105,1.046,0.315,1.429s0.488,0.667,0.833,0.854s0.723,0.28,1.134,0.28
		c0.411,0,0.789-0.094,1.134-0.28s0.623-0.471,0.833-0.854s0.315-0.859,0.315-1.429c0-0.56-0.105-1.033-0.315-1.421
		c-0.21-0.387-0.488-0.674-0.833-0.861c-0.345-0.187-0.723-0.279-1.134-0.279C158.773,204.278,158.395,204.371,158.05,204.558z"/>
	<path fill="#808080" d="M172.806,203.41c0.495,0.346,0.845,0.803,1.05,1.372v-1.792h1.596v7.714h-1.596v-1.792
		c-0.205,0.569-0.555,1.026-1.05,1.372s-1.092,0.518-1.792,0.518c-0.672,0-1.272-0.158-1.799-0.476
		c-0.528-0.317-0.94-0.774-1.239-1.372s-0.448-1.302-0.448-2.114c0-0.803,0.149-1.502,0.448-2.1s0.711-1.055,1.239-1.372
		c0.527-0.317,1.127-0.476,1.799-0.476C171.714,202.893,172.312,203.064,172.806,203.41z M169.803,204.971
		c-0.425,0.453-0.637,1.076-0.637,1.869c0,0.794,0.212,1.417,0.637,1.869c0.424,0.453,0.992,0.679,1.701,0.679
		c0.448,0,0.85-0.104,1.204-0.314s0.635-0.506,0.84-0.889c0.205-0.383,0.308-0.831,0.308-1.345c0-0.504-0.103-0.949-0.308-1.337
		c-0.206-0.387-0.486-0.686-0.84-0.896s-0.756-0.315-1.204-0.315C170.795,204.292,170.228,204.519,169.803,204.971z"/>
	<path fill="#808080" d="M180.17,208.576v-1.344l4.914-6.496h1.708v6.439h1.386v1.4h-1.386v2.128h-1.61v-2.128H180.17z
		 M185.293,202.64l-3.472,4.536h3.472V202.64z"/>
	<path fill="#808080" d="M190.768,210.942c0,0.522-0.136,0.949-0.406,1.28c-0.271,0.332-0.682,0.497-1.232,0.497v-0.644
		c0.233,0,0.406-0.061,0.518-0.182c0.112-0.122,0.168-0.327,0.168-0.616v-0.126h-0.812v-1.54h1.512
		C190.683,210.042,190.768,210.485,190.768,210.942z"/>
	<path fill="#808080" d="M194.302,209.08c0.294,0.289,0.693,0.434,1.197,0.434c0.709,0,1.239-0.282,1.589-0.847
		s0.525-1.453,0.525-2.667l-0.014-0.476c-0.149,0.504-0.46,0.907-0.931,1.211c-0.471,0.303-1.02,0.455-1.645,0.455
		c-0.971,0-1.731-0.292-2.282-0.875c-0.551-0.584-0.826-1.397-0.826-2.443c0-0.635,0.126-1.204,0.378-1.708s0.63-0.903,1.134-1.197
		c0.504-0.294,1.125-0.44,1.862-0.44c1.428,0,2.41,0.437,2.947,1.309c0.537,0.873,0.805,2.079,0.805,3.619
		c0,1.745-0.273,3.075-0.819,3.99c-0.546,0.915-1.454,1.372-2.723,1.372c-0.98,0-1.748-0.278-2.303-0.833
		c-0.555-0.556-0.875-1.268-0.959-2.136h1.512C193.824,208.38,194.008,208.791,194.302,209.08z M196.92,202.521
		c-0.35-0.406-0.875-0.609-1.575-0.609c-0.579,0-1.043,0.173-1.393,0.518c-0.35,0.346-0.525,0.831-0.525,1.456
		c0,0.663,0.175,1.172,0.525,1.526c0.35,0.354,0.828,0.532,1.435,0.532c0.354,0,0.688-0.072,1.001-0.217
		c0.312-0.146,0.567-0.359,0.763-0.645c0.196-0.284,0.294-0.632,0.294-1.043C197.445,203.434,197.271,202.927,196.92,202.521z"/>
	<path fill="#808080" d="M202.786,209.08c0.294,0.289,0.693,0.434,1.197,0.434c0.709,0,1.239-0.282,1.589-0.847
		s0.525-1.453,0.525-2.667l-0.014-0.476c-0.149,0.504-0.46,0.907-0.931,1.211c-0.471,0.303-1.02,0.455-1.645,0.455
		c-0.971,0-1.731-0.292-2.282-0.875c-0.551-0.584-0.826-1.397-0.826-2.443c0-0.635,0.126-1.204,0.378-1.708s0.63-0.903,1.134-1.197
		c0.504-0.294,1.125-0.44,1.862-0.44c1.428,0,2.41,0.437,2.947,1.309c0.537,0.873,0.805,2.079,0.805,3.619
		c0,1.745-0.273,3.075-0.819,3.99c-0.546,0.915-1.454,1.372-2.723,1.372c-0.98,0-1.748-0.278-2.303-0.833
		c-0.555-0.556-0.875-1.268-0.959-2.136h1.512C202.308,208.38,202.492,208.791,202.786,209.08z M205.404,202.521
		c-0.35-0.406-0.875-0.609-1.575-0.609c-0.579,0-1.043,0.173-1.393,0.518c-0.35,0.346-0.525,0.831-0.525,1.456
		c0,0.663,0.175,1.172,0.525,1.526c0.35,0.354,0.828,0.532,1.435,0.532c0.354,0,0.688-0.072,1.001-0.217
		c0.312-0.146,0.567-0.359,0.763-0.645c0.196-0.284,0.294-0.632,0.294-1.043C205.929,203.434,205.754,202.927,205.404,202.521z"/>
	<path fill="#808080" d="M216.205,208.779c0.513-0.351,0.882-0.819,1.106-1.407h1.694c-0.28,1.055-0.819,1.888-1.617,2.499
		s-1.804,0.917-3.017,0.917c-1.167,0-2.156-0.322-2.968-0.966c-0.812-0.645-1.349-1.512-1.61-2.604h-1.302v-0.783h1.162
		c-0.019-0.299-0.028-0.523-0.028-0.673c0-0.13,0.009-0.316,0.028-0.56h-1.162v-0.798h1.274c0.252-1.12,0.786-2.014,1.603-2.682
		c0.817-0.667,1.818-1.001,3.003-1.001c1.213,0,2.219,0.309,3.017,0.925c0.798,0.615,1.337,1.451,1.617,2.506h-1.694
		c-0.224-0.598-0.59-1.071-1.099-1.421c-0.509-0.351-1.132-0.525-1.869-0.525c-0.682,0-1.281,0.194-1.799,0.581
		c-0.518,0.388-0.88,0.927-1.085,1.617h3.15v0.798h-3.318c-0.019,0.243-0.028,0.43-0.028,0.56c0,0.233,0.014,0.458,0.042,0.673
		h3.304v0.783h-3.122c0.224,0.653,0.588,1.165,1.092,1.533c0.504,0.369,1.092,0.553,1.764,0.553
		C215.071,209.304,215.692,209.129,216.205,208.779z"/>
</g>
<g>
	<circle fill="#CCCCCC" cx="104.834" cy="230.453" r="1.188"/>
	<circle fill="#CCCCCC" cx="112.07" cy="230.453" r="1.188"/>
	<circle fill="#CCCCCC" cx="119.307" cy="230.453" r="1.188"/>
	<circle fill="#CCCCCC" cx="126.543" cy="230.453" r="1.188"/>
	<circle fill="#CCCCCC" cx="133.779" cy="230.453" r="1.188"/>
	<circle fill="#CCCCCC" cx="141.015" cy="230.453" r="1.188"/>
	<circle fill="#CCCCCC" cx="148.251" cy="230.453" r="1.188"/>
	<circle fill="#CCCCCC" cx="155.488" cy="230.453" r="1.188"/>
	<circle fill="#CCCCCC" cx="162.724" cy="230.453" r="1.188"/>
	<circle fill="#CCCCCC" cx="169.96" cy="230.453" r="1.188"/>
	<circle fill="#CCCCCC" cx="177.196" cy="230.453" r="1.188"/>
	<circle fill="#CCCCCC" cx="184.433" cy="230.453" r="1.188"/>
	<circle fill="#CCCCCC" cx="191.669" cy="230.453" r="1.188"/>
	<circle fill="#CCCCCC" cx="198.905" cy="230.453" r="1.188"/>
	<circle fill="#CCCCCC" cx="206.142" cy="230.453" r="1.188"/>
	<circle fill="#CCCCCC" cx="213.378" cy="230.453" r="1.188"/>
	<circle fill="#CCCCCC" cx="220.614" cy="230.453" r="1.188"/>
	<circle fill="#CCCCCC" cx="227.851" cy="230.453" r="1.188"/>
	<circle fill="#CCCCCC" cx="235.086" cy="230.453" r="1.188"/>
	<circle fill="#CCCCCC" cx="242.323" cy="230.453" r="1.188"/>
	<circle fill="#CCCCCC" cx="249.559" cy="230.453" r="1.188"/>
	<circle fill="#CCCCCC" cx="256.795" cy="230.453" r="1.188"/>
	<circle fill="#CCCCCC" cx="264.031" cy="230.453" r="1.188"/>
	<circle fill="#CCCCCC" cx="270.905" cy="230.453" r="1.188"/>
	<circle fill="#CCCCCC" cx="278.142" cy="230.453" r="1.188"/>
	<circle fill="#CCCCCC" cx="285.378" cy="230.453" r="1.188"/>
	<circle fill="#CCCCCC" cx="292.614" cy="230.453" r="1.188"/>
	<circle fill="#CCCCCC" cx="299.851" cy="230.453" r="1.188"/>
	<circle fill="#CCCCCC" cx="307.086" cy="230.453" r="1.188"/>
	<circle fill="#CCCCCC" cx="314.323" cy="230.453" r="1.188"/>
	<circle fill="#CCCCCC" cx="321.559" cy="230.453" r="1.188"/>
	<circle fill="#CCCCCC" cx="328.795" cy="230.453" r="1.188"/>
	<g>
		<circle fill="#CCCCCC" cx="336.086" cy="230.453" r="1.188"/>
		<circle fill="#CCCCCC" cx="343.323" cy="230.453" r="1.188"/>
		<circle fill="#CCCCCC" cx="350.559" cy="230.453" r="1.188"/>
		<circle fill="#CCCCCC" cx="357.795" cy="230.453" r="1.188"/>
		<circle fill="#CCCCCC" cx="365.031" cy="230.453" r="1.188"/>
		<circle fill="#CCCCCC" cx="372.268" cy="230.453" r="1.188"/>
	</g>
</g>
</svg>
