<?xml version="1.0" encoding="utf-8"?>
<!-- Generator: Adobe Illustrator 16.0.0, SVG Export Plug-In . SVG Version: 6.00 Build 0)  -->
<!DOCTYPE svg PUBLIC "-//W3C//DTD SVG 1.1//EN" "http://www.w3.org/Graphics/SVG/1.1/DTD/svg11.dtd">
<svg version="1.1" id="Layer_1" xmlns="http://www.w3.org/2000/svg" xmlns:xlink="http://www.w3.org/1999/xlink" x="0px" y="0px"
	 width="35px" height="25px" viewBox="0 0 35 25" enable-background="new 0 0 35 25" xml:space="preserve">
<g>
	<g>
		<path fill="#412747" d="M33.246,15.2h-0.9v-1.801c0-1.988-1.611-3.6-3.6-3.6s-3.6,1.612-3.6,3.6V15.2h-0.9
			c-0.497,0-0.9,0.402-0.9,0.899v7.2c0,0.498,0.403,0.9,0.9,0.9h9c0.497,0,0.9-0.402,0.9-0.9v-7.2
			C34.146,15.603,33.743,15.2,33.246,15.2z M26.946,13.399c0-0.994,0.806-1.8,1.8-1.8s1.8,0.806,1.8,1.8V15.2h-3.6V13.399z
			 M32.346,22.399h-7.199V17h7.199V22.399z"/>
		<circle fill="#412747" cx="28.746" cy="19.7" r="0.9"/>
	</g>
	<path fill="#412747" d="M22.221,20.6H3.553c-0.497,0-0.899-0.402-0.899-0.899V11.6h21.729c0.292-0.708,0.764-1.314,1.341-1.8H2.653
		V8h25.2v0.765c0.29-0.056,0.587-0.09,0.893-0.09c0.312,0,0.613,0.034,0.907,0.092V2.6c0-0.995-0.806-1.8-1.8-1.8h-25.2
		c-0.995,0-1.8,0.805-1.8,1.8v18c0,0.995,0.805,1.8,1.8,1.8h19.567V20.6z M2.653,3.5c0-0.498,0.402-0.9,0.899-0.9h23.4
		c0.497,0,0.9,0.403,0.9,0.9v2.7h-25.2V3.5z"/>
	<path fill="#412747" d="M7.153,17h7.2c0.497,0,0.899-0.403,0.899-0.9S14.851,15.2,14.354,15.2h-7.2c-0.498,0-0.9,0.402-0.9,0.899
		S6.655,17,7.153,17z"/>
</g>
</svg>
