<?xml version="1.0" encoding="utf-8"?>
<!-- Generator: Adobe Illustrator 16.0.0, SVG Export Plug-In . SVG Version: 6.00 Build 0)  -->
<!DOCTYPE svg PUBLIC "-//W3C//DTD SVG 1.1//EN" "http://www.w3.org/Graphics/SVG/1.1/DTD/svg11.dtd">
<svg version="1.1" id="Layer_1" xmlns="http://www.w3.org/2000/svg" xmlns:xlink="http://www.w3.org/1999/xlink" x="0px" y="0px"
	 width="24px" height="24px" viewBox="0 0 24 24" enable-background="new 0 0 24 24" xml:space="preserve">
<g>
	<path fill="#FFFFFF" d="M16.396,15.686l-0.172-0.101c-0.603-0.351-0.968-0.562-1.309-0.562c-0.423,0-0.739,0.32-1.229,0.979
		c-0.033,0.035-0.096,0.117-0.165,0.208c-0.043,0.056-0.085,0.114-0.126,0.163c-0.173,0.216-0.301,0.243-0.392,0.243
		c-0.17,0-0.376-0.109-0.633-0.253c-1.763-0.998-3.278-2.482-4.634-4.537c-0.115-0.175-0.221-0.32-0.312-0.443
		c-0.429-0.589-0.437-0.6,0.524-1.499L8.16,9.69c0.146-0.135,0.293-0.269,0.436-0.414c0.229-0.23,0.267-0.472,0.125-0.785
		C7.958,6.811,7.018,5.378,5.923,4.233C5.634,3.93,5.404,3.86,5.002,3.98C3.732,4.36,2.603,4.876,1.548,5.557
		C1.127,5.829,0.979,6.114,1.002,6.609c0.06,1.295,0.422,2.625,1.144,4.186c2.024,4.385,5.242,7.869,9.562,10.353
		c1.728,0.994,3.508,1.596,5.437,1.84C17.188,22.996,17.229,23,17.27,23c0.325,0,0.545-0.262,0.718-0.516
		c0.828-1.236,1.315-2.609,1.646-3.666c0.112-0.357,0.047-0.605-0.233-0.886C18.583,17.115,17.599,16.381,16.396,15.686z
		 M6.98,8.927C6.957,8.954,6.933,8.983,6.906,9.01L6.864,9.057c-1.331,1.42-1.403,1.568-0.365,3.287
		c1.608,2.657,3.696,4.557,6.206,5.65c0.181,0.078,0.356,0.148,0.534,0.148c0.232,0,0.427-0.12,0.615-0.377
		c0.043-0.059,0.237-0.305,0.237-0.307c0.521-0.674,0.769-0.891,1.028-0.891c0.269,0,0.618,0.229,1.198,0.609l0.235,0.152
		c0.273,0.178,0.535,0.389,0.791,0.592l0.206,0.163c0.827,0.651,0.827,0.651,0.414,1.599c-0.152,0.35-0.327,0.699-0.497,1.036
		c-0.074,0.146-0.147,0.294-0.22,0.44c-0.177,0.357-0.289,0.421-0.459,0.421l0,0c-0.054,0-0.114-0.007-0.181-0.021
		c-1.47-0.282-2.895-0.809-4.238-1.566c-3.669-2.069-6.571-5.061-8.63-8.889C3.103,9.919,2.708,8.65,2.314,7.109
		C2.231,6.781,2.319,6.585,2.617,6.431l0.081-0.042C3.293,6.08,3.907,5.76,4.532,5.5c0.157-0.064,0.292-0.097,0.415-0.097
		c0.239,0,0.436,0.123,0.62,0.388C6.11,6.566,6.678,7.397,7.171,8.286c0.134,0.239,0.12,0.302-0.117,0.558
		C7.029,8.87,7.005,8.898,6.98,8.927z"/>
	<path fill="#FFFFFF" d="M21.271,1.005c-1.565-0.008-7.882-0.006-9.476,0c-0.99,0.004-1.685,0.679-1.685,1.642v6.486
		c0.009,0.86,0.478,1.374,1.257,1.374l0.855,0.003c0.265,0,0.294,0.072,0.294,0.228l-0.002,0.531
		c-0.003,0.286-0.003,0.53,0.002,0.822c0.002,0.227,0.002,0.419,0,0.575v0.196c0.056,0.615,0.331,1.015,0.816,1.19
		c0.123,0.045,0.246,0.068,0.365,0.068c0.35,0,0.667-0.188,0.976-0.572l0.185-0.232c0.566-0.709,1.154-1.442,1.678-2.206
		c0.234-0.344,0.425-0.442,0.852-0.442l2.536,0.005c0.422,0,0.847-0.002,1.269-0.005c1.206-0.01,1.782-0.552,1.809-1.706V2.664
		C23,1.599,22.387,1.011,21.271,1.005z M13.132,9.299c-0.106-0.003-0.208-0.004-0.304-0.004l-0.496,0.004
		c-0.861,0-0.878-0.015-0.878-0.792V8.303c0-0.246,0-0.614,0-0.763c-0.005-0.561-0.002-1.123,0-1.684c0-0.958,0-1.915-0.013-2.873
		c-0.005-0.283,0.038-0.462,0.137-0.565c0.103-0.105,0.287-0.154,0.58-0.154h8.804c0.629,0,0.741,0.2,0.741,0.76v5.621
		c0.004,0.269-0.034,0.437-0.123,0.528C21.499,9.26,21.347,9.3,21.103,9.3L17.01,9.299c-0.569,0-0.866,0.145-1.183,0.574
		c-0.466,0.637-0.966,1.266-1.449,1.875c-0.172,0.216-0.343,0.431-0.507,0.64v-2.322C13.871,9.545,13.649,9.315,13.132,9.299z"/>
	<path fill="#FFFFFF" d="M13.649,5.276h5.966c0.367,0,0.668-0.305,0.668-0.68c0-0.375-0.301-0.681-0.668-0.681h-5.966
		c-0.369,0-0.667,0.305-0.667,0.681C12.982,4.972,13.28,5.276,13.649,5.276z"/>
	<path fill="#FFFFFF" d="M18.204,6.566c0-0.375-0.3-0.68-0.669-0.68h-3.886c-0.369,0-0.667,0.305-0.667,0.68
		c0,0.376,0.298,0.68,0.667,0.68h3.886C17.904,7.246,18.204,6.942,18.204,6.566z"/>
</g>
</svg>
